<svg xmlns="http://www.w3.org/2000/svg" xmlns:xlink="http://www.w3.org/1999/xlink" version="1.1" x="0px" y="0px" width="801px" height="146.7px" viewBox="-110 -20.1 801 146.7" style="enable-background:new -110 -20.1 801 146.7;" xml:space="preserve"><g><path d="M-110 103.9c267 0 534 0 801 0c0 7.6 0 15 0 22.6c-267 0-534 0-801 0C-110 119-110 111.5-110 103.9z"/><path d="M691 2.5c-244.8 0-489.8 0-735.5 0c0-7.7 0-15.2 0-22.6c245.1 0 490.3 0 735.5 0C691-12.6 691-5.1 691 2.5z"/><path d="M-110 9.2c15.7 0 31.4 0.1 47.2 0c10.2-0.1 18.6 3.6 25.9 10.9c5.5 5.5 9.2 11.4 10.5 19.3c1.1 7 4.3 13.5 0 20.8 c-1.4 2.2 0.8 6.3-0.4 8.8c-5.2 11-12.7 20.5-23.7 25.6c-4 1.9-9.2 3-14.6 2.9c-14.8-0.8-29.8-0.4-44.8-0.4 C-110 67.8-110 38.4-110 9.2z M-78 36.5c0 11.7 0 22.5 0 33.5c4.4 0 8.4 0 13 0c2.3-3.4 4.8-6.9 6.9-9.9c0-5.9 0-11 0-14.6 c-3.3-3.7-5.7-6.6-7.7-9C-70.3 36.5-74 36.5-78 36.5z"/><path d="M691 97.2c-11.6 0-23.3 0-35.7 0c-4.7-9-9.7-18.1-14.5-27.3c-0.6 0.1-1 0.3-1.5 0.3c0 8.8 0 17.6 0 26.7 c-10.8 0-20.8 0-31.3 0c0-29.1 0-58.2 0-87.7c17.8 0 35.4-0.7 52.9 0.3c11 0.6 20.7 5.4 25.6 17.9c0 1.8-0.3 4.8 0 7.7 c1 9.5-1.5 17.4-11 23.9c0 0-1.5-0.3-2.8 0.1c-1.4 0.4-2.5 1.5-3.4 2.1c-0.1 0.8-0.4 1.5-0.1 1.9c5.8 9 11.9 17.6 17.1 26.7 c1.4 2.3 2.1 4.4 4.7 5.2C691 95.7 691 96.5 691 97.2z M649.1 47.3c2.1-1.9 4-3.6 5.7-5.2c0-1.8 0-3.3 0-5.7 c-3.7-1.8-7.9-3.6-11.6-5.4c-1.8 1.8-2.9 2.9-3.9 3.9c0 4.1 0 8.1 0 12.4C642.9 47.3 646.2 47.3 649.1 47.3z"/><path d="M-71.7-20.1c0 7.4 0 14.8 0 22.3c-1.7 0-2.8 0-4.5 0c0-2.9 0-5.7 0-8.5c-2.5 0-4.3 0-6.9 0c0 2.9 0 5.8 0 8.5 c-1.8 0-2.8 0-4.5 0c0-7.6 0-14.9 0-22.3c1.5 0 3 0 4.5 0c0 2.9 0 5.8 0 9.2c2.8-0.3 4.8-0.4 6.8-0.6c0-3.3 0-5.9 0-8.5 C-74.7-20.1-73.2-20.1-71.7-20.1z"/><path d="M-53.6-20.1c0 1.1 0 2.2 0 4c-2.8 0.3-5.5 0.6-8.5 1c-0.1 1-0.4 1.9-0.7 3.6c3 0.3 5.8 0.6 8.8 1c0.1 1 0.4 2.1 0.7 3.7 c-3 0.3-5.8 0.6-8.8 0.8C-62.3-5-62.4-4-62.7-2.2c3 0.3 5.8 0.4 8.8 0.7c0.1 1.2 0.3 2.2 0.4 3.7c-4.4 0-8.7 0-13.6 0 c0-7.3 0-14.8 0-22.1C-62.6-20.1-58.2-20.1-53.6-20.1z"/><path d="M-91.9-20.1c0 1.1 0 2.2 0 3.9c-1.9 0.3-4 0.6-6.6 1c0 5.7 0 11.3 0 17.2c-1.7 0.1-2.6 0.3-4.4 0.4c0-5.9 0-11.7 0-18.1 c-2.8 0-5 0-7 0c0-1.1 0-2.2 0-3.4c0-0.3 0-1 0-1c0.7 0 1.5 0 2.2 0C-102.4-20.1-97.2-20.1-91.9-20.1z"/><path d="M512.5 77.6c-8.3-16.7-8.7-31.6-1.2-46.3c6.6-10.5 15.2-19.2 27.4-23.7c4-1.1 8.1-0.6 12.4-2.3c5.2-2.2 10.9 3.4 17 1.9 c10.6 5.9 21.4 11.3 27.7 22.7c4 7.3 4.4 15.4 7.4 22.9c-2.9 9-2.5 18.9-8.3 26.9c-8.8 12-18.2 18.2-32 20.1 c-3.4 0.6-6.9 3.4-10.2 1.9c-5-2.3-10.5-1.4-15.4-3.6c-5.9-2.5-11.3-5.8-16.1-9.8C516.9 84.8 514.1 79.8 512.5 77.6z M547.9 70.2 c5.5-0.1 11.6 1 16-3.6c1.7-2.2 3.4-4.5 5.2-7c0-4.1 0-8.7 0-11.7c-2.9-8-7.9-12.3-16.1-14.2c-4.3 3.3-9.1 6.9-13.8 10.5 c-1.8 6.6-1.8 12.4 1.8 19.3C542.4 64.8 545.1 67.4 547.9 70.2z"/><path d="M352.1 96.8c10.1-29.5 19.9-58.3 29.8-87.3c12.1 0 23.6 0 35.2 0c9.4 28.7 18.9 57.4 28.7 87c-11.6 1.7-22.6 0.1-33.8 0.8 c-1.9-3.7 1.4-9-5-11.3c-5.1 0-11.3 0-18.1 0c-1.5 3.4-3.2 7-4.8 10.6C373.5 96.8 363.2 96.8 352.1 96.8z M394.3 67.4 c5.1-2.1 7.6-3.2 10.8-4.4c-5.5-3.2 0.3-11.2-7.7-12.8C396.5 55 395.7 59.8 394.3 67.4z"/><path d="M152.2 9.2c11.9 0 23.2 0 35 0c10.1 28.7 19.3 57.8 28.4 87.7c-11.2 0-21.2 0-32.1 0c-1.5-3.2-3.2-6.9-5-10.8 c-6.8 0-13 0-18.6 0c-5.1 2.5-3.2 6.8-4 10.6c-10.9 0-22.1 0-33.2 0C132.5 67.7 142.3 38.7 152.2 9.2z M174.3 61.9 c-1.7-4.8-3.2-9.7-4.7-14.6c-0.6 0.1-1 0.1-1.5 0.3c-1.1 5.8-2.1 11.6-3.2 17.2C169.7 66.6 172.3 65.1 174.3 61.9z"/><path d="M42.6 9.5c13.1 0 24.7 0 36.1 0c4.1 14.3 8.3 28.4 13 44.3c4.5-16 7.6-30.6 12.7-44.4c11.6 0 22.3 0 34.3 0 c-5.7 15-10.9 29.6-16.4 44.1c-5.4 14.3-11 28.5-16.8 43.3c-8.7 0-17.9 0-28.5 0c-3.4-9-7.3-18.6-11.2-28.3 c-3.9-9.7-7.7-19.3-11.4-29.1C50.8 29.8 46.9 20.1 42.6 9.5z"/><path d="M-21.6 9.4c20.1 0 40 0 60.1 0c0 7.2 0 14.2 0 22.1c-3.9 0.1-8.3 0.3-12.7 0.3s-9 0-13.6 0c0 2.9 0 5.5 0 9 c5.5 0 11.4-0.1 17.4 0.1c2.3 0.1 4.5 1.2 6.9 1.8c0 7.3 0 13.5 0 20.3c-7.2 5.7-15.9 0.8-24.3 3.3c-0.1 0.7-0.3 2.1-0.4 3.4 c-0.1 1.4 0 2.9 0 4.7c9.1 0 17.6 0 26.6 0c0 7.7 0 15 0 22.5c-19.2 0-38.3 0-57.4 0c-0.8-0.8-1.7-1.7-2.8-2.8 C-21.6 66.4-21.6 38.4-21.6 9.4z"/><path d="M267.5 41.1c8.3 3.9 16 7.7 19.7 18.5c0 3.2-0.1 8.4 0 13.6c0.1 4.5-1.7 8.1-4.6 11.7c-11.2 13.1-28.5 17.2-46.2 12.8 c-6.8-1.7-12.7-4.1-18.5-7.3c-3-8.8 5.7-15.6 3.3-25.1c10.2 6.8 19.7 12.4 32 11.4c1-2.3 1.9-4.5 2.8-6.5c-0.8-1.2-1.1-2.2-1.5-2.3 c-5.4-1.7-10.9-2.8-16.1-4.7c-6.8-2.6-14.1-4.5-17.1-12.7c-4.8-12.8-5-19.3 4.8-30.7c2.5-2.9 5.2-5.4 7.2-7.3 c10.1-3.4 19.3-7.4 29.1-5.4c7.7 1.7 15.2 4.7 23.7 7.4c-2.9 7-5.7 13.4-8.4 19.9c-8.1-3-15.4-6.6-23.6-4.6c-1 1.1-2.1 2.1-2.9 3 c-0.4 5.5 4.5 5.5 7.3 6.9C261.1 41.2 264.7 40.8 267.5 41.1z"/><path d="M291.9 36.7c0-9.7 0-18.2 0-27.2c23 0 45.8 0 69.5 0c0.1 3.9 0.1 8.3 0.3 12.5c0 4.4 0 9 0 13.8c-6.6 0-13 0-20 0 c0 20.4 0 40.5 0 60.9c-10.8 0-20.8 0-31.3 0c0.1 0.1-0.1-0.1-0.3-0.4c-0.1-0.3-0.4-0.7-0.4-1c0-19.4 0-38.9 0-58.7 C303.9 36.7 298.4 36.7 291.9 36.7z"/><path d="M456.4 96.8c0-19.4 0-38.5 0-57.5c-5.9-5.8-13-1.8-19.9-3.4c0-8.5 0-17.2 0-26.5c22.7 0 45.5 0 69.2 0 c0.1 4 0.3 8.3 0.3 12.7c0 4.4 0 9 0 13.6c-6.6 0-13 0-19.4 0c-0.3 3.7 4.1 7.6-0.8 10.3c0.8 0.8 1.5 1.7 1.9 2.1 c-0.7 4.1-1.7 8-1.8 11.9c-0.3 6.3-0.1 12.7 0 19.2c0 3.6-0.6 7 1.9 10.5c1 1.2-0.8 4.5-1.4 7C476.1 96.8 466.8 96.8 456.4 96.8z"/></g></svg>