<svg xmlns="http://www.w3.org/2000/svg" xmlns:xlink="http://www.w3.org/1999/xlink" version="1.1" viewBox="0 0 576.6 345.5" style="enable-background:new 0 0 576.6 345.5;" xml:space="preserve"><path class="st0" d="M291.3 182.9c0 24.6-0.2 49.3 0 73.9c0.2 19.5 0.7 38.9 1.2 58.4c0.1 3.5 0.3 7.1 0.4 10.6 c0.2 6.4-2.8 10.8-8.4 13.6c-7 3.4-14.6 4.6-22.2 4.9c-19.1 0.7-38.3 1.5-57.5 1.1c-25.6-0.5-51.3-2.1-76.9-3.3 c-16.6-0.8-33.2-1.5-49.8-2.6c-19.4-1.3-38.7 0.7-58 1.7c-5.5 0.3-11 0.3-16.4 0.2c-3.7 0-4.4-1.1-2.8-4.6 c4.5-9.7 9.1-19.5 13.9-29.1c16.6-32.8 33.3-65.5 49.9-98.2c0.9-1.7 1.5-3.6 2.6-5.2c3-4.5 2.3-8.8-0.1-13.4 c-7.9-15.2-15.4-30.6-23.4-45.8c-12.7-24.3-25.3-48.6-35.5-74c-2.4-6-5.2-11.9-7.6-17.9c-1.6-4-0.8-5.2 3.5-5.6 c3.3-0.3 6.7-0.6 10-0.6c22.9 0.2 45.9 0.2 68.8 0.8c26.8 0.7 53.5 2 80.2 3c16.5 0.6 33 1.3 49.6 1.8c11.5 0.3 22.9 0.8 34.4 0.4 c8.4-0.3 16.8-1.4 25-2.9c4.1-0.7 8-2.8 11.8-4.6c3.6-1.7 4.6-1.6 5 2.5c0.8 7.8 1.5 15.6 1.5 23.4c0.2 37.2 0.1 74.5 0.1 111.7 C290.8 182.9 291.1 182.9 291.3 182.9z M178.9 190.1c-0.8-1.4-1.3-2.3-1.8-3.2c-6.4-12.9-12.8-25.8-19.2-38.7 c-8.1-16.3-16.2-32.7-24.3-49c-1-2.1-2.2-3-4.6-2.9c-3.6 0.2-7.3 0.1-11 0c-1.9 0-3.2 0.1-3.3 2.7c-0.1 2.8 1.4 3 3.4 2.9 c1.8 0 3.7 0 5.5 0c4.1 0 4.1 0 4.1 4.2c0 29 0 58 0 87c0 3.4 0.6 3.9 3.5 3.7c2.8-0.3 2-2.4 2-3.9c0-25.7 0-51.3 0-77 c0-1.2 0-2.3 0-3.5c0.9 0.4 1.2 0.8 1.5 1.3c13.3 26.9 26.7 53.7 39.9 80.7c0.6 1.2 0.5 3.2-0.1 4.4c-6.8 14-13.8 28-20.7 42 c-0.9 1.8-2 2.6-4 2.6c-5.4-0.1-10.8-0.1-16.1 0c-2.3 0.1-3.8-0.8-5.1-2.6c-2.2-3.1-4.7-6-7.2-9.3c-1.5 1.2-2.8 2.2-4.2 3.3 c2.4 3.1 4.6 6.1 6.9 8.8c1.4 1.7 1.6 2.9 0.1 4.6c-2.4 2.8-4.6 5.9-6.9 8.9c0.9 0.8 1.4 1.3 2.1 1.8c0.6 0.5 1.3 0.8 2.1 1.3 c1.1-1.4 2.4-2.5 3.1-3.9c3.4-6.6 8.7-8.9 15.9-7.7c2.8 0.4 5.7 0.1 8.7 0.1c-0.1 0.9-0.1 1.2-0.2 1.5 c-6.5 13.1-12.9 26.2-19.5 39.2c-0.4 0.8-1.8 1.5-2.9 1.6c-3.1 0.2-6.3 0.2-9.4 0.1c-2.1-0.1-2.5 1-2.5 2.8c0 1.9 0.5 2.9 2.5 2.8 c3.8-0.1 7.5-0.1 11.3 0c2.6 0.1 4-0.8 5.1-3.1c6.8-14 13.8-27.8 20.6-41.7c1.1-2.3 2.4-3.2 5.1-3.2c13 0.1 26 0.1 39 0 c2.6 0 3.9 0.9 5 3.2c6.8 13.9 13.8 27.8 20.6 41.7c1.1 2.4 2.6 3.3 5.1 3.1c3.4-0.2 6.9-0.1 10.3 0c1.9 0 3.6 0 3.6-2.8 c0-2.7-1.4-2.9-3.5-2.9c-2.6 0.1-5.3-0.1-7.9 0.1c-2.2 0.1-3.3-0.7-4.2-2.6c-6-12.2-12-24.4-18-36.5c-0.5-0.9-0.8-1.9-1.2-3.1 c8 0 15.4 0 23.3 0c-2.2 3-4.2 5.6-6.3 8.4c1.5 1.1 2.8 2 4.3 3.1c3.6-4.6 6.9-8.9 10.2-13.2c0.4-0.5 0.5-1.7 0.2-2.1 c-3.4-4.5-6.9-9-10.5-13.6c-1.5 1.2-2.7 2.2-4.1 3.3c2 2.7 3.8 5.2 6 8.1c-1.5 0.2-2.3 0.4-3.2 0.4c-6.7 0-13.4-0.1-20.1 0.1 c-2.3 0-3.4-0.9-4.4-2.9c-6.8-13.9-13.8-27.8-20.5-41.7c-0.6-1.3-0.6-3.4 0.1-4.7c13.1-26.7 26.4-53.4 39.6-80.1 c0.4-0.8 0.8-1.5 1.2-2.2c0.2 0 0.3 0.1 0.5 0.1c0 1.1 0 2.2 0 3.3c0 21 0 42 0 63c0 5.4 0.1 10.8 0 16.1c0 1.8 0.6 2.5 2.4 2.6 c2.9 0.2 2.9-1.5 2.9-3.6c0-29.1 0-58.2 0-87.3c0-4 0-4 4.1-4c2.2 0 4.5-0.1 6.7 0c2.2 0.1 2.4-1.2 2.4-3c0-1.7-0.5-2.7-2.5-2.6 c-3.8 0.1-7.5 0.2-11.3 0c-2.9-0.2-4.3 0.9-5.5 3.5c-14.3 29.1-28.7 58.1-43.2 87.2C180.1 187.8 179.6 188.7 178.9 190.1z"/><path class="st0" d="M293.9 181.7c0-30.2 0.2-60-0.1-89.9c-0.1-15.4-1-30.8-1.7-46.2c-0.5-9.2-5.3-13.6-14.6-14.2 c-8.2-0.5-16.4-1-24.5-1.9c-3.6-0.4-7.4-1.6-10.6-3.3c-6.5-3.4-6.5-9.4-0.2-13.1c7.5-4.5 16.1-6.1 24.5-8c17.6-3.9 35.5-6 53.5-4.8 c12.6 0.9 25 3.7 37.5 6.1c19.8 3.8 39.5 8.2 59.3 12.1c13.8 2.7 27.7 1.7 41.6 0.8c15.6-1 31.1-2.3 46.7-3.4 c14.7-1.1 29.3-2.3 44-3.4c5.5-0.4 10.9-0.7 16.4-0.8c4.4-0.1 5.2 0.8 3.6 5c-3.1 8.2-6.3 16.3-9.8 24.2 c-10.1 23-23.9 44-36.8 65.5c-9.4 15.7-18.7 31.4-28.4 46.9c-2.5 4-2.4 7.2 0 11.1c12.1 20.3 23.9 40.8 35.9 61.1 c5.2 8.9 9.7 18.5 16.1 26.4c7.9 9.7 17.3 18.2 26.3 26.9c5.4 5.2 5.7 5.6-1.5 8c-18.5 6.3-37.4 10.9-57 11.8 c-11.9 0.5-23.9 0.2-35.9 0.7c-22.6 1.1-44.9-2.5-67.3-4.6c-16.1-1.5-32.3-3-48.5-4c-11-0.7-22.1-0.8-33.1-0.6 c-9.7 0.2-19.4 1.3-29.1 2.1c-4 0.3-4.8-0.1-5.1-4c-0.4-5.5-1-10.9-1-16.4c-0.3-27.6-0.4-55.2-0.6-82.8 C293.5 186.6 293.8 184 293.9 181.7z M331.3 149.4c-2.2-0.4-4.5-1.7-6.5 0.7c-1.7 2.1-3.5 4.2-5.2 6.4c-2.7 3.5-3.6 3.5-6.3 0 c-0.5-0.6-0.9-1.3-1.5-1.9c-1.4-1.6-2.5-3.8-4.2-4.7c-1.7-0.8-4-0.4-6.1-0.4c0.3 1.1 0.5 2.2 0.8 3.4c0.1 0.5 0.1 1 0.1 1.5 c-0.2 9.9-0.3 19.9-0.5 29.8c0 0.8-0.1 1.7-0.4 2.4c-1.6 3.6-1.4 3.9 2.4 4c0.9 0 1.9 0.2 2.7 0c0.9-0.2 1.8-0.7 2.6-1 c-0.4-0.8-0.7-1.7-1.1-2.5c-0.6-1.2-1.6-2.5-1.6-3.7c-0.1-4.8 0.1-9.5 0.3-14.3c0-0.4 0.4-0.8 0.6-1.4c0.6 0.4 1 0.7 1.4 1 c3.8 3.5 3.8 3.5 6.8-0.7c0.9-1.3 2-2.4 3.2-3.9c0 5.8 0.3 10.8-0.1 15.7c-0.2 2.9 1.2 6.1-1.3 8.7c-0.1 0.1 0.9 2 1.5 2 c3.3 0.2 6.7 0.2 10 0c0.6 0 1.5-1.5 1.6-2.4c0.1-1.6-0.4-3.1-0.5-4.7c-0.1-4.4 0.1-8.7 0-13.1C330 163.1 329.3 156.1 331.3 149.4 c0.3 0.7 1 1.5 1 2.3c0.2 4.3 0.2 8.7 0.2 13c0 4.9-0.3 9.9 0.2 14.8c0.7 7.2 3.5 9.5 10.9 9.5c1.2 0 2.4-0.2 3.6-0.4 c4.6-0.8 7.2-3.4 7.3-8c0.1-6.5-0.4-13-0.2-19.4c0.1-3.9 1-7.9 1.3-11.8c0.1-0.8-0.7-2.2-1.2-2.3c-1.7-0.3-3.5-0.3-5.1 0.1 c-0.5 0.1-1 1.6-0.9 2.4c0.4 2 1.5 3.9 1.6 5.9c0.2 5.9 0.2 11.8 0.1 17.6c0 2.4 0 4.9-0.6 7.2c-0.2 0.9-2 1.8-3.1 1.9 c-0.6 0.1-2-1.5-2-2.4c-0.2-9.3-0.3-18.6-0.4-27.9c0-0.6 0.2-1.2 0.5-1.7c1.7-2.2 0.4-2.9-1.6-3.1c-3-0.2-6.1-0.2-9.1-0.1 C332.2 146.9 330.8 147.3 331.3 149.4z M328.7 92c-0.3 0-0.5 0-0.8-0.1c-0.1-0.6-0.2-1.3-0.2-1.9c0-5-0.1-9.9 0-14.9 c0.2-6.1 0.6-12.2 0.9-18.3c0-0.5-0.4-1.5-0.5-1.5c-1.9 0.2-4.2-0.1-5.5 0.9c-2.1 1.6-3.6 4.1-5.3 6.2c-2.8 3.7-3.4 3.7-6.2 0 c-0.6-0.7-1.1-1.5-1.7-2.2c-1.2-1.5-2.2-3.5-3.8-4.3c-1.7-0.9-4-0.6-6-0.8c0.1 1.2 0.3 2.4 0.4 3.7c0.1 0.5 0.1 1 0.1 1.5 c-0.1 9.1-0.1 18.3-0.3 27.4c0 1.5-0.1 3.1-0.6 4.5c-1.4 3.8-1.5 3.9 2.6 4.1c0.9 0 1.9 0.2 2.7 0.1c0.8-0.2 2.1-0.6 2.2-1.1 c0.2-0.8-0.5-1.7-0.8-2.6c-0.6-1.5-1.5-3-1.6-4.6c-0.2-2.6 0.2-5.3 0.2-7.9c0.1-2.3 0-4.5 0-7.6c1.3 1.1 1.9 1.6 2.4 2.1 c2.8 2.7 3.5 2.6 5.9-0.6c1.1-1.5 2.3-2.9 3.4-4.3c0.4 2.2 0 4.1 0 5.9c0 5.2 0.1 10.3 0.2 15.5c0 0.6-0.3 1.4-0.6 1.9 c-1.4 2.3-1 3.2 1.7 3.3c2.8 0.1 5.7 0.1 8.5 0c2.7-0.1 5.5-0.2 8.2-0.5c0.8-0.1 1.6-0.7 2.1-1.3c0.2-0.3-0.1-1.6-0.5-1.8 c-2.3-1-2.3-2.7-1.3-4.5c1.2-2.3 3.7-1.8 5.4-1.3c1.2 0.4 2 2.1 2.8 3.4c0.2 0.4 0 1.2-0.3 1.7c-0.4 1-0.9 1.9-1.4 2.9 c1.2 0.3 2.4 0.7 3.6 0.9c0.8 0.1 1.6 0 2.4 0c3.3 0 6.5-0.7 7.8 4c0.7 2.7 4.6 3.3 7 1.9c2.2-1.3 2.6-3.5 1.1-6.4 c-0.9-1.7-1.9-3.4-2.5-5.2c-1.3-3.5-0.4-6.5 2.2-8.1c0.2 0.1 0.4 0.2 0.5 0.3c0.8 3.2 1.4 6.5 2.2 9.7c1.7 7.1 2.1 7.4 9.3 7.4 c0.2 0 0.4 0 0.6 0c4 0 4.6 1 2.7 4.7c-0.9 1.6-0.7 2.9 1.3 3c3.6 0.2 7.3 0.3 10.9 0.1c0.5 0 1.2-1.5 1.2-2.2 c0-1.6-0.8-3.1-0.7-4.6c0.1-7.2 0.2-14.4 0.8-21.6c0.3-3.6-1-7.6 1.6-10.9c0.1-0.1-1.2-1.8-1.9-1.9c-3.1-0.3-6.3-0.4-9.4-0.4 c-2 0-2.8 0.8-2 2.9c0.4 1.1 0.5 2.4 0.4 3.6c-0.1 4.8-0.4 9.5-0.6 14.3c-0.2 2.9-0.4 5.9-0.6 8.8c-1.8-3.3-2.8-6.7-4.1-10 c-2.2-5.2-1.8-9.7 1.6-14.5c1.8-2.5 2.1-6.2 2.4-9.4c0.1-1.2-1.8-3.2-3.2-3.7c-1.1-0.4-3.6 0.4-4.1 1.3c-0.8 1.3-0.4 3.4-0.2 5 c0.1 0.8 1.1 1.4 1.5 2.2c1.4 2.8 0.3 5.4-2.6 6c-0.7-2.9-1.1-6-2.2-8.7c-0.8-2-2.1-4.7-3.8-5.3c-2.5-0.9-5.6-0.3-8.4-0.1 c-1.8 0.2-2.3 1.3-1.2 3c1.3 2 2.5 4.2 3.2 6.4c2.8 9.6 2.1 13.5-3.5 19.2c-0.5-2.8-0.8-5.5-1.3-8.2c-1.3-6.9-2.5-13.8-4-20.6 c-0.3-1.5-1.9-3.6-3.2-3.7c-3.5-0.5-7.1-0.2-10.6 0c-0.7 0-1.6 0.8-1.9 1.5c-0.2 0.5 0.3 1.8 0.7 2c2 0.9 1.6 2.2 1.2 3.8 c-1.8 8.4-3.6 16.8-5.4 25.2C329.2 88.6 329 90.3 328.7 92z M326.7 134.7c-0.3 0-0.6 0-0.9 0c-0.4-2.6-0.7-5.2-1.2-7.8 c-1.3-7.2-2.5-14.3-4-21.5c-0.3-1.3-1.6-3.2-2.6-3.3c-3.6-0.3-7.3-0.2-10.9 0.1c-1.8 0.2-2.4 2.4-0.8 3.3c2 1.1 1.6 2.5 1.3 4.1 c-1.6 7.6-3.1 15.3-4.8 22.9c-0.7 3 0.1 6.4-2.5 8.8c-0.1 0.1 0.8 2 1.4 2.1c1.7 0.3 3.4 0.3 5.1 0.1c0.8-0.1 1.7-0.6 2.1-1.3 c0.2-0.3-0.6-1.3-0.9-1.9c-0.5-1-1.5-2.2-1.2-2.9c0.4-1.1 1.6-2.7 2.6-2.8c1.6-0.1 3.7 0.5 4.8 1.6c0.7 0.7-0.1 2.8-0.3 4.3 c-0.1 0.7-0.9 1.6-0.6 2c0.2 0.5 1.3 1 1.9 1c5.5 0.1 10.9 0 16.4-0.1c0.7 0 1.9-0.6 2.1-1.2c0.2-0.6-0.6-1.5-0.9-2.2 c-0.6-1.5-1.8-3-1.8-4.5c-0.2-4.4 0-8.9 0.1-13.3c0-0.6 0.4-1.2 0.7-2.1c0.8 0.7 1.4 1.1 1.9 1.6c3.4 3.2 3.9 3.1 6.8-0.6 c1.1-1.4 2.4-2.7 4.1-4.7c-0.3 3.2-0.5 5.4-0.6 7.6c-0.1 4.8 0 9.5 0 14.3c0 0.8-0.4 1.7-0.9 2.4c-1.3 1.8-0.6 2.7 1.2 2.8 c3.5 0.1 7.1 0.1 10.6 0c1.8-0.1 2.6-0.9 1.7-2.8c-0.4-1-0.6-2.1-0.7-3.2c-0.1-5.7-0.3-11.3 0-17c0.3-5.6-1.2-11.3 1.1-16.7 c0.1-0.3-0.3-1.1-0.6-1.2c-2-0.5-4.1-1.4-5.9 0.7c-2.1 2.5-4.2 4.9-6.3 7.4c-1.9 2.2-3.2 2.3-5.1 0c-1.6-1.8-3.2-3.7-4.6-5.6 c-1.7-2.2-3.8-3.1-6.6-2.8c-3.1 0.3-3.2 0.4-1.6 3.3c0.3 0.6 0.5 1.3 0.5 2C326.8 116.6 326.7 125.6 326.7 134.7z M381.1 150.4 c2.4 4.5 6.8 4.8 11.3 4c4.4-0.8 7.2-3.9 8.2-8.1c0.7-3.4 0.8-7 0.5-10.5c-0.6-6.1-4.9-10-9-13.9c-1-0.9-1.6-2.3-2-3.6 c-0.2-0.5 0.8-1.4 1.2-2.1c0.6 0.4 1.4 0.7 1.8 1.3c0.5 0.7 0.5 1.8 1.1 2.5c1.3 1.8 3.1 2.2 5.1 1c1.8-1.1 2.3-2.9 1.2-4.7 c-0.7-1.1-1.8-2.2-3-2.8c-6.5-3.3-13.9-0.1-15.5 7.1c-1.9 8 0.3 14.9 6.6 20.5c2 1.8 3.4 4.4 4.7 6.8c0.3 0.6-1 2-1.6 3.1 c-0.7-0.5-1.8-0.9-2.1-1.6c-2.2-5.2-3.3-5.7-8.5-3.3c0.1-0.6 0.2-1.1 0.1-1.5c-0.3-1.2-0.5-3-1.3-3.4c-1.8-0.9-2.9 0.3-3.6 2.1 c-0.5 1.2-1.4 2.3-2.3 3.1c-0.5 0.4-1.5 0.6-2.2 0.4c-0.4-0.1-0.7-1.2-0.7-1.8c0-4.8 0-9.5 0.2-14.3c0-0.7 0.7-1.8 1.3-2 c0.8-0.2 2 0.1 2.8 0.6c0.5 0.3 0.5 1.4 1 1.8c0.9 0.6 2.3 1.3 3.1 1c0.7-0.3 1.3-1.8 1.3-2.9c0-1-0.7-2.1-1.1-3.1 c-1.1-3.2-2.9-3.9-5.7-1.9c-2.1 1.5-2.7 0.7-2.8-1.4c-0.1-2.7-0.1-5.5 0-8.2c0-0.7 0.5-1.7 0.9-1.8c0.6-0.1 1.6 0.3 2.1 0.8 c0.7 0.8 1.2 1.8 1.7 2.9c0.8 1.7 2.2 2.5 3.6 1.6c0.7-0.5 1-2.1 1-3.2c0-1.2-0.6-2.3-0.9-3.5c-0.5-2.1-1.7-2.7-3.8-2.6 c-4.3 0.3-8.7 0.5-13 0.6c-5 0.1-4.8 0-4.6 4.7c0.3 8.6 0.4 17.2 0.4 25.8c0 2.5 0.2 5.2-0.6 7.5c-1.1 3 0.2 3.3 2.5 3.4 c5.8 0.1 11.5 0.4 17.3 0.5C378.7 150.9 379.8 150.6 381.1 150.4z M454.3 242.5c5.5 0 11 0.1 16.5 0c1.3 0 3.3-0.2 3.7-0.9 c1.1-2 1.6-4.4 1.9-6.6c0.1-0.7-1-2.1-1.7-2.3c-0.8-0.2-1.9 0.6-2.7 1.3c-0.4 0.3-0.1 1.3-0.5 1.7c-1.1 0.9-2.3 1.7-3.5 2.5 c-0.4-1.1-1.1-2.3-1.1-3.4c-0.1-8.7-0.2-17.4-0.1-26.1c0-1.9 0.9-3.8 1-5.7c0.1-0.7-0.7-2.2-1.2-2.2c-3.6-0.2-7.3-0.2-10.9-0.1 c-1.7 0.1-2.6 1-1.4 2.9c0.5 0.8 0.9 1.9 0.9 2.8c-0.1 10.1-0.2 20.3-0.4 30.4c0 0.8-0.4 1.7-0.6 2.5c-0.3 0-0.6 0-0.9-0.1 c-0.6-3.1-1.1-6.3-1.8-9.4c-1.4-6.8-2.7-13.7-4.4-20.5c-0.3-1.4-1.8-3.6-2.9-3.7c-3.8-0.4-7.7-0.1-11.5 0.1c-0.6 0-1.4 0.9-1.6 1.5 c-0.1 0.6 0.3 1.8 0.8 2c2.1 0.8 1.7 2.2 1.4 3.8c-1.6 8-3.3 16.1-4.9 24.1c-0.6 2.7 0.2 5.8-2.4 7.9c-0.1 0.1 0.8 2.1 1.4 2.2 c2 0.3 4 0.2 6.1 0.1c0.6-0.1 1.6-0.8 1.7-1.3c0.1-0.5-0.6-1.3-1-1.9c-0.4-0.6-1.5-1.3-1.4-1.7c0.3-1.4 1-3.6 1.7-3.7 c2-0.2 4.3 0.1 6.1 1c0.5 0.3 0 2.9-0.1 4.4c-0.1 0.7-0.9 1.7-0.7 2c0.5 0.6 1.4 1.1 2.2 1.1c3.1 0.1 6.3 0 9.4-0.1 C455.3 246.7 455.7 246.2 454.3 242.5z M414.6 84.4c-0.1 5.8 0 11.2-0.5 16.6c-0.2 2.7 1.1 5.8-1.6 8c0 0 1.1 2 1.7 2 c3.9 0.2 7.9 0.2 11.8 0c0.6 0 1.6-1.5 1.7-2.4c0.1-1.6-0.6-3.3-0.7-5c-0.1-5.1-0.2-10.3 0-15.5c0.1-5.9 0.5-11.8 0.8-18.1 c-2.4-1.5-4.6-1.2-6.9 1.4c-2.1 2.2-4.2 4.4-6.3 6.6c-2 2.1-3.3 2.2-5.3 0c-1.6-1.7-3.1-3.5-4.5-5.3c-2-2.7-4.5-4-7.9-3.4 c-0.8 0.1-1.7 0.5-2.5 0.7c0.3 0.8 0.6 1.5 0.9 2.3c0.3 0.7 0.7 1.5 0.7 2.2c-0.3 9.7-0.6 19.4-1 29.1c-0.1 1.3-0.7 2.7-1.3 3.8 c-1 1.7-0.7 2.7 1.3 3c2 0.2 4.1 0.3 6.1 0.2c0.7 0 1.9-0.7 2.1-1.3c0.2-0.6-0.6-1.5-0.9-2.2c-0.7-1.5-1.8-2.9-1.9-4.4 c-0.2-4.5 0.1-9.1 0.2-13.7c0-0.5 0.4-1 0.7-1.8c0.8 0.7 1.5 1.1 2 1.6c3.6 3.2 4.1 3.1 7.2-0.5C411.7 87.1 413.2 85.8 414.6 84.4z M472.7 86.3c0.2 0.2 0.5 0.4 0.7 0.5c0 5.1 0 10.2 0 15.3c0 2.5-0.2 5-0.4 7.5c-0.1 0.8-0.6 1.6-0.9 2.3c0.9 0.3 1.8 0.9 2.7 0.9 c3.2 0 6.5-0.2 9.7-0.4c2.2-0.2 3.4-0.9 1.9-3.3c-0.5-0.8-0.4-1.9-0.5-2.9c-0.3-5.5-0.9-11.1-0.9-16.6c0-5.6 0.5-11.2 0.7-16.8 c0-0.5-0.4-1.3-0.7-1.4c-2.2-0.6-4.4-1.1-6.1 1.1c-2 2.5-4.1 5-6.2 7.5c-1.9 2.3-3.1 2.4-5.2 0.2c-1.8-1.8-3.5-3.6-5.1-5.6 c-2.1-2.7-5-2.9-8-2.5c-1.8 0.2-2.1 1.2-1 2.7c0.6 0.9 1.2 2.1 1.3 3.2c0.3 7.8 0.5 15.6 0.5 23.4c0 3.2 1.2 6.7-1.3 9.7 c-0.2 0.2 1 2.2 1.7 2.3c2 0.3 4 0.1 6.1-0.1c0.7-0.1 1.6-0.7 1.8-1.3c0.1-0.6-0.4-1.7-0.9-2c-1.9-1.1-2.6-2.7-2.5-4.8 c0.1-1.9 0-3.9 0-5.8c0-3 0-6 0-9.6c1.2 0.9 1.9 1.4 2.6 2c3.3 2.7 3.9 2.6 6.5-0.8C470.1 89.3 471.5 87.8 472.7 86.3z M336.9 222.3C336.9 222.3 336.9 222.3 336.9 222.3c0.1-2.4 0-4.9 0.2-7.3c0-0.7 0.7-1.9 1.3-2c1-0.1 2.1 0.3 3 0.7 c0.4 0.2 0.4 1.3 0.9 1.5c1 0.5 2.3 1.3 3.1 1c0.7-0.3 1.2-1.9 1.2-2.9c0-0.9-0.6-1.9-1-2.8c-1.3-3.6-2.4-4.1-5.8-2 c-1.9 1.2-2.7 0.5-2.7-1.4c-0.1-2.7-0.1-5.5 0-8.2c0-0.7 0.5-1.4 0.7-2.1c0.8 0.3 1.8 0.5 2.3 1.1c0.8 1 1.1 2.5 2 3.3 c0.7 0.7 2.2 1.4 3 1.1c0.7-0.2 1.3-1.8 1.3-2.8c0-1.3-0.7-2.5-0.9-3.8c-0.5-2.2-1.6-2.9-3.9-2.7c-4.6 0.4-9.3 0.6-13.9 0.6 c-4.1 0-4.1-0.1-3.2 3.9c0.1 0.5 0 1 0.1 1.5c0 7.7 0.1 15.4 0.1 23.1c0 3.2 0.2 6.5-0.6 9.6c-0.6 2.6 0 3.1 2.2 3.1 c4.5 0 8.9-0.1 13.4 0c6.9 0.2 6.9 0.2 7.4-6.6c0.1-1-1-2-1.6-3.1c-1 0.6-2.2 1-3.1 1.8c-0.8 0.8-1.1 2.2-1.9 3 c-0.6 0.7-1.7 0.9-2.6 1.3c-0.3-0.9-0.8-1.7-0.9-2.6C336.8 226.6 336.9 224.4 336.9 222.3z M430.6 96c-0.1 0-0.1 0-0.2 0 c0 2.3 0 4.7 0 7c0 2.3 0 4.7 0 7c0.1 5.1 2.9 7.7 8.9 8.4c6.7 0.8 11.5-1.6 12.6-6.3c0.1-0.3 0.1-0.6 0.1-0.9 c0.1-6.6 0.1-13.2 0.3-19.7c0.1-3.9 0.2-7.9 1.1-11.7c0.6-2.7 0.8-3.2-2-3.4c-1-0.1-2-0.1-3 0c-2.4 0.2-2.8 1.1-1.5 3 c0.5 0.8 1.1 1.8 1.1 2.7c-0.1 8.7-0.2 17.4-0.4 26.1c0 2.1-1 3.7-3.3 3.5c-2.4-0.2-2.6-2.1-2.5-4.1c0.2-3.5 0.3-7.1 0.3-10.6 c0.1-5.2 0-10.5 0.1-15.7c0-0.7 0.2-1.4 0.6-2c1.4-2.1 0.2-2.7-1.6-2.9c-3-0.2-6.1-0.3-9.1-0.3c-2.1 0-3.4 0.7-1.9 3.2 c0.5 0.9 0.5 2.1 0.5 3.2C430.6 87.1 430.6 91.6 430.6 96z M420.6 226.2c-0.3-2.7-0.8-5-0.8-7.4c0-3-1.8-6.1 0.4-9.1 c0.1-0.1-1.3-1.9-2.1-1.9c-2.6-0.3-5.3-0.1-7.9-0.2c-4.6-0.2-4.6-0.2-3.2 4c0.2 0.5 0.2 1 0.2 1.5c1.8 10.6 3.5 21.1 5.3 31.7 c0.4 2.2 0.9 4 3.8 4.2c3 0.2 3.8-1.5 4.5-3.7c2.7-8 5.4-15.9 8.1-23.8c0.7-1.9 1.6-3.8 2-5.7c0.4-1.6 0.5-3.5 0.2-5.1 c-0.5-2.8-3.6-4.3-6.5-3.3c-2.5 0.8-3.1 3-1.7 5.9c0.3 0.7 0.7 1.5 1 2.2C425.4 219.3 423.9 224.6 420.6 226.2z M373.7 205 c0.3 0.1 0.6 0.2 0.9 0.3c-0.1 1.4-0.3 2.7-0.3 4.1c0 8.4 0 16.8-0.1 25.2c0 1.9-0.9 3.8-1.5 5.6c-0.2 0.7-0.9 1.6-0.7 2 c0.3 0.6 1.3 1 2 1c4.2 0.1 8.5 0.2 12.8 0.1c1.9 0 2.4-1 1.4-2.8c-0.7-1.2-1.3-2.7-1.3-4c-0.1-9.7 0-19.4 0-29.1 c0-0.8 0.3-1.5 0.4-2.3c0.3 0 0.6 0 1 0c0.1 1-0.1 2.2 0.5 3c0.7 0.9 1.9 1.4 2.9 2.1c0.5-1 1.5-1.9 1.5-3c0.1-1.2-0.2-2.7-0.9-3.8 c-0.6-1-1.9-2-3-2.1c-5.6-0.2-11.2-0.2-16.8 0c-1.1 0-2.5 1-3.1 1.9c-0.7 1-1 2.5-0.9 3.8c0.1 1 1 1.9 1.5 2.8 c0.9-0.7 2.1-1.2 2.8-2C373.4 207.1 373.4 205.9 373.7 205z M366.4 153.6c-5.2 0.5-9.7 3.9-10.8 9c-1.8 7.9 0.2 14.8 6.3 20.4 c1.9 1.7 3.3 4 4.4 6.3c0.4 0.8-0.9 2.4-1.4 3.7c-0.8-0.9-1.7-1.7-2.4-2.6c-0.4-0.5-0.4-1.4-0.8-1.9c-1.4-1.9-3.3-2.5-5.3-1.3 c-2.1 1.1-2.9 3.2-1.5 5.1c1.2 1.6 2.9 3.3 4.7 3.9c6.1 2.1 12.2-1 14.5-7.1c2.9-7.7 0.7-16.7-5.3-22.3c-1.8-1.7-3.3-3.8-4.7-5.8 c-0.3-0.5 0.2-1.7 0.6-2.4c0.1-0.3 1.4-0.3 1.6-0.1c0.5 0.7 0.6 1.7 1.2 2.3c1 1.1 2.2 2.4 3.6 2.7c1 0.2 3.1-0.9 3.3-1.8 c0.3-1.4 0.1-3.8-0.9-4.6C371.3 155.5 368.7 154.7 366.4 153.6z M356 240.8c5.3 0.1 9.5-2.8 11.3-7.7c3-7.7 0.6-16.9-5.6-22.5 c-1.8-1.6-3.3-3.5-4.6-5.5c-0.4-0.6 0.4-1.9 0.7-2.9c0.8 0.6 1.6 1.1 2.2 1.8c0.4 0.5 0.5 1.4 0.9 1.9c1.4 1.8 3.2 2.1 5.1 1.1 c1.9-1.1 2.4-2.9 1.2-4.7c-0.8-1.2-2-2.4-3.3-2.9c-7.5-3.5-15.3 1.4-15.8 9.9c-0.5 7.5 1.9 13.6 7.9 18.5c1.8 1.5 2.9 4 4 6.3 c0.3 0.6-0.9 1.9-1.4 2.9c-0.8-0.6-1.7-1.2-2.5-2c-0.3-0.3-0.3-1-0.5-1.4c-1.1-2.5-3.8-3.5-6-2.3c-2.2 1.2-2.6 3.6-1 6 C350.5 239.9 353.3 240.5 356 240.8z M405.7 171C405.7 171 405.7 171 405.7 171c0.1-3.6 0-7.3 0.1-10.9c0-0.6 0.6-1.5 1.2-1.8 c0.3-0.2 1.4 0.4 1.7 0.9c0.9 1.4 1.5 3.1 2.5 4.4c0.7 0.9 1.9 1.5 2.8 2.2c0.6-1.1 1.8-2.3 1.7-3.4c-0.1-2.3-0.6-4.7-1.4-6.8 c-0.4-1-1.9-1.9-3.1-2c-1.9-0.3-4-0.2-5.9 0c-1.8 0.2-3.7 0.4-5.2 1.3c-4 2.2-6.5 5.7-7.5 10.2c-1.5 6.5-1.7 13 0.6 19.5 c1.5 4.4 4.1 7.9 8.2 10.2c4.6 2.5 11.7 0.5 13.4-3.9c0.4-1.1 0.2-2.8-0.3-3.9c-0.3-0.6-2.3-1-2.9-0.6c-0.9 0.5-1.3 2-2.1 3 c-0.8 1-1.7 1.9-2.5 2.8c-0.5-1.1-1.4-2.1-1.4-3.2C405.6 183 405.7 177 405.7 171z M383.9 198.9 C383.9 198.9 383.9 198.9 383.9 198.9c2.2 0 4.5 0.2 6.7-0.1c0.7-0.1 1.7-1.4 1.7-2c-0.4-3.6-1.4-7.2-1.5-10.8 c-0.2-7.7-0.1-15.4 0-23c0-0.8 0.4-1.8 1-2.4c1.5-1.8 0.8-2.9-1.1-3.1c-4-0.2-8.1-0.2-12.1-0.1c-1.6 0-2.7 0.8-1.8 2.8 c0.6 1.3 0.8 2.9 0.8 4.3c0.1 9.1 0.1 18.2-0.1 27.3c0 1.5-0.7 3-1.3 4.4c-0.8 1.7-0.3 2.6 1.4 2.7 C379.6 198.9 381.7 198.9 383.9 198.9z M316.6 213c-0.4-0.1-0.8-0.1-1.2-0.2c0-2.4-0.1-4.7 0-7.1c0.1-1.6 0.6-3.2 1-4.8 c1 1.2 1.9 2.6 3 3.6c0.7 0.7 1.7 1 2.6 1.4c0.5-0.9 1.4-1.8 1.3-2.7c-0.1-1.7-0.5-3.5-1.3-5c-0.4-0.8-1.9-1.5-2.8-1.5 c-4 0-8.1 0.4-12.1 0.5c-4.1 0.1-4.1 0-3.1 3.8c0.1 0.4 0.1 0.8 0.1 1.2c0 9.9 0.1 19.8 0 29.8c0 1.3-0.3 2.8-1 4 c-1.1 2-0.2 2.8 1.5 2.8c3.4 0.1 6.9 0.1 10.3-0.1c0.8 0 1.5-0.7 2.3-1.1c-0.3-0.7-0.7-1.3-1-2c-0.3-0.7-0.8-1.4-0.8-2.2 c-0.1-4.7-0.1-9.5 0-14.2c0-0.9 0.8-1.8 1.2-2.8c0.9 0.6 1.8 1.2 2.7 1.9c0.8 0.6 1.6 1.4 2.5 1.6c0.4 0.1 1.6-1.3 1.5-1.8 c-0.8-2.4-1.8-4.8-2.9-7.1c-0.1-0.2-1.8 0.1-2.6 0.5C317.4 211.9 317.1 212.6 316.6 213z M399.4 245.2c0 0 0 0.1 0 0.1c1 0 2 0 3 0 c4.1 0.1 4.1 0.1 2.9-3.8c-0.2-0.7-0.2-1.4-0.2-2.1c0.2-10 0.3-20 0.6-30c0-0.9 0.5-1.9 0.9-2.8c0.8-1.7 0.3-2.6-1.5-2.7 c-2.9-0.2-5.8-0.4-8.8-0.4c-2 0-3 0.9-2 3.2c0.5 1.1 0.6 2.4 0.6 3.5c-0.1 9.3-0.3 18.6-0.6 27.8c0 1.4-0.5 2.9-1.1 4.3 c-0.8 1.8-0.3 2.7 1.6 2.8C396.4 245.2 397.9 245.2 399.4 245.2z M492 261.9c-0.6-2.6-0.8-5.3-1.8-7.6c-0.6-1.3-2.5-2.6-3.8-2.6 c-1.3 0-3.3 1.3-3.9 2.5c-2.3 4.9-2.2 10-0.1 14.9c0.6 1.3 2.5 2.6 3.9 2.6c1.3 0 3.3-1.3 3.9-2.6C491.1 267 491.4 264.4 492 261.9 z M512.9 251.8c-3.2-0.2-8.9 9.8-8.6 14.3c0.2 0.1 0.3 0.2 0.5 0.3c0.2 0.1 0.4 0.1 0.6 0.1c3.1-0.3 5.5 0 4.9 4.1 c-0.1 0.4 0.8 1.2 1.3 1.2c0.4 0 1.2-0.7 1.3-1.1c0.3-1.7-0.6-4 2.1-4.7c0.1 0 0-1.6-0.3-1.7c-2.2-0.8-1.6-2.5-1.7-4.1 C512.9 257.5 512.9 254.8 512.9 251.8z M470.2 253.9c0.3 0.2 0.6 0.5 0.8 0.7c5.3-0.9 6.7 0.8 4.6 6c-1.2 2.8-3.1 5.2-4.6 7.8 c-0.6 1-1 2-1.8 3.6c3.5 0 6.3 0.1 9.1-0.1c0.5 0 1-0.7 1.5-1.1c-0.5-0.5-0.9-1.3-1.5-1.5c-1.2-0.3-2.5-0.2-4.4-0.3 c0.8-1.3 1.4-2 1.8-2.9c1.1-2.1 2.7-4.2 3.1-6.5c0.4-2.1 0-4.6-1-6.5c-1.1-2.2-3.7-1.9-5.7-1.2 C471.4 252.1 470.9 253.2 470.2 253.9z M497.3 255.2c0 1.4 0 2.5 0 3.5c0 3.8 0 7.7 0.1 11.5c0 0.6 0.8 1.1 1.2 1.7 c0.5-0.5 1.4-0.9 1.4-1.4c0.1-6.2 0.1-12.5 0.1-18.7c-4-0.5-6.6 1.4-5.7 4.1C495.2 255.7 496 255.5 497.3 255.2z"/><path class="st0" d="M233.4 23.5c0.9 0.5 1.3 0.6 1.5 0.8c5.2 6.3 12.6 7.8 20.1 8.5c7.3 0.7 14.7 0.8 22.1 1.3 c0.7 0 1.5 0 2.1 0.4c1.7 1 4.6 1.9 4.8 3.3c0.3 1.5-1.4 4-3 5.1c-2.6 1.8-5.6 3.4-8.7 4.2c-11.3 3.2-22.8 4.4-34.6 3.4 c-3.3-0.3-5.2-1.8-5.3-5c-0.2-5.8-0.4-11.7-0.3-17.6C232.2 26.5 232.9 25.1 233.4 23.5z"/><path class="st0" d="M178.8 202.6c6.9 13.9 13.4 27 20 40.5c-13.4 0-26.4 0-40.1 0C165.6 229.4 172 216.4 178.8 202.6z"/><path class="st0" d="M339.4 68.3c0.7 4.7 1.4 8.9 1.8 13.1c0.1 0.6-1.3 2.1-1.9 2c-1.3-0.1-3.1-0.6-3.7-1.6 C334.3 79.8 336.8 70.6 339.4 68.3z"/><path class="st0" d="M312.1 116c0.6 5.1 1.1 9.4 1.4 13.8c0 0.5-1.4 1.5-2.1 1.5c-1-0.1-2.5-0.6-2.9-1.4 C307.2 127.8 309.3 118.7 312.1 116z"/><path class="st0" d="M437.5 219.1c0.5 2.4 0.9 4.2 1.3 6c0.4 2 0.6 4 0.9 6c0.3 1.7 0.3 3.3-2.1 3.4c-2.2 0.1-4.1-0.4-3.8-3 c0.4-3.5 1.2-6.9 1.9-10.4C435.8 220.6 436.5 220.2 437.5 219.1z"/><path class="st0" d="M488.9 261.7c-0.3 1.9-0.4 3.8-0.9 5.6c-0.2 0.7-1.1 1.5-1.8 1.7c-0.4 0.1-1.5-0.9-1.6-1.5 c-0.1-3.9-0.2-7.7 0-11.6c0-0.6 1.1-1.6 1.5-1.5c0.7 0.2 1.6 0.9 1.8 1.6C488.4 257.9 488.6 259.8 488.9 261.7z"/><path class="st0" d="M509.8 257.7c0.8 5.5 0.6 5.9-2.4 5.7C508.1 261.6 508.8 260 509.8 257.7z"/></svg>