<svg xmlns="http://www.w3.org/2000/svg" xmlns:xlink="http://www.w3.org/1999/xlink" version="1.1" id="Layer_1" x="0px" y="0px" width="232px" height="231.999px" viewBox="-240.941 -140.345 232 231.999" enable-background="new -240.941 -140.345 232 231.999" xml:space="preserve">
<g id="Layer_1_1_">
</g>
<g>
	<g>
		<path fill-rule="evenodd" clip-rule="evenodd" fill="#25B163" d="M-149.44 7.393c0.074-0.148-0.154 0.832-0.754 1.5 c-6.594 6.912-13.209 13.808-19.895 20.63c-5.137 5.238-10.266 10.498-15.684 15.433c-1.031 0.938-4.176 1.171-4.98 0.4 c-1.193-1.195-2.215-4.39-1.482-5.368c3.803-5.092 8.084-9.843 12.387-14.542c7.65-8.36 15.375-16.658 23.188-24.87 c5.537-5.822 11.295-11.437 16.9-17.194c2.539-2.609 4.973-5.321 7.373-8.057c0.225-0.256 0.07-1.222-0.234-1.516 c-6.42-6.147-12.918-12.213-19.33-18.368c-2.867-2.752-5.307-6.033-8.455-8.383c-2.578-1.925-6.09-2.55-8.885-4.248 c-4.057-2.463-5.496 0.701-7.131 3.034c-4.541 6.477-8.924 13.103-10.145 21.154c-0.627 4.149-0.76 8.372-1.328 12.5 c-0.135 0.987-1.121 1.859-1.717 2.785c-0.633-0.728-1.52-1.353-1.857-2.197c-4.607-11.532-4.113-22.996 1.148-34.132 c2.254-4.77 5.287-9.172 7.959-13.745c0.273-0.469 0.838-1.131 0.695-1.426c-1.637-3.383 0.26-5.696 2.592-7.455 c2.189-1.651 4.891-2.603 7.275-4.018c3.313-1.966 6.525-4.097 9.803-6.121c7.924-4.892 16.672-6.815 25.859-6.909 c3.576-0.036 7.24-0.022 10.7 0.713c2.068 0.4 3.8 2.3 5.7 3.56c-2.311 0.948-4.551 2.154-6.945 2.8 c-4.145 1.098-8.678 1.183-12.514 2.892c-5.117 2.281-9.871 5.498-14.5 8.72c-2.928 2.039-5.143 3.585-3.219 9 c3.094 8.7 11 12.1 16 18.491c3.779 4.8 8.6 8.7 12.8 13.083c2.379 2.5 4.2 2.4 6.512-0.236 c4.416-5.015 9.139-9.757 13.645-14.695c0.34-0.373 0.262-1.703-0.121-2.072c-4.883-4.702-9.705-9.486-14.855-13.885 c-4.383-3.744-0.813-5.644 1.498-7.623c4.438-3.799 8.793-7.846 13.748-10.854c7.41-4.498 15.352-8.194 24.213-8.812 c6.494-0.453 13.02-0.582 19.531-0.584c4.479-0.001 6.6 2.3 7.8 8.182c1.975 10 0.8 19.775-3.486 29 c-2.768 6.017-5.951 11.909-9.58 17.443c-2.766 4.221-6.432 7.878-9.932 11.563c-0.531 0.558-2.779 0.38-3.48-0.27 c-4.49-4.162-8.781-8.538-13.109-12.871c-1.875-1.875-3.324-2.984-5.709-0.164c-2.996 3.544-6.689 6.493-10.045 9.7 c-1.701 1.645-3.365 3.337-4.926 5.114c-0.24 0.274-0.039 1.3 0.3 1.666c5.078 5 10.3 9.9 15.3 15 C-93.063-1.2-85.518 6.608-77.872 14.313c6.414 6.5 12.9 12.8 19.3 19.281c0.631 0.6 1.1 1.4 1.7 2.1 c2.33 2.5 3.4 5.3 0.4 7.889c-3.268 2.903-5.543 0.438-7.785-1.828c-7.994-8.074-16.049-16.091-24.018-24.189 c-5.504-5.595-10.822-11.374-16.383-16.91c-4.43-4.41-9.168-8.507-13.648-12.867c-5.891-5.734-6.059-6.01-11.914-0.2 c-5.064 5.022-9.508 10.667-14.332 15.938C-145.672 4.797-147.295 5.731-149.44 7.393z M-61.797-53.714 c0.205 0 0.4 0.1 0.6 0.149c0.199-1.754 0.156-3.582 0.662-5.242c0.596-1.947 2.006-3.667 2.473-5.627 c1.869-7.841 2.277-15.744-0.328-23.517c-0.379-1.128-1.738-2.667-2.729-2.732c-6.734-0.443-13.529-1.057-20.23-0.584 c-5.1 0.359-10.141 2.072-15.109 3.517c-2.426 0.705-4.629 2.17-6.93 3.294c-0.719 0.351-1.43 0.709-2.145 1.1 c0.5 0.7 1 1.4 1.5 2.15c0.676-0.519 1.365-1.023 2.029-1.559c0.846-0.684 1.631-1.935 2.514-2.001 c5.104-0.384 10.357-1.285 15.309-0.476c5.127 0.8 10.3 2.9 14.8 5.457c2.627 1.5 5.2 4.9 5.8 7.8 C-62.28-66.065-62.309-59.831-61.797-53.714z M-165.375-57.003c0.6 0.5 1.2 1.1 1.8 1.6 c1.031-1.889 1.742-4.078 3.16-5.61c3.793-4.093 3.816-5.797-0.568-9.234c-3.207-2.514-6.309-5.193-9.701-7.428 c-1.215-0.8-3.885-1.278-4.609-0.578c-2.158 2.084-5.723 6.052-5.094 7.101c2.656 4.4 6.5 8.2 10.2 11.9 C-169.024-58.047-167.002-57.719-165.375-57.003z M-81.491-65.627c-0.42-1.197-0.646-2.221-0.797-2.21 c-1.131 0.083-2.527 0.019-3.32 0.651c-3.875 3.093-7.678 6.289-11.326 9.645c-2.822 2.596-5.33 5.532-8.066 8.2 c-2.563 2.525-5.379 4.811-7.742 7.502c-0.4 0.5 0.6 2.7 1.5 3.625c0.865 0.9 2.8 2 3.5 1.6 c1.748-0.877 3.164-2.508 4.559-3.984c5.76-6.101 11.541-12.187 17.139-18.436C-84.155-61.054-82.862-63.575-81.491-65.627z M-149.155-90.763c-0.029 0.358-0.061 0.717-0.09 1.075c-0.809-0.164-1.803-0.714-2.398-0.43 c-4.096 1.953-8.152 4.003-12.131 6.185c-1.783 0.978-3.352 2.343-5.037 3.504c-0.391 0.27-0.861 0.424-1.295 0.6 c0.33 0.4 0.6 0.9 1 1.183c2.764 2.2 5.5 4.3 8.4 6.354c0.416 0.3 1.5 0.3 1.863-0.052 c6.168-5.954 12.641-11.404 21.184-13.684c0.342-0.091 0.795-0.466 0.836-0.761c0.037-0.253-0.387-0.669-0.699-0.86 c-1.898-1.162-3.707-2.691-5.777-3.29C-145.114-91.42-147.202-90.853-149.155-90.763z M-173.575-59.724 c-0.32-0.43-0.588-0.823-0.891-1.186c-1.365-1.629-2.666-3.322-4.135-4.852c-1.178-1.224-2.359-2.551-3.711 0.2 c-2.455 4.925-5.391 9.615-7.727 14.59c-0.602 1.3 0 3.4 0.6 4.877c0.455 1.3 1.5 2.4 2.6 3.3 c0.357 0.3 1.7 0.2 1.992-0.119c3.691-5.307 7.27-10.691 10.875-16.057C-173.897-59.229-173.754-59.451-173.575-59.724z"/>
	</g>
	
		<circle fill-rule="evenodd" clip-rule="evenodd" fill="none" stroke="#25B163" stroke-width="10" stroke-miterlimit="10" cx="-124.6" cy="-24" r="107.1"/>
</g>
</svg>
