<svg xmlns="http://www.w3.org/2000/svg" xmlns:xlink="http://www.w3.org/1999/xlink" version="1.1" x="0px" y="0px" viewBox="169.2 1168.7 1920 1092.4" style="enable-background:new 169.2 1168.7 1920 1092.4;" xml:space="preserve"><style type="text/css">.st0{opacity:0.8;fill:none;stroke:#FFFFFF;stroke-miterlimit:10;enable-background:new    ;}.st1{fill:none;stroke:#FFFFFF;stroke-miterlimit:10;}.st2{opacity:0.3;}.st3{opacity:0.5;}.st4{fill:#FFFFFF;}.st5{fill:none;stroke:#FFFFFF;stroke-width:4;stroke-miterlimit:10;}.st6{fill:#00A651;}.st7{fill:#095A30;}.st8{opacity:0.3;enable-background:new    ;}.st9{fill:#0F492A;}</style><g class="st3"><g><path class="st4" d="M784.5 2253.2v-89.1h25.3v89.1H784.5z"/><path class="st4" d="M818.6 2208.7c0-27.3 15.9-46.1 41-46.1c25.1 0 40.9 18.8 40.9 46.1c0 27.3-15.8 46.1-40.9 46.1 C834.5 2254.8 818.6 2236 818.6 2208.7z M874.9 2208.7c0-14-5.5-23.8-15.2-23.8c-9.9 0-15.2 9.8-15.2 23.8 c0 13.9 5.3 23.8 15.2 23.8C869.4 2232.5 874.9 2222.6 874.9 2208.7z"/><path class="st4" d="M964.5 2253.2l-8.6-48.1l-8.7 48.1h-25.8l-21.1-89.1h27l8.6 51l10.4-51h19.1l10.6 51l8.4-51h27l-21 89.1 H964.5z"/><path class="st4" d="M1061.7 2253.2l-2.7-11.5h-23.5l-2.7 11.5h-27.3l26.5-89.1h30.5l26.5 89.1H1061.7z M1047.2 2190.2l-6.9 29.5 h13.9L1047.2 2190.2z"/><path class="st4" d="M1120.8 2253.2v-89.1h25.3v67.1h27.9v22L1120.8 2253.2L1120.8 2253.2z"/><path class="st4" d="M1231.7 2253.2l-2.7-11.5h-23.5l-2.7 11.5h-27.3l26.5-89.1h30.5l26.5 89.1H1231.7z M1217.3 2190.2l-6.9 29.5 h13.9L1217.3 2190.2z"/><path class="st4" d="M1260.7 2220.4v-56.3h25.4v56.5c0 7.3 4.1 12 11.8 12c7.6 0 11.8-4.7 11.8-12v-56.5h25.4v56.1 c0 22-15 34.6-37.1 34.6C1275.7 2254.8 1260.7 2242.3 1260.7 2220.4z"/><path class="st4" d="M1343.9 2208.7c0-27.9 16.4-46.1 41.3-46.1c17.8 0 28.5 11.5 33 24.2l-20.6 9.1c-1.9-5.6-5.9-11-12.4-11 c-8.8 0-15.5 6.9-15.5 23.8c0 16.8 6.7 23.8 15.5 23.8c4.3 0 8.3-1.5 10.6-3.5v-5.9h-12.8v-22h36.3v38.3 c-8.6 9.4-19.1 15.4-34.1 15.4C1360.2 2254.8 1343.9 2236.5 1343.9 2208.7z"/><path class="st4" d="M1478.1 2253.2v-34.7h-22.8v34.7H1430v-89.1h25.3v32.2h22.8v-32.2h25.4v89.1H1478.1z"/><path class="st4" d="M1510.3 2242.9l11.6-19.8c5.5 5.6 13.6 9.4 22.4 9.4c4.9 0 8.3-1.9 8.3-5.1c0-9.9-39.6-4.3-39.6-36.1 c0-14.4 11.2-28.7 33.3-28.7c11.9 0 22.6 3.7 30.5 10.4l-11.4 19.2c-5.9-4.9-13.1-7.3-19.9-7.3c-4.8 0-6.8 2-6.8 4.7 c0 9.4 39.6 5.3 39.6 35.5c0 17.9-12.7 29.7-33.7 29.7C1529.2 2254.8 1518.5 2250.4 1510.3 2242.9z"/><path class="st4" d="M1662.1 2253.2v-34.7h-22.8v34.7H1614v-89.1h25.3v32.2h22.8v-32.2h25.4v89.1H1662.1z"/><path class="st4" d="M1748.4 2253.2l-2.7-11.5h-23.5l-2.7 11.5h-27.3l26.5-89.1h30.5l26.5 89.1H1748.4z M1734 2190.2l-6.9 29.5 h13.9L1734 2190.2z"/><path class="st4" d="M1822.7 2253.2l-10.3-28.9h-6.5v28.9h-25.3v-89.1h39.4c18.4 0 30.1 13.2 30.1 29.7c0 15-7.5 22.6-13.5 25.9 l14 33.5H1822.7z M1824.5 2194.3c0-5.3-3.7-8.2-8.6-8.2h-10v16.2h10C1820.7 2202.3 1824.5 2199.5 1824.5 2194.3z"/><path class="st4" d="M1860.4 2253.2v-89.1h33.7c26.7 0 42.2 18 42.2 44.6c0 26.6-15.5 44.5-42 44.5H1860.4z M1910.5 2208.7 c0-15.4-5.9-22.6-16.3-22.6h-8.6v45h8.6C1904.2 2231.2 1910.5 2223 1910.5 2208.7z"/><path class="st4" d="M1945.1 2253.2v-89.1h56.4v22h-31.1v11h30.2v22h-30.2v12h31.1v22L1945.1 2253.2L1945.1 2253.2z"/><path class="st4" d="M2054.3 2253.2l-10.3-28.9h-6.5v28.9h-25.3v-89.1h39.4c18.4 0 30.1 13.2 30.1 29.7c0 15-7.5 22.6-13.5 25.9 l14 33.5H2054.3z M2056 2194.3c0-5.3-3.7-8.2-8.6-8.2h-10v16.2h10C2052.3 2202.3 2056 2199.5 2056 2194.3z"/></g></g><g class="st3"><path class="st4" d="M217.7 2102.5l-4.4-26.1h-24.4l-4.4 26.1h-13.2l22.4-114h14.9l22.6 114H217.7z M201.1 2003.8l-10.6 61h21.2 L201.1 2003.8z"/><path class="st4" d="M283.7 2102.5l-27.9-83.1v83.1H243v-114h12.8l27.3 81.4v-81.4H296v114H283.7z"/><path class="st4" d="M346.8 2102.5v-114h12.8v114H346.8z"/><path class="st4" d="M377.7 2045.5c0-32.5 8-59 29.7-59c21.7 0 29.7 26.5 29.7 59s-8 59-29.7 59 C385.7 2104.5 377.7 2078 377.7 2045.5z M423.8 2045.5c0-25.8-4.3-47.3-16.4-47.3c-12.3 0-16.4 21.5-16.4 47.3 c0 25.5 4.1 47.3 16.4 47.3C419.6 2092.9 423.8 2071 423.8 2045.5z"/><path class="st4" d="M502.8 2102.5l-12-88l-12 88h-13.5l-18.3-114h13.3l12.1 90.8l12.8-90.8h10.9l13 90.8l12-90.8h13.3l-18.1 114 H502.8z"/><path class="st4" d="M584.5 2102.5l-4.4-26.1h-24.4l-4.4 26.1H538l22.4-114h14.9l22.6 114H584.5z M567.9 2003.8l-10.6 61h21.2 L567.9 2003.8z"/><path class="st4" d="M649.3 2102.5v-102.5h-17.9v-11.5h49.1v11.5h-18.1v102.5H649.3z"/><path class="st4" d="M731.8 2102.5l-14.7-46H707v46h-12.8v-114H718c15.7 0 26.8 12.8 26.8 33.7c0 20.2-8.7 28.9-15.7 31.6 l16.7 48.7L731.8 2102.5L731.8 2102.5z M731.5 2022.5c0-13.2-5-22.6-15-22.6H707v45.1h9.4C726.5 2045 731.5 2035.6 731.5 2022.5z"/><path class="st4" d="M801 2102.5l-4.4-26.1h-24.4l-4.4 26.1h-13.2l22.4-114h14.9l22.6 114H801z M784.5 2003.8l-10.6 61h21.2 L784.5 2003.8z"/><path class="st4" d="M826.3 2102.5v-114h21.5c23.8 0 33.5 24.3 33.5 57.1c0 33.2-9.6 56.9-33.3 56.9H826.3z M867.9 2045.5 c0-27-5.5-45.6-19.8-45.6h-8.9v91.1h8.9C862.4 2091 867.9 2072.4 867.9 2045.5z"/><path class="st4" d="M899.3 2102.5v-114h12.8v114H899.3z"/><path class="st4" d="M943.9 2102.5v-102.5H926v-11.5H975v11.5h-18.1v102.5H943.9z"/><path class="st4" d="M988.9 2102.5v-114h12.8v114H988.9z"/><path class="st4" d="M1019.8 2045.5c0-32.5 8-59 29.7-59c21.7 0 29.7 26.5 29.7 59s-8 59-29.7 59 C1027.8 2104.5 1019.8 2078 1019.8 2045.5z M1066 2045.5c0-25.8-4.3-47.3-16.4-47.3c-12.3 0-16.4 21.5-16.4 47.3 c0 25.5 4.1 47.3 16.4 47.3C1061.7 2092.9 1066 2071 1066 2045.5z"/><path class="st4" d="M1138.1 2102.5l-27.9-83.1v83.1h-12.8v-114h12.8l27.3 81.4v-81.4h12.8v114H1138.1z"/><path class="st4" d="M1193.8 2094.1l6.5-10.3c4.1 5.6 10.9 9.1 17.4 9.1c8.2 0 14.7-7 14.7-17.6c0-26-35.5-27.9-35.5-60.7 c0-16.1 10.9-28 26.1-28c8 0 15.2 2.7 20.5 8l-5.6 9.9c-3.9-4.3-8.9-6.3-14.5-6.3c-7.2 0-13.3 6.2-13.3 15.9 c0 22.4 35.4 26.7 35.4 60.5c0 17.3-10.8 29.9-27.2 29.9C1208.1 2104.5 1199.9 2100.7 1193.8 2094.1z"/><path class="st4" d="M1261.6 2102.5v-114h12.8v114H1261.6z"/><path class="st4" d="M1336.7 2102.5l-27.9-83.1v83.1H1296v-114h12.8l27.3 81.4v-81.4h12.8v114H1336.7z"/><path class="st4" d="M1367.1 2045.5c0-33.2 8.4-59 29.7-59c14.5 0 20.3 11.3 23.6 21.9l-10.6 4.1c-2.7-8.9-5.8-14.4-13-14.4 c-12 0-16.4 20.5-16.4 47.3c0 26.8 4.4 47.3 16.4 47.3c8 0 11.3-7.5 13.3-17.3l10.8 3.9c-2.9 12.3-9.1 25-24.1 25 C1375.5 2104.5 1367.1 2078.7 1367.1 2045.5z"/><path class="st4" d="M1437.2 2102.5v-114h42.4v11.5H1450v38.5h28.4v11.5H1450v41.2h29.6v11.5L1437.2 2102.5L1437.2 2102.5z"/><path class="st4" d="M1541.1 2102.5v-48.4l-25.5-65.6h13.8l18.1 52.5l18.3-52.5h13.7l-25.5 65.6v48.4H1541.1z"/><path class="st4" d="M1590.1 2102.5v-114h42.4v11.5h-29.6v38.5h28.4v11.5h-28.4v41.2h29.6v11.5L1590.1 2102.5L1590.1 2102.5z"/><path class="st4" d="M1642.9 2094.1l6.5-10.3c4.1 5.6 10.9 9.1 17.4 9.1c8.2 0 14.7-7 14.7-17.6c0-26-35.5-27.9-35.5-60.7 c0-16.1 10.9-28 26.2-28c8 0 15.2 2.7 20.5 8l-5.6 9.9c-3.9-4.3-8.9-6.3-14.5-6.3c-7.2 0-13.3 6.2-13.3 15.9 c0 22.4 35.4 26.7 35.4 60.5c0 17.3-10.8 29.9-27.2 29.9C1657.3 2104.5 1649.1 2100.7 1642.9 2094.1z"/><path class="st4" d="M1720.2 2102.5v-102.5h-17.9v-11.5h49v11.5h-18.1v102.5H1720.2z"/><path class="st4" d="M1765.1 2102.5v-114h42.4v11.5H1778v38.5h28.4v11.5H1778v41.2h29.6v11.5L1765.1 2102.5L1765.1 2102.5z"/><path class="st4" d="M1862.9 2102.5l-14.7-46h-10.1v46h-12.8v-114h23.8c15.7 0 26.8 12.8 26.8 33.7c0 20.2-8.7 28.9-15.7 31.6 l16.7 48.7L1862.9 2102.5L1862.9 2102.5z M1862.6 2022.5c0-13.2-5-22.6-15-22.6h-9.4v45.1h9.4 C1857.6 2045 1862.6 2035.6 1862.6 2022.5z"/><path class="st4" d="M1895.2 2102.5v-114h21.5c23.8 0 33.5 24.3 33.5 57.1c0 33.2-9.6 56.9-33.3 56.9H1895.2z M1936.7 2045.5 c0-27-5.5-45.6-19.8-45.6h-8.9v91.1h8.9C1931.3 2091 1936.7 2072.4 1936.7 2045.5z"/><path class="st4" d="M2004.4 2102.5l-4.4-26.1h-24.4l-4.4 26.1h-13.2l22.4-114h14.9l22.6 114H2004.4z M1987.8 2003.8l-10.6 61h21.2 L1987.8 2003.8z"/><path class="st4" d="M2041.2 2102.5v-48.4l-25.5-65.6h13.8l18.1 52.5l18.3-52.5h13.7l-25.5 65.6v48.4H2041.2z"/></g><g class="st3"><path class="st4" d="M170.2 1668.3c0-13.9 10.7-23.4 25-23.4c11.9 0 18 6.9 20.6 13.1l-11.9 5.5c-1.2-3.6-4.6-6.7-8.7-6.7 c-6.7 0-11.1 5-11.1 11.3c0 6.3 4.4 11.3 11.1 11.3c4 0 7.7-3 8.7-6.7l11.9 5.5c-2.6 6.1-8.7 13.3-20.6 13.3 C181.1 1691.7 170.2 1682.2 170.2 1668.3z"/><path class="st4" d="M318.3 1668.3c0-13.9 10.9-23.4 24.8-23.4c13.9 0 24.8 9.5 24.8 23.4c0 13.9-10.9 23.4-24.8 23.4 C329.2 1691.7 318.3 1682.2 318.3 1668.3z M353.8 1668.3c0-6.3-4.2-11.3-10.9-11.3s-10.9 5-10.9 11.3c0 6.3 4.2 11.3 10.9 11.3 C349.6 1679.6 353.8 1674.5 353.8 1668.3z"/><path class="st4" d="M513.3 1690.9v-27.3l-10.1 27.3h-6.1l-10.1-27.3v27.3h-13.7v-45.4h19l7.9 21.8l7.9-21.8h19v45.4H513.3z"/><path class="st4" d="M634.9 1690.9v-45.4h34.3v11.9h-20.6v4.4h20.2v11.9h-20.2v5h20.6v11.9h-34.3V1690.9z"/><path class="st4" d="M775.8 1690.9v-45.4H796c14.3 0 24.8 8.1 24.8 22.6c0 14.5-10.7 22.6-24.8 22.6h-20.2V1690.9z M807.1 1668.1 c0-6.1-3.6-10.7-10.9-10.7h-6.7v21.4h6.5C802.9 1678.8 807.1 1673.7 807.1 1668.1z"/><path class="st4" d="M935.8 1690.9v-18l-17-27.3h15.3l8.5 15.3l8.3-15.3h15.3l-16.8 27.3v18H935.8z"/><path class="st4" d="M1069.2 1690.9v-45.4h34.3v11.9H1083v4.4h20.2v11.9H1083v17h-13.7V1690.9z"/><path class="st4" d="M1210 1690.9v-45.4h34.3v11.9h-20.6v4.4h20.2v11.9h-20.2v5h20.6v11.9H1210V1690.9z"/><path class="st4" d="M1347.5 1684.4l7.1-10.1c3.4 3.2 8.5 5.9 14.5 5.9c2.6 0 5-0.6 5-2.4c0-4.4-25.2 0-25.2-17.8 c0-7.7 6.5-14.9 18.8-14.9c7.5 0 14.1 2 19.2 6.3l-7.3 9.7c-4-3-9.1-4.4-13.3-4.4c-2.6 0-3.4 0.8-3.4 2c0 4.2 25.2 0.6 25.2 17.6 c0 9.9-7.5 15.8-19.6 15.8C1359 1691.7 1352.4 1688.9 1347.5 1684.4z"/><path class="st4" d="M1501.6 1690.9v-33.3h-12.1v-11.9h38v11.9h-12.1v33.3H1501.6z"/><path class="st4" d="M1632.6 1690.9v-45.4h13.7v45.4H1632.6z"/><path class="st4" d="M1766.1 1690.9l-16.8-45.4h15.5l9.7 30.5l9.7-30.5h15.5l-16.8 45.4H1766.1z"/><path class="st4" d="M1930.5 1690.9l-1.6-5.3h-16.4l-1.6 5.3h-15.5l16.8-45.4h17.2l16.8 45.4H1930.5z M1920.8 1659l-4.4 14.5h8.9 L1920.8 1659z"/><path class="st4" d="M2049 1690.9v-45.4h13.7v33.3h17.2v11.9H2049V1690.9z"/></g><g class="st2"><path d="M545.3 1207.2V1181h-9.5v-9.5h29.8v9.3h-9.5v26.2h-10.8V1207.2z"/><path d="M593 1207.2v-13.5h-12.8v13.5h-10.8v-35.7h10.8v12.6H593v-12.6h10.8v35.7H593z"/><path d="M609.5 1207.2v-35.7h27.1v9.3h-16.3v3.7h15.9v9.3h-15.9v3.8h16.3v9.3h-27.1V1207.2L609.5 1207.2z"/></g><path class="st8" d="M264.1 1362.9v-75.8c0-12.9-8.9-22.4-24-22.4c-15.1 0-23.8 9.5-23.8 22.4v255.7c0 12.9 8.9 22.4 24 22.4 c15.1 0 24-9.3 24-22.4v-85.3h-24.2v-32.3h60.3v117.3c0 35.3-21.4 56.7-60.3 56.7c-38.9 0-60.3-21.4-60.3-56.7v-255.5 c0-35.3 21.4-56.7 60.3-56.7c38.9 0 60.3 21.4 60.3 56.7v75.8L264.1 1362.9L264.1 1362.9z"/><path class="st8" d="M489.1 1596.6h-36.3l-8.3-139.1c-1.6-19.2-11.9-27-27-27h-18.1v166.1H363v-363.5h62.3 c38.9 0 58.7 19.2 58.7 54.6v76.4c0 26.4-8.9 45.2-28 53c12.9 6.7 21.4 19.2 22.8 40.5L489.1 1596.6z M399.1 1265.3v132.5h26 c15.1 0 22.4-8.9 22.4-21.8v-88.5c0-12.9-7.3-22.4-22.4-22.4h-26V1265.3z"/><path class="st8" d="M579.6 1265.3v132.5h55v32.7h-55v133.5h64.3v32.7H543.1v-363.5h100.8v32.3H579.6z"/><path class="st8" d="M742.8 1265.3v132.5h55v32.7h-55v133.5h64.3v32.7H706.3v-363.5h100.8v32.3H742.8z"/><path class="st8" d="M991.6 1233.1v363.5h-40.5L901.7 1355c1 33.3 1.6 63.3 1.6 98.6v142.8h-32.7v-363.3h40.5l49.4 241.6 c-1-33.3-1.6-63.9-1.6-98.6v-143H991.6z"/><path class="st8" d="M1170.2 1362.9v-75.8c0-12.9-8.9-22.4-24-22.4c-15.1 0-23.8 9.3-23.8 22.4v255.7c0 12.9 8.9 22.4 23.8 22.4 c15.1 0 24-9.3 24-22.4v-85.3h-24v-32.3h60.3v117.3c0 35.3-21.4 56.7-60.3 56.7c-38.9 0-60.3-21.4-60.3-56.7v-255.5 c0-35.3 21.4-56.7 60.3-56.7c38.9 0 60.3 21.4 60.3 56.7v75.8L1170.2 1362.9L1170.2 1362.9z"/><path class="st8" d="M1397.8 1596.6h-36.3l-8.3-139.1c-1.6-19.2-11.9-27-27-27H1308v166.1h-36.3v-363.5h62.3 c38.9 0 58.7 19.2 58.7 54.6v76.4c0 26.4-8.9 45.2-28 53c12.9 6.7 21.4 19.2 22.8 40.5L1397.8 1596.6z M1307.8 1265.3v132.5h26 c15.1 0 22.4-8.9 22.4-21.8v-88.5c0-12.9-7.3-22.4-22.4-22.4h-26V1265.3z"/><path class="st8" d="M1537.9 1498h-42.5l-11.9 98.6h-34.9l50.8-366.2h36.3l50.4 366.2h-36.3L1537.9 1498z M1534.2 1465.3 l-17.7-147.6l-17.7 147.6H1534.2z"/><path class="st8" d="M1759.6 1233.1l-50.4 366.2h-36.3l-51-366.2h36.3l32.7 271.2l34.3-271.2H1759.6L1759.6 1233.1z"/><path class="st8" d="M1856.2 1265.3v132.5h55v32.7h-55v133.5h64.3v32.7h-100.8v-363.5h100.8v32.3H1856.2z"/><path class="st8" d="M2089.2 1563.9v32.7h-100.8v-363.5h36.3v330.9H2089.2L2089.2 1563.9z"/><line class="st5" x1="169.4" y1="1744.8" x2="2078.8" y2="1744.8"/><line class="st5" x1="169.4" y1="1760.9" x2="2078.8" y2="1760.9"/><line class="st5" x1="169.4" y1="1924.9" x2="2079.1" y2="1924.9"/><line class="st5" x1="169.4" y1="1908.9" x2="2079.1" y2="1908.9"/><g><path class="st9" d="M169.5 1667.2c0-13.9 10.7-23.4 25-23.4c11.9 0 18 6.9 20.6 13.1l-11.9 5.5c-1.2-3.6-4.6-6.7-8.7-6.7 c-6.7 0-11.1 5-11.1 11.3c0 6.3 4.4 11.3 11.1 11.3c4 0 7.7-3 8.7-6.7l11.9 5.5c-2.6 6.1-8.7 13.3-20.6 13.3 C180.4 1690.6 169.5 1681.2 169.5 1667.2z"/><path class="st9" d="M317.5 1667.2c0-13.9 10.9-23.4 24.8-23.4c13.9 0 24.8 9.5 24.8 23.4s-10.9 23.4-24.8 23.4 C328.4 1690.6 317.5 1681.2 317.5 1667.2z M353 1667.2c0-6.3-4.2-11.3-10.9-11.3c-6.7 0-10.9 5-10.9 11.3s4.2 11.3 10.9 11.3 S353 1673.5 353 1667.2z"/><path class="st9" d="M512.5 1689.8v-27.3l-10.1 27.3h-6.1l-10.1-27.3v27.3h-13.7v-45.4h19l7.9 21.8l7.9-21.8h19v45.4H512.5z"/><path class="st9" d="M634.1 1689.8v-45.4h34.3v11.9h-20.6v4.4H668v11.9h-20.2v5h20.6v11.9h-34.3V1689.8z"/><path class="st9" d="M775.1 1689.8v-45.4h20.2c14.3 0 24.8 8.1 24.8 22.6c0 14.5-10.7 22.6-24.8 22.6h-20.2V1689.8z M806.4 1667 c0-6.1-3.6-10.7-10.9-10.7h-6.7v21.4h6.5C802.1 1677.7 806.4 1672.7 806.4 1667z"/><path class="st9" d="M935 1689.8v-18l-17-27.3h15.3l8.5 15.3l8.3-15.3h15.3l-16.8 27.3v18H935z"/><path class="st9" d="M1068.5 1689.8v-45.4h34.3v11.9h-20.6v4.4h20.2v11.9h-20.2v17h-13.7V1689.8z"/><path class="st9" d="M1209.2 1689.8v-45.4h34.3v11.9H1223v4.4h20.2v11.9H1223v5h20.6v11.9h-34.3V1689.8z"/><path class="st9" d="M1346.7 1683.4l7.1-10.1c3.4 3.2 8.5 5.9 14.5 5.9c2.6 0 5-0.6 5-2.4c0-4.4-25.2 0-25.2-17.8 c0-7.7 6.5-14.9 18.8-14.9c7.5 0 14.1 2 19.2 6.3l-7.3 9.7c-4-3-9.1-4.4-13.3-4.4c-2.6 0-3.4 0.8-3.4 2c0 4.2 25.2 0.6 25.2 17.6 c0 9.9-7.5 15.8-19.6 15.8C1358.2 1690.6 1351.6 1687.8 1346.7 1683.4z"/><path class="st9" d="M1500.8 1689.8v-33.3h-12.1v-11.9h38v11.9h-12.1v33.3H1500.8z"/><path class="st9" d="M1631.9 1689.8v-45.4h13.7v45.4H1631.9z"/><path class="st9" d="M1765.3 1689.8l-16.8-45.4h15.6l9.7 30.5l9.7-30.5h15.5l-16.8 45.4H1765.3z"/><path class="st9" d="M1929.7 1689.8l-1.6-5.2h-16.4l-1.6 5.2h-15.5l16.8-45.4h17.2l16.8 45.4H1929.7z M1920 1657.9l-4.4 14.5h8.9 L1920 1657.9z"/><path class="st9" d="M2048.3 1689.8v-45.4h13.7v33.3h17.2v11.9h-30.9V1689.8z"/></g><path class="st4" d="M254 1353.8V1278c0-12.9-8.9-22.4-24-22.4c-15.1 0-23.8 9.5-23.8 22.4v255.7c0 12.9 8.9 22.4 24 22.4 c15.1 0 24-9.3 24-22.4v-85.3H230v-32.3h60.3v117.3c0 35.3-21.4 56.7-60.3 56.7c-38.9 0-60.3-21.4-60.3-56.7V1278 c0-35.3 21.4-56.7 60.3-56.7c38.9 0 60.3 21.4 60.3 56.7v75.8H254z"/><path class="st4" d="M479 1587.5h-36.3l-8.3-139.1c-1.6-19.2-11.9-27-27-27h-18.1v166.1H353V1224h62.3c38.9 0 58.7 19.2 58.7 54.6 v76.4c0 26.4-8.9 45.2-28 53c12.9 6.7 21.4 19.2 22.8 40.5L479 1587.5z M389.1 1256.3v132.5h26c15.1 0 22.4-8.9 22.4-21.8v-88.5 c0-12.9-7.3-22.4-22.4-22.4h-26V1256.3L389.1 1256.3z"/><path class="st4" d="M569.5 1256.3v132.5h55v32.7h-55v133.5h64.3v32.7H533V1224h100.8v32.3H569.5z"/><path class="st4" d="M732.8 1256.3v132.5h55v32.7h-55v133.5h64.3v32.7H696.3V1224h100.8v32.3H732.8z"/><path class="st4" d="M981.6 1224v363.5H941L891.6 1346c1 33.3 1.6 63.3 1.6 98.6v142.8h-32.7V1224h40.5l49.4 241.6 c-1-33.3-1.6-63.9-1.6-98.6v-143H981.6z"/><path class="st4" d="M1160.1 1353.8V1278c0-12.9-8.9-22.4-24-22.4c-15.1 0-23.8 9.3-23.8 22.4v255.7c0 12.9 8.9 22.4 23.8 22.4 c15.1 0 24-9.3 24-22.4v-85.3h-24v-32.3h60.3v117.3c0 35.3-21.4 56.7-60.3 56.7c-38.9 0-60.3-21.4-60.3-56.7V1278 c0-35.3 21.4-56.7 60.3-56.7c38.9 0 60.3 21.4 60.3 56.7v75.8H1160.1z"/><path class="st4" d="M1387.7 1587.5h-36.3l-8.3-139.1c-1.6-19.2-11.9-27-27-27H1298v166.1h-36.3V1224h62.3 c38.9 0 58.7 19.2 58.7 54.6v76.4c0 26.4-8.9 45.2-28 53c12.9 6.7 21.4 19.2 22.8 40.5L1387.7 1587.5z M1297.8 1256.3v132.5h26 c15.1 0 22.4-8.9 22.4-21.8v-88.5c0-12.9-7.3-22.4-22.4-22.4h-26V1256.3z"/><path class="st4" d="M1527.8 1488.9h-42.5l-11.9 98.6h-34.9l50.8-366.2h36.3l50.4 366.2h-36.3L1527.8 1488.9z M1524.2 1456.3 l-17.7-147.6l-17.7 147.6H1524.2z"/><path class="st4" d="M1749.6 1224l-50.4 366.2h-36.3l-51-366.2h36.3l32.7 271.2l34.3-271.2H1749.6L1749.6 1224z"/><path class="st4" d="M1846.1 1256.3v132.5h55v32.7h-55v133.5h64.3v32.7h-100.8V1224h100.8v32.3H1846.1z"/><path class="st4" d="M2079.2 1554.9v32.7h-100.8V1224h36.3v330.9H2079.2L2079.2 1554.9z"/><g><circle class="st6" cx="1124.6" cy="1834.1" r="125.6"/><circle class="st0" cx="1124.6" cy="1834.1" r="117.4"/><g><g><path class="st4" d="M1119.5 1896.6l10.3-16.6c5.9 6.1 14 8.7 22.7 8.7c7.9 0 18.8-3.4 18.8-17.6v-5.7 c-6.1 7.3-13.6 10.9-22.1 10.9c-18.2 0-32.6-12.3-32.6-37.4c0-24.5 14-37.2 32.6-37.2c8.3 0 16 3.2 22.1 10.5v-8.7h23.7v67.8 c0 30.1-24.1 36.6-42.5 36.6C1139.8 1907.7 1129 1904.5 1119.5 1896.6z M1171.3 1848.8V1829c-2.8-4-9.3-6.7-14.2-6.7 c-9.3 0-16.2 5.7-16.2 16.4c0 10.9 6.9 16.6 16.2 16.6C1162.2 1855.5 1168.5 1852.9 1171.3 1848.8z"/></g><g><path class="st4" d="M1096.7 1878.4c-18.4 0-42.5-6.5-42.5-36.6V1774h23.7v8.7c6.1-7.3 13.8-10.5 22.1-10.5 c18.6 0 32.6 12.9 32.6 37.2c0 25.1-14.4 37.4-32.6 37.4c-8.5 0-15.8-3.4-22.1-10.9v5.7c0 14.2 11.1 17.6 18.8 17.6 c8.7 0 16.8-2.4 22.7-8.5l10.3 16.6C1120.1 1875.1 1109.4 1878.4 1096.7 1878.4z M1092 1826.2c9.3 0 16.2-5.7 16.2-16.6 c0-10.7-6.9-16.4-16.2-16.4c-4.9 0-11.1 2.6-14.2 6.7v19.8C1080.9 1823.5 1087.2 1826.2 1092 1826.2z"/></g></g></g><g><line class="st1" x1="170.4" y1="1760.9" x2="187.6" y2="1743.7"/><line class="st1" x1="188.3" y1="1760.9" x2="205.5" y2="1743.7"/><line class="st1" x1="206.1" y1="1760.9" x2="223.3" y2="1743.7"/><line class="st1" x1="223.9" y1="1760.9" x2="241.1" y2="1743.7"/><line class="st1" x1="241.7" y1="1760.9" x2="258.9" y2="1743.7"/><line class="st1" x1="259.6" y1="1760.9" x2="276.8" y2="1743.7"/><line class="st1" x1="277.4" y1="1760.9" x2="294.6" y2="1743.7"/><line class="st1" x1="295.2" y1="1760.9" x2="312.4" y2="1743.7"/><line class="st1" x1="313" y1="1760.9" x2="330.2" y2="1743.7"/><line class="st1" x1="330.9" y1="1760.9" x2="348.1" y2="1743.7"/><line class="st1" x1="348.7" y1="1760.9" x2="365.9" y2="1743.7"/><line class="st1" x1="366.5" y1="1760.9" x2="383.7" y2="1743.7"/><line class="st1" x1="384.3" y1="1760.9" x2="401.5" y2="1743.7"/><line class="st1" x1="402.1" y1="1760.9" x2="419.4" y2="1743.7"/><line class="st1" x1="420" y1="1760.9" x2="437.2" y2="1743.7"/><line class="st1" x1="437.8" y1="1760.9" x2="455" y2="1743.7"/><line class="st1" x1="455.6" y1="1760.9" x2="472.8" y2="1743.7"/><line class="st1" x1="473.4" y1="1760.9" x2="490.7" y2="1743.7"/><line class="st1" x1="491.3" y1="1760.9" x2="508.5" y2="1743.7"/><line class="st1" x1="509.1" y1="1760.9" x2="526.3" y2="1743.7"/><line class="st1" x1="526.9" y1="1760.9" x2="544.1" y2="1743.7"/><line class="st1" x1="544.7" y1="1760.9" x2="561.9" y2="1743.7"/><line class="st1" x1="562.6" y1="1760.9" x2="579.8" y2="1743.7"/><line class="st1" x1="580.4" y1="1760.9" x2="597.6" y2="1743.7"/><line class="st1" x1="598.2" y1="1760.9" x2="615.4" y2="1743.7"/><line class="st1" x1="616" y1="1760.9" x2="633.2" y2="1743.7"/><line class="st1" x1="633.9" y1="1760.9" x2="651.1" y2="1743.7"/><line class="st1" x1="651.7" y1="1760.9" x2="668.9" y2="1743.7"/><line class="st1" x1="669.5" y1="1760.9" x2="686.7" y2="1743.7"/><line class="st1" x1="687.3" y1="1760.9" x2="704.5" y2="1743.7"/><line class="st1" x1="705.2" y1="1760.9" x2="722.4" y2="1743.7"/><line class="st1" x1="723" y1="1760.9" x2="740.2" y2="1743.7"/><line class="st1" x1="740.8" y1="1760.9" x2="758" y2="1743.7"/><line class="st1" x1="758.6" y1="1760.9" x2="775.8" y2="1743.7"/><line class="st1" x1="776.5" y1="1760.9" x2="793.7" y2="1743.7"/><line class="st1" x1="794.3" y1="1760.9" x2="811.5" y2="1743.7"/><line class="st1" x1="812.1" y1="1760.9" x2="829.3" y2="1743.7"/><line class="st1" x1="829.9" y1="1760.9" x2="847.1" y2="1743.7"/><line class="st1" x1="847.8" y1="1760.9" x2="865" y2="1743.7"/><line class="st1" x1="865.6" y1="1760.9" x2="882.8" y2="1743.7"/><line class="st1" x1="883.4" y1="1760.9" x2="900.6" y2="1743.7"/><line class="st1" x1="901.2" y1="1760.9" x2="918.4" y2="1743.7"/><line class="st1" x1="919" y1="1760.9" x2="936.3" y2="1743.7"/><line class="st1" x1="936.9" y1="1760.9" x2="954.1" y2="1743.7"/><line class="st1" x1="954.7" y1="1760.9" x2="971.9" y2="1743.7"/><line class="st1" x1="972.5" y1="1760.9" x2="989.7" y2="1743.7"/><line class="st1" x1="990.3" y1="1760.9" x2="1007.6" y2="1743.7"/><line class="st1" x1="1008.2" y1="1760.9" x2="1025.4" y2="1743.7"/></g><g><line class="st1" x1="2077.2" y1="1760.9" x2="2060" y2="1743.7"/><line class="st1" x1="2059.3" y1="1760.9" x2="2042.1" y2="1743.7"/><line class="st1" x1="2041.5" y1="1760.9" x2="2024.3" y2="1743.7"/><line class="st1" x1="2023.7" y1="1760.9" x2="2006.5" y2="1743.7"/><line class="st1" x1="2005.9" y1="1760.9" x2="1988.7" y2="1743.7"/><line class="st1" x1="1988.1" y1="1760.9" x2="1970.8" y2="1743.7"/><line class="st1" x1="1970.2" y1="1760.9" x2="1953" y2="1743.7"/><line class="st1" x1="1952.4" y1="1760.9" x2="1935.2" y2="1743.7"/><line class="st1" x1="1934.6" y1="1760.9" x2="1917.4" y2="1743.7"/><line class="st1" x1="1916.8" y1="1760.9" x2="1899.6" y2="1743.7"/><line class="st1" x1="1898.9" y1="1760.9" x2="1881.7" y2="1743.7"/><line class="st1" x1="1881.1" y1="1760.9" x2="1863.9" y2="1743.7"/><line class="st1" x1="1863.3" y1="1760.9" x2="1846.1" y2="1743.7"/><line class="st1" x1="1845.5" y1="1760.9" x2="1828.3" y2="1743.7"/><line class="st1" x1="1827.6" y1="1760.9" x2="1810.4" y2="1743.7"/><line class="st1" x1="1809.8" y1="1760.9" x2="1792.6" y2="1743.7"/><line class="st1" x1="1792" y1="1760.9" x2="1774.8" y2="1743.7"/><line class="st1" x1="1774.2" y1="1760.9" x2="1757" y2="1743.7"/><line class="st1" x1="1756.3" y1="1760.9" x2="1739.1" y2="1743.7"/><line class="st1" x1="1738.5" y1="1760.9" x2="1721.3" y2="1743.7"/><line class="st1" x1="1720.7" y1="1760.9" x2="1703.5" y2="1743.7"/><line class="st1" x1="1702.9" y1="1760.9" x2="1685.7" y2="1743.7"/><line class="st1" x1="1685" y1="1760.9" x2="1667.8" y2="1743.7"/><line class="st1" x1="1667.2" y1="1760.9" x2="1650" y2="1743.7"/><line class="st1" x1="1649.4" y1="1760.9" x2="1632.2" y2="1743.7"/><line class="st1" x1="1631.6" y1="1760.9" x2="1614.4" y2="1743.7"/><line class="st1" x1="1613.7" y1="1760.9" x2="1596.5" y2="1743.7"/><line class="st1" x1="1595.9" y1="1760.9" x2="1578.7" y2="1743.7"/><line class="st1" x1="1578.1" y1="1760.9" x2="1560.9" y2="1743.7"/><line class="st1" x1="1560.3" y1="1760.9" x2="1543.1" y2="1743.7"/><line class="st1" x1="1542.4" y1="1760.9" x2="1525.2" y2="1743.7"/><line class="st1" x1="1524.6" y1="1760.9" x2="1507.4" y2="1743.7"/><line class="st1" x1="1506.8" y1="1760.9" x2="1489.6" y2="1743.7"/><line class="st1" x1="1489" y1="1760.9" x2="1471.8" y2="1743.7"/><line class="st1" x1="1471.2" y1="1760.9" x2="1453.9" y2="1743.7"/><line class="st1" x1="1453.3" y1="1760.9" x2="1436.1" y2="1743.7"/><line class="st1" x1="1435.5" y1="1760.9" x2="1418.3" y2="1743.7"/><line class="st1" x1="1417.7" y1="1760.9" x2="1400.5" y2="1743.7"/><line class="st1" x1="1399.9" y1="1760.9" x2="1382.7" y2="1743.7"/><line class="st1" x1="1382" y1="1760.9" x2="1364.8" y2="1743.7"/><line class="st1" x1="1364.2" y1="1760.9" x2="1347" y2="1743.7"/><line class="st1" x1="1346.4" y1="1760.9" x2="1329.2" y2="1743.7"/><line class="st1" x1="1328.6" y1="1760.9" x2="1311.4" y2="1743.7"/><line class="st1" x1="1310.7" y1="1760.9" x2="1293.5" y2="1743.7"/><line class="st1" x1="1292.9" y1="1760.9" x2="1275.7" y2="1743.7"/><line class="st1" x1="1275.1" y1="1760.9" x2="1257.9" y2="1743.7"/><line class="st1" x1="1257.3" y1="1760.9" x2="1240.1" y2="1743.7"/><line class="st1" x1="1239.4" y1="1760.9" x2="1222.2" y2="1743.7"/></g><g><line class="st1" x1="2077.2" y1="1908.9" x2="2060" y2="1926.1"/><line class="st1" x1="2059.3" y1="1908.9" x2="2042.1" y2="1926.1"/><line class="st1" x1="2041.5" y1="1908.9" x2="2024.3" y2="1926.1"/><line class="st1" x1="2023.7" y1="1908.9" x2="2006.5" y2="1926.1"/><line class="st1" x1="2005.9" y1="1908.9" x2="1988.7" y2="1926.1"/><line class="st1" x1="1988.1" y1="1908.9" x2="1970.8" y2="1926.1"/><line class="st1" x1="1970.2" y1="1908.9" x2="1953" y2="1926.1"/><line class="st1" x1="1952.4" y1="1908.9" x2="1935.2" y2="1926.1"/><line class="st1" x1="1934.6" y1="1908.9" x2="1917.4" y2="1926.1"/><line class="st1" x1="1916.8" y1="1908.9" x2="1899.6" y2="1926.1"/><line class="st1" x1="1898.9" y1="1908.9" x2="1881.7" y2="1926.1"/><line class="st1" x1="1881.1" y1="1908.9" x2="1863.9" y2="1926.1"/><line class="st1" x1="1863.3" y1="1908.9" x2="1846.1" y2="1926.1"/><line class="st1" x1="1845.5" y1="1908.9" x2="1828.3" y2="1926.1"/><line class="st1" x1="1827.6" y1="1908.9" x2="1810.4" y2="1926.1"/><line class="st1" x1="1809.8" y1="1908.9" x2="1792.6" y2="1926.1"/><line class="st1" x1="1792" y1="1908.9" x2="1774.8" y2="1926.1"/><line class="st1" x1="1774.2" y1="1908.9" x2="1757" y2="1926.1"/><line class="st1" x1="1756.3" y1="1908.9" x2="1739.1" y2="1926.1"/><line class="st1" x1="1738.5" y1="1908.9" x2="1721.3" y2="1926.1"/><line class="st1" x1="1720.7" y1="1908.9" x2="1703.5" y2="1926.1"/><line class="st1" x1="1702.9" y1="1908.9" x2="1685.7" y2="1926.1"/><line class="st1" x1="1685" y1="1908.9" x2="1667.8" y2="1926.1"/><line class="st1" x1="1667.2" y1="1908.9" x2="1650" y2="1926.1"/><line class="st1" x1="1649.4" y1="1908.9" x2="1632.2" y2="1926.1"/><line class="st1" x1="1631.6" y1="1908.9" x2="1614.4" y2="1926.1"/><line class="st1" x1="1613.7" y1="1908.9" x2="1596.5" y2="1926.1"/><line class="st1" x1="1595.9" y1="1908.9" x2="1578.7" y2="1926.1"/><line class="st1" x1="1578.1" y1="1908.9" x2="1560.9" y2="1926.1"/><line class="st1" x1="1560.3" y1="1908.9" x2="1543.1" y2="1926.1"/><line class="st1" x1="1542.4" y1="1908.9" x2="1525.2" y2="1926.1"/><line class="st1" x1="1524.6" y1="1908.9" x2="1507.4" y2="1926.1"/><line class="st1" x1="1506.8" y1="1908.9" x2="1489.6" y2="1926.1"/><line class="st1" x1="1489" y1="1908.9" x2="1471.8" y2="1926.1"/><line class="st1" x1="1471.2" y1="1908.9" x2="1453.9" y2="1926.1"/><line class="st1" x1="1453.3" y1="1908.9" x2="1436.1" y2="1926.1"/><line class="st1" x1="1435.5" y1="1908.9" x2="1418.3" y2="1926.1"/><line class="st1" x1="1417.7" y1="1908.9" x2="1400.5" y2="1926.1"/><line class="st1" x1="1399.9" y1="1908.9" x2="1382.7" y2="1926.1"/><line class="st1" x1="1382" y1="1908.9" x2="1364.8" y2="1926.1"/><line class="st1" x1="1364.2" y1="1908.9" x2="1347" y2="1926.1"/><line class="st1" x1="1346.4" y1="1908.9" x2="1329.2" y2="1926.1"/><line class="st1" x1="1328.6" y1="1908.9" x2="1311.4" y2="1926.1"/><line class="st1" x1="1310.7" y1="1908.9" x2="1293.5" y2="1926.1"/><line class="st1" x1="1292.9" y1="1908.9" x2="1275.7" y2="1926.1"/><line class="st1" x1="1275.1" y1="1908.9" x2="1257.9" y2="1926.1"/><line class="st1" x1="1257.3" y1="1908.9" x2="1240.1" y2="1926.1"/><line class="st1" x1="1239.4" y1="1908.9" x2="1222.2" y2="1926.1"/></g><g><line class="st1" x1="170.4" y1="1907.9" x2="187.6" y2="1925.1"/><line class="st1" x1="188.3" y1="1907.9" x2="205.5" y2="1925.1"/><line class="st1" x1="206.1" y1="1907.9" x2="223.3" y2="1925.1"/><line class="st1" x1="223.9" y1="1907.9" x2="241.1" y2="1925.1"/><line class="st1" x1="241.7" y1="1907.9" x2="258.9" y2="1925.1"/><line class="st1" x1="259.6" y1="1907.9" x2="276.8" y2="1925.1"/><line class="st1" x1="277.4" y1="1907.9" x2="294.6" y2="1925.1"/><line class="st1" x1="295.2" y1="1907.9" x2="312.4" y2="1925.1"/><line class="st1" x1="313" y1="1907.9" x2="330.2" y2="1925.1"/><line class="st1" x1="330.9" y1="1907.9" x2="348.1" y2="1925.1"/><line class="st1" x1="348.7" y1="1907.9" x2="365.9" y2="1925.1"/><line class="st1" x1="366.5" y1="1907.9" x2="383.7" y2="1925.1"/><line class="st1" x1="384.3" y1="1907.9" x2="401.5" y2="1925.1"/><line class="st1" x1="402.1" y1="1907.9" x2="419.4" y2="1925.1"/><line class="st1" x1="420" y1="1907.9" x2="437.2" y2="1925.1"/><line class="st1" x1="437.8" y1="1907.9" x2="455" y2="1925.1"/><line class="st1" x1="455.6" y1="1907.9" x2="472.8" y2="1925.1"/><line class="st1" x1="473.4" y1="1907.9" x2="490.7" y2="1925.1"/><line class="st1" x1="491.3" y1="1907.9" x2="508.5" y2="1925.1"/><line class="st1" x1="509.1" y1="1907.9" x2="526.3" y2="1925.1"/><line class="st1" x1="526.9" y1="1907.9" x2="544.1" y2="1925.1"/><line class="st1" x1="544.7" y1="1907.9" x2="561.9" y2="1925.1"/><line class="st1" x1="562.6" y1="1907.9" x2="579.8" y2="1925.1"/><line class="st1" x1="580.4" y1="1907.9" x2="597.6" y2="1925.1"/><line class="st1" x1="598.2" y1="1907.9" x2="615.4" y2="1925.1"/><line class="st1" x1="616" y1="1907.9" x2="633.2" y2="1925.1"/><line class="st1" x1="633.9" y1="1907.9" x2="651.1" y2="1925.1"/><line class="st1" x1="651.7" y1="1907.9" x2="668.9" y2="1925.1"/><line class="st1" x1="669.5" y1="1907.9" x2="686.7" y2="1925.1"/><line class="st1" x1="687.3" y1="1907.9" x2="704.5" y2="1925.1"/><line class="st1" x1="705.2" y1="1907.9" x2="722.4" y2="1925.1"/><line class="st1" x1="723" y1="1907.9" x2="740.2" y2="1925.1"/><line class="st1" x1="740.8" y1="1907.9" x2="758" y2="1925.1"/><line class="st1" x1="758.6" y1="1907.9" x2="775.8" y2="1925.1"/><line class="st1" x1="776.5" y1="1907.9" x2="793.7" y2="1925.1"/><line class="st1" x1="794.3" y1="1907.9" x2="811.5" y2="1925.1"/><line class="st1" x1="812.1" y1="1907.9" x2="829.3" y2="1925.1"/><line class="st1" x1="829.9" y1="1907.9" x2="847.1" y2="1925.1"/><line class="st1" x1="847.8" y1="1907.9" x2="865" y2="1925.1"/><line class="st1" x1="865.6" y1="1907.9" x2="882.8" y2="1925.1"/><line class="st1" x1="883.4" y1="1907.9" x2="900.6" y2="1925.1"/><line class="st1" x1="901.2" y1="1907.9" x2="918.4" y2="1925.1"/><line class="st1" x1="919" y1="1907.9" x2="936.3" y2="1925.1"/><line class="st1" x1="936.9" y1="1907.9" x2="954.1" y2="1925.1"/><line class="st1" x1="954.7" y1="1907.9" x2="971.9" y2="1925.1"/><line class="st1" x1="972.5" y1="1907.9" x2="989.7" y2="1925.1"/><line class="st1" x1="990.3" y1="1907.9" x2="1007.6" y2="1925.1"/><line class="st1" x1="1008.2" y1="1907.9" x2="1025.4" y2="1925.1"/></g><g><g><path class="st4" d="M1334.1 1876.7v-64.5l-15.7 64.5h-3.7l-15.5-64.5v64.5h-9.2v-82.2h12.6l14.1 58l14.3-58h12.3v82.2H1334.1z"/><path class="st4" d="M1385.4 1876.7l-3.2-18.9h-17.6l-3.2 18.9h-9.5l16.2-82.2h10.7l16.3 82.2H1385.4z M1373.5 1805.5l-7.6 44 h15.3L1373.5 1805.5z"/><path class="st4" d="M1430.8 1876.7l-10.6-33.2h-7.3v33.2h-9.2v-82.2h17.1c11.3 0 19.4 9.2 19.4 24.3c0 14.6-6.3 20.8-11.3 22.8 l12.1 35.1H1430.8L1430.8 1876.7z M1430.6 1819c0-9.5-3.6-16.3-10.9-16.3h-6.8v32.6h6.8C1427 1835.2 1430.6 1828.5 1430.6 1819z"/><path class="st4" d="M1451.7 1835.6c0-23.9 6-42.5 21.5-42.5c10.5 0 14.7 8.1 17 15.8l-7.6 3c-2-6.4-4.2-10.4-9.4-10.4 c-8.6 0-11.8 14.8-11.8 34.2c0 19.4 3.2 34.2 11.8 34.2c5.8 0 8.1-5.4 9.6-12.5l7.8 2.8c-2.1 8.9-6.5 18-17.4 18 C1457.7 1878.2 1451.7 1859.5 1451.7 1835.6z"/><path class="st4" d="M1531.2 1876.7v-38.1h-19.7v38.1h-9.2v-82.2h9.2v35.8h19.7v-35.8h9.3v82.2H1531.2z"/><path class="st4" d="M1575.6 1876.7v-7.8c24.2-38.6 26.8-44.9 26.8-54.9c0-7.2-3.8-12.5-9.4-12.5c-5.4 0-9.4 3.5-12.3 10.2 l-6.7-5.2c4.6-8.5 9.9-13.4 19.4-13.4c11.5 0 18.6 8.5 18.6 20.7c0 10.7-3.9 20.2-24.5 54.5h24.7v8.3L1575.6 1876.7L1575.6 1876.7 z"/><path class="st4" d="M1622.3 1856.9c0-10.7 7.2-19.5 12.9-22.7c-5.3-2.8-12.1-10.2-12.1-20.6c0-13.8 8.4-20.5 18.4-20.5 c10.1 0 18.5 6.7 18.5 20.5c0 10.4-6.9 17.8-12.1 20.6c5.7 3.2 12.9 12 12.9 22.6c0 13.2-6.8 21.3-19.4 21.3 S1622.3 1870 1622.3 1856.9z M1651.4 1855.7c0-11-8-17.5-9.9-17.9c-1.8 0.4-9.7 6.9-9.7 18c0 9.1 4.1 13.9 9.7 13.9 C1647.2 1869.8 1651.4 1865 1651.4 1855.7z M1650.6 1815c0-8.3-3-13.4-9-13.4c-5.9 0-9 5.2-9 13.4c0 10.2 7.6 15.3 9 15.9 C1643.1 1830.3 1650.6 1825.3 1650.6 1815z"/><path class="st4" d="M1690.5 1850.5v-7.4h21.6v7.4H1690.5z"/><path class="st4" d="M1740.5 1864.3l6.9-5.1c2.6 5.9 6.4 10.5 12.3 10.5c7.9 0 10.6-6.4 10.6-15.9c0-12.2-6.3-15.3-11.1-15.3 c-1.5 0-3.6 0-4.6 0.1v-8.5c1 0.1 3.2 0.1 4.3 0.1c6.2 0 10.5-4.7 10.5-14.1c0-10.1-3.5-14.7-9.7-14.7c-5.7 0-9.2 4.1-11.6 9.6 l-6.8-4.7c3.8-8.6 11-13.3 18.7-13.3c10.9 0 18.7 6.5 18.7 21.8c0 8.5-4.3 16.9-11.6 19.1c6.9 1.6 12.5 9.9 12.5 20.3 c0 13.7-6.4 23.7-19.7 23.7C1750.7 1878.2 1743.8 1871.9 1740.5 1864.3z"/><path class="st4" d="M1790.3 1835.6c0-19.5 4.2-42.4 20.2-42.4c15.9 0 20.1 22.9 20.1 42.4c0 19.4-4.1 42.5-20.1 42.5 C1794.5 1878.2 1790.3 1855 1790.3 1835.6z M1821 1835.6c0-16-0.9-34-10.5-34s-10.6 18-10.6 34c0 15.9 0.7 34.2 10.6 34.2 C1820.1 1869.8 1821 1851.5 1821 1835.6z"/><path class="st4" d="M1844.7 1892.1l-4.3-3.5c3.9-2.7 7.3-7.5 7.6-11.5c-0.1 0-0.9 0.2-1.4 0.2c-3.3 0-5.7-2.6-5.7-6 c0-3.3 2.6-6.2 6.2-6.2c3.8 0 7.2 3.2 7.2 8.9C1854.3 1881.5 1850 1888.3 1844.7 1892.1z"/><path class="st4" d="M1888.8 1876.7v-7.8c24.2-38.6 26.8-44.9 26.8-54.9c0-7.2-3.8-12.5-9.4-12.5c-5.4 0-9.4 3.5-12.3 10.2 l-6.7-5.2c4.6-8.5 9.9-13.4 19.4-13.4c11.5 0 18.6 8.5 18.6 20.7c0 10.7-3.9 20.2-24.5 54.5h24.7v8.3L1888.8 1876.7L1888.8 1876.7 z"/><path class="st4" d="M1936 1835.6c0-19.5 4.2-42.4 20.2-42.4c15.9 0 20.1 22.9 20.1 42.4c0 19.4-4.1 42.5-20.1 42.5 C1940.2 1878.2 1936 1855 1936 1835.6z M1966.8 1835.6c0-16-0.9-34-10.5-34c-9.6 0-10.6 18-10.6 34c0 15.9 0.7 34.2 10.6 34.2 C1965.9 1869.8 1966.8 1851.5 1966.8 1835.6z"/><path class="st4" d="M2000.5 1876.7v-69.9l-12.3 13.1l-5.5-5.8l18.9-19.6h8.3v82.2H2000.5L2000.5 1876.7z"/><path class="st4" d="M2045.2 1876.7v-21.3h-25.9v-8.5l24-52.4h11.1v52.7h6.5v8.3h-6.5v21.3H2045.2L2045.2 1876.7z M2045.2 1806.1 l-18 40.9h18V1806.1z"/></g></g><g><path class="st4" d="M214.7 1876.7v-38.1H195v38.1h-9.2v-82.2h9.2v35.8h19.7v-35.8h9.2v82.2H214.7z"/><path class="st4" d="M239.5 1876.7v-82.2h9.2v82.2H239.5z"/><path class="st4" d="M261.8 1835.6c0-25.3 6.5-42.5 21.5-42.5c9.6 0 14.7 7.3 17 15.8l-7.6 3c-1.9-6.2-4.1-10.4-9.4-10.4 c-8.3 0-11.8 13.6-11.8 34.2c0 20.5 3.6 34.2 11.8 34.2c4.1 0 7-1.8 8.9-5.1v-21.6h-11v-8.3h19.4v33.4c-4.2 6.5-10.1 9.9-17.3 9.9 C268.4 1878.2 261.8 1860.8 261.8 1835.6z"/><path class="st4" d="M344 1876.7v-38.1h-19.7v38.1H315v-82.2h9.2v35.8H344v-35.8h9.2v82.2H344z"/><path class="st4" d="M384.5 1870.6l4.7-7.4c3 4.1 7.9 6.5 12.6 6.5c5.9 0 10.6-5.1 10.6-12.7c0-18.7-25.6-20.1-25.6-43.8 c0-11.6 7.9-20.2 18.9-20.2c5.8 0 11 2 14.8 5.8l-4.1 7.2c-2.8-3.1-6.4-4.6-10.5-4.6c-5.2 0-9.6 4.4-9.6 11.5 c0 16.2 25.5 19.2 25.5 43.7c0 12.5-7.8 21.6-19.6 21.6C394.9 1878.2 389 1875.4 384.5 1870.6z"/><path class="st4" d="M440.3 1876.7v-74h-12.9v-8.3h35.4v8.3h-13.1v74H440.3z"/><path class="st4" d="M499.8 1876.7l-10.6-33.2H482v33.2h-9.2v-82.2h17.1c11.3 0 19.4 9.2 19.4 24.3c0 14.6-6.3 20.8-11.3 22.8 l12.1 35.1H499.8L499.8 1876.7z M499.6 1819c0-9.5-3.6-16.3-10.9-16.3H482v32.6h6.8C496 1835.2 499.6 1828.5 499.6 1819z"/><path class="st4" d="M523.1 1876.7v-82.2h30.6v8.3h-21.3v27.7h20.5v8.3h-20.5v29.7h21.3v8.3H523.1L523.1 1876.7z"/><path class="st4" d="M566.6 1876.7v-82.2h30.6v8.3h-21.3v27.7h20.5v8.3h-20.5v29.7h21.3v8.3H566.6L566.6 1876.7z"/><path class="st4" d="M617.4 1876.7v-74h-12.9v-8.3h35.4v8.3h-13.1v74H617.4z"/><path class="st4" d="M646.6 1892.1l-4.3-3.5c3.9-2.7 7.3-7.5 7.6-11.5c-0.1 0-0.9 0.2-1.4 0.2c-3.3 0-5.7-2.6-5.7-6 c0-3.3 2.6-6.2 6.2-6.2c3.8 0 7.2 3.2 7.2 8.9C656.2 1881.5 651.9 1888.3 646.6 1892.1z"/><path class="st4" d="M699.6 1876.7v-74h-12.9v-8.3h35.4v8.3H709v74H699.6z"/><path class="st4" d="M728.3 1835.6c0-23.4 5.8-42.5 21.5-42.5c15.7 0 21.5 19.1 21.5 42.5s-5.8 42.5-21.5 42.5 C734.1 1878.2 728.3 1859 728.3 1835.6z M761.6 1835.6c0-18.6-3.1-34.2-11.8-34.2c-8.9 0-11.8 15.5-11.8 34.2 c0 18.4 3 34.2 11.8 34.2C758.6 1869.8 761.6 1854 761.6 1835.6z"/><path class="st4" d="M784.3 1876.7v-82.2h9.2v74h21.3v8.3H784.3z"/><path class="st4" d="M825.4 1876.7v-82.2H856v8.3h-21.3v27.7h20.5v8.3h-20.5v29.7H856v8.3H825.4L825.4 1876.7z"/><path class="st4" d="M868.8 1876.7v-82.2h15.5c17.1 0 24.2 17.5 24.2 41.2c0 23.9-6.9 41.1-24 41.1H868.8z M898.8 1835.6 c0-19.5-3.9-32.9-14.3-32.9h-6.4v65.7h6.4C894.8 1868.4 898.8 1855 898.8 1835.6z"/><path class="st4" d="M919 1835.6c0-23.4 5.8-42.5 21.5-42.5s21.5 19.1 21.5 42.5s-5.8 42.5-21.5 42.5 C924.8 1878.2 919 1859 919 1835.6z M952.3 1835.6c0-18.6-3.1-34.2-11.8-34.2c-8.9 0-11.8 15.5-11.8 34.2c0 18.4 3 34.2 11.8 34.2 C949.2 1869.8 952.3 1854 952.3 1835.6z"/></g><g><path class="st7" d="M217.2 2101.5l-4.4-26.1h-24.4l-4.4 26.1h-13.2l22.4-114h14.9l22.6 114H217.2z M200.6 2002.8l-10.6 61h21.2 L200.6 2002.8z"/><path class="st7" d="M283.1 2101.5l-27.9-83.1v83.1h-12.8v-114h12.8l27.3 81.4v-81.4h12.8v114H283.1z"/><path class="st7" d="M346.2 2101.5v-114H359v114H346.2z"/><path class="st7" d="M377.1 2044.5c0-32.5 8-59 29.7-59c21.7 0 29.7 26.5 29.7 59s-8 59-29.7 59 C385.2 2103.5 377.1 2077 377.1 2044.5z M423.3 2044.5c0-25.8-4.3-47.3-16.4-47.3c-12.3 0-16.4 21.5-16.4 47.3 c0 25.5 4.1 47.3 16.4 47.3C419 2091.9 423.3 2070 423.3 2044.5z"/><path class="st7" d="M502.2 2101.5l-12-88l-12 88h-13.5l-18.3-114h13.3l12.1 90.8l12.8-90.8h10.9l13 90.8l12-90.8H534l-18.1 114 H502.2z"/><path class="st7" d="M583.9 2101.5l-4.4-26.1h-24.4l-4.4 26.1h-13.2l22.4-114h14.9l22.6 114H583.9z M567.4 2002.8l-10.6 61H578 L567.4 2002.8z"/><path class="st7" d="M648.7 2101.5v-102.5h-17.9v-11.5h49.1v11.5h-18.1v102.5H648.7z"/><path class="st7" d="M731.3 2101.5l-14.7-46h-10.1v46h-12.8v-114h23.8c15.7 0 26.8 12.8 26.8 33.7c0 20.2-8.7 28.9-15.7 31.6 l16.7 48.7L731.3 2101.5L731.3 2101.5z M730.9 2021.5c0-13.2-5-22.6-15-22.6h-9.4v45.1h9.4C726 2044 730.9 2034.6 730.9 2021.5z"/><path class="st7" d="M800.5 2101.5l-4.4-26.1h-24.4l-4.4 26.1H754l22.4-114h14.9l22.6 114H800.5z M783.9 2002.8l-10.6 61h21.2 L783.9 2002.8z"/><path class="st7" d="M825.8 2101.5v-114h21.5c23.8 0 33.5 24.3 33.5 57.1c0 33.2-9.6 56.9-33.3 56.9H825.8z M867.3 2044.5 c0-27-5.5-45.6-19.8-45.6h-8.9v91.1h8.9C861.8 2090 867.3 2071.4 867.3 2044.5z"/><path class="st7" d="M898.8 2101.5v-114h12.8v114H898.8z"/><path class="st7" d="M943.4 2101.5v-102.5h-17.9v-11.5h49.1v11.5h-18.1v102.5H943.4z"/><path class="st7" d="M988.3 2101.5v-114h12.8v114H988.3z"/><path class="st7" d="M1019.3 2044.5c0-32.5 8-59 29.7-59c21.7 0 29.7 26.5 29.7 59s-8 59-29.7 59 C1027.3 2103.5 1019.3 2077 1019.3 2044.5z M1065.4 2044.5c0-25.8-4.3-47.3-16.4-47.3c-12.3 0-16.4 21.5-16.4 47.3 c0 25.5 4.1 47.3 16.4 47.3C1061.1 2091.9 1065.4 2070 1065.4 2044.5z"/><path class="st7" d="M1137.5 2101.5l-27.9-83.1v83.1h-12.8v-114h12.8l27.3 81.4v-81.4h12.8v114H1137.5z"/><path class="st7" d="M1193.2 2093.1l6.5-10.3c4.1 5.6 10.9 9.1 17.4 9.1c8.2 0 14.7-7 14.7-17.6c0-26-35.5-27.9-35.5-60.7 c0-16.1 10.9-28 26.1-28c8 0 15.2 2.7 20.5 8l-5.6 9.9c-3.9-4.3-8.9-6.3-14.5-6.3c-7.2 0-13.3 6.2-13.3 15.9 c0 22.4 35.4 26.7 35.4 60.5c0 17.3-10.8 29.9-27.2 29.9C1207.6 2103.5 1199.4 2099.7 1193.2 2093.1z"/><path class="st7" d="M1261.1 2101.5v-114h12.8v114H1261.1z"/><path class="st7" d="M1336.1 2101.5l-27.9-83.1v83.1h-12.8v-114h12.8l27.3 81.4v-81.4h12.8v114H1336.1z"/><path class="st7" d="M1366.5 2044.5c0-33.2 8.4-59 29.7-59c14.5 0 20.3 11.3 23.6 21.9l-10.6 4.1c-2.7-8.9-5.8-14.4-13-14.4 c-12 0-16.4 20.5-16.4 47.3c0 26.8 4.4 47.3 16.4 47.3c8 0 11.3-7.5 13.3-17.3l10.8 3.9c-2.9 12.3-9.1 25-24.1 25 C1374.9 2103.5 1366.5 2077.7 1366.5 2044.5z"/><path class="st7" d="M1436.6 2101.5v-114h42.4v11.5h-29.6v38.5h28.4v11.5h-28.4v41.2h29.6v11.5L1436.6 2101.5L1436.6 2101.5z"/><path class="st7" d="M1540.5 2101.5v-48.4l-25.5-65.6h13.8l18.1 52.5l18.3-52.5h13.7l-25.5 65.6v48.4H1540.5z"/><path class="st7" d="M1589.6 2101.5v-114h42.4v11.5h-29.6v38.5h28.4v11.5h-28.4v41.2h29.6v11.5L1589.6 2101.5L1589.6 2101.5z"/><path class="st7" d="M1642.4 2093.1l6.5-10.3c4.1 5.6 10.9 9.1 17.4 9.1c8.2 0 14.7-7 14.7-17.6c0-26-35.5-27.9-35.5-60.7 c0-16.1 10.9-28 26.2-28c8 0 15.2 2.7 20.5 8l-5.6 9.9c-3.9-4.3-8.9-6.3-14.5-6.3c-7.2 0-13.3 6.2-13.3 15.9 c0 22.4 35.4 26.7 35.4 60.5c0 17.3-10.8 29.9-27.2 29.9C1656.7 2103.5 1648.5 2099.7 1642.4 2093.1z"/><path class="st7" d="M1719.6 2101.5v-102.5h-17.9v-11.5h49v11.5h-18.1v102.5H1719.6z"/><path class="st7" d="M1764.6 2101.5v-114h42.4v11.5h-29.6v38.5h28.4v11.5h-28.4v41.2h29.6v11.5L1764.6 2101.5L1764.6 2101.5z"/><path class="st7" d="M1862.3 2101.5l-14.7-46h-10.1v46h-12.8v-114h23.8c15.7 0 26.8 12.8 26.8 33.7c0 20.2-8.7 28.9-15.7 31.6 l16.7 48.7L1862.3 2101.5L1862.3 2101.5z M1862 2021.5c0-13.2-5-22.6-15-22.6h-9.4v45.1h9.4C1857.1 2044 1862 2034.6 1862 2021.5z"/><path class="st7" d="M1894.7 2101.5v-114h21.5c23.8 0 33.5 24.3 33.5 57.1c0 33.2-9.6 56.9-33.3 56.9H1894.7z M1936.2 2044.5 c0-27-5.5-45.6-19.8-45.6h-8.9v91.1h8.9C1930.7 2090 1936.2 2071.4 1936.2 2044.5z"/><path class="st7" d="M2003.9 2101.5l-4.4-26.1H1975l-4.4 26.1h-13.2l22.4-114h14.9l22.6 114H2003.9z M1987.3 2002.8l-10.6 61h21.2 L1987.3 2002.8z"/><path class="st7" d="M2040.6 2101.5v-48.4l-25.5-65.6h13.8l18.1 52.5l18.3-52.5h13.7l-25.5 65.6v48.4H2040.6z"/></g><g><g><path class="st9" d="M783.5 2252.2v-89.1h25.3v89.1H783.5z"/><path class="st9" d="M817.6 2207.7c0-27.3 15.9-46.1 41-46.1c25.1 0 40.9 18.8 40.9 46.1c0 27.3-15.8 46.1-40.9 46.1 C833.5 2253.8 817.6 2235 817.6 2207.7z M873.9 2207.7c0-14-5.5-23.8-15.2-23.8c-9.9 0-15.2 9.8-15.2 23.8 c0 13.9 5.3 23.8 15.2 23.8C868.4 2231.5 873.9 2221.6 873.9 2207.7z"/><path class="st9" d="M963.5 2252.2l-8.6-48.1l-8.7 48.1h-25.8l-21.1-89.1h27l8.6 51l10.4-51h19.1l10.6 51l8.4-51h27l-21 89.1 H963.5z"/><path class="st9" d="M1060.7 2252.2l-2.7-11.5h-23.5l-2.7 11.5h-27.3l26.5-89.1h30.5l26.5 89.1H1060.7z M1046.2 2189.2l-6.9 29.5 h13.9L1046.2 2189.2z"/><path class="st9" d="M1119.8 2252.2v-89.1h25.3v67.1h27.9v22L1119.8 2252.2L1119.8 2252.2z"/><path class="st9" d="M1230.7 2252.2l-2.7-11.5h-23.5l-2.7 11.5h-27.3l26.5-89.1h30.5l26.5 89.1H1230.7z M1216.3 2189.2l-6.9 29.5 h13.9L1216.3 2189.2z"/><path class="st9" d="M1259.7 2219.4v-56.3h25.4v56.5c0 7.3 4.1 12 11.8 12c7.6 0 11.8-4.7 11.8-12v-56.5h25.4v56.1 c0 22-15 34.6-37.1 34.6C1274.7 2253.8 1259.7 2241.3 1259.7 2219.4z"/><path class="st9" d="M1342.9 2207.7c0-27.9 16.4-46.1 41.3-46.1c17.8 0 28.5 11.5 33 24.2l-20.6 9.1c-1.9-5.6-5.9-11-12.4-11 c-8.8 0-15.5 6.9-15.5 23.8c0 16.8 6.7 23.8 15.5 23.8c4.3 0 8.3-1.5 10.6-3.5v-5.9h-12.8v-22h36.3v38.3 c-8.6 9.4-19.1 15.4-34.1 15.4C1359.2 2253.8 1342.9 2235.5 1342.9 2207.7z"/><path class="st9" d="M1477.1 2252.2v-34.7h-22.8v34.7H1429v-89.1h25.3v32.2h22.8v-32.2h25.4v89.1H1477.1z"/><path class="st9" d="M1509.3 2241.9l11.6-19.8c5.5 5.6 13.6 9.4 22.4 9.4c4.9 0 8.3-1.9 8.3-5.1c0-9.9-39.6-4.3-39.6-36.1 c0-14.4 11.2-28.7 33.3-28.7c11.9 0 22.6 3.7 30.5 10.4l-11.4 19.2c-5.9-4.9-13.1-7.3-19.9-7.3c-4.8 0-6.8 2-6.8 4.7 c0 9.4 39.6 5.3 39.6 35.5c0 17.9-12.7 29.7-33.7 29.7C1528.2 2253.8 1517.5 2249.4 1509.3 2241.9z"/><path class="st9" d="M1661.1 2252.2v-34.7h-22.8v34.7H1613v-89.1h25.3v32.2h22.8v-32.2h25.4v89.1H1661.1z"/><path class="st9" d="M1747.4 2252.2l-2.7-11.5h-23.5l-2.7 11.5h-27.3l26.5-89.1h30.5l26.5 89.1H1747.4z M1733 2189.2l-6.9 29.5 h13.9L1733 2189.2z"/><path class="st9" d="M1821.7 2252.2l-10.3-28.9h-6.5v28.9h-25.3v-89.1h39.4c18.4 0 30.1 13.2 30.1 29.7c0 15-7.5 22.6-13.5 25.9 l14 33.5H1821.7z M1823.5 2193.3c0-5.3-3.7-8.2-8.6-8.2h-10v16.2h10C1819.7 2201.3 1823.5 2198.5 1823.5 2193.3z"/><path class="st9" d="M1859.4 2252.2v-89.1h33.7c26.7 0 42.2 18 42.2 44.6c0 26.6-15.5 44.5-42 44.5H1859.4z M1909.5 2207.7 c0-15.4-5.9-22.6-16.3-22.6h-8.6v45h8.6C1903.2 2230.2 1909.5 2222 1909.5 2207.7z"/><path class="st9" d="M1944.1 2252.2v-89.1h56.4v22h-31.1v11h30.2v22h-30.2v12h31.1v22L1944.1 2252.2L1944.1 2252.2z"/><path class="st9" d="M2053.3 2252.2l-10.3-28.9h-6.5v28.9h-25.3v-89.1h39.4c18.4 0 30.1 13.2 30.1 29.7c0 15-7.5 22.6-13.5 25.9 l14 33.5H2053.3z M2055 2193.3c0-5.3-3.7-8.2-8.6-8.2h-10v16.2h10C2051.3 2201.3 2055 2198.5 2055 2193.3z"/></g></g><g><g><path class="st4" d="M315.8 2195.2c0.1 0 0.2 0 0.3 0c0.1 0 0.3 0 0.5 0c1.9 0.4 3.7 1.7 5.4 3.9c1.7 2.2 2.9 4.6 3.4 7.2 c0 0.2 0 0.4 0.1 0.5c0.1 0.2 0.1 0.4 0.1 0.5c0.1 0.5 0.2 0.9 0.2 1.4c0 0.5 0.1 1 0.1 1.6c0.2 3.3 0.2 6.5-0.3 9.7 c-0.4 3.2-0.9 6-1.6 8.4c-0.6 2.3-1.1 4.3-1.7 5.7c-0.5 1.5-0.9 2.3-0.9 2.4c0.8 1 1.7 1.7 2.6 2.2c0.9 0.5 2 0.8 3.2 0.7 c0.1 0 0.2 0 0.3 0c0.1 0 0.3 0 0.3 0c1.3-0.3 2.4-0.9 3.3-1.9c0.9-1 1.6-2 2.2-3.1c0.4-0.8 0.7-1.5 1-2.1 c0.2-0.6 0.5-1.2 0.7-1.6c0.1-0.1 0.2-0.2 0.3-0.3c0.1-0.1 0.2-0.2 0.3-0.3c0.4-0.3 0.8-0.5 1.1-0.4c0.3 0 0.5 0.3 0.7 0.7 c0 0.3 0 0.6 0.1 0.8c0 0.3 0.1 0.5 0.2 0.8c0 0.3 0 0.6 0.1 0.9c0 0.3 0 0.6 0.1 0.9c0 0.4 0.1 0.7 0.1 1.1c0 0.4 0.1 0.7 0.1 1 c0 0.4 0 0.7 0 1.1c0 0.4 0 0.7 0 1.1c0.1 0.7 0 1.4-0.3 2c-0.2 0.6-0.5 1.2-0.8 1.7c-0.3 0.3-0.5 0.6-0.7 0.9 c-0.2 0.3-0.4 0.5-0.4 0.6c-0.2 0.3-0.4 0.7-0.8 1.1c-0.3 0.4-0.8 0.9-1.3 1.4c-0.8 0.8-1.8 1.6-3 2.3c-1.2 0.7-2.5 1.2-3.9 1.3 c-0.2 0-0.4 0-0.6 0c-0.2 0-0.4 0-0.6-0.1c-0.3-0.1-0.6-0.1-0.8-0.1c-0.3 0-0.6-0.1-1-0.3c-0.5-0.1-0.9-0.3-1.4-0.5 c-0.5-0.2-1-0.4-1.4-0.7c-0.8-0.4-1.4-0.8-2-1.1c-0.6-0.3-0.9-0.5-0.9-0.6c-0.1 0.7-0.5 1.6-1 2.8c-0.5 1.2-1.2 2.5-2 3.9 c-1.2 1.9-2.8 3.7-4.8 5.4c-2 1.7-4.4 2.6-7.2 2.8c-0.1 0-0.2 0-0.4 0c-0.1 0-0.2 0-0.3 0c-0.1 0-0.2 0-0.3 0 c-4.4 0-7.7-1.8-10-5.6c-2.2-3.8-3.8-8.1-4.7-12.8c-0.3-1.5-0.5-3.1-0.8-4.7c-0.2-1.6-0.4-3.1-0.5-4.5c-0.1-1.4-0.2-2.7-0.2-3.9 c0-1.2 0-2.3 0-3.2c0-0.8 0.1-1.8 0.1-2.9l1.1-55c0-0.2-0.1-0.4-0.2-0.7c-0.1-0.3-0.2-0.6-0.4-1.1c-0.1-0.4-0.2-0.8-0.4-1.4 c-0.1-0.5-0.2-1.1-0.3-1.6c0-0.3 0-0.6 0-1c0-0.4 0.1-0.7 0.1-1c0.3-1.4 1.2-2.8 2.7-4.1c1.6-1.4 4.3-2.4 8.2-3.2 c0.1 0 0.2 0 0.3 0c0.1 0 0.2 0 0.3 0c2.3-0.2 4.4 0.6 6.4 2.4c2 1.8 3.1 3.9 3.2 6.3c0 0.4 0 0.8 0 1.2c0 0.4-0.1 0.9-0.2 1.3 c-0.4 1.5-0.9 3.9-1.4 7.1c-0.5 3.2-0.9 7-1.3 11.2c-0.4 4-0.8 8.3-1.1 13c-0.3 4.7-0.6 9.4-0.8 14.2c-0.2 2.6-0.3 5.2-0.4 7.7 c-0.1 2.5-0.1 5.1-0.1 7.6c0 0.4 0 0.8 0 1.2c0 0.4 0 0.8 0 1.2c0 0.4 0 0.8 0 1.2c0 0.4 0 0.8 0 1.2c0.3 3.9 1 7.4 2 10.2 c1 2.9 2.3 4.3 3.9 4.4l0.1 0c1.6 0 2.6-2 3.1-6c0.5-4 0.6-8.3 0.2-13c0-0.3 0-0.5-0.1-0.8c0-0.3 0-0.6-0.1-1 c-0.1-1.4-0.3-2.8-0.4-4.2c-0.2-1.4-0.5-2.7-0.8-3.9c-0.3-1.5-0.6-2.8-1.1-3.9c-0.4-1.2-0.9-2.3-1.4-3.4c-0.4-0.9-0.9-1.8-1.4-2.7 c-0.5-0.9-1-1.9-1.7-2.9c0-0.2 0.3-0.7 1-1.6c0.7-0.9 1.5-1.8 2.6-2.8c0.5-0.5 1.1-1 1.6-1.5c0.6-0.5 1.1-1 1.6-1.4 c0.7-0.5 1.4-0.9 2.1-1.3s1.3-0.5 1.8-0.5c0.1 0 0.2 0 0.2 0c0 0 0.1 0 0.2 0L315.8 2195.2z"/><path class="st4" d="M383.7 2226.8c0.1-0.1 0.2-0.2 0.3-0.3c0.5-0.6 1-0.9 1.4-0.9c0.4 0 0.6 0.3 0.7 0.9l0 0.1l0 0.1 c0.1 0.8 0.1 1.6 0.1 2.2c0 0.6 0 1.3 0.1 1.9c0 0.6 0.1 1.3 0.1 1.9c0 0.6 0 1.4 0.1 2.2c0 0.3 0 0.6-0.1 0.9 c-0.1 0.3-0.2 0.7-0.5 1.1c-0.2 0.5-0.4 0.9-0.6 1.2c-0.3 0.3-0.5 0.7-0.8 1c-0.3 0.6-1.2 1.8-2.6 3.7c-1.4 1.9-3.2 3.8-5.4 5.9 c-2.1 2-4.4 3.9-6.9 5.8c-2.5 1.8-5.2 3.2-7.9 4c-0.6 0.1-1.3 0.3-1.9 0.4c-0.6 0.1-1.3 0.2-1.9 0.3c-0.1 0-0.2 0-0.3 0 c-0.1 0-0.2 0-0.3 0c-0.1 0-0.2 0-0.3 0c-0.1 0-0.2 0-0.3 0c-7.5 0.1-12.9-2.2-16.2-6.9c-3.3-4.7-5.4-11.5-6.1-20.5 c-0.2-2.1-0.2-4.3-0.3-6.6c0-2.3 0-4.6 0-7.1c0-1.2 0.1-2.4 0.2-3.8c0.1-1.3 0.3-2.6 0.5-3.9c0.1-1.1 0.2-2.2 0.4-3.3 c0.2-1.1 0.3-2.1 0.4-3.1c0.4-3 0.9-5.6 1.3-7.7c0.4-2.2 0.7-3.3 0.6-3.5l7.5-2.2c0.6-0.2 1.2-0.5 1.8-0.7 c0.6-0.2 1.1-0.5 1.7-0.8c0.3-0.1 0.6-0.2 0.9-0.3c0.3-0.1 0.6-0.3 0.9-0.5c0.7-0.3 1.5-0.6 2.2-0.9c0.8-0.2 1.6-0.4 2.5-0.5 c0.2 0 0.3 0 0.5 0c0.1 0 0.3 0 0.3 0c5.2 0 9.5 1.8 13.1 5.3c3.6 3.6 5.6 7.9 5.9 13.1c0 0.1 0 0.2 0 0.3c0 0.1 0 0.3 0 0.5 c0.2 7.9-0.9 13.8-3.3 17.7c-2.4 3.9-5.1 6.6-8.1 8.1c-1.3 0.7-2.7 1.1-4 1.5c-1.3 0.3-2.6 0.5-3.8 0.6c-0.7 0.1-1.4 0.1-2 0.1 c-0.6 0-1.1 0-1.6-0.1c-0.5-0.1-0.8-0.1-1.1-0.1c-0.3 0-0.5 0-0.6 0c0 0.3 0.1 0.5 0.1 0.8c0.1 0.2 0.1 0.4 0.1 0.6 c0 0.2 0 0.3 0.1 0.5c0.1 0.1 0.1 0.3 0.1 0.5c0.5 2.5 1.2 4.7 2.2 6.6c1 2 3.5 2.8 7.6 2.5c0.9-0.1 1.9-0.3 2.8-0.6 c0.9-0.3 1.9-0.7 2.8-1.1c2.2-1.1 4.4-2.5 6.5-4.4c2.1-1.8 4-3.7 5.6-5.5c1.1-1.3 2.1-2.5 2.8-3.7c0.8-1.2 1.5-2.2 2-3.2 L383.7 2226.8z M359.1 2221.7c0.1-0.2 0.2-0.4 0.2-0.6c0.1-0.2 0.1-0.5 0.2-0.8c0.4-1.2 0.7-2.9 0.9-5c0.2-2.1 0.3-4.2 0.4-6.5 c-0.1-0.8-0.1-1.6-0.1-2.3c0-0.7 0-1.5-0.1-2.2c-0.2-2.3-0.5-4.3-1.1-5.9c-0.5-1.7-1.3-2.6-2.3-2.7c-1.6-0.2-2.8 1.4-3.7 4.6 c-0.9 3.3-1.6 6.8-2 10.7c-0.3 3.2-0.5 6.1-0.7 8.9c-0.1 2.8-0.1 4.6-0.1 5.5c0 0.2 0 0.4 0 0.5c0.1 0 0.2 0 0.3 0 c0.1 0 0.3 0 0.5 0c0.2 0 0.4 0 0.6 0c0.2 0 0.4 0 0.7 0c0.6 0 1.1-0.2 1.8-0.3c0.6-0.2 1.3-0.5 2-1c0.4-0.4 0.9-0.8 1.3-1.3 c0.4-0.5 0.8-1.1 1.1-1.7L359.1 2221.7z"/><path class="st4" d="M421.4 2214.1c-0.6 0.7-1.4 1.3-2.5 1.8c-1.1 0.5-2.2 0.9-3.4 1.3c-0.6 0.1-1.3 0.3-1.9 0.4 c-0.6 0.1-1.2 0.2-1.8 0.3c-1.7 0.1-3.2-0.3-4.5-1.4c-1.4-1.1-2.1-2.4-2.2-4.1l-1.1-15.6l-0.1 0l-0.1 0l-0.1 0 c-0.5 0-1.2 0.9-2.1 2.6c-0.9 1.7-1.7 6.8-2.4 15.5c-0.1 1.1-0.2 2.3-0.2 3.6c0 1.3-0.1 2.7-0.2 4.2c0 0.7-0.1 1.5 0 2.4 c0 0.8 0.1 1.7 0.1 2.5c0.3 3.5 1.1 6.7 2.6 9.5c1.5 2.8 3.9 4.3 7.5 4.4c0.1 0 0.2 0 0.3 0c0.1 0 0.2 0 0.3 0 c1-0.1 2.1-0.4 3.1-0.9c1.1-0.5 2.1-1.1 3.2-1.8c1.2-0.9 2.4-2 3.6-3.1c1.2-1.1 2.3-2.4 3.4-3.6c1.7-2 3.2-3.8 4.4-5.5 c1.3-1.7 2.1-2.8 2.5-3.2c0.8-0.8 1.4-1.3 2-1.5c0.5-0.2 0.8 0.2 0.9 1.3c0 0.3 0 0.6 0.1 0.8c0 0.3 0 0.5 0.1 0.8 c0 0.2 0 0.3 0 0.4c0 0.1 0 0.2 0 0.4c0 0.3 0 0.6 0.1 0.8c0 0.3 0 0.5 0.1 0.8c0 0.4 0.1 0.8 0.1 1.2c0 0.5 0.1 1 0.1 1.5l0 0.1 c0 0.3 0 0.6-0.1 1c-0.1 0.4-0.2 0.8-0.3 1.1c-0.1 0.6-0.3 1.1-0.6 1.6c-0.2 0.5-0.5 0.9-0.9 1.3c-0.1 0.2-0.2 0.3-0.2 0.4 c-0.1 0.1-0.2 0.2-0.3 0.3c-0.6 1-1.3 2-2.1 3.1c-0.8 1.1-1.8 2.2-2.8 3.4c-1.5 1.5-3.1 3-4.8 4.5c-1.7 1.5-3.5 2.9-5.2 4.1 c-1.9 1.2-3.8 2.2-5.7 3c-1.8 0.8-3.5 1.3-5.1 1.4c-0.1 0-0.2 0-0.3 0c-0.1 0-0.2 0-0.3 0c-0.2-0.1-0.3-0.1-0.4-0.1 c-0.1 0-0.2 0-0.3 0c-7.3-0.5-12.4-2.7-15.2-6.8c-2.8-4-4.4-9.3-4.9-15.7c-0.1-1.7-0.2-3.4-0.2-5.2c0-1.8 0-3.7 0-5.6 c0-1.2 0-2.3 0-3.3c0-1 0.1-2 0.2-2.9c0-1.8 0.1-3.5 0.3-5.1c0.1-1.5 0.3-3 0.4-4.4c0.3-2 0.7-4.3 1.3-6.6c0.6-2.3 1.3-5.4 2.2-9 c0.2-0.1 0.8-0.4 1.8-1c1-0.6 2.3-1.2 4-1.7c1-0.4 2-0.9 3.1-1.3c1.1-0.4 2.2-0.7 3.4-1c0.9-0.2 1.8-0.5 2.6-0.7 c0.9-0.2 1.7-0.3 2.5-0.4c2.3-0.2 4.3 0 5.9 0.6c1.7 0.6 3.1 1.2 4.2 2c1.1 0.8 2.1 1.9 3.1 3.2l1.2 16.9c0.5 0.4 0.9 0.9 1.3 1.5 c0.4 0.6 0.7 1.1 0.9 1.7c0.1 0.3 0.2 0.5 0.3 0.7c0.1 0.2 0.1 0.5 0.1 0.8c0 0.4 0 0.8-0.1 1.2c-0.1 0.4-0.3 0.8-0.5 1.2 L421.4 2214.1z"/><path class="st4" d="M476.2 2190c0 0.1 0 0.2 0 0.3s0.1 0.2 0.2 0.3c0 0.2 0 0.3 0 0.4c0 0.1 0 0.2 0 0.3c0 0.6 0 1.4 0 2.1 c-0.1 0.8-0.2 1.6-0.3 2.4c0 0.4 0 0.7-0.1 1.1c-0.1 0.4-0.1 0.7-0.2 1.1c-0.1 0.7-0.3 1.3-0.4 2c-0.1 0.7-0.2 1.3-0.3 1.8 l-1.7 17c0 0.9-0.1 1.8-0.1 2.6c0 0.8 0 1.5 0 2.1c0.1 2 0.4 3.6 1.2 4.7c0.7 1.1 1.7 2 3 2.6c0.2 0.1 0.4 0.1 0.5 0.2 c0.1 0 0.3 0 0.5 0c1-0.1 2.2-0.8 3.4-2.2c1.3-1.4 2.5-3.1 3.8-5.1c0.5-0.7 1-1.4 1.4-2.2c0.4-0.8 0.8-1.5 1.2-2.3 c0.3-0.3 0.7-0.5 0.9-0.7c0.3-0.2 0.5-0.2 0.7-0.3c0.4-0.1 0.6-0.1 0.8 0.2c0.2 0.2 0.3 0.5 0.4 0.7c0 0.1 0 0.2 0.1 0.3 c0.1 0.1 0.1 0.2 0.1 0.3c0.1 0.5 0.2 1 0.2 1.4c0 0.4 0.1 0.8 0.1 1.2c0 0.3 0 0.6 0.1 0.9c0 0.3 0.1 0.7 0.1 1.2 c0 0.3 0 0.6 0.1 1c0 0.4 0.1 0.8 0.1 1.2c0 0.5-0.1 1.2-0.5 1.9c-0.4 0.7-0.8 1.5-1.4 2.3c-0.2 0.2-0.3 0.4-0.4 0.5 c-0.1 0.1-0.2 0.3-0.4 0.5c-1.3 2.2-2.9 4.3-4.9 6.1c-1.9 1.9-4 3.4-6.1 4.5c-1.1 0.5-2.2 1-3.3 1.3c-1.1 0.4-2.2 0.6-3.2 0.7 c-0.2 0-0.4 0-0.6 0s-0.4 0-0.6 0c-1.6-0.1-3-0.5-4.4-1.2c-1.3-0.7-2.6-1.6-3.6-2.5c-0.4-0.4-0.8-0.8-1.3-1.2 c-0.4-0.4-0.9-0.7-1.3-1.1c-0.4 0.5-1 1.4-1.7 2.7c-0.7 1.3-1.6 2.7-2.6 4.3c-1.2 1.8-2.5 3.5-4.1 5c-1.6 1.5-3.4 2.3-5.3 2.5 c-0.1 0-0.2 0-0.3 0c-0.1 0-0.3 0-0.5 0c-5.4-0.3-9.3-2.6-11.7-7c-2.4-4.4-3.9-9.5-4.4-15.3c0-0.3 0-0.5-0.1-0.8 c0-0.3 0-0.5-0.1-0.8c0.1-0.3 0.1-0.6 0.1-0.8c0-0.3 0-0.6-0.1-0.8c-0.3-12.3 1.3-23.2 4.7-32.5c3.4-9.3 9-14.2 16.8-14.7 c1.4 0 2.6 0.3 3.5 0.8c1 0.6 1.9 1.3 2.9 2.1c0.4 0.2 0.8 0.5 1.1 0.9c0.3 0.3 0.7 0.7 1.1 1c0.2 0.1 0.4 0.1 0.7 0.2 c0.3 0 0.6 0.1 1 0.1c0.8 0.1 1.8 0.2 2.8 0.3c1 0.1 2.1 0.2 3.2 0.4c2 0.2 3.9 0.6 5.7 1.2c1.7 0.6 2.8 1.4 3 2.6L476.2 2190z M458.6 2193.9c-0.3 0-0.5-0.1-0.8-0.3c-0.2-0.2-0.5-0.4-0.8-0.6c-0.4-0.2-0.8-0.4-1.2-0.6c-0.4-0.2-0.8-0.2-1.1-0.2 c-1 0-2.1 1.3-3.2 3.8c-1.1 2.6-2.2 8-3.2 16.1c-0.1 0.6-0.1 1.2-0.2 1.8c-0.1 0.7-0.2 1.3-0.2 1.8c-0.1 0.8-0.2 1.5-0.3 2.2 c-0.1 0.7-0.2 1.5-0.3 2.2c-0.2 1.7-0.3 3.3-0.3 4.9c-0.1 1.6 0 3.1 0.1 4.5c0.1 1.7 0.5 3.2 1 4.5c0.6 1.3 1.3 2 2.4 2.3 c1.8 0.4 3.2-0.7 4.4-3.4c1.1-2.7 2-5.7 2.4-9.1c0.1-1 0.2-2 0.3-3c0.1-1 0.2-1.9 0.2-2.9L458.6 2193.9z"/><path class="st4" d="M492.1 2178.1l0.1 0l0.1 0c0.4 0 0.7 0 1 0.1c0.3 0.1 0.6 0.1 0.8 0.1c0.3 0.1 0.6 0.1 0.8 0.2 c0.3 0.1 0.6 0.1 1 0.1c0.5 0 0.8-0.2 1.1-0.4c0.3-0.3 0.6-0.5 0.8-0.7l0.1 0c0.3-0.3 0.7-0.6 1-0.8c0.3-0.2 0.7-0.3 1.1-0.4 l0.1 0l0.1 0c0.8-0.1 1.7 0.2 2.5 0.8c0.8 0.6 1.6 1.2 2.3 1.9c0.6 0.6 1.1 1.2 1.4 1.8c0.4 0.6 0.6 0.9 0.6 1 c-0.7 6.7-1.2 12.2-1.6 16.4c-0.1 0.4-0.1 0.7-0.1 1c0 0.3-0.1 0.7-0.1 1c-0.2 2.6-0.4 5.1-0.6 7.6c-0.2 2.5-0.4 4.6-0.4 6.3 c0 0.4 0 0.7 0 1.1c0 0.4-0.1 0.7-0.1 1.1c0 0.6 0 1.3 0 2c0 0.7 0 1.4 0 2.1c-0.1 0.5-0.1 1 0 1.5c0 0.5 0.1 1.1 0.1 1.7 c0.2 2.5 0.6 4.6 1.2 6.4c0.6 1.8 1.6 2.6 2.9 2.4c2.8-0.4 4.7-2.8 5.5-7.2c0.8-4.4 1.3-9.1 1.5-14.2c0-1.3 0-2.6 0.1-3.8 c0-1.2 0.1-2.5 0.1-3.7c0-1.8 0.1-3.6 0-5.1c0-1.6-0.1-3.1-0.2-4.6c0-0.3 0-0.5-0.1-0.8c0-0.2 0-0.4 0-0.6 c-0.1-1.5-0.3-2.9-0.5-4.3c-0.2-1.4-0.6-3-1-4.7c0.2-1 0.6-1.9 1.1-2.6c0.5-0.7 1.2-1.2 2.1-1.7c0.2-0.1 0.4-0.2 0.6-0.3 c0.2-0.1 0.4-0.1 0.6-0.1c0.4 0 0.7 0 1 0.1c0.3 0.1 0.7 0.1 1.1 0.2c0.1 0.1 0.2 0.1 0.4 0.2c0.2 0 0.4 0.1 0.6 0.2 c0.5 0.2 1 0.3 1.6 0.4c0.6 0.1 1.1 0.2 1.7 0.2c0.5 0 0.9-0.1 1.3-0.1c0.4 0 0.8-0.1 1.3-0.2c0.4-0.1 0.7-0.2 1.1-0.4 c0.4-0.1 0.8-0.2 1.3-0.4l3.8 7.8c0 0.1-0.1 1.2-0.4 3.2c-0.3 2-0.6 4.5-0.9 7.4c0 0.8-0.1 1.7-0.2 2.5c-0.1 0.8-0.2 1.7-0.3 2.7 c-0.1 1.4-0.2 2.8-0.3 4.1c-0.1 1.3-0.1 2.6-0.1 3.8c0 0.4 0 0.7 0 1.1c0 0.4 0 0.7 0 1.1c-0.1 0.6-0.1 1.1-0.1 1.7 c0 0.6 0 1.2 0.1 1.7c0 0.3 0 0.5 0.1 0.8c0 0.2 0 0.5 0.1 0.8c0.2 2.6 0.7 4.9 1.5 6.9c0.8 2.1 2.2 3 4.1 2.9c0.1 0 0.2 0 0.2 0 c0 0 0.1-0.1 0.2-0.2c0.1 0 0.2 0 0.3 0c0.1 0 0.2 0 0.3 0c0.5-0.1 1.2-0.6 1.8-1.4c0.7-0.8 1.3-1.7 2-2.8 c0.3-0.3 0.5-0.7 0.8-1.1c0.3-0.4 0.5-0.8 0.7-1.2c0.8-1.4 1.6-2.6 2.2-3.8c0.7-1.2 1.1-2 1.2-2.4c0.1-0.1 0.2-0.2 0.3-0.3 c0.1-0.1 0.2-0.2 0.3-0.2c0.3-0.3 0.7-0.4 1-0.2c0.3 0.2 0.5 0.6 0.5 1.2c0 0.1 0 0.2 0 0.3c0 0.4 0.1 0.7 0.1 1 c0 0.3 0 0.6 0.1 0.9c0 0.1 0 0.2 0 0.3c0 0.1 0 0.3 0 0.3c0.1 0.7 0.1 1.5 0.2 2.3c0.1 0.8 0.2 1.8 0.4 3.1l0 0.1 c0 0.5-0.1 0.9-0.3 1.3c-0.2 0.4-0.4 0.8-0.7 1.2c-0.1 0-0.2 0-0.2 0.1c0 0-0.1 0.1-0.1 0.2c-0.2 0.2-0.3 0.4-0.4 0.5 c-0.1 0.1-0.2 0.3-0.3 0.5c-0.2 0.5-0.8 1.3-1.6 2.5c-0.8 1.2-1.9 2.4-3 3.8c-1 1.1-2.2 2.2-3.4 3.3c-1.3 1.1-2.5 2-3.8 2.6 c-0.7 0.3-1.4 0.6-2.2 0.8c-0.7 0.2-1.4 0.4-2 0.4c-2 0.1-3.8-0.3-5.3-1.3c-1.5-1-2.8-2.1-3.8-3.3c-1-1.1-1.8-2.2-2.2-3.2 c-0.5-1-0.7-1.6-0.7-1.7c0 0.1-0.3 1-1.1 2.6c-0.7 1.7-1.7 3.5-3.1 5.4c-1.3 2.1-2.9 4-4.8 5.8c-1.9 1.7-4 2.6-6.2 2.8 c-3.9 0.3-7.1-1.1-9.6-4.3c-2.4-3.1-4.1-6.7-5.1-10.7c-0.2-0.9-0.3-1.8-0.5-2.7c-0.2-0.9-0.3-1.7-0.3-2.5c0-0.5-0.1-1.1-0.1-1.7 c0-0.6 0-1.1 0-1.5c0-0.7 0.1-1.6 0.1-2.4c0-0.9 0.1-1.8 0.1-2.7c0-0.7 0.1-1.5 0-2.2c0-0.7 0-1.5 0-2.4c0.1-3.6 0.2-6.9 0.2-10 c0-3 0-4.8 0-5.1l-1.3-18c0.4-1 1-1.7 1.7-2.3c0.7-0.6 1.6-0.9 2.5-1.1L492.1 2178.1z"/><path class="st4" d="M544.4 2222.9l0.7-0.3c0.4-1 0.7-1.9 1-2.8c0.3-0.9 0.6-1.9 0.9-2.8c0.8-3 1.5-6.1 2.2-9.3 c0.6-3.2 1.1-6.7 1.5-10.6c0.2-2.1 0.4-4.1 0.5-5.8c0.1-1.8 0.1-3.5 0.1-5.1c0-1.8-0.1-3.7-0.2-5.7c-0.1-1.9-0.2-4-0.4-6.3 c0.5-0.1 0.9-0.3 1.3-0.4c0.4-0.1 0.8-0.2 1.3-0.4c0.3-0.1 0.6-0.2 0.9-0.3c0.3-0.1 0.7-0.2 1-0.4c0.7-0.2 1.3-0.5 1.9-0.9 c0.5-0.4 1-0.7 1.4-1c0.2-0.1 0.3-0.2 0.5-0.3c0.1-0.1 0.2-0.2 0.3-0.3c0.7-0.4 1.4-0.8 2.1-1.2c0.7-0.4 1.5-0.6 2.4-0.8 c0.1 0 0.2 0 0.3 0c0.4 0 0.7 0 1.1 0c0.4 0 0.8 0.1 1.3 0.1c0.6 0.1 1.1 0.1 1.7 0.2c0.6 0.1 1.1 0.2 1.5 0.4 c0.7 0.1 1.4 0.3 1.9 0.4c0.5 0.1 0.8 0.3 0.9 0.3c0 0.3 0 0.5 0 0.7c0 0.5 0.1 1.4 0.2 2.5c0.1 1.1 0.2 2.2 0.4 3.4 c0 0.6 0.1 1.1 0.2 1.6c0.1 0.5 0.2 1.1 0.3 1.6c0.7 2.7 1.6 5.2 2.7 7.4c1.1 2.2 2.3 4.4 3.6 6.4c1.6 2.5 3 5 4.3 7.6 c1.3 2.6 2.2 5.6 2.6 8.9c0 0.4 0.1 0.7 0.1 1c0 0.3 0 0.7 0.1 1c0.4 4.3 0.2 8.2-0.6 11.6c-0.8 3.4-1.8 6-2.8 7.8 c-0.2 0.4-0.5 0.7-0.8 1c-0.3 0.3-0.6 0.6-0.8 0.8l-11.6 7.5c-0.4 0.2-0.7 0.5-1 0.8c-0.3 0.3-0.6 0.6-0.8 0.9 c-0.2 0.2-0.3 0.4-0.4 0.6c-0.1 0.2-0.2 0.3-0.3 0.4c-0.3 0.4-0.7 0.7-1 1c-0.3 0.3-0.8 0.5-1.2 0.5l-0.1 0c-3.9-0.1-6.9-1-9-2.7 c-2.1-1.7-3.7-3.6-4.6-5.7c-0.7-1.3-1.1-2.7-1.4-4c-0.3-1.3-0.5-2.4-0.5-3.4c0-0.3 0-0.6-0.1-0.8c0-0.3 0-0.5 0.1-0.7 c0-0.2 0-0.4 0-0.5c-0.3 0.1-0.5 0.2-0.7 0.2c-0.1 0.1-0.2 0.2-0.3 0.2c-0.1 0-0.3 0.1-0.3 0.2c-0.1 0-0.2 0-0.3 0 c-0.1 0-0.2 0-0.3 0c-0.3 0-0.5 0-0.7 0.1c-0.6 0-1.1-0.1-1.6-0.2c-0.5-0.1-0.9-0.4-1.1-1c-0.1-0.2-0.2-0.3-0.2-0.5 c0-0.1 0-0.3 0-0.3c0-0.1 0-0.2 0-0.3c0-0.1 0-0.2 0-0.3c0.1-0.2 0.1-0.4 0.1-0.6c0-0.2 0-0.4 0.1-0.6c0.1-0.3 0.1-0.6 0.2-0.8 L544.4 2222.9z M561 2195.1c-0.3 0.8-0.6 1.5-0.9 2.1c-0.3 0.7-0.5 1.3-0.8 2c-0.2 0.4-0.3 0.8-0.4 1.1c-0.1 0.4-0.2 0.8-0.4 1.1 c-0.1 0.5-0.2 0.9-0.3 1.3c-0.2 0.4-0.3 0.9-0.4 1.5c-0.2 0.9-0.4 1.8-0.6 2.5c-0.2 0.8-0.4 1.5-0.7 2.3c-0.1 0.6-0.3 1.2-0.4 1.8 c-0.1 0.6-0.2 1.2-0.4 1.8c-0.1 0.4-0.1 0.8-0.2 1.1c-0.1 0.4-0.1 0.8-0.2 1.3c0.4-0.3 0.9-0.6 1.5-0.8c0.5-0.2 1.1-0.4 1.6-0.4 c0.5 0 0.9 0 1.3 0.1c0.4 0.1 0.7 0.3 1 0.7c0.9 1 1.3 1.8 1.1 2.5c-0.2 0.8-0.5 1.5-0.9 2.3c0 0.1 0 0.1-0.1 0.1 c-0.2 0.5-0.5 0.9-0.7 1.4c-0.2 0.4-0.3 0.9-0.2 1.5c0 0.1 0 0.2 0 0.3c0 0.1 0 0.2 0 0.2c0 0 0 0.1 0 0.2 c0.1 0.2 0.2 0.4 0.3 0.6c0.1 0.2 0.1 0.4 0.1 0.6c0.6 1.7 1.4 3.2 2.4 4.5c1 1.3 2.4 1.9 4.1 1.8l0.1 0l0.1 0 c1.9-0.2 3.3-1.1 4.1-2.7c0.8-1.5 1.3-3.4 1.4-5.6c0-0.2 0-0.3 0-0.5c0-0.1 0-0.3 0-0.5c0-0.5-0.1-0.9-0.2-1.4 c-0.1-0.5-0.2-1-0.3-1.4c-0.2-0.7-0.5-1.4-0.7-2.2c-0.2-0.7-0.5-1.3-0.8-1.9c-0.4-0.9-0.8-1.6-1.1-2.3c-0.3-0.6-0.5-1-0.6-1.2 L561 2195.1z"/><path class="st4" d="M643.1 2207.8c0.1-0.1 0.2-0.2 0.3-0.3c0.5-0.6 1-0.9 1.4-0.9c0.4 0 0.6 0.3 0.7 0.9l0 0.1l0 0.1 c0.1 0.8 0.1 1.6 0.1 2.2c0 0.6 0 1.3 0.1 1.9c0 0.6 0.1 1.3 0.1 1.9c0 0.6 0 1.4 0.1 2.2c0 0.3 0 0.6-0.1 0.9 c-0.1 0.3-0.2 0.7-0.5 1.1c-0.2 0.5-0.4 0.9-0.6 1.2c-0.3 0.3-0.5 0.7-0.8 1c-0.3 0.6-1.2 1.8-2.6 3.7c-1.4 1.9-3.2 3.8-5.4 5.9 c-2.1 2-4.4 3.9-6.9 5.8c-2.5 1.8-5.2 3.2-7.9 4c-0.6 0.1-1.3 0.3-1.9 0.4c-0.6 0.1-1.3 0.2-1.9 0.3c-0.1 0-0.2 0-0.3 0 c-0.1 0-0.2 0-0.3 0c-0.1 0-0.2 0-0.3 0c-0.1 0-0.2 0-0.3 0c-7.5 0.1-12.9-2.2-16.2-6.9c-3.3-4.7-5.4-11.5-6.1-20.5 c-0.2-2.1-0.2-4.3-0.3-6.6c0-2.3 0-4.6 0-7.1c0-1.2 0.1-2.5 0.2-3.8c0.1-1.3 0.3-2.6 0.5-3.9c0.1-1.1 0.2-2.2 0.4-3.3 c0.2-1.1 0.3-2.1 0.4-3.1c0.4-3 0.9-5.6 1.3-7.7c0.4-2.2 0.7-3.3 0.6-3.5l7.5-2.2c0.6-0.2 1.2-0.5 1.8-0.7 c0.6-0.2 1.1-0.5 1.7-0.8c0.3-0.1 0.6-0.2 0.9-0.3c0.3-0.1 0.6-0.3 0.9-0.5c0.7-0.3 1.5-0.6 2.2-0.9c0.8-0.2 1.6-0.4 2.5-0.5 c0.2 0 0.3 0 0.5 0c0.1 0 0.3 0 0.3 0c5.2 0 9.5 1.8 13.1 5.3c3.6 3.6 5.6 7.9 5.9 13.1c0 0.1 0 0.2 0 0.3c0 0.1 0 0.3 0 0.5 c0.2 7.9-0.9 13.8-3.3 17.7c-2.4 3.9-5.1 6.6-8.1 8.1c-1.3 0.7-2.7 1.1-4 1.5c-1.3 0.3-2.6 0.5-3.8 0.6c-0.7 0.1-1.4 0.1-2 0.1 c-0.6 0-1.1 0-1.6-0.1c-0.5-0.1-0.8-0.1-1.1-0.1c-0.3 0-0.5 0-0.6 0c0 0.3 0.1 0.5 0.1 0.8c0.1 0.2 0.1 0.4 0.1 0.6 c0 0.2 0 0.3 0.1 0.5c0.1 0.1 0.1 0.3 0.1 0.5c0.5 2.5 1.2 4.7 2.2 6.6c1 2 3.5 2.8 7.6 2.5c0.9-0.1 1.9-0.3 2.8-0.6 c0.9-0.3 1.9-0.7 2.8-1.1c2.2-1.1 4.4-2.5 6.5-4.4c2.1-1.8 4-3.7 5.6-5.5c1.1-1.3 2.1-2.5 2.8-3.7s1.5-2.2 2-3.2L643.1 2207.8z M618.5 2202.7c0.1-0.2 0.2-0.4 0.2-0.6c0.1-0.2 0.1-0.5 0.2-0.8c0.4-1.2 0.7-2.9 0.9-5c0.2-2.1 0.3-4.2 0.4-6.5 c-0.1-0.8-0.1-1.6-0.1-2.3c0-0.7 0-1.5-0.1-2.2c-0.2-2.3-0.5-4.3-1.1-5.9c-0.5-1.7-1.3-2.6-2.3-2.7c-1.6-0.2-2.8 1.4-3.7 4.6 s-1.6 6.8-2 10.7c-0.3 3.2-0.5 6.1-0.7 8.9c-0.1 2.8-0.1 4.6-0.1 5.5c0 0.2 0 0.4 0 0.5c0.1 0 0.2 0 0.4 0c0.1 0 0.3 0 0.5 0 c0.2 0 0.4 0 0.6 0c0.2 0 0.4 0 0.7 0c0.6 0 1.1-0.2 1.8-0.3c0.6-0.2 1.3-0.5 2-1c0.4-0.4 0.9-0.8 1.3-1.3 c0.4-0.5 0.8-1.1 1.1-1.7L618.5 2202.7z"/></g><path class="st4" d="M293.8 2155.7l-94.9 50.2c0 0-18 12.6-27.9-3.7c0 0-7.5-12.8 8.8-22.3c0 0 21.9-12.1 7.5 12.7"/><path class="st4" d="M617.5 2240.1l94.9-50.2c0 0 18-12.6 27.9 3.7c0 0 7.5 12.8-8.8 22.3c0 0-21.9 12.1-7.5-12.7"/></g><g><path class="st4" d="M542.5 1204.4v-26.2H533v-9.5h29.8v9.3h-9.5v26.2h-10.8V1204.4z"/><path class="st4" d="M590.2 1204.4v-13.5h-12.8v13.5h-10.8v-35.7h10.8v12.6h12.8v-12.6H601v35.7H590.2z"/><path class="st4" d="M606.7 1204.4v-35.7h27.1v9.3h-16.3v3.7h15.9v9.3h-15.9v3.8h16.3v9.3h-27.1V1204.4L606.7 1204.4z"/></g></svg>