<?xml version="1.0" encoding="utf-8"?>
<!-- Generator: Adobe Illustrator 17.1.0, SVG Export Plug-In . SVG Version: 6.00 Build 0)  -->
<!DOCTYPE svg PUBLIC "-//W3C//DTD SVG 1.1//EN" "http://www.w3.org/Graphics/SVG/1.1/DTD/svg11.dtd">
<svg version="1.1" id="Layer_1" xmlns="http://www.w3.org/2000/svg" xmlns:xlink="http://www.w3.org/1999/xlink" x="0px" y="0px"
	 viewBox="0 0 1920 1280" enable-background="new 0 0 1920 1280" xml:space="preserve">
<g>
	<path fill="#303030" d="M829.3,677.1c-44.5,0-83.4-18.6-115.8-57.5v30c0,74.5,58.3,92.3,99.6,92.3c42.7,0,83.3-11.5,113.6-39.9
		c-3.7-14.9-6.2-31.1-7.2-48.7C893.4,669.2,862.5,677.1,829.3,677.1z"/>
	<path fill="#303030" d="M788.1,567c49.4,0,85.8-30,85.8-87.5c0-56.7-36.4-86.6-85.8-86.6c-25.9,0-59.1,13.8-74.5,34.8v104.4
		C728.9,553.2,762.1,567,788.1,567z"/>
	<path fill="#303030" d="M1131.9,547.8c-49.4,0-85.8,30-85.8,86.6c0,57.5,36.4,87.4,85.8,87.4c25.9,0,59.1-13.8,74.5-34.8V582.7
		C1191.1,561.6,1157.9,547.8,1131.9,547.8z"/>
	<path fill="#303030" d="M0,0v1280h1920V0H0z M1331.1,804.5c0,158.7-127.1,192.7-224.3,192.7c-67.2,0-123.1-17-173.3-58.3l54.3-87.4
		c30.8,32.4,73.7,45.3,119,45.3c41.3,0,99.6-17.8,99.6-92.3v-30c-32.4,38.9-71.3,57.5-115.8,57.5c-43.6,0-83.1-13.6-113.2-41
		c-47.9,36.2-101.1,51.2-164.3,51.2c-97.2,0-224.3-34-224.3-192.7V292.5h124.7v46.2c31.6-38.9,72.1-55.9,115.8-55.9
		c93.3,0,164.5,61.6,171.2,178.6c25.9-15.7,56.6-23.7,90.2-23.7c43.7,0,84.2,17,115.8,55.9v-46.2h124.7V804.5z"/>
</g>
</svg>
