<?xml version="1.0" encoding="utf-8"?>
<!-- Generator: Adobe Illustrator 16.0.3, SVG Export Plug-In . SVG Version: 6.00 Build 0)  -->
<!DOCTYPE svg PUBLIC "-//W3C//DTD SVG 1.1//EN" "http://www.w3.org/Graphics/SVG/1.1/DTD/svg11.dtd">
<svg version="1.1" id="Layer_1" xmlns="http://www.w3.org/2000/svg" xmlns:xlink="http://www.w3.org/1999/xlink" x="0px" y="0px"
	 width="182.4px" height="278.6px" viewBox="953.9 989.6 182.4 278.6" style="enable-background:new 953.9 989.6 182.4 278.6;"
	 xml:space="preserve">
<style type="text/css">
<![CDATA[
	.st0{fill:#FFFFFF;}
]]>
</style>
<g>
	<path d="M954.1,1235.4c0-70.8,0-141.6,0-212.4c9.9,0,20.1,0,30,0c0.6-1,1-1.8,1.6-2.6c1.2-1.6,2.2-3.2,3.4-4.8c0.4-0.4,1-1,1.4-1.6
		s1-1,1.4-1.6c0.4-0.6,1-1.2,1.4-1.6c0.6-0.6,1.4-1.4,2.2-2c1.4-1.2,2.6-2.6,4.2-3.6c0.8-0.6,1.6-1.4,2.4-2c1.2-0.8,2.4-1.6,3.4-2.4
		c1.2-0.8,2.4-1.4,3.6-2c2.4-1.2,4.8-2.4,7.2-3.4c1.4-0.6,3-1.2,4.4-1.6c1-0.4,2-0.8,3-1c1.4-0.2,2.6-1,4-1c0.8-0.4,1.6-0.4,2.6-0.6
		c0.8-0.2,1.8-0.2,2.6-0.4c0.4,0,1-0.2,1.4-0.2c0.4-0.2,1,0,1.6-0.2c1,0.2,2-0.2,3.2-0.2c0.4,0,0.8,0,1,0l0.2-0.2c3.4,0,7,0,10.3,0
		c0,0.4,0.2,0.2,0.4,0.2c0.8,0,1.6-0.2,2.2,0c0.4,0.2,1,0.2,1.4,0.2s1,0.2,1.4,0.2c0.8,0,1.6,0,2.2,0.2c0.6,0.2,1.2,0.2,1.6,0.4
		c0.4,0.2,1.2,0,1.8,0.2c0.6,0.2,1.2,0,1.6,0.4c1,0,1.8,0.4,2.8,0.6c1.2,0.4,2.6,0.8,3.8,1.2c1.2,0.4,2.2,0.8,3.2,1.2
		c1.2,0.4,2.4,0.8,3.4,1.4c1.2,0.6,2.6,1.2,3.8,1.8c1.2,0.6,2.4,1.2,3.6,1.8c0.4,0.2,1,0.4,1.4,0.8c2,1.4,4.2,2.8,6,4.4
		c1.4,1.2,2.6,2.2,4,3.4c1,0.8,1.8,1.8,2.8,2.8c1,1,1.8,1.8,2.6,2.8c0,0,0.2,0,0.2,0.2c0.8,1.4,2,2.4,2.8,3.8c0.6,1,1.4,2,2,3
		c0.4,0.6,1,1.4,1.4,2c9.9,0,19.9,0,29.8,0c0,70.8,0,141.6,0,212.4c-9.9,0-20.1,0-30,0c-0.2,0.6-0.6,1.2-0.8,1.6c-1.4,2-2.8,4-4.2,6
		c-0.4,0.6-1,1.2-1.4,1.8c-0.4,0.6-1,1.2-1.4,1.6c-1.8,1.8-3.6,3.4-5.4,5.2c-0.4,0.4-1,1-1.6,1.4c-1,0.8-2.2,1.4-3.2,2.4
		c-1.4,1.2-3,2-4.6,3c-1.4,0.8-2.8,1.6-4.2,2.2c-1.2,0.6-2.2,1.2-3.4,1.6c-1.4,0.6-2.6,1.2-4,1.6c-1,0.4-1.8,0.6-2.8,1
		c-1.4,0.4-2.6,0.8-4,1.2c-1,0.2-2,0.6-3,0.8c-0.4,0-1,0-1.4,0.2c-1,0.4-1.8,0.4-2.8,0.6c-0.4,0.2-1,0.2-1.4,0.2
		c-0.4,0.2-1,0-1.6,0.2c-1-0.2-2,0.2-3.2,0.2c-0.4,0-0.8,0-1.2,0l-0.2,0.2c-3.4,0-7,0-10.3,0l-0.2-0.2c-1.4,0.2-2.6-0.2-3.8-0.2
		c-0.2,0-0.4,0-0.4,0c-0.6-0.6-1.2,0-1.8-0.4c-0.6-0.2-1.2-0.2-1.8-0.4s-1.4,0-1.8-0.2c-0.4-0.2-1-0.2-1.4-0.2
		c-0.8-0.2-1.6-0.4-2.4-0.6c-1-0.2-2-0.4-3.2-0.8c-1.6-0.6-3.2-1-4.8-1.6c-1.6-0.6-3.4-1.4-5-2c-2.6-1.2-5-2.4-7.4-4
		c-1.8-1.2-3.4-2.4-5.2-3.4c-1.4-1-2.6-2-3.8-3.2c-1.2-1-2.2-2-3.4-3.2c-0.4-0.4-0.8-1-1.4-1.6c-1.6-1.6-3-3.2-4.2-5
		c-1-1.2-1.8-2.4-2.6-3.6c-0.6-0.8-1-1.6-1.4-2.4C974.2,1235.4,964.3,1235.4,954.1,1235.4z M1131.9,1231.2c0-68,0-135.8,0-203.9
		c-9.3,0-18.7,0-28,0c-0.2-0.4-0.6-0.8-0.8-1.2c-0.6-1-1.2-2-1.8-3c-0.6-1.2-1.6-2.2-2.4-3.2c-1.2-1.8-2.6-3.4-4.2-5
		c-0.4-0.4-0.8-0.8-1.2-1.2c-1.4-1.4-2.8-3-4.4-4.2c-0.6-0.4-1-1-1.6-1.4c-1.8-1.2-3.2-2.4-5-3.4c-1.6-1-3-2-4.6-2.8
		c-1.2-0.6-2.6-1.4-3.8-2c-0.8,0-1.4-0.6-2-0.8c-0.6-0.2-1.4-0.4-2-0.8c-1.8-0.8-3.8-1.4-5.8-2c-1.4-0.4-3-0.8-4.4-1
		c-1.4-0.2-3-0.4-4.6-0.8c-0.6-0.2-1.4,0-2-0.2c-0.6-0.2-1.4-0.2-2-0.2c-1.2-0.2-2.4,0-3.6-0.2c-1-0.2-2,0-3,0s-1.8,0-2.8,0.2
		c-1,0.2-2,0-2.8,0h-0.2c-0.4,0.4-1,0.2-1.6,0.2c-0.6,0-1.2,0.2-1.6,0.2c-0.8,0-1.6,0.4-2.4,0.2c-0.4,0.4-1,0.2-1.6,0.4
		c-0.8,0.2-1.6,0.4-2.6,0.6c-1,0.2-1.8,0.4-2.6,0.6c-0.8,0.2-1.6,0.6-2.6,0.6c-1.6,0.4-3,1-4.6,1.6c-1.8,0.6-3.4,1.4-5.2,2.2
		c-1.2,0.6-2.4,1.2-3.4,1.8s-2.2,1.2-3.2,1.8c-1.8,1.2-3.6,2.4-5.4,3.8c-1.2,1-2.6,2-3.8,3.2c-1.4,1.2-2.8,2.6-4,4.2
		c-1.2,1.4-2.4,2.8-3.4,4.2c-0.8,1-3,4.2-3.8,5.6c-0.4,0.6-0.8,1.2-1.2,1.8c-9.3,0-18.7,0-28.2,0c0,68,0,135.8,0,203.9
		c9.5,0,18.9,0,28.4,0c0.6,1,1.2,2,1.8,3c1,1.4,2,2.8,3,4.2c1.2,1.6,2.6,3.2,4,4.8c1.2,1.4,2.6,2.8,4.2,4c1.2,1,2.2,2,3.4,2.8
		c0.8,0.6,1.6,1.2,2.6,1.8c1.2,0.6,2.2,1.4,3.2,2.2c1.2,0.8,2.6,1.4,3.8,2.2c1.8,1,3.8,1.8,5.8,2.6c1.2,0.4,2.4,1,3.6,1.4
		c1,0.4,2,0.6,2.8,1c0.4,0.2,1,0.2,1.6,0.4c1.2,0.4,2.4,0.4,3.6,1c0.4,0.2,1,0.2,1.6,0.2c0.6,0.2,1.2,0,1.6,0.2c0.4,0.2,1,0,1.4,0.2
		c0.4,0.4,1,0.2,1.4,0.2c0.2,0,0.2,0,0.4,0c0.8,0.6,1.8,0,2.8,0.4c1.2,0,2.4,0,3.6,0.2c1.4,0.2,3,0,4.4,0s3-0.2,4.4-0.2
		c0,0,0,0,0.2,0c0.4-0.4,1-0.2,1.6-0.2c0.6,0,1-0.2,1.6-0.2c0.8-0.2,1.6,0,2.4-0.2c1-0.2,2-0.4,3-0.6c0.8-0.2,1.8-0.4,2.6-0.6
		c1-0.2,1.8-0.4,2.8-0.8c1-0.2,1.8-0.6,2.6-0.8c2.4-0.8,4.8-1.6,7-2.8c1.8-1,3.6-1.6,5.4-2.8c1-0.6,2-1.2,2.8-1.8
		c1.2-0.6,2.2-1.6,3.4-2.4c1.6-1,3-2.2,4.4-3.4c2.4-2.2,4.8-4.4,6.8-7c0.8-1,1.6-2,2.4-3c0.8-1,1.6-2,2.2-3.2c0.4-1,1-1.8,1.6-2.6
		C1112.8,1231.2,1122.4,1231.2,1131.9,1231.2z"/>
	<path class="st0" d="M1039.8,989.7l-0.2,0.2c-0.4,0-0.6,0-1,0c-1,0-2,0.4-3.2,0.2c-0.4,0.4-1,0.2-1.6,0.2c-0.4,0.2-1,0.2-1.4,0.2
		c-0.8,0.2-1.8,0.2-2.6,0.4c-0.8,0.2-1.8,0.2-2.6,0.6c-1.4,0-2.6,0.6-4,1c-1,0.2-2,0.6-3,1c-1.4,0.4-3,1-4.4,1.6
		c-2.4,1-4.8,2.2-7.2,3.4c-1.2,0.6-2.4,1.4-3.6,2c-1.2,0.8-2.4,1.6-3.4,2.4c-1,0.6-1.6,1.4-2.4,2c-1.4,1.2-2.8,2.4-4.2,3.6
		c-0.8,0.6-1.6,1.4-2.2,2c-0.4,0.4-1,1-1.4,1.6c-0.4,0.6-1,1-1.4,1.6c-0.4,0.6-0.8,1-1.4,1.6c-1.2,1.4-2.4,3.2-3.4,4.8
		c-0.6,0.8-1,1.6-1.6,2.6c-9.9,0-19.9,0-30,0c0-10.9,0-22.1,0-33C982.7,989.7,1011.4,989.7,1039.8,989.7z"/>
	<path class="st0" d="M1136.1,1023c-9.9,0-19.9,0-29.8,0c-0.4-0.6-0.8-1.4-1.4-2c-0.6-1-1.4-2-2-3c-0.8-1.4-2-2.4-2.8-3.8l-0.2-0.2
		c-1-1-1.8-2-2.6-2.8c-1-1-1.8-1.8-2.8-2.8c-1.4-1.2-2.6-2.2-4-3.4c-2-1.6-4-3-6-4.4c-0.4-0.2-0.8-0.6-1.4-0.8
		c-1.2-0.6-2.4-1.2-3.6-1.8c-1.2-0.6-2.6-1.2-3.8-1.8s-2.2-1-3.4-1.4c-1-0.4-2-0.8-3.2-1.2c-1.2-0.4-2.4-0.8-3.8-1.2
		c-1-0.2-1.8-0.6-2.8-0.6c-0.4-0.4-1-0.2-1.6-0.4c-0.4-0.2-1.2,0-1.8-0.2c-0.6-0.2-1.2-0.2-1.6-0.4c-0.6-0.2-1.4-0.2-2.2-0.2
		c-0.4,0-1-0.2-1.4-0.2c-0.4,0-1,0-1.4-0.2c-0.8-0.2-1.4,0-2.2,0c-0.2,0-0.4,0-0.4-0.2c28.6,0,57.1,0,85.7,0
		C1136.1,1000.9,1136.1,1011.8,1136.1,1023z"/>
	<path class="st0" d="M954.1,1235.4c9.9,0,19.9,0,30,0c0.4,0.8,1,1.6,1.4,2.4c0.8,1.2,1.6,2.4,2.6,3.6c1.4,1.8,2.8,3.4,4.2,5
		c0.4,0.4,0.8,1,1.4,1.6c1.2,1,2.2,2,3.4,3.2c1.2,1,2.4,2.2,3.8,3.2c1.8,1.2,3.4,2.4,5.2,3.4c2.4,1.4,4.8,2.8,7.4,4
		c1.6,0.8,3.2,1.4,5,2c1.6,0.6,3.2,1.2,4.8,1.6c1,0.4,2,0.6,3.2,0.8c0.8,0.2,1.6,0.4,2.4,0.6c0.4,0.2,0.8,0,1.4,0.2
		c0.6,0.2,1.2,0.2,1.8,0.2c0.6,0.2,1.4,0,1.8,0.4c0.6,0.2,1.4-0.2,1.8,0.4c0,0,0.2,0,0.4,0c1.4,0,2.6,0.4,3.8,0.2l0.2,0.2
		c-28.6,0-57.1,0-85.7,0C954.1,1257.3,954.1,1246.3,954.1,1235.4z"/>
	<path class="st0" d="M1050.4,1268.2l0.2-0.2c0.4,0,0.8,0,1.2,0c1,0,2-0.4,3.2-0.2c0.4-0.4,1-0.2,1.6-0.2c0.4-0.2,1-0.2,1.4-0.2
		c1-0.2,1.8-0.2,2.8-0.6c0.4-0.2,1-0.2,1.4-0.2c1-0.2,2-0.4,3-0.8c1.4-0.4,2.6-0.8,4-1.2c1-0.2,1.8-0.6,2.8-1c1.4-0.4,2.6-1,4-1.6
		c1.2-0.4,2.2-1.2,3.4-1.6c1.4-0.6,2.8-1.4,4.2-2.2c1.6-1,3.2-1.8,4.6-3c1-0.8,2.2-1.6,3.2-2.4c0.6-0.4,1-1,1.6-1.4
		c1.8-1.6,3.6-3.4,5.4-5.2c0.4-0.6,1-1.2,1.4-1.6c0.4-0.6,1-1.2,1.4-1.8c1.4-1.8,3-4,4.2-6c0.4-0.4,0.6-1,0.8-1.6c9.9,0,20.1,0,30,0
		c0,10.9,0,21.9,0,32.8C1107.5,1268.2,1079,1268.2,1050.4,1268.2z"/>
	<path class="st0" d="M1131.9,1231.2c-9.5,0-18.9,0-28.4,0c-0.6,0.8-1.2,1.8-1.6,2.6c-0.6,1.2-1.4,2.2-2.2,3.2c-0.8,1-1.6,2-2.4,3
		c-2,2.6-4.4,4.8-6.8,7c-1.4,1.2-2.8,2.4-4.4,3.4c-1.2,0.8-2.2,1.6-3.4,2.4c-1,0.6-2,1.2-2.8,1.8c-1.6,1.2-3.6,1.8-5.4,2.8
		c-2.2,1.2-4.6,2-7,2.8c-1,0.2-1.8,0.4-2.6,0.8c-1,0.2-1.8,0.6-2.8,0.8c-0.8,0.2-1.8,0.4-2.6,0.6c-1,0.2-2,0.4-3,0.6
		c-0.8,0.2-1.6,0.2-2.4,0.2c-0.4,0-1,0.2-1.6,0.2c-0.4,0-1,0-1.6,0.2c0,0,0,0-0.2,0c-1.4,0-3,0.2-4.4,0.2c-1.4,0-3,0.2-4.4,0
		c-1.2-0.2-2.4-0.2-3.6-0.2c-0.8-0.6-1.8,0-2.8-0.4c0,0-0.2,0-0.4,0c-0.4,0-1,0.2-1.4-0.2c-0.4-0.2-1,0-1.4-0.2
		c-0.4-0.2-1.2-0.2-1.6-0.2c-0.4,0-1,0-1.6-0.2c-1.2-0.4-2.4-0.4-3.6-1c-0.4-0.2-1-0.2-1.6-0.4c-1-0.2-2-0.6-2.8-1
		c-1.2-0.4-2.4-0.8-3.6-1.4c-2-0.8-4-1.6-5.8-2.6c-1.4-0.8-2.6-1.4-3.8-2.2c-1.2-0.6-2.2-1.4-3.2-2.2c-0.8-0.6-1.6-1.2-2.6-1.8
		c-1.2-1-2.2-1.8-3.4-2.8c-1.4-1.2-2.8-2.6-4.2-4c-1.4-1.6-2.8-3.2-4-4.8c-1-1.4-2-2.8-3-4.2c-0.6-1-1.2-2-1.8-3
		c-9.5,0-18.9,0-28.4,0c0-68,0-135.8,0-203.9c9.3,0,18.7,0,28.2,0c0.4-0.6,0.8-1.2,1.2-1.8c0.8-1.4,3-4.6,3.8-5.6
		c1.2-1.4,2.4-2.8,3.4-4.2c1.2-1.4,2.6-2.8,4-4.2c1.2-1,2.4-2,3.8-3.2c1.6-1.4,3.4-2.6,5.4-3.8c1-0.6,2-1.2,3.2-1.8s2.2-1.2,3.4-1.8
		c1.6-0.8,3.4-1.6,5.2-2.2c1.6-0.6,3-1.2,4.6-1.6c0.8-0.2,1.6-0.4,2.6-0.6c0.8-0.2,1.8-0.4,2.6-0.6c0.8-0.2,1.8-0.2,2.6-0.6
		c0.6-0.2,1.2,0.2,1.6-0.4c0.8,0.2,1.6-0.2,2.4-0.2c0.6,0,1.2-0.2,1.6-0.2c0.4,0,1,0.2,1.6-0.2h0.2c1,0,2,0.2,2.8,0
		c1-0.2,1.8-0.2,2.8-0.2c1,0,2-0.2,3,0c1.2,0.2,2.4,0,3.6,0.2c0.6,0,1.4,0,2,0.2c0.6,0.2,1.4,0,2,0.2c1.4,0.4,3,0.6,4.6,0.8
		c1.6,0.2,3,0.6,4.4,1c2,0.4,4,1.2,5.8,2c0.6,0.2,1.4,0.6,2,0.8s1.2,0.8,2,0.8c1.2,0.6,2.6,1.4,3.8,2c1.6,0.8,3.2,1.8,4.6,2.8
		c1.8,1,3.4,2.4,5,3.4c0.6,0.4,1.2,1,1.6,1.4c1.6,1.2,3,2.8,4.4,4.2c0.4,0.4,0.8,0.8,1.2,1.2c1.4,1.6,2.8,3.2,4.2,5
		c0.8,1,1.6,2,2.4,3.2c0.6,1,1.2,2,1.8,3c0.2,0.4,0.4,0.8,0.8,1.2c9.3,0,18.7,0,28,0C1131.9,1095.2,1131.9,1163.2,1131.9,1231.2z
		 M1045.4,1102.3c0.2,0,0.4,0.2,0.4-0.2c0.2,0,0.4,0.2,0.4-0.4v0.2c0.2,0,0.2,0,0.4,0c0,0,0,0,0-0.2c-0.2,0-0.2,0-0.4,0.2
		c-0.2,0-0.4-0.2-0.4,0.2C1045.8,1102.1,1045.4,1102.1,1045.4,1102.3c-0.2,0-0.4-0.2-0.4,0.2c-0.2,0-0.4,0.2-0.8,0.2
		c-1.6,0.8-3.2,1.4-4.6,2.4c-1.6,1-3.4,1.8-5,3c-1.4,1-2.8,1.8-4,2.6c-1.4,1-2.6,2-4,3.2c-1,0.8-1.8,1.8-2.8,2.6
		c-0.4,0.4-0.8,1-1.4,1.6c-1.2,1.2-2.4,2.6-3.6,4c-0.8,1-1.4,2-2.2,3c-0.8,1.2-1.4,2.4-2.2,3.4c-0.4,0-0.8,0.2-1,0
		c-0.8-0.4-1.6-0.2-2.4-0.2c-1,0-1.8,0.2-2.8-0.2c-0.4-0.2-1,0-1.4,0s-1-0.2-1.4-0.2c-0.6,0-1.2,0-1.8-0.2c-0.4-0.2-1,0-1.6-0.2
		s-1.2,0-1.8-0.2c-0.6-0.2-1.2,0-1.8-0.2c-0.6-0.2-1.2-0.2-1.8-0.4c-1-0.2-2-0.6-3-0.8c-1-0.2-2-0.6-3-1c-2-0.6-4-1.4-5.8-2.4
		c-1.2-0.6-2.2-1-3.2-1.6c-2-1.2-4-2.6-5.8-4.2s-3.4-3.6-4.6-5.8c-0.6-1.2-1.2-2.4-1.8-3.8c-0.4-1-0.6-1.8-0.6-3
		c-0.4-0.4,0-1-0.2-1.4c-0.4-0.4-0.2-1-0.2-1.4c0-1.8-0.2-3.4,0.2-5.2c0.2-0.4,0.2-1,0.2-1.6c-2-0.4-3.6-1.4-5.2-2.8
		c-0.2,0.2-0.2,0.2-0.4,0.4c-0.2,1.4-0.6,2.8-0.6,4.2c-0.2,1.4,0,2.8,0,4.2s0.4,2.8,0.4,4.2c0,0.4,0.2,0.8,0.2,1.2
		c0.6,1.6,1.2,3.2,2,4.8c1,1.8,2.2,3.2,3.4,4.8c0.6,0.6,1.2,1.2,1.8,1.8s1.4,1.2,2,1.8c0.4,0.2,0.8,0.6,1.2,0.8
		c1.8,1.2,3.8,2.4,5.8,3.4c1.8,1,3.6,1.6,5.4,2.4c1,0.4,1.8,0.4,2.6,0.8c1,0.4,1.8,0.6,2.8,0.8c0.6,0.2,1.4,0.4,2,0.4
		c1,0,2,0.6,3,0.4c1,0.6,2.2,0.4,3.4,0.6s2.4,0.2,3.4,0.4c1,0.2,1.8,0,2.8,0.2c1.8-0.2,3.6,0.4,5.6,0.2c1.2,0,2.4,0,3.6,0
		c0,0.2,0,0.4,0,0.4c-0.8,1.4-1.4,2.8-1.8,4.2c-0.4,1.2-1,2.4-1,3.6c-0.4,0.2,0,0.6-0.2,1c-0.2,0.4,0,0.8-0.2,1
		c-0.2,0.4,0,1-0.2,1.2c-0.2,0.4,0,1-0.2,1.4c0,0.4-0.2,0.8-0.2,1.4c0,1,0,1.8,0,2.8s-0.2,1.8,0.2,2.8c0.2,0.4,0,1,0.2,1.4
		c0.2,0.4,0,1,0.2,1.4c0.2,0.4,0,1,0.4,1.4c0.4,1.8,1,3.4,1.6,4.8c1,2.4,2.4,4.4,4,6.4c-0.4,0.4-1,0.6-1.4,1c-1,0.6-2,1.2-3,1.8
		c-0.8,0.6-1.6,1.2-2.6,1.8c-1.4,1-3,2.2-4.4,3.2c-0.6,0.4-1.2,1.2-1.8,1.6c-1.4,1-2.4,2.4-3.8,3.4c-0.4,0.2-0.6,0.6-0.8,1
		c-1.4,1.2-2.6,2.6-3.6,4c-0.8,1-1.6,2-2.4,3c-1.2,1.6-2.2,3.2-3.2,5c-0.8,1.6-1.6,3.2-2.4,5c-0.2,0.4-0.4,1-0.6,1.6
		c-0.4,1.2-0.8,2.2-1,3.4c-0.2,0.8-0.4,1.6-0.6,2.6c0,0.6,0,1.2-0.2,1.6c-0.2,0.4-0.2,1-0.2,1.4c0,0.6-0.2,1-0.2,1.6
		c0.2,2.2-0.2,4.4,0.2,6.6c0.2,0.6,0,1.4,0.2,2c0,0.2,0.2,0.6,0.2,1c0.2,0.8,0.2,1.6,0.6,2.4c0.4,1.2,0.8,2.6,1.4,3.8
		c0.8,1.8,1.8,3.6,2.8,5.2c1,1.6,2.2,3,3.4,4.4c1,1,1.8,1.8,2.8,2.8c1.2,1,2.4,1.8,3.4,2.8c1.4,1.2,3.2,2.2,4.8,3
		c1.8,1,3.8,2,5.8,2.8c1.8,0.6,3.4,1.2,5.2,1.8c1.6,0.4,3.4,0.8,5,1.4c0.6,0.2,1.4,0,1.8,0.2c0.6,0.4,1.4,0,2,0.4
		c0.4,0.2,1.2,0,1.8,0.2c0.6,0.2,1.2,0,1.8,0.2c1.8,0,3.4,0.4,5.2,0.2c1,0,2,0,3,0c2.2,0,4.4,0.2,6.6-0.2c1-0.2,1.8,0,2.8-0.2
		c0.6-0.2,1.2,0.2,1.8-0.2c1.2,0,2.4-0.2,3.4-0.4c0.6,0,1.2-0.2,1.6-0.2c0.6,0,1.2,0,1.6-0.2c0.4-0.2,1.2,0,1.6-0.4c1,0,2-0.4,3-0.6
		c1.4-0.2,2.6-0.8,4-1c1-0.2,2-0.8,3-1s2-1,3-1c1.8-1,3.8-1.6,5.8-2.6c2.6-1.2,5.2-2.4,7.6-4c1-0.6,2-1.2,2.8-1.8c1-0.6,2-1.4,3-2
		c1.8-1.2,3.4-2.6,5-3.8c1.4-1,2.6-2,3.8-3.2c2-1.8,3.8-4,6-5.8c1.2-1,2.4-2.2,3.4-3.6c0.6-0.6,1.2-1.4,1.8-2c1-1.2,2-2.6,3-4
		c1.2-1.6,2-3.2,3-4.8c0.8-1.4,1.4-2.8,2-4.4c0.2-0.4,0.4-0.8,0.4-1.4c0.6-2,1.4-4,1.6-6c0.4-0.4,0-1,0.4-1.2c0.2-0.4,0-1,0.2-1.4
		c0-0.2,0-0.2,0-0.4c0.4-0.6,0-1.4,0.2-2c0.2-0.6,0.2-1.4,0.2-2c0-0.8-0.2-1.4-0.2-2c0-1-0.2-2-0.2-3v-0.2c-0.2-0.8-0.4-1.6-0.6-2.4
		c-0.4-1.2-0.6-2.4-1.2-3.4c-0.8-1.8-1.6-3.8-2.8-5.4c-1.2-1.6-2.2-3.2-3.6-4.6c-0.4-0.4-1.2-1-1.4-1.6c0-0.2-0.2-0.4-0.4-0.4
		c-0.8-0.4-1.2-1-1.8-1.6c-0.6-0.6-1.2-1-1.8-1.6c0.6-0.4,1.4-1,2-1.4c1-0.8,2-1.8,3.2-2.6c1.4-1,2.4-2.2,3.6-3.2
		c1.4-1.4,2.8-3,4-4.4c0.4-0.6,1.2-1.2,1.6-1.8c0.4-0.6,0.8-1.2,1.4-1.8c1-1.4,1.8-3,2.6-4.6c0.8-1.4,1.4-2.8,1.8-4.2
		c0.2-0.4,0.2-0.6,0.4-1c0.2-0.4,0.2-0.8,0.4-1.2c0.2-0.4-0.2-0.8,0.2-1c0-1,0.4-1.6,0.4-2.6c0-0.6,0-1.2,0.2-1.8
		c0.2-0.4,0.2-1,0.2-1.4c0-0.4,0.2-0.8,0.2-1.4c0-0.8,0-1.6,0-2.6c0-0.8-0.4-1.6-0.2-2.6c-0.4-0.4,0-1.2-0.2-1.6
		c-0.6-1.6-0.8-3.4-1.6-5c-0.6-1.4-1.2-2.8-2-4c-1.4-2-3-4-4.6-5.8c-0.6-0.6-1.2-1.2-1.8-1.6c-0.6-0.4-1.2-1.2-1.8-1.6
		c-1.8-1.2-3.8-2.6-5.8-3.6c-1.4-0.6-2.8-1.2-4.2-1.8c-1-0.4-1.8-0.6-2.8-1c-1.6-0.4-3.2-1-5-1.2c-0.4,0-1,0-1.6-0.2
		c-1.2-0.4-2.4-0.4-3.6-0.6c-0.8-0.2-1.6,0-2.2-0.2c-1.8,0.2-3.4-0.2-5.2-0.2c-2.4,0-4.6,0.4-7,0.2c-0.2,0-0.2,0-0.4,0
		c-0.2,0.4-0.8,0.2-1,0.2c-0.4,0-0.8,0.2-1.2,0.2c-0.6,0-1.2,0-1.8,0.2c-1,0.2-2,0.2-3,0.6c-0.4,0-1,0.2-1.4,0.2c0,0-0.2,0-0.4,0
		c-0.8,0.2-1.6,0.4-2.4,0.6c-1,0.2-2,0.6-3,0.8c-1.4,0.4-3,1-4.4,1.4c-2.2,0.8-4.4,1.6-6.4,2.6c-1.6,0.8-3.2,1.6-4.8,2.6
		c-1.2,0.6-2.4,1.4-3.4,2c-1.6,1-3.2,2.2-4.8,3.4c-1.6,1.2-3,2.4-4.4,3.6c-1.6,1.6-3.4,3.2-4.8,5c-0.6,1-1.6,1.8-2.2,2.8
		c-1.2,1.6-2.4,3.4-3.4,5.4c-1.4,2.6-2.8,5.4-3.4,8.2c-0.4,1.4-1,2.8-1,4.2c-0.4,0.8-0.2,1.8-0.4,2.6c-0.2,1,0,2,0,2.8
		c0,1,0,1.8,0.2,2.8s0.4,1.8,0.4,2.8c0.2,1.4,0.8,3,1.4,4.4c1.2,2.6,2.6,5.2,4.6,7.4c0.4,0.4,0.6,0.8,0.8,1.2
		c-0.6,0.4-1.2,0.8-1.8,1.2c-1,0.6-1.8,1-2.8,1.6c-1.6,1.2-3.2,2.2-4.8,3.2c-1.4,1-2.8,2.2-4.4,3.2c-1.4,1-2.6,2-3.8,3.2
		c-1.2,1.2-2.2,2.2-3.2,3.4s-2,2.4-3.2,3.8c-0.4,0.4-0.6,1-1,1.4c-1,1.4-2,3-3,4.6c-0.8,1.4-1.4,2.8-2,4.2c-0.6,1.4-1.2,2.8-1.6,4.2
		c-0.4,1.4-0.8,2.8-1,4.2c0,0.4,0,1.2-0.2,1.6c-0.2,0.6,0,1.2-0.2,1.6c-0.2,0.6-0.2,1.2-0.2,1.8c0,1.8-0.2,3.8,0.2,5.6
		c0.2,0.4,0,1,0.2,1.6c0.2,0.4,0.2,1,0.2,1.6c0.2,1.8,0.8,3.4,1.6,5c1.2,2.4,2.2,4.6,3.8,6.8c1,1.4,2,2.8,3.2,4c1,1,1.8,1.8,2.8,2.6
		c1.2,1,2.4,1.8,3.6,2.6c1.6,1.2,3.4,2,5.2,3c1.8,1,3.4,1.8,5.4,2.4c1.8,0.6,3.8,1.4,5.8,1.8c0.6,0,1.2,0.2,1.8,0.4s1.2,0.2,1.8,0.4
		c0.6,0.2,1.2,0.2,1.8,0.4c1.2,0.2,2.4,0.4,3.4,0.4c0.6,0,1.4,0,2,0.2c1.4-0.2,2.8,0.2,4.2,0.2c1.4,0,3,0,4.4,0
		c1.4,0,2.8-0.2,4.4-0.2c1.2,0,2.6-0.2,3.8-0.2h0.2c0.4-0.4,1-0.2,1.4-0.2c0.4,0,1-0.2,1.4-0.2c0.6,0,1.4,0,2-0.2
		c0.4-0.2,1,0,1.2-0.2c0.4-0.2,0.8-0.2,1.2-0.2c0.2,0,0.2-0.2,0.4-0.2c0.6,0,1.2-0.4,1.8-0.2c-1,0.2-2,0.6-3,0.8
		c-1,0.2-1.8,0.4-2.8,0.6c-1,0.2-1.8,0.4-2.8,0.6c-0.4,0.2-1,0.2-1.4,0.2c-0.4,0.2-1,0.2-1.6,0.2c-0.6,0.2-1.2,0.2-1.8,0.2
		s-1.4,0.2-2,0.2c-1.6,0.2-3.4,0.2-5,0.2c-1,0-2,0-3,0c-1.2,0-2.6,0-3.8,0c-1.4,0-2.6-0.4-3.8-0.2h-0.2c-0.4-0.4-1-0.2-1.4-0.2
		c-0.4,0-1-0.2-1.4-0.2c-1,0-1.8-0.2-2.8-0.4c-1.6-0.2-3-0.6-4.6-1c-1.4-0.2-2.6-0.8-3.8-1.2c-0.8-0.2-1.4-0.6-2-0.8
		c-1.6-0.4-3.2-1.4-4.8-2c-1-0.4-1.8-1-2.6-1.4c-0.6-0.4-1.4-0.8-2-1c-2-1.4-4-2.8-5.8-4.4c-1.6-1.4-3-3-4.4-4.8
		c-1-1.2-1.8-2.6-2.6-4c-0.8-1.6-1.6-3.2-2.2-4.8c-0.4-1.4-0.8-2.8-1-4.2c0-0.4,0-1.2-0.2-1.6c-0.2-0.6-0.2-1.2-0.2-1.6
		c0-0.6-0.4-1.2-0.2-1.8c0.2-1.4-0.2-2.8,0.2-4.2c0.2-0.6-0.2-1.2,0.2-1.8c0.2-0.4,0-1.2,0.2-1.8c0-1.2,0.6-2.4,0.8-3.6
		c0.2-0.6,0.4-1.4,0.6-2.2c0.2-0.6,0.6-1.4,0.8-2c0.2-0.8,0.6-1.4,1-2c0.8-1.8,1.8-3.8,3-5.4c0.8-1.4,1.6-2.6,2.8-3.8
		c1-1.2,1.8-2.6,3-3.6c2-2,4-4.2,6.2-6c0,0,0-0.2,0.2-0.2c1.4-1,2.6-2,4-3c1-0.6,2-1.4,3-2.2c2.2-1.6,4.4-3,6.8-4.2
		c0.2,0,0.2-0.2,0.2-0.4c-0.6-1-1.4-2-2-2.8c-1-1.4-1.8-2.6-2.4-4.2c-0.4-1-0.8-1.8-1.2-2.6c-0.4-0.8-0.6-1.8-0.8-2.6
		c-0.2-0.8-0.6-1.6-0.4-2.6c-0.4-0.4-0.2-1-0.2-1.6c0-0.4-0.2-1-0.2-1.6c0-1.4,0-2.6,0.2-4c0.2-0.8,0-1.6,0.2-2.4
		c0.4-1.2,0.4-2.4,0.8-3.4c0.6-1.8,1-3.4,1.8-5.2c0.8-1.6,1.4-3.2,2.4-4.6c0.6-1.2,1.4-2.2,2.2-3.2c0.4-0.6,1-1.4,1.4-2
		c0.4-0.4,1-0.8,1.2-1.4c0.4-0.8,1.2-1.2,1.6-1.8c0.6-0.6,1-1.4,1.8-2c1-0.8,1.8-1.6,2.6-2.4l0.2-0.2c1-0.8,2.2-1.8,3.2-2.6
		c1-0.8,2-1.4,3-2.2c0.8-0.4,1.4-0.8,2-1.4C1041.6,1104.5,1043.6,1103.5,1045.4,1102.3C1045.2,1102.7,1045.4,1102.7,1045.4,1102.3z
		 M1109.6,1077.7c0-0.2,0-0.4,0.2-0.4c1-0.8,1.6-1.8,2.6-2.6c1.6-1.2,3-2.6,4.6-4c0.2-0.2,0.4-0.6,0.8-1c0.8-1,1.4-1.8,1.2-3.2
		c0-0.2,0-0.6,0-1c-0.4-1.2-1.2-2-2-2.8c-1-1-2-1.8-3-2.8c-0.4-2.6-1.8-4.2-4.2-5.2c-0.6,0-1.4,0-2,0c-1.4,1.2-2.2,2.8-2.6,5
		c-0.2,0.2-0.4,0.6-0.8,1c-1,1-2.2,2-3.4,3c-1.2,1-2.2,2-3.4,2.8c-0.8,0.6-1.6,1.4-2.4,2.2l-0.2,0.2c-0.6,0.2-0.8,0.6-1.2,1
		s-1,0.6-1.4,1c-1,1-2.2,1.6-3.4,2.2c-0.6,0.4-1.4,0.6-2.2,1c-0.8,0.4-1.6,0.4-2.4,0.8c-0.8,0.2-1.6,0.6-2.6,0.6c-1.6,0.2-3,1-4.4,1
		c-0.4,0.4-0.8,0-1.2,0.2c-0.4,0.2-0.8,0.2-1.2,0.2c-0.2,0-0.4,0-0.4,0c-0.6,0.4-1.2,0.2-1.6,0c0.4-1.6,1-3.2,1.8-4.6
		c0.4,0,0.8,0.2,1.4,0.2c0.6,0,0.8,0.2,1.4,0.2c1,0,2,0,3.2,0.2c0.4,0.2,1.2,0,1.6-0.2c0.6,0,1-0.2,1.6-0.2s1.2-0.2,1.6-0.4
		c1.4-0.4,2.8-1,4-1.8c1-0.8,1.8-1.6,2.6-2.6c0.6-0.6,0.8-1.4,0.6-2.4c0-0.6,0-1.4,0-2c0-0.6-0.2-1.2-0.4-1.8
		c-0.6-1.4-1.4-2.4-2.6-3.4c-0.4-0.4-0.8-0.6-1.4-0.6c-0.4,0-0.8,0-1.2-0.2c-0.2,0-0.6,0.2-0.8,0.2c-1.2-0.2-2.2,0.2-3.2,0.6
		c-1.6,0.4-3,1.2-4.4,1.8c-0.8,0.4-1.6,0.8-2.4,1.4c-0.4,0.4-1,0.8-1.6,1.2c-1,0.6-2,1.4-2.8,2.2c-1.6,1.4-3,3-4.2,4.6
		c-0.6,0.8-1.2,1.4-1.6,2.4c-0.4,1.2-1.2,2.4-1.4,3.6c-0.4,1-0.4,2.2-0.2,3.2c0.4,1.6,1.6,2.8,2.6,4c0.6,0.6,1.4,1.2,2,1.6
		c0.8,0.2,1.4,0.2,2,0.2c1.2,0,2.2-0.2,3.2-0.2c0.4-0.4,1-0.2,1.4-0.4c1.2-0.4,2.4-0.6,3.6-1c1.6-0.4,3-1,4.6-1.4
		c0.4-0.2,0.6-0.2,1-0.2c0.6,0.6,1.2,1.2,1.8,1.6c0.8,0.6,1.6,1.2,2.8,1c0.8-0.8,1.6-1.4,2.4-2c4-4,7.8-7.8,11.9-11.5
		c1.6-1.6,3-3.2,5-4.6c0.4,0.4,0.6,0.6,1,1c0.4,0.4,0.8,0.6,1,1.2c-0.6,0.4-1.2,0.8-1.6,1.4c-1.2,1.2-2.4,2.4-3.6,3.6
		c-0.4,0.4-1,0.8-1.4,1.4c-0.4,0.6-0.8,1-1.2,1.4c-0.4,0.4-0.8,1-1.2,1.4c-0.6,0.8-1.4,1.6-1.4,2.6l-0.2,0.2c0,0.2,0.2,0.2,0.2,0.4
		c0,1,0.6,1.6,1.2,2.4c0.6,0.8,1.6,1.4,2.4,2c1.4,1,3,1,4.4,1c0.6-0.4,1.2-0.2,1.8-0.6c0.6-0.4,1.2-0.4,1.8-0.8c2.4-1,4.8-2.4,7-4
		c1.6-1.2,3-2.4,4.6-3.8c1.2-1,2.2-2,3.2-3c0.2-0.4,0.6-0.6,0.8-1c0.2-0.8,0-1.4-0.4-1.8c-0.4-0.8-1.2-1.2-2.2-1.4
		c-1.2-0.2-2.2,0.6-3.2,1.2c-0.6,0.4-1.2,1-1.8,1.4c-1.4,0.6-2.4,1.6-3.8,2.2c-1.8,1.4-4,2.4-6,3.8
		C1110.2,1077.5,1109.8,1077.5,1109.6,1077.7z M1016.8,1034.7c0.2,0.2,0.2,0.2,0.4,0.2c0.4,1.6-0.2,2.8-0.6,4
		c-0.8,1.8-1.6,3.8-2.8,5.4c-1.6,2.4-3,4.8-5,6.8c-0.6,0.6-1.2,1.6-1,2.8c0,0.4,0.2,0.6,0.4,1.2c0.4,0.2,0.8,0.6,1.4,1
		c0.4,0.2,1,0.2,1.4,0.4c1,0.2,1.8-0.2,2.8-0.2c0.4-0.4,1-0.2,1.4-0.4c1-0.6,2-1,2.6-2c0.2-0.4,0.6-0.6,0.8-1c1-1.2,1.8-2.2,2.8-3.4
		c1.4-2.2,3-4.4,4-7c0.4-0.8,0.6-1.6,1-2.6c0.4-1,0.4-1.8,0.6-2.8c-0.2-1.4,0.2-2.8-0.2-4.2c-0.4-2.2-1.8-3.8-3.8-5
		c-1.6-0.8-3.2-1.2-5-1.4c-2.2,0-4.4-0.2-6.4,0.4c-0.8,0.2-1.8,0.2-2.6,0.6c-2,0.6-3.8,1.4-5.8,2.2c-1.2,0.6-2.6,1.2-3.8,2
		c-1.8,1.2-3.8,2.2-5.6,3.6c-0.8,0.6-1.6,1.2-2.4,1.8c-1.2,1.2-2.4,2.4-3.6,3.4c-0.4,0.4-0.6,1-1,1.4c-0.6,0.8-1,1.8-1.4,2.6
		c-0.8,1.4-1.4,3.8-1.4,5.2c0,1,0,2,0.2,3c0.2,1,0.6,1.8,1.2,2.8c0.4,1,1,1.8,1.8,2.6c1.2,1.2,2.4,2.4,3.6,3.4
		c1,0.6,1.8,1.6,2.6,2.6c0.6,0.8,1.4,1.6,1.6,2.8c0.2,0.8,0.4,1.6,0,2.4c-0.6,1-1.2,1.8-1.8,2.8c-0.6,1-1.6,1.8-2.4,2.6
		c-0.4,0.4-1,0.8-1.2,1.2c-0.8,0.8-1.8,1.4-2.8,2c-1,0.6-1.8,1.4-3,1.8c-0.4,0.4-1,0.6-1.4,0.8c-0.6,0.2-1,0.4-1.6,0.6
		c-0.4,0-0.6,0.4-1,0.4c-1.4,0.2-2.6,0.6-4,0.4c-0.4,0-0.8-0.2-1.4-0.2c0-0.4,0-0.6,0-0.8c0-0.2,0-0.2,0-0.4
		c0.6-1.8,1.4-3.4,2.6-5.2c1.2-1.6,2.2-3.2,3.2-4.8c0.4-0.6,1-1.2,1.4-2c0.4-0.6,0.8-1.2,1.2-1.8c0.4-0.8,0.4-1.6,0-2.4
		c-0.4-1.2-1.6-1.4-2.8-1.6c-0.4-0.2-1,0-1.4,0c-0.4,0-1,0.2-1.4,0.2c-0.6,0.2-1.2,0.2-1.8,0.6c-0.8,0.4-1.6,1-2.2,1.6
		c-1.2,1.2-2.4,2.4-3.4,3.8c-0.6,1-1.4,1.8-2,3c-1.4,2.6-1.6,3.2-2.2,6.2c-0.4,0.4-0.2,1-0.2,1.4c0,0.6-0.4,1-0.2,1.6
		c0.2,0.4,0.2,1,0.2,1.4c0,0.4,0,1,0.2,1.6c0.8,1.8,1.8,3.2,3.8,4c0.8,0.2,1.6,0.6,2.4,0.8c0.6,0.2,1.2-0.2,1.8,0.2
		c0.2,0,0.4,0,0.6,0c1.2,0,2.4,0,3.4-0.2c0.6-0.2,1.4-0.2,2.2-0.2c0.4,0,1-0.2,1.6-0.2c1.2-0.4,2.6-0.8,3.8-1.2c2.2-1,4.2-1.8,6.2-3
		c2-1.2,4-2.6,5.8-4.2c1.4-1.2,2.8-2.6,4-4c0.2-0.4,0.6-1,0.8-1.2c0.8-1.2,1.4-2.4,2-3.6c0.6-1.2,0.4-2.4,0.8-3.4
		c0-0.4-0.2-0.6-0.2-1c0-1.6-0.8-3.2-1.8-4.4c-0.4-0.6-1-1-1.4-1.6c-0.4-0.8-1-1.2-1.6-1.6c-0.4-0.4-0.8-0.8-1.2-1.2
		c-0.4-0.4-1-0.8-1.4-1.2c-0.4-0.4-0.8-0.6-1.4-1c-0.6-0.4-1-0.8-1.6-1.2c-1-0.6-1.6-1.6-1.6-3c0-1.6,0.8-3,1.6-4.2
		c0.8-1.2,1.8-2,2.8-3c0.6-0.6,1.2-1,1.8-1.6c0.8-0.6,1.8-1.2,2.6-1.8c1.4-1.2,3.2-2,4.8-3c1.4-0.8,2.8-1.4,4.2-2
		c1-0.4,2-0.6,3.2-0.8C1014.8,1034.7,1016,1034.7,1016.8,1034.7z M1043.6,1084.4c0.4,0,0.8-0.2,1.2-0.2c1,0,1.8-0.2,2.8-0.4
		c1.4-0.4,2.6-0.8,3.8-1.4c0.8-0.4,1.6-0.6,2.2-1c1.4-1,2.6-1.6,4-2.6c1.2-0.8,2.4-1.6,3.2-2.6c0.8-0.8,1.6-1.4,2.2-2.4
		c0.4-0.8,1.2-1.2,1.6-1.8s1-1.4,1.4-2c0.4-0.6,0.8-1.4,1.2-2.2c0.4-1,1-2,0.6-3.2c-0.2-1.2-0.8-2.4-1.6-3.2
		c-1.2-1.4-2.6-2.4-4.2-2.8c-0.8-0.2-1.8-0.6-2.6-0.6c-1.2,0-2.4,0.4-3.4,0.6c-0.2-0.8-0.8-1-1.4-1.2c-1-0.4-3.2-0.6-4.2-0.4
		c-0.6,0.2-1.2,0.4-1.6,0.8c-0.8,0.6-1.6,1.4-2.4,2c-1.6,1.6-3,3.2-4.6,5c-1,1.2-2,2.4-3.2,3.6c-1.2,1.4-2.2,2.8-3.4,4.4
		c-0.6,0.8-1.2,1.6-1.8,2.4c-0.4,0.4-0.8,1.2-1.2,1.6c-0.4,0.6-1,1.2-1.4,1.8c-0.6,0.8-1.2,1.4-1.6,2.2c-0.8,1-1.4,2-2.2,3
		c-0.6,0.8-1.2,1.6-1.8,2.4c-0.6,1-1.4,2-2.2,3s-1.6,2-2.4,3.2c-0.6,1-1.4,2-2.2,3c-0.8,1-1.6,2-2.2,3c-1,1.4-1.8,3-3,4.2
		c-1.2,1.4-2.2,3-3.2,4.6c-0.8,1-1.4,2-2,3c-0.6,1-1.4,2-2,3c-0.4,0.6-1,1.4-0.8,2.2c1,1.6,2.6,2.4,4,3c0.8,0.4,1.6,0.4,2.4,0.2
		c1-0.2,1.6-1,2-1.6c0.4-0.4,0.8-1,1.2-1.4c1-1,1.8-2.4,2.6-3.4c1-1.2,1.6-2.4,2.6-3.6c1-1.2,1.6-2.6,2.6-3.8c1-1.6,2-3,3.2-4.6
		c0.4-0.6,1-1.2,1.4-1.8c0.4-0.6,0.8-1.4,1.2-2c0.8-1.2,1.6-2.4,2.4-3.6c0.4-0.8,1.2-1.4,1.6-2.2c0.4-0.8,0.8-1.4,1.4-2
		c0.4-0.6,1-1.4,1.4-2c0.4-0.6,0.8-1.4,1.4-2c0.4-0.4,0.8-1,1.2-1.6c0.2-0.2,0.4-0.6,0.6-0.8c0.8,0.8,1.4,1.4,2.2,1.8
		C1041.8,1084.2,1042.6,1084.4,1043.6,1084.4z M1019.5,1058.6c-0.6,0.6-1.2,1.2-1.8,1.6c-1.8,1.2-3.2,2.6-4.8,4
		c-1.4,1.2-2.8,2.8-4,4.4c-1,1.2-1.8,2.6-2.6,4c-0.6,1-1,2.4-1.4,3.4c-0.2,0.8-0.2,1.6-0.2,2.2c0.2,0.6,0.4,1.4,1,2
		c0.4,0.8,1,1.6,1.6,2c0.8,0.8,1.8,1.4,2.8,1.8c0.6,0.2,1.2,0.4,1.8,0.4s1.4,0.4,2,0.2c0.2,0.2,0.4,0,0.8,0s0.8,0,1,0
		c1-0.4,2-0.6,3-1.2c1.2-0.6,2.2-1.2,3.4-1.8c1.8-1,4-2.6,4.8-3.6c1.6-1.6,3.4-3.2,4.8-5c1-1.2,2-2.6,3-3.8c1.2-1.4,2.2-2.8,3.2-4.4
		c0.8-1.2,1.6-2.4,1.2-4l0,0l-0.2-0.2c-0.4-0.8-1-1.6-2-1.6c-0.4-0.4-1,0-1.4-0.2c-0.4-0.2-1,0-1.4,0c-0.8,0.2-1.4,0.6-1.8,1.2
		c-1.2,2-2.8,3.8-4.2,5.8c-1,1.4-2.4,2.6-3.4,4c-1,1-1.8,1.8-2.8,2.8c-1.4,1.2-2.6,2.4-4,3.4c-1,0.8-2.2,1.4-3.4,2
		c-0.2,0-0.4,0-0.6,0c0.2-0.6,0.4-1.2,0.6-1.6c0.4-1.2,1.2-2.2,2-3.2c0.4-0.6,0.8-1.2,1.2-1.6c0.6-1,1.4-1.8,2.2-2.6
		c1.4-1.6,3-3.2,4.8-4.4c0.6-0.4,1-1,1.4-1.6c0-0.2,0-0.4,0-0.6c0-0.8-0.2-1.4-0.6-1.8c-0.6-0.6-1.4-1-2-1.4
		c-0.8-0.4-1.6-0.6-2.4-0.8C1020.7,1058.4,1020.1,1058.6,1019.5,1058.6z M1029.9,1038.9c-0.2,1-0.4,2-0.8,2.8
		c-0.4,1-0.8,1.8-1.2,2.6c0.2,0,0.4,0,0.6,0c0.6-0.4,1.4-0.4,2-0.6s1.4-0.6,2-0.8c1.2-0.4,2.6-1,3.8-1.4c1.2-0.4,2.4-0.8,3.6-1.2
		c1.2-0.2,2.4-0.6,3.4-1c1-0.2,2-0.6,3.2-0.8c0.8-0.2,1.6-0.4,2.4-0.6c0.8-0.2,1.6-0.4,2.6-0.6c1-0.2,2-0.6,3.2-0.4
		c1.4-0.6,3-0.4,4.6-1c0.4-0.2,1,0,1.2-0.2c0.4-0.2,0.8-0.2,1.2-0.2c0.4,0,0.8-0.2,1.2-0.2c0.6,0,1.4-0.2,2-0.2c0.6-0.2,1.4,0,2-0.2
		c1-0.2,1.8,0,2.8-0.2c1.8,0.2,3.4-0.2,5.2-0.2c1.4,0,2.8,0,4.2,0c2,0,4.2-0.2,6.2,0.2c0.6,0.2,1.2,0,1.8,0s1.2,0.2,1.8,0.2
		c1,0,2,0,3.2,0.2c0.4,0,1,0.2,1.6,0.2c0.2,0,0.6,0.2,0.8,0.2s0.6,0,1,0c0.2,0.2,0.6,0,1,0.2c0.2,0,0.6,0.2,0.8,0.2
		c1,0,1.8,0.6,3,0.4c1.6,0.6,3.2,0.8,4.6,1.4c1.8,0.6,3.6,1.2,5.4,2c2.6,1.2,5,2.4,7.2,4.2c1.2,0.6,2.2,1.8,3.2,2.6
		c0.8,0.8,1.6,1.8,2.2,2.6c1.4,1.8,2.4,3.8,3.2,5.8c0.4,1,0.8,2,0.8,3c0,0.2,0.2,0.4,0.2,0.6c0,0.2,0,0.4,0,0.4h0.2
		c0-0.8-0.2-1.6-0.2-2.6c-0.4-0.4-0.2-0.8-0.2-1.2c-0.6-1.4-1-2.8-1.6-4c-1.2-2.4-2.6-4.6-4.6-6.6c-1.2-1.2-2.2-2.2-3.6-3.2
		s-3-2-4.6-2.8c-1.6-0.8-3.2-1.6-4.8-2.4c-1-0.4-2-0.8-3-1.2c-1-0.4-2-0.6-3-1c-0.8-0.2-1.8-0.4-2.6-0.6c-0.8-0.2-1.6-0.4-2.6-0.6
		c-0.6-0.2-1.4-0.2-2.2-0.4c-0.4,0-0.8,0-1.4-0.2c-0.4-0.2-1-0.2-1.4-0.2c-1.2-0.2-2.4-0.4-3.4-0.4c-0.6,0-1.4,0-2-0.2
		c-1-0.2-2,0-3-0.2c-1.4-0.2-2.8,0-4.2-0.2c-1.4-0.2-3,0-4.4,0c-1.4,0-2.8-0.2-4.4,0.2c-1,0.2-2,0-3,0s-2,0.4-3,0.2
		c-1.2-0.2-2.2,0.4-3.2,0.2c0,0,0,0-0.2,0c-0.4,0.4-1,0.2-1.4,0.2c-0.4,0-1,0.2-1.6,0.2c-0.8,0-1.8,0-2.6,0.2
		c-0.6,0.2-1.2,0-1.6,0.2c-0.6,0.4-1.4,0-1.8,0.4c-0.6-0.2-1.4,0.2-2,0.2c-0.6,0-1.2,0.2-1.6,0.2c-0.4,0.4-1,0-1.4,0.4
		c-0.6-0.2-1,0.2-1.6,0.2c-1,0.2-1.8,0.2-2.6,0.6c-1.4,0.4-2.8,0.6-4.2,1.2c-0.8,0.2-1.8,0.4-2.6,0.6c-0.8,0.2-1.6,0.4-2.4,0.6
		C1032.3,1038.3,1031.1,1038.7,1029.9,1038.9z M1119.8,1225c0.6,0,1.4-0.2,2-0.4c0.4,0,0.6-0.4,1-0.6c1.8-1.2,2.4-2.2,2.6-4
		c0.2-1.6-0.2-3.2-1.4-4.6c-0.8-1-1.8-1.6-3.2-1.6c-0.4,0-1-0.4-1.4-0.2c-0.4,0.2-1,0.4-1.4,0.4c-0.8,0-1,0.8-1.4,1
		c-1.2,0.6-2,2.8-2.2,3.8c0,0.6-0.2,1.2,0.2,1.8c0.2,1.6,1.2,2.8,2.6,3.8C1117.6,1224.8,1118.6,1225,1119.8,1225z"/>
	<path d="M1045,1102.5c-1.8,1.2-3.8,2.2-5.6,3.4c-0.6,0.4-1.4,0.8-2,1.4c-1,0.6-2,1.4-3,2.2c-1.2,0.8-2.2,1.6-3.2,2.6l-0.2,0.2
		c-0.8,0.8-1.6,1.6-2.6,2.4c-0.8,0.6-1.2,1.2-1.8,2c-0.6,0.6-1.2,1.2-1.6,1.8c-0.2,0.4-0.8,1-1.2,1.4c-0.4,0.6-1,1.4-1.4,2
		c-0.8,1-1.4,2.2-2.2,3.2c-1,1.4-1.6,3-2.4,4.6c-0.8,1.6-1.2,3.4-1.8,5.2c-0.4,1.2-0.4,2.4-0.8,3.4c-0.2,0.8-0.2,1.6-0.2,2.4
		c-0.2,1.4-0.2,2.6-0.2,4c0,0.4,0.2,1,0.2,1.6c0,0.4-0.2,1,0.2,1.6c0,1,0.2,1.8,0.4,2.6c0.2,0.8,0.4,1.8,0.8,2.6
		c0.4,1,0.8,1.8,1.2,2.6c0.6,1.4,1.6,2.8,2.4,4.2c0.6,1,1.4,1.8,2,2.8c0,0-0.2,0.2-0.2,0.4c-2.4,1.4-4.6,2.8-6.8,4.2
		c-1,0.6-2,1.4-3,2.2c-1.4,1-2.6,2-4,3l-0.2,0.2c-2.2,1.8-4.2,4-6.2,6c-1,1.2-2,2.4-3,3.6s-1.8,2.4-2.8,3.8c-1.2,1.8-2,3.6-3,5.4
		c-0.2,0.6-0.6,1.4-1,2c-0.2,0.6-0.6,1.4-0.8,2c-0.2,0.8-0.6,1.4-0.6,2.2c-0.2,1.2-0.8,2.4-0.8,3.6c-0.4,0.6,0,1.2-0.2,1.8
		c-0.2,0.6,0,1.2-0.2,1.8c-0.4,1.4,0,2.8-0.2,4.2c0,0.6,0.2,1.2,0.2,1.8s0,1.2,0.2,1.6c0.2,0.4,0.2,1,0.2,1.6c0.2,1.4,0.6,2.8,1,4.2
		c0.6,1.8,1.4,3.4,2.2,4.8c0.8,1.4,1.6,2.6,2.6,4c1.4,1.8,2.8,3.4,4.4,4.8c1.8,1.6,3.8,3,5.8,4.4c0.6,0.4,1.4,0.6,2,1
		c1,0.4,1.8,1,2.6,1.4c1.6,0.6,3.2,1.4,4.8,2c0.6,0.2,1.4,0.6,2,0.8c1.4,0.2,2.6,0.8,3.8,1.2c1.6,0.4,3,0.6,4.6,1
		c1,0.2,1.8,0.4,2.8,0.4c0.4,0,1,0.4,1.4,0.2c0.4,0,1-0.2,1.4,0.2h0.2c1.4-0.2,2.6,0.2,3.8,0.2c1.2,0,2.6,0,3.8,0c1,0,2,0,3,0
		c1.6,0,3.4,0,5-0.2c0.6,0,1.4-0.2,2-0.2c0.6,0,1.2-0.2,1.8-0.2c0.4-0.2,1,0,1.6-0.2c0.4-0.2,1,0,1.4-0.2c1-0.2,1.8-0.4,2.8-0.6
		c1-0.2,1.8-0.4,2.8-0.6c1-0.2,2-0.4,3-0.8c-0.8-0.4-1.4,0.2-1.8,0.2c-0.2,0-0.2,0.2-0.4,0.2c-0.4,0-0.8,0-1.2,0.2
		c-0.2,0.2-0.8,0-1.2,0.2c-0.6,0.2-1.4,0.2-2,0.2c-0.4,0-1,0.2-1.4,0.2c-0.4,0-1-0.2-1.4,0.2h-0.2c-1.2,0-2.6,0.2-3.8,0.2
		c-1.4,0-2.8,0.4-4.4,0.2c-1.4,0-3,0-4.4,0s-2.8-0.4-4.2-0.2c-0.6-0.4-1.4-0.2-2-0.2c-1.2-0.2-2.4-0.4-3.4-0.4
		c-0.6,0-1.2-0.2-1.8-0.4c-0.6-0.2-1.2-0.2-1.8-0.4c-0.6-0.2-1.2-0.4-1.8-0.4c-2-0.4-3.8-1.2-5.8-1.8c-1.8-0.6-3.6-1.4-5.4-2.4
		c-1.8-1-3.6-1.8-5.2-3c-1.2-0.8-2.4-1.6-3.6-2.6c-1-0.8-1.8-1.8-2.8-2.6c-1.2-1.2-2.2-2.6-3.2-4c-1.6-2-2.6-4.4-3.8-6.8
		c-0.8-1.6-1.2-3.2-1.6-5c0-0.4,0-1.2-0.2-1.6c-0.2-0.6,0-1-0.2-1.6c-0.4-1.8-0.2-3.8-0.2-5.6c0-0.6,0-1.2,0.2-1.8
		c0.2-0.4,0-1.2,0.2-1.6c0.2-0.4,0.2-1,0.2-1.6c0.2-1.4,0.6-2.8,1-4.2c0.4-1.4,1-2.8,1.6-4.2c0.6-1.4,1.4-2.8,2-4.2
		c1-1.6,1.8-3,3-4.6c0.4-0.4,0.6-1,1-1.4c1-1.2,2-2.6,3.2-3.8c1-1.2,2.2-2.4,3.2-3.4c1.2-1.2,2.4-2.2,3.8-3.2c1.4-1,2.8-2.2,4.4-3.2
		c1.6-1.2,3.2-2.2,4.8-3.2c0.8-0.6,1.8-1,2.8-1.6c0.6-0.4,1.2-0.6,1.8-1.2c-0.2-0.4-0.4-0.8-0.8-1.2c-2-2.2-3.2-4.8-4.6-7.4
		c-0.6-1.4-1.2-2.8-1.4-4.4c-0.2-1-0.4-1.8-0.4-2.8c-0.2-1-0.2-1.8-0.2-2.8s-0.2-2,0-2.8c0.2-1,0-1.8,0.4-2.6c0-1.4,0.6-2.8,1-4.2
		c0.8-2.8,2-5.6,3.4-8.2c1-1.8,2.2-3.6,3.4-5.4c0.6-1,1.4-1.8,2.2-2.8c1.4-1.8,3.2-3.4,4.8-5c1.4-1.4,2.8-2.4,4.4-3.6
		s3.2-2.4,4.8-3.4c1.2-0.6,2.4-1.4,3.4-2c1.6-1,3.2-1.8,4.8-2.6c2-1,4.2-1.8,6.4-2.6c1.4-0.4,3-1,4.4-1.4c1-0.4,2-0.6,3-0.8
		c0.8-0.2,1.6-0.4,2.4-0.6c0.2,0,0.2,0,0.4,0c0.4,0,1-0.2,1.4-0.2c1-0.2,2-0.4,3-0.6c0.6,0,1.2-0.2,1.8-0.2c0.4,0,0.8-0.2,1.2-0.2
		s0.8,0.2,1-0.2c0,0,0.2,0,0.4,0c2.4,0,4.6-0.4,7-0.2c1.8,0,3.4,0.4,5.2,0.2c0.6,0.4,1.6,0,2.2,0.2c1.2,0.2,2.4,0.2,3.6,0.6
		c0.4,0.2,1,0.2,1.6,0.2c1.6,0.2,3.4,0.8,5,1.2c1,0.2,1.8,0.6,2.8,1c1.4,0.6,2.8,1.2,4.2,1.8c2,1,4,2.4,5.8,3.6
		c0.6,0.4,1.2,1,1.8,1.6s1.2,1,1.8,1.6c1.8,1.8,3.4,3.8,4.6,5.8c0.8,1.2,1.4,2.8,2,4c0.8,1.6,1,3.4,1.6,5c0.2,0.4,0,1.2,0.2,1.6
		c-0.2,1,0.2,1.8,0.2,2.6c0,0.8,0,1.6,0,2.6c0,0.4-0.2,0.8-0.2,1.4c0,0.4,0,0.8-0.2,1.4c-0.2,0.6-0.2,1.2-0.2,1.8
		c-0.2,1-0.6,1.6-0.4,2.6c-0.4,0.2-0.2,0.6-0.2,1c-0.2,0.4-0.2,0.8-0.4,1.2c-0.2,0.4-0.2,0.6-0.4,1c-0.4,1.4-1.2,2.8-1.8,4.2
		c-0.8,1.6-1.6,3.2-2.6,4.6c-0.4,0.6-1,1.2-1.4,1.8c-0.4,0.6-1,1.2-1.6,1.8c-1.2,1.6-2.6,3.2-4,4.4c-1.2,1.2-2.4,2.2-3.6,3.2
		c-1,0.8-2,1.8-3.2,2.6c-0.6,0.4-1.4,1-2,1.4c0.6,0.6,1.2,1.2,1.8,1.6c0.6,0.4,1,1.2,1.8,1.6c0.2,0,0.4,0.2,0.4,0.4
		c0.4,0.6,1,1.2,1.4,1.6c1.4,1.4,2.6,3,3.6,4.6c1.2,1.6,2,3.4,2.8,5.4c0.4,1,0.8,2.2,1.2,3.4c0.2,0.8,0.4,1.6,0.6,2.4v0.2
		c0,1,0.2,2,0.2,3c0,0.6,0.4,1.4,0.2,2c0,0.6,0,1.4-0.2,2c-0.2,0.6,0.2,1.4-0.2,2c0,0,0,0.2,0,0.4c0,0.4,0.2,1-0.2,1.4
		c-0.2,0.4,0.2,1-0.4,1.2c-0.2,2-1,4-1.6,6c-0.2,0.4-0.4,1-0.4,1.4c-0.6,1.4-1.2,3-2,4.4c-1,1.6-1.8,3.2-3,4.8c-1,1.4-2,2.6-3,4
		c-0.6,0.6-1.2,1.4-1.8,2c-1,1.4-2.2,2.6-3.4,3.6c-2,1.8-4,4-6,5.8c-1.2,1.2-2.4,2.2-3.8,3.2c-1.6,1.2-3.2,2.6-5,3.8
		c-1,0.6-2,1.4-3,2c-1,0.6-2,1.2-2.8,1.8c-2.4,1.6-5,2.8-7.6,4c-1.8,1-3.8,1.6-5.8,2.6c-1.2,0-2,0.8-3,1c-1,0.2-2,0.8-3,1
		c-1.4,0.2-2.6,0.8-4,1c-1,0.2-2,0.6-3,0.6c-0.4,0.4-1,0.2-1.6,0.4c-0.4,0.2-1,0.2-1.6,0.2s-1.2,0.2-1.6,0.2
		c-1.2,0.2-2.2,0.4-3.4,0.4c-0.6,0.4-1.2,0-1.8,0.2c-1,0.2-1.8,0-2.8,0.2c-2.2,0.4-4.4,0-6.6,0.2c-1,0-2,0-3,0
		c-1.8,0.2-3.4-0.2-5.2-0.2c-0.6-0.2-1.2-0.2-1.8-0.2c-0.6-0.2-1.2,0-1.8-0.2c-0.6-0.2-1.4,0-2-0.4c-0.6-0.2-1.2-0.2-1.8-0.2
		c-1.6-0.4-3.4-0.8-5-1.4c-1.8-0.6-3.4-1.2-5.2-1.8c-2-0.8-4-1.6-5.8-2.8c-1.6-1-3.2-1.8-4.8-3c-1.2-1-2.4-1.8-3.4-2.8
		c-1-0.8-2-1.8-2.8-2.8c-1.2-1.4-2.4-2.8-3.4-4.4c-1.2-1.6-2-3.4-2.8-5.2c-0.6-1.2-1-2.4-1.4-3.8c-0.2-0.8-0.4-1.6-0.6-2.4
		c0-0.4-0.2-0.6-0.2-1c-0.2-0.6-0.2-1.4-0.2-2c-0.4-2.2,0-4.4-0.2-6.6c0-0.6,0.2-1,0.2-1.6c0-0.4,0-1,0.2-1.4c0.2-0.4,0.2-1,0.2-1.6
		c0-1,0.4-1.8,0.6-2.6c0.2-1.2,0.8-2.2,1-3.4c0.2-0.4,0.4-1,0.6-1.6c0.8-1.6,1.6-3.4,2.4-5c1-1.8,2-3.4,3.2-5c0.8-1,1.6-2,2.4-3
		c1.2-1.4,2.4-2.8,3.6-4c0.2-0.2,0.4-0.8,0.8-1c1.4-1,2.4-2.4,3.8-3.4c0.6-0.4,1.2-1,1.8-1.6c1.4-1.2,2.8-2.2,4.4-3.2
		c0.8-0.6,1.6-1.2,2.6-1.8c1-0.6,2-1.2,3-1.8c0.4-0.2,1-0.6,1.4-1c-1.6-2-3-4.2-4-6.4c-0.6-1.6-1.4-3.2-1.6-4.8
		c-0.4-0.4-0.2-1-0.4-1.4s0-0.8-0.2-1.4c-0.2-0.4,0-1-0.2-1.4c-0.4-1-0.2-1.8-0.2-2.8c0-1,0-1.8,0-2.8c0-0.4,0.2-0.8,0.2-1.4
		c0-0.4-0.2-1,0.2-1.4c0.2-0.4,0-0.8,0.2-1.2c0.2-0.2,0-0.8,0.2-1c0.2-0.2,0-0.6,0.2-1c0-1.2,0.8-2.4,1-3.6c0.4-1.4,1.2-2.8,1.8-4.2
		c0,0,0-0.2,0-0.4c-1.2,0-2.4,0-3.6,0c-1.8,0-3.6-0.4-5.6-0.2c-1-0.4-1.8,0-2.8-0.2c-1.2-0.2-2.4-0.2-3.4-0.4
		c-1.2-0.2-2.4-0.2-3.4-0.6c-1,0-2-0.4-3-0.4c-0.6,0-1.4-0.2-2-0.4c-1-0.2-1.8-0.4-2.8-0.8c-1-0.4-1.8-0.4-2.6-0.8
		c-1.8-0.6-3.6-1.4-5.4-2.4c-2-1-4-2-5.8-3.4c-0.4-0.2-0.8-0.6-1.2-0.8c-0.6-0.6-1.4-1.2-2-1.8c-0.6-0.6-1.4-1.2-1.8-1.8
		c-1.2-1.6-2.4-3-3.4-4.8c-0.8-1.6-1.4-3.2-2-4.8c-0.2-0.4-0.2-0.8-0.2-1.2c-0.2-1.4-0.6-2.8-0.4-4.2c0-1.4,0-2.8,0-4.2
		c0.2-1.4,0.4-2.8,0.6-4.2c0-0.2,0.2-0.2,0.4-0.4c1.6,1.4,3.2,2.4,5.2,2.8c0,0.6,0,1.2-0.2,1.6c-0.4,1.8-0.2,3.4-0.2,5.2
		c0,0.4-0.2,1,0.2,1.4c0.2,0.4-0.2,1,0.2,1.4c0,1,0.4,2,0.6,3c0.4,1.2,1,2.6,1.8,3.8c1.2,2.2,2.8,4,4.6,5.8c1.8,1.6,3.8,3,5.8,4.2
		c1,0.6,2.2,1.2,3.2,1.6c1.8,1,3.8,1.6,5.8,2.4c1,0.4,2,0.6,3,1c1,0.2,2,0.4,3,0.8c0.6,0.2,1.2,0.2,1.8,0.4s1.2,0,1.8,0.2
		s1.2,0,1.8,0.2s1.2,0,1.6,0.2c0.6,0.2,1.2,0.2,1.8,0.2c0.4,0,1,0.2,1.4,0.2c0.4,0,1-0.2,1.4,0c1,0.4,1.8,0.2,2.8,0.2
		c0.8,0,1.6-0.2,2.4,0.2c0.2,0.2,0.6,0,1,0c0.6-1.2,1.4-2.4,2.2-3.4c0.6-1,1.4-2,2.2-3c1-1.4,2.2-2.8,3.6-4c0.4-0.4,0.8-1.2,1.4-1.6
		c1-0.8,1.8-1.8,2.8-2.6c1.2-1.2,2.6-2.2,4-3.2c1.2-1,2.6-1.8,4-2.6c1.6-1.2,3.4-2,5-3c1.6-0.8,3-1.6,4.6-2.4
		C1044.6,1102.7,1044.8,1102.7,1045,1102.5z M1069.9,1118.4c0,0.2,0,0.2-0.2,0.4c-0.8,1-1.4,2.2-2,3.4c-1,1.8-1.8,3.4-2.4,5.4
		c-0.4,1.2-1,2.4-1.4,3.6s-1,2.4-1.2,3.8c-0.4,0.4-0.2,1-0.4,1.4c-0.2,0.4,0,1-0.2,1.4s0,1-0.2,1.4c-0.4,0.4,0,1-0.4,1.4
		c-0.2,0.4,0,1.2-0.2,1.8c-0.2,0.6,0,1.2-0.2,1.8c-0.2,0.6,0,1.4,0,2s-0.2,1.2-0.2,1.8c-0.2,1,0.2,1.8,0.2,2.8
		c0,1.2,0.2,2.2,0.4,3.2c0.2,1.4,1,2.4,1.6,3.4c0.2,0.4,0.8,0.8,1.4,0.8c0-0.2,0-0.2,0.2-0.4c1-0.8,1.4-1.8,2-2.8c0.6-1,1.2-2,1.8-3
		c0.8-1.2,1.2-2.6,1.8-4c0.4-1,0.8-2.2,1.2-3.2c0.4-1.2,0.6-2.4,1.2-3.4c0.4-1,0.4-2,0.8-3c0.4-1.2,0.4-2.6,0.8-3.8
		c0.2-0.4,0-1,0.2-1.4s0-1,0.2-1.6c0-1,0.2-2,0.2-3.2c0-1.2,0.2-2.2-0.2-3.2c-0.2-0.6,0-1.4-0.2-2c-0.2-1.4-0.8-2.6-1.6-3.8
		c-0.2-0.4-0.8-0.8-1.4-0.8c-0.2,0-0.4-0.2-0.6-0.2C1070.7,1118.2,1070.3,1118.4,1069.9,1118.4z M1047,1221.9c0.4-0.4,0.8-0.6,1-1
		c0.6-1,1.2-2,2-3c0.6-1,1.2-2,1.6-3.2c0.6-1.4,1.4-2.6,1.8-4c0.2-0.6,0.4-1.4,0.8-2c0.2-0.6,0.4-1.4,0.6-2c0.4-1.6,1-3,1.2-4.6
		c0.2-0.8,0.2-1.6,0.4-2.2c0.2-1,0.4-1.8,0.6-2.8c0.2-1.4,0.4-2.8,0.4-4.2c0.2-1.8,0.2-4-0.4-6.8c-0.2-1-0.4-2-1.2-2.8
		c-0.2-0.4-0.4-0.6-0.8-1c-0.4-0.2-0.8-0.4-1.2-0.6c-0.4-0.2-0.6,0.2-1,0.2c-0.2,0-0.2,0-0.2,0c0,0.2-0.2,0.4-0.2,0.4
		c-0.6,1-1.2,1.8-1.8,2.8c-0.8,1.6-1.6,3.2-2.4,4.8c-0.4,1-0.8,2-1.2,3c-0.6,1.6-1.2,3.2-1.6,4.8c-0.2,0.8-0.4,1.8-0.8,2.6
		c-0.2,1-0.2,2.2-0.4,3.2c-0.2,0.6,0,1.2-0.2,1.8c-0.2,0.4-0.2,0.6-0.2,1c0,0.4-0.2,0.8-0.2,1.2c0,1.4,0,2.8,0,4c0,1.4,0,2.6,0.2,4
		c0.2,1.2,0.6,2.4,1.2,3.6C1045.6,1220.9,1046.2,1221.5,1047,1221.9z M1049,1222.7c0.4,0,1-0.2,1.2-0.2c1.4-0.2,2.4-1,3.4-1.8
		c1.2-1,2.2-2,3-3.2c1.2-1.6,2.2-3.2,3-4.8c0.6-1.4,1.4-2.8,1.8-4.2c0.4-1,0.8-1.8,1.2-2.8c0.6-1.6,1.2-3.2,1.6-4.8
		c0.2-1,0.6-2,0.8-3c0.2-0.8,0.4-1.6,0.6-2.4c0-0.6,0.2-1.2,0.4-1.8c0-0.8,0.4-1.4,0.2-2.2c0.4-0.6,0-1.6,0.2-2.2
		c0.2-0.8,0.2-1.6,0.2-2.4c0-1.2,0-2.4-0.2-3.6c-0.2-1-0.4-2-0.6-3.2c-0.4-1.4-1.2-2.4-2.2-3.4c-0.6-0.4-1.2-0.8-1.8-0.8
		c-1.2-0.2-2.4-0.2-3.6,0.6c-0.2,0.2-0.6,0.2-1,0.4c0.4,0.2,0.6,0.2,0.8,0.4c0.2,0,0.6,0,0.8,0.2c0.6,0.6,1.6,1.2,2,2.2
		c0.8,1.6,1.2,3.2,1.4,5c0.2,1.2,0,2.2,0,3.4s0.2,2.2-0.2,3.2c-0.2,0.6,0.2,1.2-0.2,1.8c-0.2,0.6-0.2,1.2-0.2,1.8
		c-0.2,0.8-0.2,1.6-0.4,2.4c-0.2,0.4-0.2,1-0.2,1.6c-0.2,0.8-0.4,1.4-0.6,2.2c-0.4,1.2-0.6,2.2-1,3.4c-0.4,1.2-0.8,2.2-1.2,3.4
		c-0.4,1-1,2-1.4,3.2c-1.2,2.8-2.2,4.6-3.4,6.4c-0.4,0.8-1,1.4-1.6,2c-0.8,1-1.6,2-2.8,2.8C1049,1222.3,1049,1222.3,1049,1222.7z
		 M1065.9,1158.8c0.6,0,1.2,0.2,1.6,0c1.2-0.4,2.4-1,3.2-1.8s1.6-1.6,2.4-2.4c0.4-0.4,1-1,1.4-1.6c0.6-1,1.2-2.2,1.8-3.2
		c1.2-1.8,1.8-4,3-5.8c0.4-2,1.4-3.8,2-5.8c0.2-1,0.6-1.8,0.8-2.8c0.2-1,0.4-1.8,0.6-2.8c0-0.4,0.2-1,0.2-1.4c0-0.6,0.2-1,0.2-1.6
		c0-0.4,0.2-1,0.2-1.4c0-1.6,0.4-3,0.2-4.6c0-1.4,0-2.6,0-4c0-1-0.2-1.8-0.4-2.8c-0.4-1.2-0.8-2.6-1.8-3.4c-0.8-0.6-1.8-1.2-2.8-1.2
		c-0.8,0-1.6,0.2-2.2,0.4c-0.6,0.2-1,0.4-1.2,1c0.2,0,0.4,0,0.4,0c0.2,0,0.4,0.2,0.4,0.2c1.6,0.6,2.4,1.8,3,3.4c0.6,1.4,0.8,3,1,4.6
		c0.2,1.4,0.2,3-0.2,4.4c-0.2,0.4,0,1,0,1.6c0,0.4-0.2,1-0.2,1.4c0,0.8,0,1.8-0.2,2.6c-0.2,0.4,0,1-0.2,1.4
		c-0.4,0.8-0.2,1.8-0.6,2.6c0.2,0.8-0.4,1.4-0.4,2.2c-0.2,0.8-0.4,1.4-0.8,2.2c-0.4,1.2-0.8,2.2-1.2,3.2c-0.4,1.4-1,2.8-1.6,4.2
		c-0.8,1.8-1.8,3.6-2.8,5.4c-1.2,1.8-2.2,3.4-3.8,4.8C1066.9,1157.8,1066.5,1158.2,1065.9,1158.8z M1064.3,1240.2L1064.3,1240.2
		c-0.2-0.2-0.4-0.2-0.8-0.2c0,0,0,0,0,0.2C1063.7,1240.2,1064.1,1240.2,1064.3,1240.2z M1062.7,1240.4v0.2c0.2,0,0.4,0,0.6,0
		c0,0,0,0,0-0.2C1063.1,1240.4,1062.9,1240.4,1062.7,1240.4z"/>
	<path d="M1016.8,1034.7c-1,0-2-0.2-3,0c-1,0.2-2,0.4-3.2,0.8c-1.4,0.6-2.8,1.2-4.2,2c-1.6,1-3.2,1.8-4.8,3
		c-0.8,0.6-1.8,1.2-2.6,1.8c-0.6,0.4-1.4,1-1.8,1.6c-1,1-2,1.8-2.8,3c-1,1.2-1.6,2.6-1.6,4.2c0,1.2,0.6,2.2,1.6,3
		c0.6,0.4,1,0.8,1.6,1.2c0.4,0.4,0.8,0.6,1.4,1c0.4,0.4,1,0.8,1.4,1.2c0.4,0.4,0.8,0.8,1.2,1.2c0.6,0.4,1.2,1,1.6,1.6s1,1,1.4,1.6
		c1,1.4,1.8,2.8,1.8,4.4c0,0.4,0.2,0.8,0.2,1c-0.2,1.2-0.2,2.4-0.8,3.4c-0.6,1.2-1.2,2.6-2,3.6c-0.4,0.4-0.6,0.8-0.8,1.2
		c-1.2,1.4-2.4,2.8-4,4c-1.8,1.6-3.8,3-5.8,4.2s-4.2,2.2-6.2,3c-1.2,0.4-2.6,0.8-3.8,1.2c-0.4,0.2-1,0.2-1.6,0.2
		c-0.8,0.2-1.6,0.2-2.2,0.2c-1.2,0.2-2.4,0-3.4,0.2c-0.2,0-0.4,0-0.6,0c-0.6-0.4-1.2,0-1.8-0.2c-0.8-0.2-1.6-0.6-2.4-0.8
		c-1.8-0.8-3-2.4-3.8-4c-0.2-0.4-0.2-1-0.2-1.6c0-0.4-0.2-1-0.2-1.4c-0.2-0.6,0.2-1,0.2-1.6c0-0.4-0.2-1,0.2-1.4
		c0.6-2.8,1-3.6,2.2-6.2c0.6-1,1.2-2,2-3c1-1.4,2.2-2.6,3.4-3.8c0.6-0.6,1.4-1.2,2.2-1.6c0.4-0.4,1.2-0.4,1.8-0.6
		c0.4-0.2,1-0.2,1.4-0.2c0.4,0,1,0,1.4,0c1.2,0.2,2.4,0.4,2.8,1.6c0.4,0.8,0.4,1.6,0,2.4c-0.4,0.6-0.8,1.2-1.2,1.8
		c-0.4,0.6-1,1.2-1.4,2c-1.2,1.6-2.2,3.2-3.2,4.8c-1,1.6-2,3.2-2.6,5.2c0,0,0,0.2,0,0.4c0,0.2,0,0.4,0,0.8c0.4,0,1,0.2,1.4,0.2
		c1.4,0.2,2.6-0.2,4-0.4c0.4,0,0.6-0.4,1-0.4c0.6,0,1-0.4,1.6-0.6c0.4-0.2,1-0.4,1.4-0.8c1.2-0.4,2-1.2,3-1.8c1-0.8,2-1.2,2.8-2
		c0.4-0.4,1-0.8,1.2-1.2c0.8-0.8,1.6-1.6,2.4-2.6c0.8-0.8,1.2-1.8,1.8-2.8c0.4-0.8,0.2-1.6,0-2.4c-0.2-1-1-1.8-1.6-2.8
		c-0.8-1-1.6-1.8-2.6-2.6c-1.4-1-2.4-2.4-3.6-3.4c-0.8-0.8-1.4-1.6-1.8-2.6c-0.4-1-1-1.8-1.2-2.8s0-2-0.2-3
		c-0.2-1.4,0.6-3.8,1.4-5.2c0.4-1,0.8-1.8,1.4-2.6c0.4-0.4,0.6-1,1-1.4c1.2-1.2,2.4-2.4,3.6-3.4c0.6-0.6,1.6-1.2,2.4-1.8
		c1.8-1.4,3.8-2.4,5.6-3.6c1.2-0.8,2.6-1.4,3.8-2c1.8-1,3.8-1.6,5.8-2.2c0.8-0.2,1.8-0.2,2.6-0.6c2-0.6,4.2-0.4,6.4-0.4
		c1.8,0,3.4,0.4,5,1.4c2,1.2,3.2,2.6,3.8,5c0.2,1.4,0,2.8,0.2,4.2c-0.4,1-0.4,1.8-0.6,2.8c-0.4,0.8-0.6,1.6-1,2.6
		c-1,2.6-2.6,4.6-4,7c-0.8,1.2-1.8,2.4-2.8,3.4c-0.2,0.4-0.6,0.6-0.8,1c-0.8,1-1.6,1.4-2.6,2c-0.4,0.2-1,0-1.4,0.4
		c-1,0-1.8,0.4-2.8,0.2c-0.4,0-1-0.2-1.4-0.4c-0.4-0.2-1-0.6-1.4-1c-0.2-0.4-0.2-0.8-0.4-1.2c-0.2-1,0.2-2,1-2.8c2-2,3.4-4.4,5-6.8
		c1.2-1.6,2-3.4,2.8-5.4c0.6-1.2,1-2.6,0.6-4C1017.2,1034.9,1017,1034.9,1016.8,1034.7z"/>
	<path d="M1109.6,1077.7c0.2,0,0.6-0.2,0.8-0.2c2-1.4,4-2.4,6-3.8c1.4-0.4,2.4-1.6,3.8-2.2c0.6-0.4,1.2-1,1.8-1.4
		c1-0.6,2-1.4,3.2-1.2c1,0.2,1.8,0.6,2.2,1.4c0.4,0.6,0.6,1.2,0.4,1.8c-0.2,0.2-0.4,0.6-0.8,1c-1,1-2,2-3.2,3
		c-1.6,1.2-3,2.6-4.6,3.8c-2.2,1.6-4.4,3-7,4c-0.6,0.2-1.2,0.4-1.8,0.8c-0.6,0.4-1.4,0.2-1.8,0.6c-1.6,0-3.2,0-4.4-1
		c-0.8-0.6-1.6-1.2-2.4-2c-0.6-0.8-1.2-1.4-1.2-2.4c0-0.2-0.2-0.2-0.2-0.4l0.2-0.2c0-1.2,0.8-1.8,1.4-2.6c0.4-0.4,0.8-1,1.2-1.4
		c0.4-0.4,1-1,1.2-1.4c0.4-0.4,0.8-1,1.4-1.4c1.2-1.2,2.4-2.4,3.6-3.6c0.4-0.4,1-0.8,1.6-1.4c-0.2-0.4-0.6-0.8-1-1.2
		c-0.4-0.4-0.6-0.6-1-1c-1.8,1.4-3.2,3-5,4.6c-4,3.8-8,7.8-11.9,11.5c-0.8,0.6-1.6,1.4-2.4,2c-1,0.2-1.8-0.4-2.8-1
		c-0.6-0.4-1.2-1-1.8-1.6c-0.2,0-0.6,0-1,0.2c-1.4,0.4-3,1-4.6,1.4c-1.2,0.4-2.4,0.6-3.6,1c-0.4,0.2-1.2-0.2-1.4,0.4
		c-1.2,0-2.2,0.2-3.2,0.2c-0.6,0-1.2-0.2-2-0.2c-0.6-0.4-1.4-1-2-1.6c-1.2-1.2-2.2-2.4-2.6-4c-0.2-1-0.2-2.2,0.2-3.2
		c0.4-1.2,1-2.4,1.4-3.6c0.4-0.8,1-1.6,1.6-2.4c1.2-1.6,2.6-3.2,4.2-4.6c1-0.8,1.8-1.6,2.8-2.2c0.6-0.4,1-0.8,1.6-1.2
		c0.8-0.6,1.6-1,2.4-1.4c1.4-0.8,2.8-1.4,4.4-1.8c1-0.2,2.2-0.6,3.2-0.6c0.2,0,0.4,0,0.8-0.2c0.4,0,0.8,0.2,1.2,0.2
		c0.6,0,1,0.2,1.4,0.6c1.2,1,2,2,2.6,3.4c0.2,0.6,0.4,1.2,0.4,1.8s0,1.4,0,2c0,1-0.2,1.8-0.6,2.4c-0.8,1-1.6,1.8-2.6,2.6
		c-1.2,1-2.6,1.4-4,1.8c-0.6,0.2-1,0.4-1.6,0.4s-1.2,0.2-1.6,0.2c-0.6,0-1.2,0.2-1.6,0.2c-1-0.2-2-0.2-3.2-0.2
		c-0.4,0-0.8-0.2-1.4-0.2c-0.4,0-0.8-0.2-1.4-0.2c-1,1.4-1.6,3-1.8,4.6c0.4,0.2,1,0.6,1.6,0c0,0,0.2,0,0.4,0c0.4,0,0.8,0.2,1.2-0.2
		c0.2-0.2,0.8,0.2,1.2-0.2c1.6,0,3-0.6,4.4-1c0.8-0.2,1.6-0.4,2.6-0.6c0.8-0.2,1.6-0.4,2.4-0.8c0.6-0.2,1.4-0.6,2.2-1
		c1.2-0.6,2.6-1.2,3.4-2.2c0.4-0.4,0.8-0.6,1.4-1c0.4-0.4,0.6-0.8,1.2-1l0.2-0.2c0.8-0.8,1.6-1.6,2.4-2.2c1.2-1,2.2-1.8,3.4-2.8
		c1.2-1,2.4-1.8,3.4-3c0.4-0.4,0.6-0.6,0.8-1c0.2-2,1-3.6,2.6-5c0.6,0,1.4,0,2,0c2.4,1,3.8,2.8,4.2,5.2c1,1,2,1.8,3,2.8
		c0.8,0.8,1.6,1.6,2,2.8c0,0.2,0,0.6,0,1c0.2,1.2-0.4,2.4-1.2,3.2c-0.2,0.2-0.4,0.6-0.8,1c-1.4,1.4-3,2.8-4.6,4
		c-1,0.8-1.8,1.6-2.6,2.6C1109.6,1077.3,1109.6,1077.5,1109.6,1077.7L1109.6,1077.7h-0.2H1109.6L1109.6,1077.7z M1079,1067.9
		c1.4,0,2.4,0,3.4,0c0.6,0,1.2,0,1.8-0.2c1-0.6,2-0.8,3-1.6c0.8-0.8,1.2-1.2,1.2-2.4c-0.2-0.2-0.4-0.4-0.4-0.6c-0.4,0-0.6,0-0.8-0.2
		c-0.2,0-0.6-0.2-0.8-0.2c-0.6,0.2-1.4,0.2-2,0.8c-1,0.8-2.2,1.4-3,2.4C1080.2,1066.3,1079.6,1067.1,1079,1067.9z"/>
	<path d="M1043.6,1084.4c-1-0.2-1.8-0.2-2.8-0.6c-1-0.4-1.6-1.2-2.2-1.8c-0.2,0.2-0.4,0.4-0.6,0.8c-0.4,0.6-0.6,1.2-1.2,1.6
		c-0.6,0.6-1,1.4-1.4,2c-0.4,0.6-1,1.4-1.4,2c-0.4,0.6-1,1.4-1.4,2c-0.4,0.8-1.2,1.4-1.6,2.2c-0.8,1.2-1.6,2.4-2.4,3.6
		c-0.4,0.6-0.8,1.4-1.2,2c-0.4,0.6-1,1.2-1.4,1.8c-1,1.6-2,3-3.2,4.6c-0.8,1.2-1.6,2.6-2.6,3.8c-1,1.2-1.6,2.4-2.6,3.6
		c-1,1.2-1.6,2.4-2.6,3.4c-0.4,0.4-0.8,1-1.2,1.4c-0.6,0.6-1.2,1.4-2,1.6c-0.8,0.2-1.6,0-2.4-0.2c-1.4-0.6-3-1.4-4-3
		c-0.2-0.8,0.4-1.6,0.8-2.2c0.6-1,1.4-2,2-3c0.6-1,1.2-2.2,2-3c1.2-1.4,2.2-3,3.2-4.6c1-1.4,2-2.8,3-4.2c0.6-1,1.6-2,2.2-3
		c0.6-1,1.4-2,2.2-3c0.8-1,1.6-2,2.4-3.2c0.6-1,1.4-2,2.2-3c0.6-0.8,1.2-1.6,1.8-2.4c0.8-1,1.4-2,2.2-3c0.6-0.8,1.2-1.4,1.6-2.2
		c0.4-0.6,0.8-1.2,1.4-1.8c0.4-0.6,0.8-1.2,1.2-1.6c0.8-0.8,1.2-1.6,1.8-2.4c1.2-1.4,2.2-2.8,3.4-4.4c1-1.2,2-2.4,3.2-3.6
		c1.4-1.8,3-3.4,4.6-5c0.8-0.8,1.6-1.4,2.4-2c0.4-0.4,1.2-0.6,1.6-0.6c0.8-0.2,3.2,0,4.2,0.4c0.6,0.2,1.2,0.4,1.4,1.2
		c1.2-0.4,2.2-0.6,3.4-0.6c1,0,1.8,0.2,2.6,0.6c1.6,0.4,3,1.4,4.2,2.8c0.8,1,1.2,2,1.6,3.2c0.2,1.2-0.2,2.2-0.6,3.2
		c-0.4,0.8-0.6,1.6-1.2,2.2c-0.4,0.6-1,1.4-1.4,2s-1.2,1.2-1.6,1.8c-0.6,1-1.4,1.6-2.2,2.4c-1,1-2.2,1.8-3.2,2.6
		c-1.2,1-2.6,1.8-4,2.6c-0.6,0.4-1.6,0.8-2.2,1c-1.2,0.6-2.6,1-3.8,1.4c-1,0.2-1.8,0.4-2.8,0.4
		C1044.2,1084.4,1044,1084.4,1043.6,1084.4z M1044.4,1078.9c1.2,0,2.2-0.4,3.2-1c0.2-0.2,0.4-0.4,0.6-0.4c2-1,3.8-2.6,5.6-4
		c1-1,2-2,2.8-3c0.6-0.8,1.2-1.6,1.4-2.6c0.2-0.8,0.4-1.6,0.8-2.4c0.2-0.6,0.4-1.4,0.2-2c0,0,0-0.2-0.2-0.2c-0.6,0-1.2,0.2-1.6,0.2
		c-1.2,0.2-2,0.6-3,1.2c-1.6,1-2.8,2.2-4.2,3.2c-1.4,1.2-2.6,2.4-3.6,3.8c-1,1.2-1.8,2.6-2.4,4.2
		C1043.4,1076.9,1043.4,1077.9,1044.4,1078.9z"/>
	<path d="M1019.5,1058.6c0.6,0,1.2-0.2,1.8-0.2c0.8,0.2,1.6,0.4,2.4,0.6c0.8,0.4,1.4,0.8,2,1.4c0.4,0.4,0.8,1,0.8,1.8
		c0,0.2,0,0.4,0,0.6c-0.4,0.6-0.8,1.2-1.4,1.6c-1.8,1.2-3.4,2.8-4.8,4.4c-0.8,0.8-1.6,1.6-2.2,2.6c-0.4,0.6-0.8,1.2-1.2,1.6
		c-0.6,1-1.4,2-2,3.2c-0.2,0.4-0.4,1-0.8,1.6c0.2,0,0.6,0,0.8,0c1.2-0.6,2.4-1.2,3.4-2c1.4-1.2,2.6-2.4,4-3.4c1-1,2-1.8,2.8-2.8
		c1.2-1.4,2.4-2.6,3.4-4c1.4-1.8,3-3.8,4.2-5.8c0.4-0.6,1-1,1.8-1.2c0.4,0,1-0.2,1.4,0c0.4,0.2,1-0.2,1.4,0.2c1,0,1.6,0.8,2,1.6
		c0,0,0,0.2,0.2,0.2l0,0c0.2,1.6-0.4,2.8-1.2,4c-1,1.4-2,3-3.2,4.4c-1,1.2-2,2.6-3,3.8c-1.4,1.8-3.2,3.4-4.8,5c-1,1-3.2,2.6-4.8,3.6
		c-1.2,0.6-2.2,1.2-3.4,1.8c-1,0.4-2,0.8-3,1.2c-0.2,0.2-0.8,0-1,0c-0.2,0-0.4,0.2-0.8,0c-0.6,0.2-1.4-0.2-2-0.2s-1.2-0.2-1.8-0.4
		c-1-0.4-2-1-2.8-1.8c-0.6-0.6-1.2-1.4-1.6-2c-0.4-0.6-0.8-1.4-1-2c-0.2-0.8-0.2-1.4,0.2-2.2c0.4-1.2,0.8-2.4,1.4-3.4
		c0.8-1.4,1.6-2.6,2.6-4c1.2-1.6,2.4-3,4-4.4c1.6-1.4,3-2.8,4.8-4C1018.3,1059.6,1018.9,1059.2,1019.5,1058.6z"/>
	<path d="M1029.9,1038.9c1.2-0.4,2.2-0.8,3.4-1c0.8-0.2,1.6-0.4,2.4-0.6c0.8-0.2,1.8-0.4,2.6-0.6c1.4-0.4,2.8-0.6,4.2-1.2
		c1-0.2,1.8-0.4,2.6-0.6c0.4,0,1-0.4,1.6-0.2c0.4-0.4,1,0,1.4-0.4c0.6,0,1.2-0.2,1.6-0.2c0.6,0,1.4-0.4,2-0.2c0.4-0.4,1.2,0,1.8-0.4
		c0.4-0.2,1,0,1.6-0.2c0.8-0.2,1.6-0.2,2.6-0.2c0.4,0,1-0.2,1.6-0.2c0.4,0,1,0.2,1.4-0.2c0,0,0,0,0.2,0c1.2,0.2,2.2-0.4,3.2-0.2
		c1,0,2-0.2,3-0.2s2,0.2,3,0c1.4-0.4,2.8-0.2,4.4-0.2c1.4,0,3-0.2,4.4,0c1.4,0.2,2.8,0,4.2,0.2c1,0.2,2,0,3,0.2c0.6,0.2,1.4,0,2,0.2
		c1.2,0.2,2.2,0.4,3.4,0.4c0.4,0,1,0,1.4,0.2c0.4,0.2,1,0.2,1.4,0.2c0.8,0.2,1.6,0.2,2.2,0.4c0.8,0.2,1.6,0.4,2.6,0.6
		c0.8,0.2,1.8,0.4,2.6,0.6c1,0.4,2,0.6,3,1c1,0.4,2,0.8,3,1.2c1.6,0.6,3.2,1.4,4.8,2.4c1.6,0.8,3,1.8,4.6,2.8c1.4,1,2.4,2,3.6,3.2
		c2,1.8,3.4,4.2,4.6,6.6c0.6,1.4,1,2.8,1.6,4c0.2,0.4-0.2,1,0.2,1.2c0,0.8,0.2,1.6,0.2,2.6h-0.2c0-0.2,0-0.4,0-0.4
		c0-0.2-0.2-0.4-0.2-0.6c0-1.2-0.4-2-0.8-3c-0.8-2-1.8-4.2-3.2-5.8c-0.8-1-1.4-1.8-2.2-2.6c-1-1-2-2-3.2-2.6c-2-1.8-4.6-3-7.2-4.2
		c-1.8-0.8-3.6-1.6-5.4-2c-1.6-0.4-3.2-0.8-4.6-1.4c-1,0-1.8-0.6-3-0.4c-0.2,0-0.6-0.2-0.8-0.2s-0.6,0-1-0.2c-0.2-0.2-0.6,0-1,0
		c-0.2,0-0.6-0.2-0.8-0.2c-0.4,0-1-0.2-1.6-0.2c-1-0.2-2-0.2-3.2-0.2c-0.6,0-1.2-0.4-1.8-0.2c-0.6,0-1.2,0.2-1.8,0
		c-2-0.4-4.2-0.2-6.2-0.2c-1.4,0-2.8,0-4.2,0c-1.8,0-3.4,0.4-5.2,0.2c-1,0.4-1.8,0-2.8,0.2c-0.6,0.2-1.4,0.2-2,0.2
		c-0.6,0.2-1.4,0.2-2,0.2c-0.4,0-0.8,0.2-1.2,0.2c-0.4,0-0.6,0-1.2,0.2c-0.4,0.2-0.8,0-1.2,0.2c-1.4,0.4-3,0.4-4.6,1
		c-1.2-0.2-2,0.4-3.2,0.4c-0.8,0.2-1.6,0.4-2.6,0.6c-0.8,0.2-1.6,0.4-2.4,0.6c-1,0.2-2.2,0.4-3.2,0.8c-1.2,0.4-2.4,0.6-3.4,1
		c-1.2,0.4-2.4,0.6-3.6,1.2c-1.2,0.4-2.6,1-3.8,1.4c-0.6,0.2-1.4,0.6-2,0.8c-0.8,0.2-1.4,0.4-2,0.6c-0.2,0-0.2,0-0.6,0
		c0.4-1,0.8-1.8,1.2-2.6C1029.5,1040.9,1029.7,1040.1,1029.9,1038.9z"/>
	<path d="M1119.8,1225c-1,0-2.2-0.2-3-0.8c-1.2-1-2.4-2-2.6-3.8c-0.4-0.6-0.2-1.2-0.2-1.8c0-1,1-3.2,2.2-3.8c0.4-0.2,0.8-1,1.4-1
		c0.4,0,1-0.2,1.4-0.4c0.6-0.2,1,0,1.4,0.2c1.4,0,2.4,0.8,3.2,1.6c1.2,1.4,1.8,2.8,1.4,4.6c-0.2,1.8-1,3-2.6,4
		c-0.4,0.2-0.6,0.6-1,0.8C1121.2,1224.8,1120.4,1224.8,1119.8,1225z M1115.2,1218.1c0,0.6,0,1.2,0,1.8c0,1.6,0.8,2.8,2.2,3.6
		c1.2,0.8,1.8,0.8,3.4,0.4c1.2-0.2,2-1,2.8-2c0.4-0.6,0.6-1.4,0.6-2.2c0-0.6,0-1.2,0-1.6c-1-2.4-2.6-3.4-5-3.2
		C1117.2,1214.9,1116,1216.1,1115.2,1218.1z"/>
	<path d="M1046.4,1101.7c0.2,0,0.2,0,0.4,0c0,0,0,0,0,0.2C1046.6,1101.7,1046.6,1101.9,1046.4,1101.7
		C1046.4,1101.9,1046.4,1101.7,1046.4,1101.7z"/>
	<path d="M1046,1102.1c0-0.4,0.2-0.2,0.4-0.2C1046.4,1102.3,1046.2,1102.1,1046,1102.1z"/>
	<path d="M1045.4,1102.3c0-0.4,0.2-0.2,0.4-0.2C1045.8,1102.5,1045.6,1102.3,1045.4,1102.3z"/>
	<path d="M1045,1102.7c0-0.4,0.2-0.2,0.4-0.2C1045.4,1102.7,1045.2,1102.7,1045,1102.7z"/>
	<path class="st0" d="M1069.9,1118.4c0.4,0,0.8-0.2,1.2-0.2c0.2,0,0.4,0.2,0.6,0.2c0.6,0,1.2,0.4,1.4,0.8c0.8,1.2,1.2,2.4,1.6,3.8
		c0.2,0.6,0,1.4,0.2,2c0.2,1.2,0.2,2.2,0.2,3.2c0,1-0.2,2-0.2,3.2c-0.4,0.4-0.2,1-0.2,1.6c-0.2,0.4,0,1-0.2,1.4
		c-0.4,1.2-0.4,2.6-0.8,3.8c-0.2,1-0.4,2-0.8,3c-0.4,1.2-0.6,2.4-1.2,3.4c-0.4,1-0.8,2.2-1.2,3.2c-0.6,1.4-1,2.8-1.8,4
		c-0.6,1-1.2,2-1.8,3c-0.6,1-1.2,2-2,2.8c0,0,0,0.2-0.2,0.4c-0.6,0-1.2-0.2-1.4-0.8c-0.6-1-1.2-2.2-1.6-3.4
		c-0.2-1.2-0.4-2.2-0.4-3.2s-0.4-1.8-0.2-2.8c0-0.6,0.2-1.2,0.2-1.8c0-0.6-0.2-1.4,0-2c0.2-0.6,0-1.4,0.2-1.8c0.2-0.6,0-1.4,0.2-1.8
		c0.2-0.4,0-1,0.4-1.4c0.2-0.4,0-1,0.2-1.4c0.2-0.4,0-1,0.2-1.4c0.2-0.4,0-1,0.4-1.4c0.2-1.4,0.8-2.4,1.2-3.8
		c0.4-1.2,0.8-2.4,1.4-3.6c0.6-1.8,1.6-3.6,2.4-5.4c0.6-1.2,1.2-2.4,2-3.4C1069.9,1118.6,1069.9,1118.6,1069.9,1118.4z"/>
	<path class="st0" d="M1047,1221.9c-1-0.4-1.4-1.2-1.8-2c-0.6-1.2-0.8-2.4-1.2-3.6c-0.2-1.4-0.2-2.6-0.2-4s0-2.8,0-4
		c0-0.4,0.2-0.8,0.2-1.2s0-0.8,0.2-1c0.2-0.6,0-1.2,0.2-1.8c0.2-1,0.2-2.2,0.4-3.2c0.2-1,0.4-1.8,0.6-2.6c0.4-1.6,1-3.2,1.6-4.8
		c0.4-1,0.6-2,1.2-3c0.6-1.6,1.6-3.2,2.4-4.8c0.4-1,1.2-2,1.8-2.8c0-0.2,0.2-0.2,0.2-0.4h0.2c0.4,0,0.8-0.4,1-0.2
		c0.4,0.2,1,0.2,1.2,0.6c0.4,0.2,0.4,0.6,0.8,1c0.6,0.8,1,1.8,1.2,2.8c0.6,2.8,0.6,4.8,0.4,6.8c0,1.4-0.2,2.8-0.4,4.2
		c-0.2,1-0.4,1.8-0.6,2.8c-0.2,0.6-0.4,1.4-0.4,2.2c-0.2,1.6-0.8,3-1.2,4.6c-0.2,0.6-0.4,1.4-0.6,2s-0.4,1.4-0.8,2
		c-0.6,1.4-1.2,2.6-1.8,4c-0.6,1-1,2.2-1.6,3.2c-0.6,1-1.4,2-2,3C1047.8,1221.3,1047.4,1221.7,1047,1221.9z"/>
	<path class="st0" d="M1049,1222.7c0.2-0.2,0.2-0.4,0.4-0.6c1-0.6,2-1.6,2.8-2.8c0.6-0.8,1.2-1.4,1.6-2c1.2-1.8,2.2-3.6,3.4-6.4
		c0.4-1,1-2,1.4-3.2s0.8-2.2,1.2-3.4c0.4-1.2,0.8-2.2,1-3.4c0.2-0.6,0.4-1.4,0.6-2.2c0.2-0.4,0-1,0.2-1.6c0.2-0.8,0.4-1.6,0.4-2.4
		c0.2-0.6,0-1.2,0.2-1.8c0.2-0.6,0-1.2,0.2-1.8c0.4-1.2,0.2-2.2,0.2-3.2c0-1.2,0.2-2.2,0-3.4c-0.2-1.8-0.6-3.4-1.4-5
		c-0.4-1-1.2-1.6-2-2.2c-0.2-0.2-0.6-0.2-0.8-0.2c-0.2,0-0.4-0.2-0.8-0.4c0.4-0.2,0.6-0.2,1-0.4c1-0.8,2.4-0.8,3.6-0.6
		c0.6,0,1.2,0.4,1.8,0.8c1,1,1.8,2,2.2,3.4c0.2,1,0.4,2,0.6,3.2c0.2,1.2,0.2,2.4,0.2,3.6c0,0.8,0,1.6-0.2,2.4
		c-0.2,0.6,0.2,1.6-0.2,2.2c0.2,0.8-0.2,1.4-0.2,2.2c0,0.6-0.2,1.2-0.4,1.8c-0.2,0.8-0.4,1.6-0.6,2.4c-0.2,1-0.6,2-0.8,3
		c-0.4,1.6-1,3.2-1.6,4.8c-0.4,1-0.6,1.8-1.2,2.8c-0.6,1.4-1.2,2.8-1.8,4.2c-1,1.6-1.8,3.4-3,4.8c-1,1.2-2,2.2-3,3.2
		c-1,0.8-2,1.6-3.4,1.8C1049.8,1222.5,1049.4,1222.7,1049,1222.7z"/>
	<path class="st0" d="M1065.9,1158.8c0.6-0.4,1-1,1.6-1.4c1.6-1.4,2.8-3,3.8-4.8c1.2-1.6,2-3.4,2.8-5.4c0.6-1.4,1.2-2.8,1.6-4.2
		c0.4-1,0.8-2.2,1.2-3.2c0.2-0.6,0.6-1.4,0.6-2.2c0.2-0.8,0.8-1.4,0.4-2.2c0.4-0.8,0.4-1.6,0.6-2.6c0.2-0.4,0-1,0.2-1.4
		c0.2-0.8,0.2-1.6,0.2-2.6c0-0.4,0.2-1,0.2-1.4c0-0.4-0.2-1,0-1.6c0.4-1.4,0.2-3,0.2-4.4c-0.2-1.6-0.2-3.2-1-4.6
		c-0.6-1.4-1.4-2.8-3-3.4c-0.2,0-0.4-0.2-0.4-0.2c-0.2,0-0.2,0-0.4,0c0.2-0.6,0.8-0.8,1.2-1c0.8-0.2,1.4-0.6,2.2-0.4
		c1.2,0,2,0.4,2.8,1.2c1.2,1,1.6,2.2,1.8,3.4c0.2,1,0.4,1.8,0.4,2.8c0,1.4,0,2.6,0,4c0,1.6-0.2,3.2-0.2,4.6c0,0.4-0.2,1-0.2,1.4
		c0,0.6-0.4,1-0.2,1.6c0,0.4-0.2,1-0.2,1.4c-0.2,1-0.4,1.8-0.6,2.8c-0.2,1-0.6,1.8-0.8,2.8c-0.4,2-1.4,3.8-2,5.8
		c-1.2,1.8-1.8,4-3,5.8c-0.6,1-1.2,2-1.8,3.2c-0.4,0.6-0.8,1.2-1.4,1.6c-0.8,0.8-1.6,1.6-2.4,2.4c-1,0.8-2,1.4-3.2,1.8
		C1066.9,1158.8,1066.5,1158.8,1065.9,1158.8z"/>
	<path class="st0" d="M1064.3,1240.2c-0.2,0-0.4,0-0.8,0c0,0,0,0,0-0.2C1063.7,1240.2,1064.1,1240.2,1064.3,1240.2L1064.3,1240.2z"
		/>
	<path class="st0" d="M1062.7,1240.4c0.2,0,0.4,0,0.6,0c0,0,0,0,0,0.2c-0.2,0-0.4,0-0.6,0
		C1062.7,1240.4,1062.7,1240.4,1062.7,1240.4z"/>
	<path class="st0" d="M1079,1067.9c0.6-0.8,1.2-1.4,1.8-2c1-1,2-1.6,3-2.4c0.6-0.4,1.4-0.4,2-0.8c0.2,0,0.6,0,0.8,0.2
		c0.2,0,0.4,0,0.8,0.2c0.2,0.2,0.4,0.4,0.4,0.6c0,1-0.2,1.4-1.2,2.4c-0.8,0.8-2,1.2-3,1.6c-0.4,0.2-1.2,0.2-1.8,0.2
		C1081.4,1067.9,1080.2,1067.9,1079,1067.9z"/>
	<path class="st0" d="M1109.6,1077.7l-0.2,0.2l0,0C1109.4,1077.7,1109.6,1077.7,1109.6,1077.7L1109.6,1077.7z"/>
	<path class="st0" d="M1044.4,1078.9c-1-1-1-1.8-0.6-3c0.6-1.4,1.4-2.8,2.4-4.2c1-1.4,2.4-2.6,3.6-3.8c1.4-1.2,2.6-2.4,4.2-3.2
		c1-0.6,1.8-1,3-1.2c0.6,0,1-0.2,1.6-0.2c0,0,0,0,0.2,0.2c0.2,0.6,0,1.4-0.2,2c-0.2,0.8-0.6,1.6-0.8,2.4c-0.2,1-0.8,1.8-1.4,2.6
		c-0.8,1-1.8,2-2.8,3c-1.6,1.6-3.4,3-5.6,4c-0.2,0.2-0.4,0.4-0.6,0.4C1046.6,1078.5,1045.6,1078.7,1044.4,1078.9z"/>
	<path class="st0" d="M1115.2,1218.1c0.8-1.8,2-3,4-3.2c2.4-0.2,4,1,5,3.2c0,0.4,0,1.2,0,1.6c0,0.8-0.2,1.4-0.6,2.2
		c-0.8,1-1.6,1.8-2.8,2c-1.6,0.2-2.2,0.2-3.4-0.4c-1.2-0.8-2.2-1.8-2.2-3.6C1115.2,1219.3,1115.2,1218.7,1115.2,1218.1z
		 M1117.2,1216.1c0,2,0,4.2,0,6.2c0.4,0,1,0,1.4,0c0-0.4,0-0.8,0-1.2c0-0.4,0-0.8,0-1.2c0.6,0,1.2,0,1.8,0c0.2,0.2,0.4,0.4,0.6,0.6
		c0,0.6,0,1.2,0,1.6c0.4,0,1,0,1.4,0c-0.4-0.4-0.2-1-0.2-1.4c0-0.6-0.2-1.2-1-1.4c0.4-0.2,0.6-0.6,1-1c0.4-0.6-0.2-1.2,0-1.6
		c-0.4-0.2-1-0.4-1.4-0.8C1119.8,1216.1,1118.6,1216.1,1117.2,1216.1z"/>
	<path d="M1117.2,1216.1c1.2,0,2.4,0,3.6,0c0.4,0.2,1,0.4,1.4,0.8c-0.2,0.6,0.6,1,0,1.6c-0.2,0.4-0.6,0.8-1,1c0.6,0.2,1,0.8,1,1.4
		c0,0.4-0.2,1,0.2,1.4c-0.4,0-0.8,0-1.4,0c0-0.6,0-1.2,0-1.6c-0.2-0.2-0.4-0.4-0.6-0.6c-0.4,0-1,0-1.8,0c0,0.4,0,0.8,0,1.2
		c0,0.4,0,0.6,0,1.2c-0.4,0-1,0-1.4,0C1117.2,1220.3,1117.2,1218.3,1117.2,1216.1z M1121,1218.7c0-0.4,0-0.8,0-1.2
		c-0.2-0.2-0.6-0.2-0.8-0.4c-0.4,0-1,0-1.6,0c0,0.6,0,1.4,0,2C1119.6,1219.3,1120.2,1219.1,1121,1218.7z"/>
	<path class="st0" d="M1121,1218.7c-0.8,0.4-1.4,0.6-2.2,0.4c0-0.6,0-1.4,0-2c0.6,0,1,0,1.6,0c0.2,0.2,0.4,0.2,0.8,0.4
		C1121,1217.9,1121,1218.3,1121,1218.7z"/>
</g>
</svg>
