<svg xmlns="http://www.w3.org/2000/svg" xmlns:xlink="http://www.w3.org/1999/xlink" version="1.1" id="Layer_1" x="0px" y="0px" width="232px" height="231.999px" viewBox="-598.941 -140.345 232 231.999" enable-background="new -598.941 -140.345 232 231.999" xml:space="preserve">
<g id="Layer_1_1_">
</g>
<g>
	<g>
		<path fill-rule="evenodd" clip-rule="evenodd" fill="#25B163" d="M-456.315-1.502c0.125-0.347 0.25-0.692 0.374-1.037 c1.325 0.4 2.8 0.5 4 1.132c4.594 2.5 9.1 5.2 13.6 7.735c3.034 1.7 5.1 1.6 7.371-1.084 c1.284-1.514 2.32-3.386 2.951-5.27c1.067-3.191 0.164-4.974-2.781-6.682c-1.271-0.736-2.552-1.46-3.826-2.196 c-4.397-2.54-8.794-5.083-13.191-7.625c0.086-0.295 0.172-0.59 0.258-0.885c1.472 0.3 3.1 0.3 4.4 1 c4.516 2.4 8.9 5.1 13.3 7.676c3.224 1.9 5.4 1.6 7.734-1.276c1.244-1.543 2.21-3.451 2.8-5.35 c0.929-2.99-0.003-4.722-2.744-6.288c-3.867-2.211-7.732-4.425-11.592-6.647c-11.894-6.846-23.783-13.7-35.68-20.539 c-0.555-0.319-1.168-0.718-1.766-0.742c-1.208-0.046-5.685 4-5.988 5.305c-1.144 4.934-2.554 9.828-3.313 14.8 c-0.792 5.216-4.293 7.741-9.753 6.91c-3.248-0.494-6.648-1.14-9.532-2.603c-3.976-2.016-6.359-4.534-4.99-9.867 c1.788-6.959 3.308-13.99 4.835-21.013c0.609-2.797 1.976-4.918 4.34-6.536c2.604-1.78 5.093-3.731 7.679-5.643 c-3.439-2.798-5.952-3.074-9.289-1.156c-8.286 4.765-16.538 9.587-24.891 14.23c-1.196 0.664-2.992 0.919-4.312 0.6 c-10.841-2.764-21.646-5.668-32.431-8.647c-1.79-0.494-2.631-0.069-3.418 1.537c-8.258 16.857-11.119 34.563-8.371 53.1 c0.124 0.8 1.2 2 2 2.217c9.924 2.7 19.9 5.3 29.8 7.923c1.461 0.4 2.2 0 2.901-1.286 c1.613-3.22 4.403-4.181 7.797-3.713c4.279 0.6 7.6 2.8 10 6.35c6.292-8.273 10.846-8.202 19.5 0.3 c3.275-3.779 7.209-3.565 11.306-1.625c3.956 1.9 6.8 4.8 7.4 9.292c5.031-0.083 8.9 2 11.8 5.8 c1.966 2.6 2.3 5.3 0.5 8.192c-0.652 1.006-1.173 2.094-1.73 3.101c4.939 4 8.3 3.5 11.277-1.781 c0.482-0.843 0.873-1.762 1.147-2.693c1.018-3.443 0.328-5.129-2.735-6.937c-1.824-1.077-3.648-2.154-5.472-3.229 c0.131-0.33 0.262-0.658 0.394-0.986c1.233 0.3 2.6 0.4 3.7 1.007c3.961 2.1 7.8 4.5 11.8 6.6 c2.705 1.5 5.4 0.3 7.75-3.145c2.383-3.479 2.669-7.429 0.623-9.244c-0.542-0.481-1.209-0.83-1.846-1.195 c-3.895-2.239-7.799-4.461-11.695-6.699C-455.012-0.666-455.658-1.095-456.315-1.502z M-424.819 1.7 c0.484-0.075 0.976-0.107 1.44-0.234c8.822-2.405 17.63-4.869 26.474-7.197c1.704-0.45 2.084-1.459 2.294-2.942 c2.621-18.503-0.251-36.114-8.416-52.908c-0.854-1.755-1.782-2.026-3.619-1.513c-9.437 2.634-18.905 5.16-28.399 7.6 c-1.182 0.302-2.793 0.119-3.851-0.472c-9.621-5.383-19.151-10.928-28.734-16.38c-3.289-1.872-6.693-2.232-9.916 0.1 c-5.431 3.918-10.864 7.843-16.112 11.998c-1.429 1.13-2.713 2.958-3.179 4.701c-1.896 7.098-3.408 14.295-5.147 21.4 c-0.561 2.3 0.2 4 1.9 5.374c3.51 2.7 7.5 3.8 11.9 3.331c3.083-0.323 4.063-1.28 4.785-4.332 c0.809-3.417 1.926-6.801 2.319-10.266c0.61-5.374 2.949-9.322 7.846-11.693c0.216-0.105 0.386-0.401 0.592-0.418 c0.949-0.074 2.116-0.456 2.827-0.055c16.557 9.3 33.1 18.7 49.6 28.139c3.677 2.1 5 4.8 4.1 8.8 c-1.083 4.954-3.645 8.862-8.696 10.602C-424.819-2.563-424.819-0.555-424.819 1.719z M-482.807 11.1 c-0.404-3.323-2.467-5.037-4.864-6.374c-2.268-1.264-4.702-1.99-7.229-0.657c-0.476 0.251-0.888 0.747-1.168 1.2 c-3.76 6.407-7.547 12.8-11.199 19.268c-1.234 2.186-0.539 4.4 1.6 5.755c1.424 0.9 2.9 1.8 4.4 2.6 c3.162 1.8 5.4 1.3 7.198-1.872c3.449-5.832 6.85-11.693 10.237-17.562C-483.385 12.653-483.092 11.719-482.807 11.053z M-469.335 21.854c0.051-2.464-1.661-4.828-4.494-6.413c-2.333-1.306-4.792-2.224-7.425-0.876 c-0.608 0.313-1.122 0.963-1.483 1.575c-3.282 5.55-6.563 11.098-9.747 16.704c-1.329 2.339-0.623 4.7 1.7 6.1 c1.374 0.9 2.8 1.7 4.2 2.479c3.139 1.8 5.4 1.2 7.193-1.878c3.071-5.199 6.104-10.421 9.126-15.649 C-469.821 23.162-469.537 22.311-469.335 21.854z M-510.6-0.274c-0.743 0.498-2.374 1.048-3.096 2.2 c-2.897 4.535-5.566 9.224-8.21 13.916c-1.267 2.246-0.622 4.5 1.5 5.972c1.566 1 3.2 2 4.9 2.8 c2.654 1.4 5 0.8 6.499-1.775c2.645-4.408 5.368-8.787 7.693-13.362c0.64-1.258 0.519-3.477-0.186-4.733 C-503.229 1.666-506.313 0.285-510.6-0.274z M-530.088-0.593c-0.665 0.448-2.155 1.047-3.035 2.1 c-1.37 1.7-2.385 3.701-3.439 5.634c-1.267 2.324-0.777 4.5 1.4 6.01c1.685 1.1 3.5 2.2 5.3 3.1 c2.327 1.2 4.5 0.5 5.973-1.652c1.164-1.774 2.186-3.641 3.282-5.459c1.057-1.754 0.859-3.473-0.299-5.045 C-522.968 1.317-525.784-0.169-530.088-0.593z"/>
		<path fill-rule="evenodd" clip-rule="evenodd" fill="#25B163" d="M-456.315-1.502c0.657 0.4 1.3 0.8 2 1.2 c3.896 2.2 7.8 4.5 11.7 6.699c0.637 0.4 1.3 0.7 1.8 1.195c2.046 1.8 1.8 5.766-0.623 9.2 c-2.36 3.445-5.045 4.609-7.75 3.145c-3.951-2.138-7.794-4.475-11.755-6.592c-1.094-0.583-2.446-0.685-3.68-1.007 c-0.131 0.328-0.263 0.656-0.394 0.986c1.824 1.1 3.6 2.2 5.5 3.229c3.063 1.8 3.8 3.5 2.7 6.9 c-0.274 0.932-0.666 1.851-1.147 2.693c-3.009 5.254-6.338 5.826-11.277 1.781c0.557-1.007 1.079-2.095 1.73-3.101 c1.859-2.862 1.498-5.621-0.468-8.192c-2.896-3.784-6.723-5.859-11.753-5.776c-0.68-4.519-3.477-7.418-7.433-9.292 c-4.097-1.94-8.031-2.154-11.306 1.625c-8.67-8.51-13.225-8.582-19.517-0.308c-2.459-3.53-5.748-5.758-10.026-6.35 c-3.394-0.468-6.184 0.493-7.797 3.713c-0.664 1.324-1.44 1.676-2.901 1.286c-9.94-2.662-19.912-5.207-29.836-7.923 c-0.825-0.227-1.858-1.376-1.982-2.217c-2.748-18.57 0.113-36.276 8.371-53.133c0.787-1.606 1.628-2.031 3.418-1.537 c10.784 3 21.6 5.9 32.4 8.647c1.319 0.3 3.1 0.1 4.312-0.583c8.353-4.643 16.605-9.465 24.891-14.23 c3.336-1.918 5.85-1.642 9.3 1.156c-2.586 1.912-5.075 3.862-7.679 5.643c-2.364 1.618-3.731 3.739-4.34 6.5 c-1.528 7.022-3.048 14.053-4.835 21.013c-1.369 5.3 1 7.9 5 9.867c2.883 1.5 6.3 2.1 9.5 2.6 c5.46 0.8 8.961-1.693 9.753-6.91c0.759-4.993 2.169-9.887 3.313-14.821c0.303-1.305 4.78-5.351 5.988-5.305 c0.598 0 1.2 0.4 1.8 0.742c11.897 6.8 23.8 13.7 35.7 20.539c3.86 2.2 7.7 4.4 11.6 6.6 c2.741 1.6 3.7 3.3 2.7 6.288c-0.589 1.899-1.556 3.807-2.8 5.35c-2.346 2.909-4.51 3.135-7.734 1.3 c-4.447-2.563-8.832-5.242-13.348-7.676c-1.275-0.688-2.915-0.699-4.387-1.02c-0.086 0.295-0.172 0.59-0.258 0.9 c4.397 2.5 8.8 5.1 13.2 7.625c1.274 0.7 2.6 1.5 3.8 2.196c2.945 1.7 3.8 3.5 2.8 6.7 c-0.631 1.883-1.667 3.755-2.951 5.27c-2.244 2.643-4.337 2.809-7.371 1.084c-4.544-2.584-9.048-5.242-13.643-7.735 c-1.176-0.636-2.627-0.769-3.952-1.132C-456.065-2.194-456.19-1.85-456.315-1.502z"/>
		<path fill-rule="evenodd" clip-rule="evenodd" fill="#25B163" d="M-424.819 1.719c0-2.274 0-4.282 0-6.352 c5.052-1.739 7.613-5.647 8.696-10.602c0.874-4.004-0.404-6.707-4.082-8.809c-16.494-9.434-33.015-18.818-49.572-28.139 c-0.71-0.4-1.877-0.019-2.827 0.055c-0.206 0.017-0.375 0.313-0.592 0.418c-4.897 2.372-7.236 6.32-7.846 11.7 c-0.393 3.465-1.511 6.85-2.319 10.266c-0.722 3.052-1.703 4.009-4.785 4.332c-4.386 0.459-8.393-0.613-11.903-3.331 c-1.765-1.366-2.496-3.073-1.935-5.374c1.739-7.142 3.251-14.339 5.147-21.437c0.466-1.744 1.75-3.571 3.179-4.701 c5.248-4.154 10.681-8.079 16.112-11.998c3.223-2.324 6.627-1.963 9.916-0.091c9.583 5.5 19.1 11 28.7 16.4 c1.058 0.6 2.7 0.8 3.9 0.472c9.495-2.418 18.963-4.944 28.399-7.578c1.837-0.513 2.765-0.242 3.6 1.5 c8.165 16.8 11 34.4 8.4 52.908c-0.21 1.483-0.59 2.492-2.294 2.942c-8.843 2.328-17.651 4.792-26.474 7.2 C-423.843 1.612-424.334 1.644-424.819 1.719z"/>
		<path fill-rule="evenodd" clip-rule="evenodd" fill="#25B163" d="M-482.807 11.053c-0.285 0.666-0.578 1.6-1.056 2.4 c-3.387 5.868-6.788 11.729-10.237 17.562c-1.846 3.124-4.036 3.665-7.198 1.872c-1.491-0.845-2.985-1.695-4.409-2.645 c-2.099-1.4-2.794-3.569-1.561-5.755c3.651-6.468 7.439-12.86 11.199-19.268c0.28-0.478 0.692-0.974 1.168-1.225 c2.528-1.333 4.962-0.607 7.2 0.657C-485.274 6.017-483.211 7.73-482.807 11.053z"/>
		<path fill-rule="evenodd" clip-rule="evenodd" fill="#25B163" d="M-469.335 21.854c-0.201 0.457-0.486 1.308-0.926 2.1 c-3.022 5.229-6.055 10.45-9.126 15.649c-1.826 3.093-4.054 3.651-7.193 1.878c-1.42-0.803-2.848-1.6-4.222-2.479 c-2.304-1.474-3.01-3.788-1.682-6.127c3.184-5.606 6.465-11.154 9.747-16.704c0.361-0.612 0.875-1.263 1.483-1.575 c2.632-1.348 5.091-0.43 7.4 0.876C-470.997 17.026-469.284 19.39-469.335 21.854z"/>
		<path fill-rule="evenodd" clip-rule="evenodd" fill="#25B163" d="M-510.6-0.274c4.288 0.6 7.4 1.9 9.1 5 c0.704 1.3 0.8 3.5 0.2 4.733c-2.325 4.575-5.048 8.954-7.693 13.362c-1.545 2.574-3.844 3.178-6.499 1.8 c-1.658-0.876-3.296-1.807-4.862-2.838c-2.169-1.43-2.813-3.726-1.547-5.972c2.644-4.692 5.313-9.381 8.21-13.916 C-512.974 0.773-511.343 0.224-510.6-0.274z"/>
		<path fill-rule="evenodd" clip-rule="evenodd" fill="#25B163" d="M-530.088-0.593c4.304 0.4 7.1 1.9 9.2 4.7 c1.158 1.6 1.4 3.3 0.3 5.045c-1.096 1.818-2.118 3.685-3.282 5.459c-1.434 2.186-3.646 2.814-5.973 1.7 c-1.822-0.911-3.607-1.929-5.292-3.07c-2.175-1.473-2.665-3.686-1.398-6.01c1.054-1.933 2.07-3.934 3.439-5.634 C-532.244 0.454-530.753-0.145-530.088-0.593z"/>
	</g>
	
		<circle fill-rule="evenodd" clip-rule="evenodd" fill="none" stroke="#25B163" stroke-width="10" stroke-miterlimit="10" cx="-482.6" cy="-24" r="107.1"/>
</g>
</svg>
