<?xml version="1.0" encoding="utf-8"?>
<!-- Generator: Adobe Illustrator 18.1.1, SVG Export Plug-In . SVG Version: 6.00 Build 0)  -->
<!DOCTYPE svg PUBLIC "-//W3C//DTD SVG 1.1//EN" "http://www.w3.org/Graphics/SVG/1.1/DTD/svg11.dtd">
<svg version="1.1" id="Layer_1" xmlns="http://www.w3.org/2000/svg" xmlns:xlink="http://www.w3.org/1999/xlink" x="0px" y="0px"
	 viewBox="9 99 594 594" enable-background="new 9 99 594 594" xml:space="preserve">
<g id="Layer_1_1_">
</g>
<g id="Layer_2">
</g>
<g id="Layer_1_2_">
</g>
<g>
	<polygon fill="#1BB666" points="190.7,250.5 240.8,224.8 260.3,229.8 261.7,237.7 210.8,268.7 190.7,253.8 	"/>
	<polygon fill="#1BB666" points="159.3,270.2 175.3,252.2 186.2,254.2 212.5,275.8 222,292.2 204.2,312.7 184.3,304.8 161,276 	"/>
	<polygon fill="#1BB666" points="161.2,284.4 136.2,333.1 139.9,346.3 147.1,349.8 177.6,302.4 	"/>
	<path fill="#FFFFFF" d="M306,687.2C145.4,687.2,14.8,556.7,14.8,396S145.4,104.8,306,104.8S597.2,235.3,597.2,396
		S466.6,687.2,306,687.2z M306,132C160.3,132,42,250.3,42,396s118.4,264,264,264s264-118.4,264-264S451.7,132,306,132z"/>
	<g opacity="7.000000e-002">
		<path fill="#1BB666" d="M335.3,348.7l70-66.3l14.3-1.7l2,12l-73,76C348.7,368.7,333.7,365,335.3,348.7z"/>
		<path fill="#1BB666" d="M358.3,247.2l-3-6.8c0,0,32-19.8,71.8-20.5c0,0,38.7-1.7,46,1.5c0,0,9.8,1,10.8,38.5
			c0,0,2.1,26.3-11.5,55.8l-9.8-3.5l-7.5-47L419.6,244L358.3,247.2z"/>
		<path fill="#FFFFFF" enable-background="new    " d="M483.3,233.1l-1.7-5.2c-2.8-9.8-14.6-11.4-14.6-11.4l-7-0.1
			c-49.1,0.3-58.7,3.3-58.7,3.3c-43.2,7.1-92.1,54.3-92.1,54.3c-7.2,6,0.2,12.9,0.2,12.9l40.4,37.8c1.7,3.1,0.3,5.5,0.3,5.5
			L206.3,477.5c-35.8,37.2-75.9,85.3-75.9,85.3c-0.5,1-0.5,5.4,0.3,7.4c1.7,4.3,4,5.6,6.3,6.2c7.2,1.9,10.5-1.8,10.5-1.8
			c16.9-13.3,76.7-77.4,76.7-77.4l146.2-146.7c4.1-2.2,8.3,0.9,8.3,0.9l36.6,35.6c5.3,5,10.4,0.3,10.4,0.3
			c22.4-21.3,34.3-44.9,34.3-44.9c22.8-36.4,25.6-64.7,25.6-64.7C488.8,248.9,483.3,233.1,483.3,233.1z M351.4,363
			c0,0-11,0.1-14.4-12.5c0,0,63.2-61.2,70.6-65.7l8.7-1.7l1,7.5L351.4,363z M481.8,271c0,0-6.2,32.2-10.9,40.9h-2.7
			c0,0-0.9-39.1-6.9-47.5c0,0-6.1-17.7-33.2-23.1c0,0-28-9.3-52.8-3.7c0,0-9,2.4-14.7,6.5l-3-3.4c0,0,28.8-14.6,52.8-18.1
			c0,0,32-3.3,57.8,0c0,0,8.2,0.6,9.1,7.1C477.2,229.7,483.6,249.6,481.8,271z"/>
	</g>
	<path fill="#FFFFFF" d="M485.1,554.1l-7-8.7c-2-2.4-241.3-236.7-241.3-236.7c-10.5-10.9-12.4-16.6-15-22c-6.7-14,0.4-20.2,0.4-20.2
		c34.9-30.8,90.4-37.2,90.4-37.2l5.9-3.7l-7.2-5.5c-35.6-11-71.3,0-71.3,0c-23.1,6.4-59,30.7-59,30.7c-6.1-2.5-9.6,1.4-9.6,1.4
		l-13.3,15.9c-2,3.5,0.7,11.5,0.7,11.5c-9.2,13.1-24.1,42.1-24.1,42.1c-20.2,39.5-1.4,84.9-1.4,84.9l5.5,4.9l3.8-6.2
		c7.9-52.5,26.8-80.1,26.8-80.1c11.4-23.3,21.5-15.1,21.5-15.1c19.4,8.7,29.4,16.6,29.4,16.6c10.9,8.4,243.2,239.9,243.2,239.9
		c4,4.1,9.7,7.5,9.7,7.5c7.5,1.7,12.6-5.3,12.6-5.3C490.9,562.7,485.1,554.1,485.1,554.1z M241.7,226.5c0,0,11.3,0.2,14.8,5.1
		c0,0,3.7,1.4-1.4,5.9l-44.3,27.7c0,0-16.3-9.7-17.4-12.4L241.7,226.5z M149.8,344.5c-4,5.5-5.8,1.9-5.8,1.9
		c-5.2-3-6.2-14.3-6.2-14.3l24-46c2.8,0.8,13.7,16.3,13.7,16.3L149.8,344.5z M202.2,310.3l-16.9-8.9l-22-25.3
		c-3.8-4.4,0.7-8.2,0.7-8.2l9-11c4.4-4.8,9.7-2.1,9.7-2.1l25.6,19.4l11.2,16.2L202.2,310.3z"/>
</g>
</svg>
