<?xml version="1.0" encoding="utf-8"?>
<!-- Generator: Adobe Illustrator 18.0.0, SVG Export Plug-In . SVG Version: 6.00 Build 0)  -->
<!DOCTYPE svg PUBLIC "-//W3C//DTD SVG 1.1//EN" "http://www.w3.org/Graphics/SVG/1.1/DTD/svg11.dtd">
<svg version="1.1" id="Layer_1" xmlns="http://www.w3.org/2000/svg" xmlns:xlink="http://www.w3.org/1999/xlink" x="0px" y="0px"
	 viewBox="0 0 33.3 35" enable-background="new 0 0 33.3 35" xml:space="preserve">
<path fill="#FFFFFF" d="M23.8,10.7c-0.2,0-0.4,0.2-0.4,0.4v1.1c-1.1-1.3-2.4-1.9-3.9-1.9c-1.1,0-2.1,0.3-3,0.7
	c-0.4-3.7-2.7-5.6-5.7-5.6c-1.5,0-2.8,0.6-3.9,1.9V6.3c0-0.2-0.2-0.4-0.4-0.4H2.6v12.1c0,5.4,4.4,6.8,7.6,6.8c2.3,0,4.2-0.6,5.9-2
	l0-0.1c0.9,0.7,2.1,1,3.4,1c1.5,0,2.8-0.7,4-2.2l0,1.3c0,2.5-2.1,3.4-3.5,3.4c-1.5,0-3-0.4-4-1.5l-1.8,3c1.7,1.4,3.6,2,5.9,2
	c3.3,0,7.6-1.4,7.6-6.8V10.7H23.8z M6.8,11.3c0-0.7,0.4-1.4,1.1-1.7c0.5-0.2,1-0.3,1.4-0.3c1.7,0,2.9,1,2.9,2.9c0,1.9-1.2,3-2.9,3
	c-0.9,0-2-0.5-2.5-1.2V11.3z M6.7,17.9l0-1.3c1.2,1.6,2.5,2.2,4,2.2c1.1,0,2.1-0.2,3-0.7c0.1,0.7,0.2,1.3,0.4,1.9
	c-1,1-2.4,1.4-3.8,1.4C8.9,21.3,6.7,20.4,6.7,17.9z M23.3,18.8C23.3,18.8,23.3,18.8,23.3,18.8c-0.5,0.7-1.6,1.2-2.5,1.2
	c-1.7,0-2.9-1-2.9-3c0-1.9,1.2-2.9,2.9-2.9c0,0,0,0,0.1,0c1.4,0,2.5,1.2,2.5,2.5V18.8z"/>
</svg>
