<?xml version="1.0" encoding="utf-8"?>
<!-- Generator: Adobe Illustrator 18.1.0, SVG Export Plug-In . SVG Version: 6.00 Build 0)  -->
<!DOCTYPE svg PUBLIC "-//W3C//DTD SVG 1.1//EN" "http://www.w3.org/Graphics/SVG/1.1/DTD/svg11.dtd">
<svg version="1.1" id="Layer_1" xmlns="http://www.w3.org/2000/svg" xmlns:xlink="http://www.w3.org/1999/xlink" x="0px" y="0px"
	 viewBox="151.1 162 309.9 333.7" enable-background="new 151.1 162 309.9 333.7" xml:space="preserve">
<g>
	<path fill="#FFFFFF" d="M275.3,299c20.8,0,41.1,0.1,62.3,0c0.1,3.5,0.5,5.9,0.5,8.8c0.3,43,0,86.2,0.1,129.2
		c-0.1,8.4-2.1,10.8-10.7,10.7c-17.4-0.6-34.6-0.1-52.9-0.1C275.3,397.4,275.1,348.5,275.3,299z"/>
	<path fill="#FFFFFF" d="M340.5,235.1c0.1,18.8-15.6,34.7-33.9,34.9c-18.8,0.1-35.4-16.4-35.1-35.3c0.4-18.8,16.1-34.4,35-34
		C324.8,200.6,340.2,216.4,340.5,235.1z"/>
</g>
</svg>
