<svg xmlns="http://www.w3.org/2000/svg" xmlns:xlink="http://www.w3.org/1999/xlink" version="1.1" x="0px" y="0px" width="74.8px" height="99.7px" viewBox="187.1 195 74.8 99.7" style="enable-background:new 187.1 195 74.8 99.7;" xml:space="preserve"><path d="M196.7 231c0.9-0.8 1.4-1.2 1.8-1.6c11.8-12.4 30.3-13.3 42.2-7.2c14.2 7.2 22.9 23.3 20.8 39 c-2.9 22.3-22.7 36.9-44.7 32.7c-14.2-2.7-30-16.8-29.8-36.6c0.1-19.7 0.1-39.4 0-59.1c0-2.6 0.8-3.2 3.2-3.2c6.3 0.1 6.3 0 6.3 6.3 c0 8.6 0 17.3 0 25.9C196.7 228.2 196.7 229.4 196.7 231z M197 256.5c-0.1 15.3 12.2 28.4 26.8 28.6c15.2 0.2 28-12.8 28.1-28.6 c0.2-15.3-12.5-28.4-27.6-28.5C209.2 228 197.1 240.5 197 256.5z"/></svg>