<svg xmlns="http://www.w3.org/2000/svg" xmlns:xlink="http://www.w3.org/1999/xlink" version="1.1" id="Layer_1" x="0px" y="0px" width="234px" height="234px" viewBox="0 0 234 234" enable-background="new 0 0 234 234" xml:space="preserve"><g><circle opacity="0.8" fill="#00A651" enable-background="new    " cx="117" cy="117" r="107"/><circle opacity="0.8" fill="none" stroke="#FFFFFF" stroke-miterlimit="10" enable-background="new    " cx="117" cy="117" r="100"/><g><g><path fill="#FFFFFF" d="M112.733 170.284l8.763-14.125c4.97 5.2 11.9 7.3 19.2 7.324c6.669 0 16.086-2.877 16.086-14.91 v-4.839c-5.231 6.277-11.509 9.285-18.702 9.285c-15.433 0-27.727-10.593-27.727-31.91c0-20.795 11.901-31.781 27.727-31.781 c7.063 0 13.6 2.7 18.7 9.024v-7.455h20.141v57.676c0 25.634-20.533 31.127-36.227 31.1 C129.866 179.7 120.8 177 112.7 170.284z M156.808 129.609v-16.871c-2.485-3.4-7.847-5.624-12.032-5.624 c-7.978 0-13.863 4.839-13.863 13.994c0 9.3 5.9 14.1 13.9 14.124C148.961 135.2 154.3 133 156.8 129.609z"/></g><g><path fill="#FFFFFF" d="M93.278 154.672c-15.693 0-36.227-5.493-36.227-31.127V65.869h20.141v7.455 c5.101-6.278 11.64-9.024 18.702-9.024c15.825 0 27.7 11 27.7 31.781c0 21.317-12.294 31.911-27.727 31.9 c-7.193 0-13.471-3.008-18.702-9.285v4.839c0 12 9.4 14.9 16.1 14.909c7.324 0 14.256-2.092 19.226-7.323l8.763 14.1 C113.158 151.9 104.1 154.7 93.3 154.672z M89.225 110.205c7.978 0 13.863-4.839 13.863-14.125 c0-9.155-5.886-13.995-13.863-13.995c-4.186 0-9.547 2.224-12.032 5.624v16.872C79.678 108 85 110.2 89.2 110.205z"/></g></g></g></svg>