<svg xmlns="http://www.w3.org/2000/svg" xmlns:xlink="http://www.w3.org/1999/xlink" version="1.1" x="0px" y="0px" width="103.9px" height="104px" viewBox="48.6 48.8 103.9 104" style="enable-background:new 48.6 48.8 103.9 104;" xml:space="preserve"><style type="text/css">.st0{fill:#FFFFFF;}.st1{fill:#FFFFFF;stroke:#000000;stroke-width:3;stroke-miterlimit:10;}</style><g><path d="M100.5 152.8c28.3 0.1 51.8-23 51.9-51.2c0.2-29.2-22.8-52.6-51.5-52.7c-28.9-0.2-52.2 22.8-52.4 51.6 C48.5 129.3 71.5 152.6 100.5 152.8z"/><path d="M100.5 152.8c-29-0.2-52-23.5-51.8-52.4c0.2-28.8 23.4-51.6 52.4-51.6c28.7 0.1 51.6 23.6 51.5 52.7 C152.3 129.7 128.9 152.9 100.5 152.8z M100.5 148.9c26.5 0.1 48.2-21.4 48.3-47.9c0.1-26.5-21.6-48.4-48.1-48.4 c-26.5 0-48.2 21.6-48.2 48C52.4 127.2 73.9 148.8 100.5 148.9z"/><path class="st1" d="M100.5 148.9c-26.6-0.1-48.1-21.7-48-48.4c0.1-26.4 21.7-47.9 48.2-47.9c26.4 0 48.2 21.9 48.1 48.4 C148.6 127.5 127 148.9 100.5 148.9z M100.5 144.7c24.4 0.1 44.1-19.6 44.1-44c0-24-19.6-43.7-43.7-43.9 c-24.3-0.1-44.1 19.7-44.2 44C56.6 125 76.2 144.7 100.5 144.7z"/><path class="st0" d="M100.5 144.7c-24.3-0.1-43.9-19.7-43.9-43.9c0.1-24.4 19.9-44.1 44.2-44c24.1 0.2 43.7 19.8 43.7 43.9 C144.6 125.1 124.9 144.7 100.5 144.7z M108.3 93.6c0-7.5 0-14.9 0-22.3c0-4.1-0.1-4.2-4.3-4.2c-2.5 0-4.9 0-7.3 0 c-3.8 0-4.1 0.3-4.1 4.2c0 12.2 0 24.3 0 36.4c0 3 0 6 0 9.2c0.1 3.1 0.4 3.5 3.5 3.5c2.7 0 5.3 0 8.1 0c4.1 0 4.1 0 4.1-4.3 C108.3 108.5 108.3 101.1 108.3 93.6z M100.7 134.4L100.7 134.4c1.4 0 2.8 0.1 4.2-0.1c2.6-0.2 3.6-1.4 3.6-4.4 c-0.1-2.8-1-4-3.6-4.1c-2.6-0.1-5.2-0.1-7.8 0c-3 0.1-4.3 1.3-4.3 4.3c0 3 1.2 4.2 4.3 4.3C98.2 134.4 99.4 134.4 100.7 134.4z"/><path d="M108.3 93.6c0 7.5 0 14.9 0 22.3c0 4.3 0 4.3-4.1 4.3c-2.7 0-5.3 0-8.1 0c-3 0-3.4-0.4-3.5-3.5c-0.1-3 0-6 0-9.2 c0-12.2 0-24.3 0-36.4c0-3.9 0.3-4.2 4.1-4.2c2.5 0 4.9 0 7.3 0c4.2 0 4.3 0.1 4.3 4.2C108.3 78.7 108.3 86.1 108.3 93.6z"/><path d="M100.7 134.4c-1.2 0-2.5 0-3.6 0c-3.1-0.1-4.3-1.2-4.3-4.3c0-3 1.2-4.3 4.3-4.3c2.6-0.1 5.2-0.1 7.8 0 c2.6 0.1 3.5 1.3 3.6 4.1c0.1 3-1 4.3-3.6 4.4C103.4 134.5 102 134.4 100.7 134.4L100.7 134.4z"/></g></svg>