<?xml version="1.0" encoding="utf-8"?>
<!-- Generator: Adobe Illustrator 18.0.0, SVG Export Plug-In . SVG Version: 6.00 Build 0)  -->
<!DOCTYPE svg PUBLIC "-//W3C//DTD SVG 1.1//EN" "http://www.w3.org/Graphics/SVG/1.1/DTD/svg11.dtd">
<svg version="1.1" id="Layer_1" xmlns="http://www.w3.org/2000/svg" xmlns:xlink="http://www.w3.org/1999/xlink" x="0px" y="0px"
	 viewBox="0 0 78.6 78.6" enable-background="new 0 0 78.6 78.6" xml:space="preserve">
<path fill="#FFFFFF" d="M39.3,78C17.9,78,0.5,60.7,0.5,39.3S17.9,0.5,39.3,0.5S78,17.9,78,39.3S60.7,78,39.3,78z M39.3,2.5
	C19,2.5,2.5,19,2.5,39.3S19,76,39.3,76S76,59.6,76,39.3S59.6,2.5,39.3,2.5z"/>
<g>
	<path fill="#FFFFFF" d="M33.9,33.2c4.2,0.7,8.3,1.4,12.6,2.1c-0.1,0.7-0.1,1.2-0.2,1.8c-1.4,8.7-2.9,17.4-4.3,26.1
		c-0.3,1.7-0.8,2.1-2.5,1.8c-3.5-0.7-7-1.2-10.7-1.8C30.6,53.1,32.2,43.2,33.9,33.2z"/>
	<path fill="#FFFFFF" d="M49.2,22.5c-0.6,3.8-4.3,6.5-8,5.9c-3.8-0.6-6.6-4.5-5.9-8.3c0.7-3.8,4.4-6.4,8.2-5.7
		C47.2,15,49.8,18.7,49.2,22.5z"/>
</g>
</svg>
