<?xml version="1.0" encoding="utf-8"?>
<!-- Generator: Adobe Illustrator 18.0.0, SVG Export Plug-In . SVG Version: 6.00 Build 0)  -->
<!DOCTYPE svg PUBLIC "-//W3C//DTD SVG 1.1//EN" "http://www.w3.org/Graphics/SVG/1.1/DTD/svg11.dtd">
<svg version="1.1" id="Layer_1" xmlns="http://www.w3.org/2000/svg" xmlns:xlink="http://www.w3.org/1999/xlink" x="0px" y="0px"
	 viewBox="0 0 79.3 79.3" enable-background="new 0 0 79.3 79.3" xml:space="preserve">
<g>
	<path fill="#FFFFFF" d="M28,38.9c1.8,0.3,3.5,0.6,5.2,0.9c2,0.3,2.5,0.1,2.8-1.3c0.3-1.4-0.1-1.8-2.2-2.2c-1.8-0.3-3.5-0.6-5.4-0.9
		c0.2-1,0.3-1.9,0.5-3c2.1,0.4,4.2,0.7,6.2,1.1c1.2,0.2,1.8-0.2,2-1.3c0.3-1.3-0.1-1.9-1.4-2.1c-2-0.4-4.1-0.7-6.2-1.1
		c0.2-1,0.3-1.9,0.5-3c2.1,0.4,4.2,0.7,6.2,1.1c1.3,0.2,1.8-0.2,2-1.4c0.2-1.2-0.2-1.8-1.3-2c-2-0.4-3.9-0.7-5.9-1
		c0.6-4.3,6.9-8.2,12.3-7.6c6,0.7,11.2,6.2,10.7,11.6c-2-0.3-3.9-0.7-5.9-1c-1.3-0.2-1.9,0.2-2.1,1.5c-0.2,1.1,0.3,1.7,1.3,1.9
		c2.1,0.4,4.2,0.7,6.3,1.1c-0.2,1-0.3,1.9-0.5,3c-2.1-0.4-4.2-0.7-6.2-1.1c-1.3-0.2-1.8,0.2-2,1.4c-0.2,1.2,0.1,1.8,1.4,2
		c2,0.4,4.1,0.7,6.2,1.1c-0.2,1-0.3,1.9-0.5,3c-2.1-0.4-4.1-0.7-6.2-1.1c-1.4-0.2-1.9,0.2-2.1,1.4c-0.2,1.2,0.2,1.7,1.4,2
		c1,0.2,2,0.3,3,0.5c1,0.2,2,0.3,3,0.5c-0.8,3.6-5.9,8.3-12.5,7.6C32.8,49.9,27.7,44.4,28,38.9z"/>
	<path fill="#FFFFFF" d="M38.4,59.4c0.9,0.2,1.7,0.3,2.6,0.4c2.4,0.4,3.5,2.1,2.8,4.6c-5.4-0.9-10.8-1.9-16.2-2.8
		c0.2-2.6,1.7-3.8,4.2-3.3c0.8,0.1,1.6,0.3,2.6,0.4c0.1-0.5,0.2-0.9,0.3-1.4c-1.1-0.4-2.2-0.8-3.2-1.2c-7.7-3.4-11.9-10.5-11.2-19
		c0.1-1.7,1.1-2.7,2.5-2.6c1.3,0.1,2.1,1.3,2,2.9c-0.3,5.8,1.4,10.6,6.7,13.5c5.8,3.2,11.8,3.6,17.6-0.2c2.9-1.9,4.4-4.8,5.4-8
		c0.1-0.4,0.3-0.9,0.5-1.2c0.6-0.9,1.8-1.2,2.8-0.8c1.1,0.5,1.6,1.5,1.3,2.7c-1.2,4.5-3.3,8.3-7.1,11.1C48.4,57,44.4,58,40,57.9
		c-0.3,0-0.6,0-1,0c-0.1,0-0.2,0-0.4,0C38.6,58.4,38.5,58.8,38.4,59.4z"/>
</g>
<path fill="#FFFFFF" d="M39.7,78.4C18.3,78.4,0.9,61,0.9,39.7S18.3,0.9,39.7,0.9s38.8,17.4,38.8,38.8S61,78.4,39.7,78.4z M39.7,2.9
	C19.4,2.9,2.9,19.4,2.9,39.7s16.5,36.8,36.8,36.8s36.8-16.5,36.8-36.8S59.9,2.9,39.7,2.9z"/>
</svg>
