<?xml version="1.0" encoding="utf-8"?>
<!-- Generator: Adobe Illustrator 18.0.0, SVG Export Plug-In . SVG Version: 6.00 Build 0)  -->
<!DOCTYPE svg PUBLIC "-//W3C//DTD SVG 1.1//EN" "http://www.w3.org/Graphics/SVG/1.1/DTD/svg11.dtd">
<svg version="1.1" id="Layer_1" xmlns="http://www.w3.org/2000/svg" xmlns:xlink="http://www.w3.org/1999/xlink" x="0px" y="0px"
	 viewBox="0 0 3099 47.6" enable-background="new 0 0 3099 47.6" xml:space="preserve">
<g>
	<g>
		<path fill="#FFFFFF" d="M2614.7,24.8v8.3l-1.5,0.8l-3,3h-9.4l-4.9-4.9V15.8l5.3-5.3h10.6l2.1,6.2l-3.9-1.3h-5.2l-1.9,0.9l-0.9,1.9
			v11.5l0.8,1.5l1.5,0.8h3.8l1.1-1.1v-5.3l-1.5-3h8.3L2614.7,24.8z"/>
		<path fill="#FFFFFF" d="M2638.8,37.1h-3.4l-3.4-3.4v-6.6l-0.4-0.4h-4.9l-0.4,0.4v6.8l0.8,3h-7.2l0.8-3V13.5l-0.8-3h15.5l4.5,4.5
			v6.4l-3.4,3.4l0.9,0.9v4.7l1.3,1.3l2.3,0.8L2638.8,37.1z M2633.9,17.5l-0.8-1.5l-1.9-0.9h-4.5l-0.4,0.4v6.4l0.4,0.4h4.5l1.9-0.9
			l0.8-1.5V17.5z"/>
		<path fill="#FFFFFF" d="M2661,36.9h-15.5l0.8-3V13.5l-0.8-3h15.1l1.9,5.7l-3.4-1.1h-6.8l-0.4,0.4v4.5l0.4,0.4h5.3l1.7,5.1
			l-2.5-0.6h-4.5l-0.4,0.4v6.2l0.6,0.6h6.6l4-1.3L2661,36.9z"/>
		<path fill="#FFFFFF" d="M2681.8,36.9h-15.5l0.8-3V13.5l-0.8-3h15.1l1.9,5.7l-3.4-1.1h-6.8l-0.4,0.4v4.5l0.4,0.4h5.3l1.7,5.1
			l-2.5-0.6h-4.5l-0.4,0.4v6.2l0.6,0.6h6.6l4-1.3L2681.8,36.9z"/>
		<path fill="#FFFFFF" d="M2700.6,36.9l0.8-3v-0.4l-8.1-13.6l-0.8-1.9l0.2,1.9v14l0.8,3h-6.4l0.8-3V13.5l-0.9-3h7.4l6.6,11.1
			l0.8,1.9l-0.2-1.9v-8l-0.8-3h6.4l-0.8,3v20.4l0.8,3H2700.6z"/>
		<path fill="#FFFFFF" d="M2741.4,24.8v8.3l-1.5,0.8l-3,3h-9.4l-4.9-4.9V15.8l5.3-5.3h10.6l2.1,6.2l-3.9-1.3h-5.2l-1.9,0.9l-0.9,1.9
			v11.5l0.8,1.5l1.5,0.8h3.8l1.1-1.1v-5.3l-1.5-3h8.3L2741.4,24.8z"/>
		<path fill="#FFFFFF" d="M2765.5,37.1h-3.4l-3.4-3.4v-6.6l-0.4-0.4h-4.9l-0.4,0.4v6.8l0.8,3h-7.2l0.8-3V13.5l-0.8-3h15.5l4.5,4.5
			v6.4l-3.4,3.4l0.9,0.9v4.7l1.3,1.3l2.3,0.8L2765.5,37.1z M2760.6,17.5l-0.8-1.5L2758,15h-4.5l-0.4,0.4v6.4l0.4,0.4h4.5l1.9-0.9
			l0.8-1.5V17.5z"/>
		<path fill="#FFFFFF" d="M2784.9,36.9l0.4-3l-0.9-3.4l-0.4-0.4l-1.9,0.9h-3.2l-1.9-0.9l-0.4,0.4l-0.9,3.4l0.4,3h-7l1.5-3l5.7-20.9
			l-0.6-2.5h10.2l-0.6,2.5l5.7,20.9l1.5,3H2784.9z M2780.8,15.4l-0.2-1.1l-0.2,1.1l-2.4,9.8l0.3,0.8l0.8,0.4h3l0.8-0.4l0.3-0.8
			L2780.8,15.4z"/>
		<path fill="#FFFFFF" d="M2812.8,13.5l-7.2,23.4h-4.9l-7.2-23.4l-1.5-3h7.7l-0.4,3l3.8,13.6l0.2,1.5l0.2-1.5l3.8-13.6l-0.4-3h7.4
			L2812.8,13.5z"/>
		<path fill="#FFFFFF" d="M2832.3,36.9h-15.5l0.8-3V13.5l-0.8-3h15.1l1.9,5.7l-3.4-1.1h-6.8l-0.4,0.4v4.5l0.4,0.4h5.3l1.7,5.1
			l-2.5-0.6h-4.5l-0.4,0.4v6.2l0.6,0.6h6.6l4-1.3L2832.3,36.9z"/>
		<path fill="#FFFFFF" d="M2852.2,36.9h-14.7l0.8-3V13.5l-0.8-3h7.4l-0.9,3.8v17.2l0.6,0.6h5.8l4-1.3L2852.2,36.9z"/>
		<path fill="#FFFFFF" d="M2882.2,34.6l-2.3,2.3h-8.9l-5.3-5.3V15.8l5.3-5.3h9.4l2.1,6.2l-3.9-1.3h-4l-1.9,0.9l-0.9,1.9v10.9
			l0.9,1.9l1.9,0.9h2.6l1.3-1.3V29l4.5,2.3v1.5L2882.2,34.6z"/>
		<path fill="#FFFFFF" d="M2901.3,36.9h-9.8l-4.9-4.9V15.4l4.9-4.9h9.8l4.9,4.9V32L2901.3,36.9z M2900.1,17.3l-0.8-1.5l-1.5-0.8h-3
			l-1.5,0.8l-0.8,1.5v12.4l0.8,1.5l1.5,0.8h3l1.5-0.8l0.8-1.5V17.3z"/>
		<path fill="#FFFFFF" d="M2930.9,36.9l0.8-3V20.3l0.2-1.5l-0.6,1.5l-4,8.7l-2.3,6.8h-0.6l-2.3-6.8l-4-8.7l-0.6-1.5l0.2,1.5v13.6
			l0.8,3h-6.4l0.8-3V13.5l-0.8-3h7.4l5.3,12l0.2,0.9l0.2-0.9l5.3-12h7.4l-0.8,3v20.4l0.8,3H2930.9z"/>
		<path fill="#FFFFFF" d="M2959.3,36.9h-15.5l0.8-3V13.5l-0.8-3h15.1l1.9,5.7l-3.4-1.1h-6.8l-0.4,0.4v4.5l0.4,0.4h5.3l1.7,5.1
			l-2.5-0.6h-4.5l-0.4,0.4v6.2l0.6,0.6h6.6l4-1.3L2959.3,36.9z"/>
		<path fill="#FFFFFF" d="M2979.3,36.9h-14.7l0.8-3V13.5l-0.8-3h14.7l5.3,5.3v15.8L2979.3,36.9z M2978.6,17.9l-0.9-1.9l-1.9-0.9
			h-4.1l-0.4,0.4v16l0.6,0.6h4l1.9-0.9l0.9-1.9V17.9z"/>
		<path fill="#FFFFFF" d="M3006.7,13.5l-6.2,12.6v7.4l1.1,3.4h-7.9l1.1-3.4v-7l-6.8-13l-2.1-3h7.5l0.4,2.6l3.6,7.2l0.2,0.8l0.2-0.8
			l3.6-7.2l0.4-2.6h7L3006.7,13.5z"/>
		<path fill="#FFFFFF" d="M3033.3,15h-6.8l-0.4,0.4v5.3l0.4,0.4h5.3l1.7,5.1l-2.5-0.6h-4.5l-0.4,0.4v7.2l0.9,3.8h-7.4l0.8-3V13.5
			l-0.8-3h15.1l1.9,5.7L3033.3,15z"/>
		<path fill="#FFFFFF" d="M3054.4,36.9h-15.5l0.8-3V13.5l-0.8-3h15.1l1.9,5.7l-3.4-1.1h-6.8l-0.4,0.4v4.5l0.4,0.4h5.3l1.7,5.1
			l-2.5-0.6h-4.5l-0.4,0.4v6.2l0.6,0.6h6.6l4-1.3L3054.4,36.9z"/>
		<path fill="#FFFFFF" d="M3070.8,36.9h-9.8l-2.3-2.3l-0.9-1.9v-1.1l4.5-2.3v1.3l1.3,1.3h3.8l1.5-0.8l0.8-1.5v-2.5l-1.3-1.3
			l-5.7-1.3l-3.6-3.6v-5.7l4.9-4.9h9.4l1.9,5.7l-3.4-1.1h-4.5l-1.5,0.8l-0.8,1.5v1.5l1.3,1.3l5.7,1.3l3.6,3.6v7L3070.8,36.9z"/>
		<path fill="#FFFFFF" d="M3094.7,15.4h-3.4l-0.4,0.4v17.7l1.1,3.4h-7.9l1.1-3.4V15.8l-0.4-0.4h-3.4l-4,1.3l2.1-6.2h17l2.1,6.2
			L3094.7,15.4z"/>
	</g>
	<path fill="#FFFFFF" d="M2578.9,10.9c-0.4,0-0.8,0.4-0.8,0.8v2.1c-2.1-2.5-4.5-3.6-7.4-3.6c-2.1,0-4,0.6-5.7,1.3
		c-0.8-7-5.1-10.6-10.8-10.6c-2.8,0-5.3,1.1-7.4,3.6V2.6c0-0.4-0.4-0.8-0.8-0.8h-7.4v22.8c0,10.2,8.3,12.8,14.3,12.8
		c4.3,0,7.9-1.1,11.1-3.8v-0.2c1.7,1.3,4,1.9,6.4,1.9c2.8,0,5.3-1.3,7.5-4.2v2.5c0,4.7-4,6.4-6.6,6.4c-2.8,0-5.7-0.8-7.5-2.8
		l-3.4,5.7c3.2,2.6,6.8,3.8,11.1,3.8c6.2,0,14.3-2.6,14.3-12.8v-23H2578.9z M2546.8,12c0-1.3,0.8-2.6,2.1-3.2
		c0.9-0.4,1.9-0.6,2.6-0.6c3.2,0,5.5,1.9,5.5,5.5s-2.3,5.7-5.5,5.7c-1.7,0-3.8-0.9-4.7-2.3V12L2546.8,12z M2546.6,24.5V22
		c2.3,3,4.7,4.2,7.5,4.2c2.1,0,4-0.4,5.7-1.3c0.2,1.3,0.4,2.5,0.8,3.6c-1.9,1.9-4.5,2.6-7.2,2.6
		C2550.7,30.9,2546.6,29.2,2546.6,24.5z M2577.9,26.2L2577.9,26.2c-0.9,1.3-3,2.3-4.7,2.3c-3.2,0-5.5-1.9-5.5-5.7
		c0-3.6,2.3-5.5,5.5-5.5c0,0,0,0,0.2,0c2.6,0,4.7,2.3,4.7,4.7v4.2H2577.9z"/>
</g>
<g>
	<g>
		<g>
			<path fill="#FFFFFF" d="M1574.6,24.8v8.3l-1.5,0.8l-3,3h-9.4l-4.9-4.9V15.8l5.3-5.3h10.6l2.1,6.2l-3.9-1.3h-5.2l-1.9,0.9
				l-0.9,1.9v11.5l0.8,1.5l1.5,0.8h3.8l1.1-1.1v-5.3l-1.5-3h8.3L1574.6,24.8z"/>
			<path fill="#FFFFFF" d="M1598.7,37.1h-3.4l-3.4-3.4v-6.6l-0.4-0.4h-4.9l-0.4,0.4v6.8l0.8,3h-7.2l0.8-3V13.5l-0.8-3h15.5l4.5,4.5
				v6.4l-3.4,3.4l0.9,0.9v4.7l1.3,1.3l2.3,0.8L1598.7,37.1z M1593.8,17.5L1593,16l-1.9-0.9h-4.5l-0.4,0.4v6.4l0.4,0.4h4.5l1.9-0.9
				l0.8-1.5V17.5z"/>
			<path fill="#FFFFFF" d="M1620.9,36.9h-15.5l0.8-3V13.5l-0.8-3h15.1l1.9,5.7l-3.4-1.1h-6.8l-0.4,0.4v4.5l0.4,0.4h5.3l1.7,5.1
				l-2.5-0.6h-4.5l-0.4,0.4v6.2l0.6,0.6h6.6l4-1.3L1620.9,36.9z"/>
			<path fill="#FFFFFF" d="M1641.7,36.9h-15.5l0.8-3V13.5l-0.8-3h15.1l1.9,5.7l-3.4-1.1h-6.8l-0.4,0.4v4.5l0.4,0.4h5.3l1.7,5.1
				l-2.5-0.6h-4.5l-0.4,0.4v6.2l0.6,0.6h6.6l4-1.3L1641.7,36.9z"/>
			<path fill="#FFFFFF" d="M1660.5,36.9l0.8-3v-0.4l-8.1-13.6l-0.8-1.9l0.2,1.9v14l0.8,3h-6.4l0.8-3V13.5l-0.9-3h7.4l6.6,11.1
				l0.8,1.9l-0.2-1.9v-8l-0.8-3h6.4l-0.8,3v20.4l0.8,3H1660.5z"/>
		</g>
		<g>
			<path fill="#FFFFFF" d="M1701.3,24.8v8.3l-1.5,0.8l-3,3h-9.4l-4.9-4.9V15.8l5.3-5.3h10.6l2.1,6.2l-3.9-1.3h-5.2l-1.9,0.9
				l-0.9,1.9v11.5l0.8,1.5l1.5,0.8h3.8l1.1-1.1v-5.3l-1.5-3h8.3L1701.3,24.8z"/>
			<path fill="#FFFFFF" d="M1725.4,37.1h-3.4l-3.4-3.4v-6.6l-0.4-0.4h-4.9l-0.4,0.4v6.8l0.8,3h-7.2l0.8-3V13.5l-0.8-3h15.5l4.5,4.5
				v6.4l-3.4,3.4l0.9,0.9v4.7l1.3,1.3l2.3,0.8L1725.4,37.1z M1720.5,17.5l-0.8-1.5l-1.9-0.9h-4.5l-0.4,0.4v6.4l0.4,0.4h4.5l1.9-0.9
				l0.8-1.5V17.5z"/>
			<path fill="#FFFFFF" d="M1744.8,36.9l0.4-3l-0.9-3.4l-0.4-0.4l-1.9,0.9h-3.2l-1.9-0.9l-0.4,0.4l-0.9,3.4l0.4,3h-7l1.5-3l5.7-20.9
				l-0.6-2.5h10.2l-0.6,2.5l5.7,20.9l1.5,3H1744.8z M1740.7,15.4l-0.2-1.1l-0.2,1.1l-2.4,9.8l0.3,0.8l0.8,0.4h3l0.8-0.4l0.3-0.8
				L1740.7,15.4z"/>
			<path fill="#FFFFFF" d="M1772.7,13.5l-7.2,23.4h-4.9l-7.2-23.4l-1.5-3h7.7l-0.4,3l3.8,13.6l0.2,1.5l0.2-1.5l3.8-13.6l-0.4-3h7.4
				L1772.7,13.5z"/>
			<path fill="#FFFFFF" d="M1792.2,36.9h-15.5l0.8-3V13.5l-0.8-3h15.1l1.9,5.7l-3.4-1.1h-6.8l-0.4,0.4v4.5l0.4,0.4h5.3l1.7,5.1
				l-2.5-0.6h-4.5l-0.4,0.4v6.2l0.6,0.6h6.6l4-1.3L1792.2,36.9z"/>
			<path fill="#FFFFFF" d="M1812.1,36.9h-14.7l0.8-3V13.5l-0.8-3h7.4l-0.9,3.8v17.2l0.6,0.6h5.8l4-1.3L1812.1,36.9z"/>
		</g>
		<g>
			<path fill="#FFFFFF" d="M1842.1,34.6l-2.3,2.3h-8.9l-5.3-5.3V15.8l5.3-5.3h9.4l2.1,6.2l-3.9-1.3h-4l-1.9,0.9l-0.9,1.9v10.9
				l0.9,1.9l1.9,0.9h2.6l1.3-1.3V29l4.5,2.3v1.5L1842.1,34.6z"/>
			<path fill="#FFFFFF" d="M1861.2,36.9h-9.8l-4.9-4.9V15.4l4.9-4.9h9.8l4.9,4.9V32L1861.2,36.9z M1860,17.3l-0.8-1.5l-1.5-0.8h-3
				l-1.5,0.8l-0.8,1.5v12.4l0.8,1.5l1.5,0.8h3l1.5-0.8l0.8-1.5V17.3z"/>
			<path fill="#FFFFFF" d="M1890.8,36.9l0.8-3V20.3l0.2-1.5l-0.6,1.5l-4,8.7l-2.3,6.8h-0.6l-2.3-6.8l-4-8.7l-0.6-1.5l0.2,1.5v13.6
				l0.8,3h-6.4l0.8-3V13.5l-0.8-3h7.4l5.3,12l0.2,0.9l0.2-0.9l5.3-12h7.4l-0.8,3v20.4l0.8,3H1890.8z"/>
			<path fill="#FFFFFF" d="M1919.2,36.9h-15.5l0.8-3V13.5l-0.8-3h15.1l1.9,5.7l-3.4-1.1h-6.8l-0.4,0.4v4.5l0.4,0.4h5.3l1.7,5.1
				l-2.5-0.6h-4.5l-0.4,0.4v6.2l0.6,0.6h6.6l4-1.3L1919.2,36.9z"/>
			<path fill="#FFFFFF" d="M1939.2,36.9h-14.7l0.8-3V13.5l-0.8-3h14.7l5.3,5.3v15.8L1939.2,36.9z M1938.5,17.9l-0.9-1.9l-1.9-0.9
				h-4.1l-0.4,0.4v16l0.6,0.6h4l1.9-0.9l0.9-1.9V17.9z"/>
			<path fill="#FFFFFF" d="M1966.6,13.5l-6.2,12.6v7.4l1.1,3.4h-7.9l1.1-3.4v-7l-6.8-13l-2.1-3h7.5l0.4,2.6l3.6,7.2l0.2,0.8l0.2-0.8
				l3.6-7.2l0.4-2.6h7L1966.6,13.5z"/>
		</g>
	</g>
	<path fill="#FFFFFF" d="M1538.8,10.9c-0.4,0-0.8,0.4-0.8,0.8v2.1c-2.1-2.5-4.5-3.6-7.4-3.6c-2.1,0-4,0.6-5.7,1.3
		c-0.8-7-5.1-10.6-10.8-10.6c-2.8,0-5.3,1.1-7.4,3.6V2.6c0-0.4-0.4-0.8-0.8-0.8h-7.4v22.8c0,10.2,8.3,12.8,14.3,12.8
		c4.3,0,7.9-1.1,11.1-3.8v-0.2c1.7,1.3,4,1.9,6.4,1.9c2.8,0,5.3-1.3,7.5-4.2v2.5c0,4.7-4,6.4-6.6,6.4c-2.8,0-5.7-0.8-7.5-2.8
		l-3.4,5.7c3.2,2.6,6.8,3.8,11.1,3.8c6.2,0,14.3-2.6,14.3-12.8v-23H1538.8z M1506.7,12c0-1.3,0.8-2.6,2.1-3.2
		c0.9-0.4,1.9-0.6,2.6-0.6c3.2,0,5.5,1.9,5.5,5.5s-2.3,5.7-5.5,5.7c-1.7,0-3.8-0.9-4.7-2.3V12L1506.7,12z M1506.5,24.5V22
		c2.3,3,4.7,4.2,7.5,4.2c2.1,0,4-0.4,5.7-1.3c0.2,1.3,0.4,2.5,0.8,3.6c-1.9,1.9-4.5,2.6-7.2,2.6
		C1510.6,30.9,1506.5,29.2,1506.5,24.5z M1537.8,26.2L1537.8,26.2c-0.9,1.3-3,2.3-4.7,2.3c-3.2,0-5.5-1.9-5.5-5.7
		c0-3.6,2.3-5.5,5.5-5.5c0,0,0,0,0.2,0c2.6,0,4.7,2.3,4.7,4.7v4.2H1537.8z"/>
</g>
<g>
	<g>
		<g>
			<path fill="#FFFFFF" d="M692,24.8v8.3l-1.5,0.8l-3,3H678l-4.9-4.9V15.8l5.3-5.3H689l2.1,6.2l-3.9-1.3H682l-1.9,0.9l-0.9,1.9v11.5
				l0.8,1.5l1.5,0.8h3.8l1.1-1.1v-5.3l-1.5-3h8.3L692,24.8z"/>
			<path fill="#FFFFFF" d="M716.1,37.1h-3.4l-3.4-3.4v-6.6l-0.4-0.4h-4.9l-0.4,0.4v6.8l0.8,3h-7.2l0.8-3V13.5l-0.8-3h15.5l4.5,4.5
				v6.4l-3.4,3.4l0.9,0.9v4.7l1.3,1.3l2.3,0.8L716.1,37.1z M711.2,17.5l-0.8-1.5l-1.9-0.9h-4.5l-0.4,0.4v6.4l0.4,0.4h4.5l1.9-0.9
				l0.8-1.5V17.5z"/>
			<path fill="#FFFFFF" d="M738.4,36.9h-15.5l0.8-3V13.5l-0.8-3H738l1.9,5.7l-3.4-1.1h-6.8l-0.4,0.4v4.5l0.4,0.4h5.3l1.7,5.1
				l-2.5-0.6h-4.5l-0.4,0.4v6.2l0.6,0.6h6.6l4-1.3L738.4,36.9z"/>
			<path fill="#FFFFFF" d="M759.1,36.9h-15.5l0.8-3V13.5l-0.8-3h15.1l1.9,5.7l-3.4-1.1h-6.8l-0.4,0.4v4.5l0.4,0.4h5.3l1.7,5.1
				l-2.5-0.6h-4.5l-0.4,0.4v6.2l0.6,0.6h6.6l4-1.3L759.1,36.9z"/>
			<path fill="#FFFFFF" d="M778,36.9l0.8-3v-0.4l-8.1-13.6l-0.8-1.9l0.2,1.9v14l0.8,3h-6.4l0.8-3V13.5l-0.9-3h7.4l6.6,11.1l0.8,1.9
				l-0.2-1.9v-8l-0.8-3h6.4l-0.8,3v20.4l0.8,3H778z"/>
		</g>
		<g>
			<path fill="#FFFFFF" d="M818.7,24.8v8.3l-1.5,0.8l-3,3h-9.4l-4.9-4.9V15.8l5.3-5.3h10.6l2.1,6.2l-3.9-1.3h-5.2l-1.9,0.9l-0.9,1.9
				v11.5l0.8,1.5l1.5,0.8h3.8l1.1-1.1v-5.3l-1.5-3h8.3L818.7,24.8z"/>
			<path fill="#FFFFFF" d="M842.8,37.1h-3.4l-3.4-3.4v-6.6l-0.4-0.4h-4.9l-0.4,0.4v6.8l0.8,3H824l0.8-3V13.5l-0.8-3h15.5L844,15v6.4
				l-3.4,3.4l0.9,0.9v4.7l1.3,1.3l2.3,0.8L842.8,37.1z M837.9,17.5l-0.8-1.5l-1.9-0.9h-4.5l-0.4,0.4v6.4l0.4,0.4h4.5l1.9-0.9
				l0.8-1.5V17.5z"/>
			<path fill="#FFFFFF" d="M862.3,36.9l0.4-3l-0.9-3.4l-0.4-0.4l-1.9,0.9h-3.2l-1.9-0.9l-0.4,0.4l-0.9,3.4l0.4,3h-7l1.5-3l5.7-20.9
				l-0.6-2.5h10.2l-0.6,2.5l5.7,20.9l1.5,3H862.3z M858.1,15.4l-0.2-1.1l-0.2,1.1l-2.4,9.8l0.3,0.8l0.8,0.4h3l0.8-0.4l0.3-0.8
				L858.1,15.4z"/>
			<path fill="#FFFFFF" d="M890.2,13.5L883,36.9h-4.9l-7.2-23.4l-1.5-3h7.7l-0.4,3l3.8,13.6l0.2,1.5l0.2-1.5l3.8-13.6l-0.4-3h7.4
				L890.2,13.5z"/>
			<path fill="#FFFFFF" d="M909.6,36.9h-15.5l0.8-3V13.5l-0.8-3h15.1l1.9,5.7l-3.4-1.1h-6.8l-0.4,0.4v4.5l0.4,0.4h5.3l1.7,5.1
				l-2.5-0.6h-4.5l-0.4,0.4v6.2l0.6,0.6h6.6l4-1.3L909.6,36.9z"/>
			<path fill="#FFFFFF" d="M929.6,36.9h-14.7l0.8-3V13.5l-0.8-3h7.4l-0.9,3.8v17.2l0.6,0.6h5.8l4-1.3L929.6,36.9z"/>
		</g>
	</g>
	<path fill="#FFFFFF" d="M656.2,10.9c-0.4,0-0.8,0.4-0.8,0.8v2.1c-2.1-2.5-4.5-3.6-7.4-3.6c-2.1,0-4,0.6-5.7,1.3
		c-0.8-7-5.1-10.6-10.8-10.6c-2.8,0-5.3,1.1-7.4,3.6V2.6c0-0.4-0.4-0.8-0.8-0.8h-7.4v22.8c0,10.2,8.3,12.8,14.3,12.8
		c4.3,0,7.9-1.1,11.1-3.8v-0.2c1.7,1.3,4,1.9,6.4,1.9c2.8,0,5.3-1.3,7.5-4.2v2.5c0,4.7-4,6.4-6.6,6.4c-2.8,0-5.7-0.8-7.5-2.8
		l-3.4,5.7c3.2,2.6,6.8,3.8,11.1,3.8c6.2,0,14.3-2.6,14.3-12.8v-23H656.2z M624.1,12c0-1.3,0.8-2.6,2.1-3.2c0.9-0.4,1.9-0.6,2.6-0.6
		c3.2,0,5.5,1.9,5.5,5.5s-2.3,5.7-5.5,5.7c-1.7,0-3.8-0.9-4.7-2.3V12L624.1,12z M623.9,24.5V22c2.3,3,4.7,4.2,7.5,4.2
		c2.1,0,4-0.4,5.7-1.3c0.2,1.3,0.4,2.5,0.8,3.6c-1.9,1.9-4.5,2.6-7.2,2.6C628.1,30.9,623.9,29.2,623.9,24.5z M655.2,26.2L655.2,26.2
		c-0.9,1.3-3,2.3-4.7,2.3c-3.2,0-5.5-1.9-5.5-5.7c0-3.6,2.3-5.5,5.5-5.5c0,0,0,0,0.2,0c2.6,0,4.7,2.3,4.7,4.7v4.2H655.2z"/>
</g>
<path fill="#FFFFFF" d="M40.2,10.9c-0.4,0-0.8,0.4-0.8,0.8v2.1c-2.1-2.5-4.5-3.6-7.4-3.6c-2.1,0-4,0.6-5.7,1.3
	c-0.8-7-5.1-10.6-10.8-10.6c-2.8,0-5.3,1.1-7.4,3.6V2.6c0-0.4-0.4-0.8-0.8-0.8H0.3v22.8c0,10.2,8.3,12.8,14.3,12.8
	c4.3,0,7.9-1.1,11.1-3.8v-0.2c1.7,1.3,4,1.9,6.4,1.9c2.8,0,5.3-1.3,7.5-4.2v2.5c0,4.7-4,6.4-6.6,6.4c-2.8,0-5.7-0.8-7.5-2.8L22.1,43
	c3.2,2.6,6.8,3.8,11.1,3.8c6.2,0,14.3-2.6,14.3-12.8v-23H40.2z M8.2,12c0-1.3,0.8-2.6,2.1-3.2c0.9-0.4,1.9-0.6,2.6-0.6
	c3.2,0,5.5,1.9,5.5,5.5s-2.3,5.7-5.5,5.7c-1.7,0-3.8-0.9-4.7-2.3L8.2,12L8.2,12z M8,24.5V22c2.3,3,4.7,4.2,7.5,4.2
	c2.1,0,4-0.4,5.7-1.3c0.2,1.3,0.4,2.5,0.8,3.6c-1.9,1.9-4.5,2.6-7.2,2.6C12.1,30.9,8,29.2,8,24.5z M39.3,26.2L39.3,26.2
	c-0.9,1.3-3,2.3-4.7,2.3c-3.2,0-5.5-1.9-5.5-5.7c0-3.6,2.3-5.5,5.5-5.5c0,0,0,0,0.2,0c2.6,0,4.7,2.3,4.7,4.7v4.2H39.3z"/>
</svg>
