<?xml version="1.0" encoding="utf-8"?>
<!-- Generator: Adobe Illustrator 18.0.0, SVG Export Plug-In . SVG Version: 6.00 Build 0)  -->
<!DOCTYPE svg PUBLIC "-//W3C//DTD SVG 1.1//EN" "http://www.w3.org/Graphics/SVG/1.1/DTD/svg11.dtd">
<svg version="1.1" id="Layer_1" xmlns="http://www.w3.org/2000/svg" xmlns:xlink="http://www.w3.org/1999/xlink" x="0px" y="0px"
	 viewBox="0 0 232 232" enable-background="new 0 0 232 232" xml:space="preserve">
<g id="Layer_1_1_">
</g>
<g>
	<g>
		<path fill="#FFFFFF" d="M92.4,145.8c0.1-0.1-0.1,0.8-0.7,1.4c-6.3,6.6-12.6,13.1-18.9,19.6c-4.9,5-9.8,10-14.9,14.7
			c-1,0.9-4,1.1-4.7,0.4c-1.1-1.1-2.1-4.2-1.4-5.1c3.6-4.8,7.7-9.4,11.8-13.8c7.3-7.9,14.6-15.8,22-23.6
			c5.3-5.5,10.7-10.9,16.1-16.3c2.4-2.5,4.7-5.1,7-7.7c0.2-0.2,0.1-1.2-0.2-1.4c-6.1-5.8-12.3-11.6-18.4-17.5c-2.7-2.6-5-5.7-8-8
			c-2.4-1.8-5.8-2.4-8.4-4c-3.9-2.3-5.2,0.7-6.8,2.9c-4.3,6.2-8.5,12.5-9.6,20.1c-0.6,3.9-0.7,8-1.3,11.9c-0.1,0.9-1.1,1.8-1.6,2.6
			c-0.6-0.7-1.4-1.3-1.8-2.1c-4.4-11-3.9-21.9,1.1-32.4c2.1-4.5,5-8.7,7.6-13.1c0.3-0.4,0.8-1.1,0.7-1.4c-1.6-3.2,0.2-5.4,2.5-7.1
			c2.1-1.6,4.6-2.5,6.9-3.8c3.1-1.9,6.2-3.9,9.3-5.8c7.5-4.6,15.8-6.5,24.6-6.6c3.4,0,6.9,0,10.2,0.7c2,0.4,3.6,2.2,5.4,3.4
			c-2.2,0.9-4.3,2-6.6,2.7c-3.9,1-8.2,1.1-11.9,2.7c-4.9,2.2-9.4,5.2-13.8,8.3c-2.8,1.9-4.9,3.4-3.1,8.6
			c2.9,8.3,10.5,11.5,15.2,17.6c3.6,4.6,8.2,8.3,12.2,12.4c2.3,2.4,4,2.3,6.2-0.2c4.2-4.8,8.7-9.3,13-14c0.3-0.4,0.2-1.6-0.1-2
			c-4.6-4.5-9.2-9-14.1-13.2c-4.2-3.6-0.8-5.4,1.4-7.2c4.2-3.6,8.4-7.5,13.1-10.3c7-4.3,14.6-7.8,23-8.4c6.2-0.4,12.4-0.6,18.6-0.6
			c4.3,0,6.3,2.2,7.4,7.8c1.9,9.5,0.8,18.8-3.3,27.6c-2.6,5.7-5.7,11.3-9.1,16.6c-2.6,4-6.1,7.5-9.4,11c-0.5,0.5-2.6,0.4-3.3-0.3
			c-4.3-4-8.3-8.1-12.5-12.2c-1.8-1.8-3.2-2.8-5.4-0.2c-2.8,3.4-6.4,6.2-9.5,9.2c-1.6,1.6-3.2,3.2-4.7,4.9c-0.2,0.3,0,1.2,0.3,1.6
			c4.8,4.8,9.8,9.4,14.5,14.3c7.4,7.3,14.5,14.7,21.8,22c6.1,6.2,12.3,12.2,18.3,18.3c0.6,0.6,1,1.3,1.6,2c2.2,2.4,3.2,5,0.4,7.5
			c-3.1,2.8-5.3,0.4-7.4-1.7c-7.6-7.7-15.2-15.3-22.8-23c-5.2-5.3-10.3-10.8-15.6-16.1c-4.2-4.2-8.7-8.1-13-12.2
			c-5.6-5.4-5.8-5.7-11.3-0.2c-4.8,4.8-9,10.1-13.6,15.1C96,143.4,94.4,144.2,92.4,145.8z M175.7,87.8c0.2,0,0.4,0.1,0.6,0.1
			c0.2-1.7,0.1-3.4,0.6-5c0.6-1.9,1.9-3.5,2.3-5.3c1.8-7.5,2.2-15-0.3-22.3c-0.4-1.1-1.7-2.5-2.6-2.6c-6.4-0.4-12.9-1-19.2-0.6
			c-4.8,0.3-9.6,2-14.4,3.3c-2.3,0.7-4.4,2.1-6.6,3.1c-0.7,0.3-1.4,0.7-2,1c0.5,0.7,1,1.3,1.4,2c0.6-0.5,1.3-1,1.9-1.5
			c0.8-0.6,1.5-1.8,2.4-1.9c4.8-0.4,9.8-1.2,14.5-0.5c4.9,0.8,9.8,2.8,14.1,5.2c2.5,1.4,4.9,4.7,5.5,7.4
			C175.2,76,175.2,82,175.7,87.8z M77.3,84.6c0.6,0.5,1.1,1,1.7,1.5c1-1.8,1.7-3.9,3-5.3c3.6-3.9,3.6-5.5-0.5-8.8
			c-3-2.4-6-4.9-9.2-7.1c-1.2-0.8-3.7-1.2-4.4-0.5c-2.1,2-5.4,5.8-4.8,6.7c2.5,4.2,6.2,7.8,9.7,11.3C73.8,83.6,75.7,84,77.3,84.6z
			 M157,76.4c-0.4-1.1-0.6-2.1-0.8-2.1c-1.1,0.1-2.4,0-3.2,0.6c-3.7,2.9-7.3,6-10.8,9.2c-2.7,2.5-5.1,5.3-7.7,7.8
			c-2.4,2.4-5.1,4.6-7.4,7.1c-0.4,0.5,0.6,2.6,1.4,3.4c0.8,0.9,2.7,1.9,3.3,1.5c1.7-0.8,3-2.4,4.3-3.8c5.5-5.8,11-11.6,16.3-17.5
			C154.4,80.8,155.7,78.4,157,76.4z M92.7,52.6c0,0.3-0.1,0.7-0.1,1c-0.8-0.2-1.7-0.7-2.3-0.4c-3.9,1.9-7.7,3.8-11.5,5.9
			c-1.7,0.9-3.2,2.2-4.8,3.3c-0.4,0.3-0.8,0.4-1.2,0.6c0.3,0.4,0.6,0.9,1,1.1c2.6,2.1,5.2,4.1,8,6c0.4,0.3,1.4,0.3,1.8,0
			c5.9-5.7,12-10.8,20.1-13c0.3-0.1,0.8-0.4,0.8-0.7c0-0.2-0.4-0.6-0.7-0.8c-1.8-1.1-3.5-2.6-5.5-3.1C96.5,51.9,94.5,52.5,92.7,52.6
			z M69.5,82.1c-0.3-0.4-0.6-0.8-0.8-1.1c-1.3-1.5-2.5-3.2-3.9-4.6c-1.1-1.2-2.2-2.4-3.5,0.2c-2.3,4.7-5.1,9.1-7.3,13.9
			c-0.6,1.2,0,3.2,0.6,4.6c0.4,1.2,1.4,2.3,2.5,3.1c0.3,0.3,1.6,0.2,1.9-0.1c3.5-5,6.9-10.2,10.3-15.3
			C69.2,82.5,69.3,82.3,69.5,82.1z"/>
	</g>
	<path fill="#FFFFFF" d="M116,222.8C57.1,222.8,9.2,174.9,9.2,116C9.2,57.1,57.1,9.2,116,9.2S222.8,57.1,222.8,116
		C222.8,174.9,174.9,222.8,116,222.8z M116,19.2c-53.4,0-96.8,43.4-96.8,96.8c0,53.4,43.4,96.8,96.8,96.8s96.8-43.4,96.8-96.8
		C212.8,62.6,169.4,19.2,116,19.2z"/>
</g>
</svg>
