<?xml version="1.0" encoding="utf-8"?>
<!-- Generator: Adobe Illustrator 18.1.0, SVG Export Plug-In . SVG Version: 6.00 Build 0)  -->
<!DOCTYPE svg PUBLIC "-//W3C//DTD SVG 1.1//EN" "http://www.w3.org/Graphics/SVG/1.1/DTD/svg11.dtd">
<svg version="1.1" id="Layer_1" xmlns="http://www.w3.org/2000/svg" xmlns:xlink="http://www.w3.org/1999/xlink" x="0px" y="0px"
	 viewBox="151.1 162 309.9 333.7" enable-background="new 151.1 162 309.9 333.7" xml:space="preserve">
<g>
	<path fill="#FFFFFF" d="M248.8,337.8c8.9-0.1,17.3,0,25.8,0c9.9-0.3,12.2-1.6,12.4-8.6c0.3-7-2-8.6-12.4-8.7
		c-8.9,0.1-17.3,0-26.7,0.3c0.1-4.9-0.1-9.4-0.1-14.8c10.4,0.1,20.8-0.1,30.8,0.1c6,0,8.5-2.5,8.5-8c0.4-6.5-2-9.1-8.5-9
		c-10-0.3-20.3,0.1-30.8-0.1c0.1-4.9-0.1-9.4-0.1-14.8c10.4,0.1,20.8-0.1,30.8,0.1c6.5-0.1,8.5-2.5,8.5-8.4c0-6-2.5-8.5-8-8.5
		c-10-0.3-19.4-0.1-29.2,0.1c-0.8-21.1,26.3-45.3,52.8-47c29.5-1.6,59.1,20.4,61.3,46.8c-9.9,0.3-19.4-0.1-29.2,0.1
		c-6.5,0.1-9,2.5-8.9,9c0,5.4,2.9,8,7.8,8.1c10.4,0.1,20.8-0.1,31.3,0c-0.1,4.9,0.1,9.4,0.1,14.8c-10.4-0.1-20.8,0.1-30.8-0.1
		c-6.5,0.1-8.5,2.5-8.5,8.4c0,6,2,8.6,8.4,8.5c10,0.3,20.3-0.1,30.8,0.1c-0.1,4.9,0.1,9.4,0.1,14.8c-10.4-0.1-20.3,0.1-30.8-0.1
		c-7,0.3-9,2.5-9,8.5s2.4,8,8.4,8.5c4.9,0.1,9.9-0.3,14.8-0.1c4.9,0.1,9.9-0.3,14.8-0.1c-0.9,18-21.4,44.9-53.8,47.1
		C281.2,386.7,252,364.5,248.8,337.8z"/>
	<path fill="#FFFFFF" d="M316,427.7c4.6,0.3,8.5,0,12.8-0.3c11.9-0.1,18.6,7.2,17.3,19.7c-26.7,0.3-53.6-0.1-80.3,0.1
		c-1.3-12.7,4.9-19.7,17.5-19.4c3.9-0.3,8,0.1,12.8-0.3c0-2.5,0.3-4.6,0.3-7c-5.6-1-11.3-2-16.5-3c-39.9-9.9-66.1-40.5-69.9-82
		c-0.9-8.2,3-13.9,9.9-14.6c6.3-0.6,11.1,4.4,12,12.3c3.4,28.1,15.7,49.9,43.5,59.4c30.6,10.5,59.8,7.5,84.6-15.7
		c12.4-11.5,17.1-26.8,19.2-43c0.1-2,0.6-4.6,1.4-6.2c2.2-4.8,7.6-7.3,12.8-6.2c5.7,1.5,9,5.8,8.5,11.9c-2,22.7-8.9,42.7-24.8,59.4
		c-15.2,15.1-33.7,23.2-54.9,26.5c-1.4,0.3-2.9,0.5-4.8,0.9c-0.5,0.1-1,0.1-1.9,0.4C316.2,422.7,316,424.8,316,427.7z"/>
</g>
</svg>
