<?xml version="1.0" encoding="utf-8"?>
<!-- Generator: Adobe Illustrator 18.1.0, SVG Export Plug-In . SVG Version: 6.00 Build 0)  -->
<!DOCTYPE svg PUBLIC "-//W3C//DTD SVG 1.1//EN" "http://www.w3.org/Graphics/SVG/1.1/DTD/svg11.dtd">
<svg version="1.1" id="Layer_1" xmlns="http://www.w3.org/2000/svg" xmlns:xlink="http://www.w3.org/1999/xlink" x="0px" y="0px"
	 viewBox="230.3 314 453.1 488.4" enable-background="new 230.3 314 453.1 488.4" xml:space="preserve">
<g>
	<path fill="#FFFFFF" d="M302.4,556c7.5-8.1,14-15.2,20.5-22.1c43.2-45.7,86.2-91.5,129.3-137c6.7-7.1,6.7-7.1,13.7,0.1
		c33.2,35.6,66.8,71.1,100,106.8c13.7,14.7,27,29.6,40.5,44.3c1.5,1.5,2.8,3.5,5,6.4c-4.3,0.6-7.5,1.1-10.5,1.1
		c-17,0.1-33.9,0.1-51.1,0.1c-10.1,0-10.3,0.6-10.3,10.8c0,49.7,0,99.3-0.1,149.2c0,8.9,0,8.9-9.2,8.9c-48.3,0-96.8,0-145,0
		c-9.5,0-9.6,0-9.6-9.5c-0.1-48-0.4-96.2-0.7-144.3c0-2.2-0.1-4.6,0-6.8c0.6-5.7-2.1-7.5-7.7-7.5c-19,0.1-37.7,0-56.6,0
		C308.4,556.4,306.3,556.3,302.4,556z"/>
</g>
</svg>
