<?xml version="1.0" encoding="utf-8"?>
<!-- Generator: Adobe Illustrator 18.1.0, SVG Export Plug-In . SVG Version: 6.00 Build 0)  -->
<!DOCTYPE svg PUBLIC "-//W3C//DTD SVG 1.1//EN" "http://www.w3.org/Graphics/SVG/1.1/DTD/svg11.dtd">
<svg version="1.1" id="Layer_1" xmlns="http://www.w3.org/2000/svg" xmlns:xlink="http://www.w3.org/1999/xlink" x="0px" y="0px"
	 viewBox="151.1 162 309.9 333.7" enable-background="new 151.1 162 309.9 333.7" xml:space="preserve">
<g>
	<path fill="#FFFFFF" d="M233.9,210.5c58,0,116,0,173.9,0c12.6,6,16.7,15.9,16.7,29.8c-0.5,57.6-0.2,115.3-0.2,172.8
		c0,22.7-11.4,34-34.3,34c-54.8,0-109.7-0.5-164.5,0.3c-18.8,0.3-31.4-6.3-37.9-24c0-53,0-106.1,0-159.1c5.9-12.3,15.8-18,30.2-16.4
		C215.8,231.2,217.8,217.5,233.9,210.5z M217.5,262.8c-13.4-1.2-15.2,0.3-15.3,12.5c0,46,0,91.8,0,137.8c0,14.6,5,19.7,19.2,19.7
		c56.3,0,112.8,0,169.2,0c14,0,19.2-5.1,19.2-18.8c0-58.9,0-117.8,0-176.7c0-10.7-1.7-12.2-12.5-12.3c-50.9,0-101.7,0-152.7,0
		c-11.4,0-12.9,1.5-12.9,12.8c0,40.7,0,81.4,0,122c0,15.5,0,30.8,0,46.3c0,5.3-0.5,10.8-6.9,11c-7.2,0.2-7.5-5.7-7.5-11.3
		c0.2-8.3,0-16.7,0-24.9C217.5,341.7,217.5,302.6,217.5,262.8z"/>
	<path fill="#FFFFFF" d="M280.6,240.4c7.4,0,14.9,0.2,22.2,0c6.9-0.2,10.4,2.7,10.4,9.8c-0.2,15.8,0,31.4,0,47.2c0,6-3,9.2-9.2,9.2
		c-16.1,0-32,0-48.1,0c-6.2,0-8.9-3.3-8.9-9.3c0-15.8,0-31.4,0-47.2c0-6.5,3-9.6,9.6-9.6C264.7,240.4,272.6,240.4,280.6,240.4z
		 M298.3,255.4c-12.5,0-24.5,0-36.4,0c0,12.5,0,24.3,0,36.2c12.5,0,24.2,0,36.4,0C298.3,279.3,298.3,267.4,298.3,255.4z"/>
	<path fill="#FFFFFF" d="M321.3,321.7c21.3,0,42.5-0.2,63.9,0.2c3,0,6,2.3,9,3.6c-2.9,1.1-5.7,3-8.6,3.2
		c-43.1,0.2-86.3,0.2-129.4,0.2c-0.6,0-1.4,0.2-1.8,0c-2.3-1.1-4.5-2.1-6.8-3.2c2.4-1.2,4.7-2.9,7.2-3.6c2.3-0.6,5-0.2,7.4-0.2
		C281.8,321.7,301.5,321.7,321.3,321.7z"/>
	<path fill="#FFFFFF" d="M394.1,349.5c-48.8,0-97.7,0-146.5,0c-0.2-1.1-0.3-2.1-0.6-3.2c2.7-0.8,5.4-2.3,8.3-2.3
		c43.7-0.2,87.5-0.2,131.3,0c2.7,0,5.3,1.2,8,1.8C394.4,347.1,394.2,348.3,394.1,349.5z"/>
	<path fill="#FFFFFF" d="M360.8,262c-8.6,0-17.3,0.3-25.8-0.2c-2.1-0.2-4.1-2.4-6.2-3.6c2-1.1,3.9-3,5.9-3c17.9-0.3,35.8-0.3,53.6,0
		c2,0,3.8,2.1,5.7,3.2c-1.8,1.2-3.6,3.3-5.4,3.3C379.3,262.2,370.2,262,360.8,262z"/>
	<path fill="#FFFFFF" d="M362.2,284.3c-9.2,0-18.5,0.2-27.6-0.2c-2,0-3.8-2.1-5.6-3.3c1.8-1.2,3.6-3.3,5.6-3.3
		c18.2-0.3,36.4-0.3,54.5,0c1.8,0,3.5,2.4,5.1,3.8c-1.7,1.1-3.3,2.9-5.1,2.9C380.1,284.4,371.2,284.3,362.2,284.3z"/>
	<path fill="#FFFFFF" d="M361.6,306.5c-8.9,0-17.9,0.2-26.7-0.2c-2,0-3.9-2-5.9-3c2.1-1.2,4.1-3.6,6.2-3.6c17.6-0.3,35.2-0.3,52.6,0
		c2.1,0,4.2,2.3,6.3,3.5c-2.3,1.1-4.4,3-6.6,3.2C378.9,306.6,370.2,306.5,361.6,306.5z"/>
	<path fill="#FFFFFF" d="M280.8,373.1c-9.2,0-18.5,0.2-27.6-0.2c-2,0-3.8-2.1-5.6-3.3c1.8-1.2,3.8-3.3,5.6-3.3
		c17.9-0.3,35.8-0.3,53.6,0c2,0,4.1,2,6,2.9c-2,1.4-4.1,3.6-6,3.8C298,373.2,289.3,373.1,280.8,373.1z"/>
	<path fill="#FFFFFF" d="M361.9,366.1c8.6,0,17.3-0.3,25.8,0.2c2.1,0.2,4.2,2.3,6.3,3.5c-2,1.1-3.8,3.2-5.7,3.2
		c-17.9,0.3-35.8,0.3-53.6,0c-2,0-3.9-2-5.9-3c2.1-1.2,4.1-3.5,6.2-3.6C344,365.8,353,366.1,361.9,366.1z"/>
	<path fill="#FFFFFF" d="M280.3,395.3c-8.9,0-17.9,0.3-26.7-0.2c-2.1-0.2-4.1-2.4-6-3.8c2-1.1,3.9-2.9,6-2.9
		c17.9-0.3,35.8-0.3,53.6,0c2,0,3.8,2.1,5.6,3.3c-1.8,1.2-3.6,3.3-5.6,3.3C298.2,395.4,289.3,395.3,280.3,395.3z"/>
	<path fill="#FFFFFF" d="M394.4,393.8c-2.6,0.5-5,1.4-7.5,1.5c-17,0.2-33.8,0.2-50.8-0.2c-2.4,0-4.7-2.4-7.1-3.6
		c2.3-1.1,4.5-3,6.8-3c17.3-0.3,34.6-0.2,51.7,0c2.4,0,4.7,1.2,7.1,2C394.4,391.5,394.4,392.6,394.4,393.8z"/>
	<path fill="#FFFFFF" d="M280.2,417.4c-8.6,0-17.3,0.2-25.8-0.2c-2.3-0.2-4.5-2-6.8-3c2.4-1.2,4.7-3.6,7.1-3.6
		c17-0.3,33.8-0.3,50.8,0c2.4,0,4.8,2.3,7.2,3.5c-2.6,1.1-5,3-7.5,3.2C296.8,417.7,288.6,417.4,280.2,417.4z"/>
	<path fill="#FFFFFF" d="M393.8,416.2c-2,0.5-3.9,1.2-6,1.2c-17.3,0.2-34.6,0.2-51.7-0.2c-2.4,0-4.7-2.4-7.1-3.6
		c2.3-1.1,4.5-3,6.8-3c17.3-0.3,34.6-0.3,51.7,0c2.4,0,4.8,1.7,7.2,2.6C394.4,414.2,394.1,415.1,393.8,416.2z"/>
</g>
</svg>
