<?xml version="1.0" encoding="utf-8"?>
<!-- Generator: Adobe Illustrator 18.1.0, SVG Export Plug-In . SVG Version: 6.00 Build 0)  -->
<!DOCTYPE svg PUBLIC "-//W3C//DTD SVG 1.1//EN" "http://www.w3.org/Graphics/SVG/1.1/DTD/svg11.dtd">
<svg version="1.1" id="Layer_1" xmlns="http://www.w3.org/2000/svg" xmlns:xlink="http://www.w3.org/1999/xlink" x="0px" y="0px"
	 viewBox="151.1 162 309.9 333.7" enable-background="new 151.1 162 309.9 333.7" xml:space="preserve">
<g>
	<path fill="#FFFFFF" d="M273.5,448.9c-8.6-8.6-17.2-17.2-26-26c2.8-4.7,4.5-9.9,4.2-15.7c-0.3-6.8-3.2-12.7-8.2-17.2
		c-7.2-6.7-19.2-9.6-31.4-2.7c-8.8-8.8-17.5-17.5-26-26c33.9-33.9,67.7-67.7,101.8-101.8c3.5,3.5,7.1,6.9,10.5,10.6
		c1.4,1.4,2.2,1.5,3.5,0c1.8-2.2,4-4.2,6.1-6.1c1.2-1,1-1.8,0-2.9c-3.7-3.6-7.4-7.3-11-11c13.9-13.9,27.7-27.7,41.3-41.3
		c8.6,8.6,17.2,17.2,26,26c-5.1,6.5-6.9,14.3-4.7,22.8c1.3,4.9,3.9,9.2,7.7,12.4c10.6,9,24.6,7.5,33.1,0.8
		c8.7,8.7,17.2,17.2,25.7,25.7c-13.5,13.5-27.3,27.3-41.3,41.3c-3.2-3.2-6.8-6.8-10.4-10.4c-1.7-1.7-1.8-1.7-3.5-0.1
		c-2.1,2.1-4.2,4.3-6.2,6.2c-1,0.9-0.9,1.6,0,2.5c3.8,3.7,7.5,7.4,11.1,11C341.5,381.1,307.5,414.9,273.5,448.9z M334.4,287.9
		c-0.2-0.5-0.5-0.8-0.7-1.2c-3.7-3.7-7.4-7.4-11-11c-0.8-0.8-1.5-0.8-2.3,0c-2.3,2.4-4.7,4.7-7.1,7.1c-0.8,0.8-0.7,1.3,0,2.1
		c3.7,3.7,7.5,7.4,11.2,11.2c0.8,0.8,1.4,0.8,2.2,0c2.3-2.3,4.6-4.6,6.9-6.9C334,288.8,334.2,288.4,334.4,287.9z M347,300.4
		c-0.5,0.3-0.9,0.6-1.3,0.9c-2.3,2.3-4.5,4.6-6.8,6.8c-0.9,0.9-0.9,1.5,0,2.3c3.6,3.5,7.2,7.1,10.6,10.6c1,1,1.7,0.9,2.8-0.1
		c2.2-2.3,4.4-4.5,6.7-6.7c0.9-0.9,0.9-1.5,0-2.3c-3.6-3.5-7.1-7.1-10.6-10.6C348,301.1,347.6,300.9,347,300.4z"/>
</g>
</svg>
