<?xml version="1.0" encoding="utf-8"?>
<!-- Generator: Adobe Illustrator 18.1.0, SVG Export Plug-In . SVG Version: 6.00 Build 0)  -->
<!DOCTYPE svg PUBLIC "-//W3C//DTD SVG 1.1//EN" "http://www.w3.org/Graphics/SVG/1.1/DTD/svg11.dtd">
<svg version="1.1" id="Layer_1" xmlns="http://www.w3.org/2000/svg" xmlns:xlink="http://www.w3.org/1999/xlink" x="0px" y="0px"
	 viewBox="190.4 236.1 533.1 625.4" enable-background="new 190.4 236.1 533.1 625.4" xml:space="preserve">
<path fill="#FFFFFF" d="M396.4,499.1c41.1,0,81.2,0.2,123,0c0.2,6.9,1,11.7,1,17.4c0.6,84.9,0,170.2,0.2,255.1
	c-0.2,16.6-4.1,21.3-21.1,21.1c-34.4-1.2-68.3-0.2-104.5-0.2C396.4,693.4,396,596.8,396.4,499.1z"/>
<path fill="#1BB666" d="M525.1,372.9c0.2,37.1-30.8,68.5-66.9,68.9c-37.1,0.2-69.9-32.4-69.3-69.7c0.8-37.1,31.8-67.9,69.1-67.1
	C494.1,304.7,524.5,335.9,525.1,372.9z"/>
</svg>
