<?xml version="1.0" encoding="utf-8"?>
<!-- Generator: Adobe Illustrator 18.1.0, SVG Export Plug-In . SVG Version: 6.00 Build 0)  -->
<!DOCTYPE svg PUBLIC "-//W3C//DTD SVG 1.1//EN" "http://www.w3.org/Graphics/SVG/1.1/DTD/svg11.dtd">
<svg version="1.1" id="Layer_1" xmlns="http://www.w3.org/2000/svg" xmlns:xlink="http://www.w3.org/1999/xlink" x="0px" y="0px"
	 viewBox="426.4 306 469 504.4" enable-background="new 426.4 306 469 504.4" xml:space="preserve">
<g>
	<g>
		<path fill="#FFFFFF" d="M442.4,555.1c10.7-11.5,19.7-21.5,29-31.2c61-64.6,121.8-129.4,182.9-193.7c9.5-10.1,9.5-10.1,19.4,0.2
			c47,50.4,94.4,100.5,141.4,151.1c19.4,20.7,38.1,41.9,57.3,62.6c2.2,2.2,3.9,4.9,7.1,9.1c-6.1,0.8-10.7,1.6-14.8,1.6
			c-24.1,0.2-48,0.2-72.3,0.2c-14.2,0-14.6,0.8-14.6,15.2c0,70.3,0,140.4-0.2,210.9c0,12.6,0,12.6-13,12.6c-68.3,0-136.9,0-205,0
			c-13.4,0-13.6,0-13.6-13.4c-0.2-67.9-0.6-136.1-1-204c0-3.2-0.2-6.5,0-9.7c0.8-8.1-3-10.7-10.9-10.7c-26.9,0.2-53.3,0-80,0
			C450.9,555.7,447.9,555.5,442.4,555.1z"/>
		<path fill="#1BB666" d="M764.5,802.2h-205c-8.2,0-13.6,0-17.8-4.1c-4.4-4.2-4.4-9.9-4.4-17.8c-0.2-68.6-0.6-137.4-1-204
			c0-1,0-2,0-3.1c0-2.3-0.1-4.7,0.1-7.2c0-0.1,0-0.2,0-0.3c0-0.5,0.1-0.9,0.1-1.2c-0.5-0.1-1.3-0.2-2.5-0.2
			c-8,0.1-16.8,0.1-26.7,0.1c-8.9,0-17.8,0-26.6,0c-8.9,0-17.7,0-26.6,0c-0.2,0-0.4,0-0.5,0c-3.2-0.2-6.2-0.4-11.7-0.8
			c-3.3-0.2-6.1-2.3-7.3-5.4c-1.2-3-0.5-6.5,1.7-8.9c3.7-4,7.3-7.9,10.7-11.6c6.3-6.9,12.3-13.4,18.4-19.7
			c24.5-25.9,49.4-52.3,73.4-77.8c35.8-38,72.9-77.3,109.4-115.9c5.8-6.1,9.6-10.2,15.7-10.2c6,0,9.8,3.9,16,10.3
			c0,0,0.1,0.1,0.1,0.1c20.2,21.7,40.9,43.7,60.9,65c26.4,28.2,53.7,57.3,80.5,86.1c10.8,11.6,21.6,23.5,32.1,35
			c8.2,9,16.7,18.4,25.1,27.5c1.9,1.9,3.5,4,5.3,6.5c0.7,1,1.5,2.1,2.5,3.3c1.8,2.4,2.3,5.6,1.1,8.4c-1.2,2.8-3.7,4.8-6.8,5.2
			c-1.4,0.2-2.7,0.4-3.9,0.5c-4.4,0.6-8.2,1.1-12,1.1c-24.1,0.2-47.5,0.2-72.3,0.2c-1.4,0-4.1,0-6,0.1c-0.1,1.9-0.1,4.7-0.1,6.6
			c0,69,0,140.4-0.2,210.9c0,7.9,0,13.1-4.2,17.1C777.7,802.2,772.4,802.2,764.5,802.2z M554.4,785.1c1.5,0,3.3,0,5.1,0h205
			c1.5,0,3.2,0,4.5,0c0-1.2,0-2.7,0-4.1c0.2-70.5,0.2-141.9,0.2-210.9c0-8.3,0-14.3,4.3-18.8c4.6-4.9,11.2-4.9,18.8-4.9
			c24.2,0,47,0,70.4-0.2c-7.4-8-14.8-16.2-22-24.1c-10.4-11.5-21.2-23.3-31.9-34.8c-26.7-28.8-54-57.9-80.5-86
			c-20-21.3-40.6-43.3-60.9-65c-1.2-1.3-2.6-2.7-3.6-3.7c-1,1-2.2,2.3-3.4,3.5c-36.5,38.5-73.6,77.8-109.4,115.8
			c-24.1,25.5-49,51.9-73.5,77.9c-5.5,5.7-10.9,11.5-16.5,17.7c6.5,0,13.1,0,19.6,0c8.9,0,17.7,0,26.6,0c9.9,0,18.7,0,26.7-0.1
			c4.5,0,11,0.6,15.5,5.5c3.2,3.5,4.5,8.3,3.9,14.3c-0.1,1.7-0.1,3.6,0,5.7c0,1.1,0,2.3,0,3.4c0.4,66.5,0.8,135.3,1,204
			C554.4,781.8,554.4,783.7,554.4,785.1z"/>
	</g>
</g>
</svg>
