<?xml version="1.0" encoding="utf-8"?>
<!-- Generator: Adobe Illustrator 18.1.0, SVG Export Plug-In . SVG Version: 6.00 Build 0)  -->
<!DOCTYPE svg PUBLIC "-//W3C//DTD SVG 1.1//EN" "http://www.w3.org/Graphics/SVG/1.1/DTD/svg11.dtd">
<svg version="1.1" id="Layer_1" xmlns="http://www.w3.org/2000/svg" xmlns:xlink="http://www.w3.org/1999/xlink" x="0px" y="0px"
	 viewBox="0 0 118.7 77.8" enable-background="new 0 0 118.7 77.8" xml:space="preserve">
<g>
	<path fill="#FFFFFF" d="M56.5,74.8C56.5,74.8,56.5,74.8,56.5,74.8c-0.2,0-0.4-0.1-0.5-0.2l-0.4-0.5h-0.8c-0.1,0-0.3,0-0.4-0.1
		c-0.1,0-0.1-0.1-0.2-0.1c-0.2-0.1-0.4-0.2-0.6-0.4c0,0,0,0,0,0c-0.2,0-0.6,0-0.9-0.4c0,0-0.1,0-0.2-0.1c-0.1,0-0.2-0.1-0.3-0.1
		c-0.2-0.1-0.4-0.4-0.4-0.6c0-0.3-0.1-0.6-0.3-0.9c-0.2-0.4-0.5-1-0.5-1.7c0,0,0-0.1,0-0.1c-0.4-0.3-0.6-0.7-0.8-1.1
		c-0.2-0.3-0.4-0.6-0.6-0.8c-0.3-0.2-0.4-0.6-0.4-0.8c0-0.1,0-0.1,0-0.2c-0.4-1.2-0.8-2.2-1.7-2.9c-0.1-0.1-0.3-0.2-0.4-0.4
		c0,0-0.1,0-0.1,0c-0.2,0-0.4-0.1-0.5-0.2c0,0-0.1,0-0.1,0c-0.1,0-0.1,0-0.2,0l0,0c-0.2,0-0.4,0-0.6-0.1c0,0-0.1,0-0.1-0.1L45,63.2
		L44.7,64c0,0.1-0.1,0.1-0.1,0.2l-0.8,0.9c-0.2,0.2-0.5,0.3-0.8,0.2c-1.3-0.6-2.2-1.3-3-2.2c-0.3-0.3-0.4-0.7-0.6-1
		c-0.1-0.1-0.1-0.2-0.2-0.4c-0.1-0.2-0.1-0.5,0.1-0.7l0,0L39,60c-0.1-0.1-0.2-0.3-0.5-0.5c-0.3-0.2-0.5-0.4-0.8-0.8
		c-0.2-0.3-0.5-0.6-0.8-0.9c-0.2-0.2-0.3-0.3-0.5-0.5c0,0-0.1-0.1-0.1-0.1l-0.3-0.5c-0.3,0-0.5-0.1-0.8-0.1
		c-0.3-0.1-0.5-0.1-0.7-0.1c-0.4,0.1-0.8,0-1.1-0.1c-0.1,0-0.2-0.1-0.4-0.1v0.4c0,0.4-0.3,0.7-0.7,0.7c-0.2,0-0.3,0-0.5,0
		c-0.2,0-0.3,0-0.5,0c-0.3,0-0.6,0-0.8-0.1c-0.3-0.1-0.5-0.1-0.9-0.2l-0.1,0c-0.2,0-0.4-0.1-0.6-0.1c-0.2,0-0.3-0.1-0.4-0.1
		c-0.1,0-0.1,0-0.2,0c-1,0-1.9-0.3-2.7-0.6c0,0,0,0-0.1,0l-0.1,0c0,0,0,0,0,0c-0.2,0-0.9,0-1.2-0.6c-0.3-0.2-0.6-0.4-0.9-0.5
		c-0.8-0.5-1.7-1-2.6-1.5c-0.7-0.4-1.4-0.9-2.1-1.4c-0.3-0.2-0.6-0.4-1-0.6c-0.2-0.1-0.3-0.3-0.3-0.5c0,0,0-0.1,0-0.1
		c-0.1,0-0.1,0-0.1-0.1c0,0,0,0,0,0c-0.9,0-1.9-0.1-3.1-0.2c-0.4,0-0.9-0.1-1.3-0.3c-0.4-0.2-0.5-0.6-0.6-0.8c0,0,0-0.1,0-0.1
		c-0.1-0.2-0.1-0.3-0.1-0.5c0-0.1,0.1-0.2,0.1-0.3c0,0,0,0,0-0.1c0-0.1,0-0.1-0.1-0.2c-0.2-0.7-0.5-1.3-1-1.7l-0.3,0
		c-0.4,0-0.6-0.3-0.6-0.7v-0.4l-1.1-0.5c-0.2-0.1-0.4-0.3-0.4-0.5L9,44.5l-2-0.8c-0.2-0.1-0.3-0.2-0.4-0.3l-0.2-0.4
		c-0.1-0.1-0.1-0.3-0.1-0.4c0-0.1,0-0.2,0-0.3c0-0.2,0.1-0.3,0.1-0.5c0-0.1,0.1-0.2,0.1-0.3l-0.2-0.3c-0.2-0.2-0.2-0.5-0.1-0.8
		l-0.6-0.8c-0.1-0.1-0.1-0.2-0.1-0.3c0-0.1,0-0.2,0-0.3c0,0,0,0,0-0.1c-0.2-0.2-0.3-0.4-0.2-0.6c0,0-0.1-0.1-0.1-0.1
		c-0.1-0.1-0.1-0.1-0.2-0.2C5,37.8,5,37.6,5,37.5v-0.9c0-0.2,0.1-0.5,0.3-0.6l-0.2-0.1c-0.1-0.1-0.3-0.2-0.3-0.4l-0.3-0.9
		c-0.1-0.2,0-0.4,0.1-0.6c-0.1-0.2-0.1-0.4-0.1-0.6L4.7,33c-0.4-0.4-0.7-1-0.6-1.9l-0.8-1.7c-0.1-0.2-0.1-0.3,0-0.5
		c0-0.1,0-0.1,0.1-0.2c0-0.1,0.1-0.3,0.1-0.4c0-0.1,0-0.2,0-0.3c0-0.2,0-0.6,0.2-0.9c0.1-0.2-0.1-0.7-0.2-1.1c0,0,0-0.1,0-0.1
		C3.2,25.9,3,25.6,3,25.3v-0.7c0-0.2,0.1-0.4,0.3-0.5C3.6,23.9,3.8,23.4,4,23c0.1-0.3,0.3-0.6,0.5-0.9c0,0,0-0.1,0-0.1
		c0-0.2,0-0.5,0-0.6c0-0.3,0-0.5,0.1-0.7c0,0,0,0,0-0.1c-0.3-0.5-0.2-1.2,0.1-1.7c0,0,0-0.1,0-0.3c0-0.1,0-0.3,0-0.5
		c0,0,0-0.1,0-0.1c0.2-0.5,0.5-1,0.8-1.4c0.5-0.9,1-1.8,1.3-2.8c0.2-0.7,0.5-1.4,0.7-2c0.3-0.8,0.6-1.5,0.8-2.2c0-0.1,0-0.2,0-0.2
		V8.7c0-0.2,0.1-0.5,0.4-0.6L8.6,7.8C8.5,7.5,8.6,7.2,8.9,7c0-0.2-0.1-0.4-0.1-0.5c0-0.3,0-0.5,0-0.7c0-0.3,0-0.6-0.1-0.9
		C8.3,4.2,8.6,3.3,9.3,2.7c0.3-0.2,0.7-0.2,0.9,0.1c0.5,0.5,1,0.9,1.6,1.2l-0.2-0.3c-0.1-0.2-0.1-0.5,0-0.7c0.1-0.2,0.3-0.3,0.6-0.3
		h0.3c0-0.1,0-0.3,0.1-0.4C12.7,2.1,12.9,2,13.1,2c0.1,0,0.3,0,0.4,0c0.5,0,0.9,0.1,1.3,0.2c0.1,0,0.3,0.1,0.4,0.1
		c0.6,0.1,1.3,0.3,1.9,0.5c0.4,0.1,0.7,0.2,1.1,0.3c0.6,0.1,1.2,0.3,1.7,0.4l0.6,0.1c0.5,0.1,1,0.2,1.4,0.3c0.7,0.2,1.5,0.3,2.2,0.5
		c0.1,0,0.3,0.1,0.4,0.1c0.3,0.1,0.7,0.1,1.1,0.2c0.6,0.2,1.2,0.3,1.8,0.4c0.3,0.1,0.6,0.1,0.9,0.2c0.2,0,0.3,0.1,0.5,0.1
		c0.2,0.1,0.3,0.1,0.4,0.1c0.1,0,0.2,0,0.2,0c0.1,0,0.2,0,0.3,0c0.1,0,0.5,0,0.9,0.2c0.6,0,1.1,0.1,1.7,0.3c0.3,0.1,0.7,0.1,1,0.2
		c0.3,0,0.5,0.1,0.8,0.1c0.5,0,1.1,0.1,1.6,0.2c0.2,0.1,0.4,0.1,0.6,0.1c0.3,0,0.7,0,1,0.2c0.3,0.1,0.5,0.1,0.9,0.1
		c0.2,0,0.3,0,0.5,0c0,0,0.1,0,0.1,0c0.3,0,0.4,0.1,0.5,0.2c0,0,0.2,0,0.3,0c0.1,0,0.2,0,0.4,0c0.2,0,0.4,0.1,0.6,0.1
		c0.2,0,0.4,0.1,0.5,0.1c0.1,0,0.2,0,0.3,0c0.4,0,0.7,0,0.9,0.1c0,0,0.1,0,0.2,0c0.2,0,0.4,0,0.7,0.1c0,0,0.1,0,0.3,0
		c0.2,0,0.4,0,0.6-0.1c0.4-0.1,0.7,0.1,0.9,0.2c0.1,0,0.2,0.1,0.2,0.1l0.1,0c0.9,0,1.9,0,2.9,0.2C48.4,8,48.7,8,48.9,8
		c0.1,0,0.2,0,0.3,0c0.1,0,0.2,0,0.4,0c0.4,0,1,0,1.5,0.2c0,0,0.1,0,0.2,0c0.1,0,0.2,0,0.3,0c0.1,0,0.3,0,0.4,0H53
		c0.1,0,0.2,0,0.4,0c0.2,0,0.5,0,0.7,0c0.3,0,0.6,0.1,0.7,0.1c0,0,0,0,0,0c0.2-0.1,0.5-0.1,0.7,0.1c0,0,0,0,0,0c0.1,0,0.1,0,0.2,0
		c0.1,0,0.2,0,0.4,0c1.6,0,3.2,0,4.8,0l0.4,0c0-0.2,0-0.3,0-0.5c0.1-0.2,0.3-0.4,0.6-0.4h0.7c0.3,0,0.6,0.2,0.7,0.5l0.2,1.2l1.3,0.4
		c0.3-0.2,0.6-0.2,0.7-0.2c0.1,0,0.2,0,0.3,0c0.1,0,0.2,0,0.4,0c0.2,0,0.5,0,0.6,0.2l0.4,0.5c0.2-0.1,0.5-0.1,0.7,0.1
		c0.3,0.3,0.6,0.5,0.9,0.5l0.4-0.4c0.3-0.2,0.7-0.2,0.9,0l0.3,0.3c0.1,0,0.1,0,0.2,0c0.1-0.2,0.3-0.3,0.5-0.3c0.3,0,0.5,0.1,0.6,0.3
		l0.1,0.1l0.4-0.1c0.3,0,0.6,0.1,0.7,0.4s0,0.6-0.2,0.8c-0.1,0.1-0.2,0.2-0.3,0.2c-0.2,0.1-0.3,0.2-0.4,0.3c-0.8,0.4-1.5,0.7-2,1.3
		l0,0c0.3-0.1,0.6-0.1,0.8,0.1l0.3,0.3c0.1,0.1,0.1,0.2,0.2,0.2c0,0,0,0,0,0c0.2-0.1,0.5-0.2,0.7-0.3c0.3-0.1,0.5-0.2,0.7-0.3
		c0.2-0.2,0.5-0.4,0.7-0.7c0.1-0.1,0.2-0.3,0.4-0.4l0.1-0.1c0.6-0.6,1.3-0.8,2.2-0.5c0.3,0.1,0.5,0.3,0.5,0.6c0,0.3-0.1,0.5-0.4,0.7
		c-0.1,0.1-0.2,0.1-0.3,0.2c0.1,0,0.3,0.1,0.4,0.2l0.6,0.7l0,0c0.2-0.1,0.5-0.1,0.7,0l0.1,0.1c1.1-0.6,1.9-0.9,2.8-0.9
		c0.2,0,0.4,0,0.6,0c0.3,0,0.5,0.3,0.6,0.5c0.2,0,0.4,0,0.4-0.1c0.2-0.1,0.4-0.1,0.6-0.1c0.2,0.1,0.3,0.2,0.4,0.4l0.1,0.3
		c0.1,0.1,0.1,0.3,0.2,0.4l0.2-0.1c0.2-0.1,0.5-0.1,0.6,0c0.2,0.1,0.3,0.3,0.3,0.6v0.4c0,0.3-0.2,0.6-0.6,0.7l-0.5,0.1
		c0.2,0.1,0.3,0.1,0.5,0.2c0.2,0,0.3,0.1,0.5,0.2c0.2,0.1,0.3,0.2,0.4,0.3l0.3,0.7c0.1,0.2,0.1,0.3,0,0.5l0,0
		c0.1,0.1,0.2,0.3,0.2,0.5v1.2c0,0.1,0,0.2,0,0.2H86c0.3,0,0.6,0.2,0.6,0.5l0.9,3c0.1,0.2,0,0.4-0.1,0.5l0.1,0.2
		c0.1,0.2,0,0.4-0.1,0.6C87.4,25.9,87.2,26,87,26l0,0l0,0.2c0,0.2-0.1,0.3-0.2,0.4l-0.2,0.2c0,0.4-0.2,0.7-0.3,0.9l1,0.4l0.8-0.4
		c0.1-0.1,0.3-0.1,0.4-0.1c0,0,0.1-0.1,0.1-0.1c0.4-0.4,0.9-0.9,1.5-1.2c0.6-0.2,1-0.6,1.5-1l0.3-0.2c0.3-0.3,0.6-0.7,0.9-1
		c0,0,0-0.1,0.1-0.1c-0.1-0.1-0.1-0.2-0.2-0.3c-0.1-0.2-0.1-0.4-0.2-0.6c0-0.1,0-0.2,0-0.3c-0.1-0.4,0.1-0.7,0.5-0.8
		c0.2,0,0.3-0.1,0.5-0.1c0.3-0.1,0.6-0.1,0.7-0.2c0.4-0.2,0.8-0.3,1.2-0.3c0.2,0,0.4,0.1,0.5,0.1c0.1,0,0.2,0.1,0.2,0.1
		c0.1,0,0.2,0,0.3-0.1c0.1,0,0.2-0.1,0.3-0.1c0,0,0.1,0,0.1,0l0.8-0.7l-0.1-0.4c-0.1-0.1-0.2-0.3-0.2-0.5v-0.6
		c0-0.2,0.1-0.4,0.2-0.5c0.1-0.1,0.2-0.2,0.3-0.3c0.1-0.1,0.3-0.2,0.3-0.3c0.2-0.7,0.7-1.2,1.1-1.6c0.1-0.1,0.3-0.3,0.4-0.4
		c0.1-0.1,0.2-0.2,0.4-0.2l5.7-1.2l0.3-0.7c0.1-0.2,0.3-0.3,0.5-0.4c0.1,0,0.1,0,0.2,0c0,0,0.1,0,0.1-0.1c0-0.2,0-0.3,0.1-0.5
		l0.4-0.6c-0.1-0.3-0.1-0.7-0.1-0.9c0-0.1,0-0.1,0-0.2c0-0.3,0.1-0.5,0.2-0.7c0,0,0,0,0,0c-0.1-0.2-0.2-0.4-0.1-0.6
		c0.1-0.2,0.1-0.4,0.2-0.6c0.1-0.4,0.3-0.8,0.4-1.2c0.1-0.3,0.3-0.9,0.8-1.2c0.2-0.1,0.3-0.1,0.5-0.1c0.2,0,0.3,0.1,0.4,0.3l0.1,0.1
		l0.7-0.5c0.2-0.2,0.5-0.2,0.8,0l1,0.6c0.1,0.1,0.2,0.2,0.3,0.4l0.9,3.3l0.5,0.2c0.2,0.1,0.3,0.2,0.3,0.4l0.1,0.3
		c0.2,0,0.3,0.1,0.4,0.2l0.7,0.7c0.1,0.1,0.2,0.3,0.2,0.5V14c0,0.2-0.1,0.5-0.3,0.6c-0.1,0.1-0.2,0.1-0.3,0.2
		c-0.1,0-0.3,0.1-0.3,0.2l0,0c0,0,0,0,0,0c0,0.2-0.2,0.5-0.4,0.6c-0.1,0-0.2,0.1-0.3,0.1l-0.4,0.6c-0.1,0.2-0.3,0.3-0.4,0.3
		c0,0.3-0.3,0.5-0.5,0.5c-0.1,0-0.2,0-0.3,0c0,0.2-0.1,0.3-0.2,0.4c-0.1,0.1-0.2,0.2-0.3,0.3c-0.1,0-0.2,0.1-0.2,0.1
		c-0.3,0.6-0.8,0.6-1,0.6c0,0,0,0,0,0c-0.2,0.6-0.4,1.3-0.5,1.9l0,0.1l0.3,0.2c0.2,0.1,0.3,0.3,0.3,0.5c0,0.2-0.1,0.4-0.2,0.6
		c-0.1,0-0.1,0.1-0.1,0.1c0.2,0.2,0.4,0.4,0.5,0.6c0.1,0.1,0.1,0.2,0.2,0.3l0.5-0.3c0.2-0.1,0.5-0.1,0.7,0c0.2,0.2,0.3,0.4,0.3,0.7
		c-0.2,0.9-0.8,1.2-1.2,1.4c-0.1,0.1-0.2,0.1-0.3,0.2c-0.2,0.1-0.4,0.2-0.6,0.2c0,0,0,0,0,0c-0.2,0.2-0.4,0.3-0.7,0.4
		c-0.1,0.2-0.2,0.4-0.5,0.5c-0.1,0-0.2,0.1-0.4,0.1c0,0,0,0.1,0.1,0.1c0.1,0.2,0,0.5-0.1,0.7c-0.6,0.7-2,1.4-3.1,1.9
		c0,0.1,0.1,0.2,0,0.4l-0.2,1.3c0.1,0.2,0.1,0.4,0,0.7l-0.2,0.4c0,0,0,0.1,0,0.2c0,0.1,0,0.3-0.1,0.4l-0.9,1.8c0,0,0,0,0,0.1
		c0,0.1,0,0.2,0,0.4c0,0.4,0.1,0.8-0.1,1.2c-0.1,0.2-0.1,0.3-0.1,0.5c0,0.1,0,0.3,0,0.4c0,0.1,0,0.2-0.1,0.2
		c-0.4,0.6-0.6,1.3-0.6,2.1c0,0.1,0,0.2-0.1,0.3c0,0.1,0.1,0.1,0.1,0.2c0,0.1,0.1,0.2,0.1,0.3c0,0.2,0.1,0.4,0.2,0.5
		c0.1,0.2,0.2,0.4,0.3,0.5c0.1,0.1,0.1,0.2,0.2,0.3c0.1,0.1,0.1,0.3,0.1,0.3c0.5,0.4,0.5,1,0.4,1.2c0,0,0,0.1,0,0.1
		c0.1,0.2,0.1,0.4,0,0.6c-0.1,0.2-0.3,0.3-0.5,0.4c0,0-0.1,0.1-0.1,0.2c-0.1,0.2-0.2,0.4-0.4,0.6c0,0,0.1,0.1,0.1,0.1
		c0.1,0.2,0.1,0.4,0.1,0.6l-0.3,1c-0.1,0.2-0.2,0.4-0.5,0.4c-0.2,0.1-0.4,0-0.6-0.1c0,0-0.1,0-0.1,0.1c-0.1,0-0.2,0.1-0.3,0.1
		c-0.8,0.3-1.2,1.1-1.5,2.1c-0.1,0.4-0.5,0.6-0.8,0.5c-0.4-0.1-0.5,0-0.9,0.6c-0.1,0.2-0.3,0.3-0.4,0.5v0.7c0,0.2-0.1,0.4-0.3,0.5
		L97.1,52c-0.3,0.8-0.9,1.3-1.5,1.6c0,0.2-0.1,0.3-0.2,0.4l-0.7,0.5c0,0.5-0.2,0.9-0.3,1.2c-0.1,0.2-0.2,0.4-0.2,0.6
		c-0.1,0.4-0.1,0.6-0.2,0.8c0,0.2-0.1,0.4-0.1,0.4c0,0,0,0,0,0.1c0.1,0.2,0.1,0.5-0.1,0.7c0,0.1,0.1,0.2,0.1,0.3
		c0.2,0.5,0.3,1,0.5,1.5c0.2,0.8,0.7,1.5,1.2,2.2l0.2,0.2c0.2,0.3,0.5,0.7,0.7,1c0.1,0.1,0.2,0.3,0.3,0.4c0.2,0.2,0.2,0.5,0,0.7
		c0,0,0,0,0,0.1c0,0,0,0,0,0c0.1,0.4,0.3,0.7,0.4,1c0.6,1,1.4,2.5,1.7,3.8c0,0.2,0,0.3-0.1,0.5c0,0,0,0.1,0,0.1
		c0.1,0.2,0.1,0.4,0.1,0.8c-0.1,0.5-0.1,1-0.4,1.5c0,0,0,0.1,0,0.2c0,0.1,0,0.3,0,0.4c0,0.1,0,0.2-0.1,0.3l-0.2,0.3
		c-0.1,0.2-0.2,0.3-0.4,0.3l-1.4,0.5c-0.2,0.1-0.4,0-0.5,0l-0.6-0.3c-0.2-0.1-0.3-0.2-0.3-0.4c-0.1-0.2,0-0.4,0.1-0.5l0,0
		c0,0-0.1-0.1-0.1-0.1c-0.3-0.5-0.4-0.5-0.6-0.5c-0.3,0.1-0.6-0.1-0.8-0.4l-0.1-0.3c-0.1-0.2-0.1-0.4-0.2-0.6c-0.1,0-0.2,0-0.3,0
		c-0.2,0-0.3-0.2-0.4-0.3l-0.2-0.4c0-0.1-0.1-0.2-0.1-0.3c-0.3-0.3-0.6-0.7-0.7-1c-0.2-0.3-0.3-0.6-0.6-0.8
		c-0.2-0.1-0.3-0.3-0.3-0.5c0-0.1,0-0.2,0.1-0.3l-0.4-0.3c-0.3-0.2-0.3-0.6-0.1-0.9l0,0c-0.1-0.2-0.1-0.4,0-0.5
		c0.2-0.4,0.2-0.8,0-1.5c0-0.1,0-0.2-0.1-0.3c0,0,0-0.1,0-0.2c-0.8-0.4-1-0.6-1.4-1c-0.1-0.1-0.1-0.2-0.2-0.3
		c-0.1-0.1-0.2-0.2-0.3-0.3c-0.2-0.2-0.3-0.4-0.5-0.5c-0.1,0-0.2-0.1-0.4-0.1c0,0-0.1,0-0.1,0c-0.2,0.2-0.4,0.4-0.6,0.5
		c-0.1,0-0.1,0.1-0.2,0.1c-0.1,0.2-0.3,0.3-0.5,0.4L85,63c-0.3,0.1-0.6-0.1-0.8-0.4c-0.4-0.8-1-1.2-2-1.3c-0.2,0-0.3-0.1-0.4-0.2
		L81,61.4c-0.2,0.1-0.4,0-0.5,0c0,0,0,0,0,0c-0.3,0.2-0.6,0.3-0.9,0.4c-0.1,0-0.2,0.1-0.3,0.1c-0.2,0.1-0.4,0-0.6-0.1
		c-0.1,0-0.1-0.1-0.2-0.1c-0.1,0-0.1,0-0.2,0l-0.9,0c-0.2,0-0.4,0-0.6,0c0,0,0,0,0,0c-0.3,0-0.5,0-0.7,0.1l0.2,0.7
		c0.1,0.3,0,0.6-0.2,0.7c0.1,0,0.2,0.1,0.3,0.2c0.9,0.8,0.6,1.4,0.3,1.8c-0.1,0.2-0.3,0.3-0.5,0.3h-0.6c-0.2,0-0.4-0.1-0.6-0.3
		c-0.1-0.1-0.3-0.2-0.5-0.4c0,0,0,0-0.1,0l-0.2,0.5c-0.1,0.2-0.3,0.4-0.6,0.4c-0.3,0-0.5-0.1-0.6-0.3l-0.1-0.2l-0.5,0.2
		c-0.2,0.1-0.4,0.1-0.6,0l-0.2-0.1c-0.2-0.1-0.3-0.1-0.5-0.2c-0.1-0.1-0.3-0.1-0.5-0.2l-0.2-0.1c-0.2-0.1-0.3-0.3-0.4-0.5
		c0-0.1,0-0.2,0-0.3c-0.2-0.1-0.3-0.2-0.5-0.3c-0.1,0.3-0.4,0.5-0.7,0.5c-0.1,0-0.3,0-0.4,0l-0.2,0c-0.4,0-0.9,0-1.4-0.3
		c-0.2-0.1-0.7-0.1-1-0.2c-0.8,0-1.6,0.3-2.4,0.7l-0.2,0.1c-0.2,0.5-0.6,0.7-1,0.8c-0.4,0.7-1,1-1.6,1.3c-0.3,0.1-0.7,0.2-1.1,0.3
		c0,0.2-0.1,0.5-0.3,0.6l-1.3,1c-0.1,0.1-0.2,0.1-0.2,0.1c-0.1,0.1-0.2,0.2-0.2,0.3c0,0.1,0,0.1,0,0.2c-0.1,0.2-0.1,0.3-0.2,0.5
		c-0.1,0.3-0.2,0.6-0.2,0.8c0,0.2,0,0.3-0.1,0.5c0,0-0.1,0.1-0.1,0.1c0,0.4,0.2,0.9,0.3,1.4c0.1,0.3,0.2,0.6,0.3,0.9
		c0.1,0.2,0,0.5-0.2,0.6L57,74.6C56.8,74.8,56.7,74.8,56.5,74.8z M94.8,71.2c0.7,0.1,1.1,0.7,1.4,1c0.1,0.1,0.2,0.3,0.3,0.4
		c0.1,0.1,0.2,0.2,0.2,0.4l0.5-0.2c0,0,0,0,0-0.1c0-0.3-0.1-0.6,0.1-1c0.2-0.3,0.2-0.6,0.3-1c0,0,0-0.1-0.1-0.2
		c-0.1-0.2-0.2-0.6-0.1-0.9c-0.2-0.9-0.8-2.1-1.4-3.2c-0.3-0.4-0.4-0.8-0.6-1.2c0-0.1-0.1-0.2-0.1-0.3c-0.1-0.2-0.1-0.4,0-0.6
		c0,0,0,0,0-0.1c-0.2-0.3-0.5-0.7-0.7-1.1L94.5,63c-0.5-0.8-1-1.6-1.3-2.6c-0.1-0.5-0.3-0.9-0.4-1.4c-0.1-0.2-0.1-0.4-0.2-0.7
		c-0.1-0.2,0-0.4,0.1-0.6c0-0.3,0-0.5,0.1-0.9c0-0.2,0.1-0.5,0.2-0.8c0.1-0.3,0.2-0.6,0.3-0.8c0.1-0.3,0.3-0.6,0.2-1
		c0-0.2,0.1-0.4,0.2-0.6l0.4-0.4c0-0.1,0-0.1,0-0.2c0-0.2,0.2-0.4,0.4-0.5c0.8-0.3,1.2-0.7,1.4-1.3c0-0.2,0.1-0.3,0.3-0.4l0.6-0.4
		v-0.6c0-0.2,0.1-0.4,0.3-0.5c0.2-0.1,0.3-0.3,0.5-0.5c0.3-0.4,0.8-1.1,1.7-1.1c0.3-1,0.9-2,2.1-2.5c0,0,0.1,0,0.1-0.1
		c0.1,0,0.2-0.1,0.2-0.1c0,0-0.1-0.1-0.1-0.1c-0.1-0.2-0.1-0.4-0.1-0.6l0.1-0.2l-0.1-0.1c-0.2-0.2-0.3-0.6-0.1-0.8l0.1-0.1
		c0.2-0.3,0.5-0.4,0.8-0.3l0.3,0.1c0.1-0.1,0.1-0.3,0.2-0.4c-0.1,0-0.2,0-0.2-0.1l-0.3,0.1c-0.3,0.1-0.6,0-0.8-0.2l-0.1-0.1
		c-0.4-0.5,0-1,0-1c0.3-0.3,0.6-0.5,0.8-0.6c0-0.1-0.1-0.2-0.1-0.3c-0.1-0.2-0.1-0.3-0.2-0.5h0c-0.2,0-0.4-0.1-0.6-0.3l-0.6-0.9
		c-0.1-0.2-0.1-0.5,0-0.7l0.1-0.1l-0.2-0.9c-0.2-0.1-0.4-0.2-0.6-0.4c-0.1,0-0.3,0-0.4,0c-0.2,0-0.4-0.1-0.5-0.3
		C99,36.2,99,36,99,35.8l0-0.1c0.1-0.5,0.5-0.6,0.7-0.6c0,0,0.1,0,0.1,0c0,0,0,0,0.1,0c0,0,0,0,0.1,0l-0.4-1.1
		c-0.1-0.2-0.1-0.4,0-0.6c-0.1-0.2-0.1-0.4,0-0.5l0.4-0.8c0.1-0.2,0.2-0.3,0.4-0.4c0.2,0,0.4,0,0.5,0.1c0.3,0.1,0.4,0.3,0.4,0.6
		c0,0.2,0.1,0.5,0.1,0.8l0,0.2c0.1,0.2,0.1,0.4,0,0.6c0,0,0.1,0.1,0.1,0.1c0.1,0.2,0.1,0.4,0.1,0.5l-0.1,0.2c0.1,0,0.3,0.1,0.4,0.2
		c0.2,0.1,0.3,0.3,0.4,0.4c0,0,0,0,0,0c0-0.2,0.1-0.4,0.2-0.7c0-0.1,0-0.3,0-0.5c0-0.1,0-0.1,0-0.2c0,0-0.1,0-0.1,0
		c-0.2-0.1-0.4-0.2-0.4-0.4l-0.6-1.4c-0.1-0.3,0-0.6,0.2-0.8c0.2-0.2,0.6-0.2,0.8,0c0.1,0.1,0.2,0.2,0.3,0.3
		c0.1,0.1,0.2,0.1,0.2,0.2c0.1,0,0.2,0,0.3,0l0.2-0.4c0-0.2,0-0.3,0.1-0.5l0.2-0.4c0-0.1,0-0.2,0-0.3l0.2-1.2l-0.4-0.2
		c-0.2-0.1-0.3-0.4-0.3-0.7c0-0.3,0.2-0.5,0.5-0.6c0.1,0,0.2-0.1,0.3-0.1c-0.1-0.2-0.1-0.4-0.1-0.6c0.3-0.7,0.8-1,1.1-1.2
		c0.1-0.1,0.2-0.1,0.3-0.2c0.1-0.2,0.2-0.3,0.4-0.4l0.7-0.2c0.6-0.2,1.2-0.4,1.7-0.6c0-0.1,0.1-0.2,0.1-0.3c0.1-0.2,0.3-0.3,0.5-0.3
		c0.3,0,0.4-0.1,0.5-0.5c0-0.1,0-0.1,0.1-0.2c0,0-0.1-0.1-0.1-0.1c0,0,0-0.1-0.1-0.1c-0.2,0.1-0.4,0.1-0.6,0
		c-0.2-0.1-0.4-0.4-0.4-0.6c0-0.4,0.2-0.8,0.3-1l-0.1,0c-0.2-0.2-0.4-0.5-0.3-0.7l0.2-0.6c0.2-0.7,0.4-1.4,0.6-2
		c0.1-0.2,0.2-0.4,0.3-0.4l0,0c0.3-0.4,0.7-0.4,0.9-0.4c0.2-0.2,0.4-0.4,0.6-0.5c0,0,0,0,0,0v-0.4c0-0.2,0.1-0.3,0.1-0.4l0.4-0.5
		c0.1-0.2,0.4-0.3,0.6-0.3c0,0,0.1,0,0.1,0c0,0,0.1,0,0.1-0.1c0.2-0.1,0.3-0.1,0.5,0l0.4-0.6c0.1-0.2,0.3-0.3,0.5-0.3c0,0,0,0,0,0
		c0.2-0.2,0.4-0.4,0.6-0.5l-0.1-0.1c-0.1,0-0.3,0-0.5,0c-0.2-0.1-0.3-0.2-0.4-0.4l-0.3-0.7l-0.5-0.2c-0.2-0.1-0.3-0.2-0.4-0.4
		l-0.9-3.3L111,8.1l-0.9,0.6c-0.2,0.1-0.3,0.2-0.5,0.1c-0.1,0-0.2-0.1-0.3-0.1c-0.1,0.3-0.2,0.7-0.3,1c0,0.1-0.1,0.1-0.1,0.2
		c0.2,0.4,0,0.9-0.1,1.1c0,0-0.1,0.1-0.1,0.1c0,0.1,0,0.2,0,0.3c0,0.1,0,0.2,0,0.3c0.3,0.2,0.3,0.6,0.1,0.9l-0.4,0.6
		c0.1,0.2,0.1,0.4,0,0.6l-0.3,0.6c-0.1,0.2-0.3,0.3-0.5,0.4c0,0-0.1,0-0.1,0c-0.1,0.1-0.2,0.2-0.4,0.2c0,0-0.1,0-0.1,0l-0.2,0.4
		c-0.1,0.2-0.3,0.3-0.5,0.4l-5.8,1.3c-0.1,0.1-0.2,0.2-0.3,0.3c-0.3,0.3-0.6,0.6-0.8,1c-0.1,0.4-0.4,0.6-0.6,0.8
		c0.3,0.4,0.2,0.7,0.2,0.8c0,0,0,0.1-0.1,0.1l0.1,0.4c0.1,0.3,0,0.5-0.2,0.7l-1.3,1.1c-0.1,0.1-0.2,0.2-0.4,0.2c0,0-0.1,0-0.1,0
		c0,0,0,0-0.1,0c-0.1,0-0.1,0-0.2,0.1c-0.2,0.1-0.5,0.2-0.7,0.2c-0.3,0-0.5-0.1-0.6-0.1c-0.1,0-0.2-0.1-0.2-0.1
		c-0.1,0-0.3,0-0.4,0.1c-0.3,0.2-0.6,0.3-0.9,0.3c0,0.1,0.1,0.1,0.1,0.2c0.1,0.1,0.1,0.2,0.2,0.2c0.2,0.3,0.2,0.6,0,0.8
		c-0.1,0.1-0.3,0.3-0.4,0.5c-0.3,0.4-0.7,0.8-1.1,1.2l-0.2,0.2c-0.6,0.5-1.1,1-1.9,1.3c-0.4,0.1-0.7,0.5-1,0.8
		c-0.2,0.2-0.4,0.4-0.6,0.6c-0.2,0.2-0.5,0.2-0.7,0.1l-0.7,0.4c-0.2,0.1-0.4,0.1-0.5,0l-2-0.7c-0.2-0.1-0.4-0.2-0.4-0.4
		c-0.2-0.6,0.2-1.1,0.4-1.3c0,0,0.1-0.1,0.1-0.1c-0.1-0.3-0.1-0.6,0.1-0.8l0.3-0.3l0-0.5c0-0.3,0.2-0.5,0.5-0.6c0-0.1,0-0.2,0.1-0.3
		l-0.7-2.1h0c-0.1,0.1-0.1,0.2-0.2,0.3c-0.2,0.4-0.6,0.9-1.3,1.1c-0.2,0-0.4,0-0.6-0.1c-0.2-0.1-0.2-0.3-0.2-0.5v-0.8
		c0-0.1,0-0.2,0.1-0.3l0.7-1.3v-0.8l-0.2-0.2c-0.2-0.2-0.3-0.6-0.1-0.9c0,0-0.1,0-0.1,0c-0.5-0.1-1-0.3-1.4-0.7c-0.1,0-0.2,0-0.3,0
		l-0.1,0c0,0.1,0,0.2,0,0.3c0,0.2-0.1,0.4-0.3,0.5l-0.4,0.3v1c0,0.4-0.3,0.7-0.7,0.7l-0.2,0c0,0,0,0,0,0c-0.2,0-0.3-0.1-0.5-0.2
		l-0.1,0.2c0,0,0,0,0,0c0,0.2,0.1,0.5,0,0.7c-0.1,0.4-0.2,0.7-0.4,0.9c0.2,0.2,0.3,0.5,0.2,0.8c0,0.1-0.1,0.2-0.1,0.3
		c0,0-0.1,0.1-0.1,0.2c0,0,0,0,0,0c0.4,0.6,0.6,1.2,0.7,1.8l0.1,0.2c0.1,0.2,0.2,0.9,0,1.4c-0.1,0.2-0.2,0.5-0.3,0.8
		c-0.1,0.2-0.1,0.4-0.2,0.6c-0.4,0.9-1.1,1.5-2.1,1.6c-0.2,0-0.3,0-0.4-0.1c-0.6-0.4-0.8-1-0.9-1.4c-0.1-0.3-0.1-0.5-0.3-0.6
		c-0.1-0.1-0.2-0.2-0.2-0.4c0-0.2,0-0.5,0-0.7c0-0.4,0-0.8-0.1-1.1c-0.2-0.8-0.2-1.4,0.2-1.9c0-0.1,0-0.1,0-0.3
		c-0.1-0.5,0-0.9,0.1-1.1c0-0.1,0.1-0.3,0.1-0.3c0,0,0-0.1,0-0.1c-0.1,0-0.2,0-0.2,0c-0.3-0.1-0.5-0.3-0.5-0.5l-0.1-0.6
		c0-0.2,0-0.5,0.2-0.6l0.4-0.4c0-0.1,0-0.2,0.1-0.3c0,0,0-0.1,0-0.1l0.8-1.5c0.1-0.1,0.1-0.2,0.2-0.3l0.8-0.6
		c0.2-0.1,0.4-0.1,0.6-0.1c0,0,0,0,0,0l0.2-0.3c0.1-0.1,0.3-0.2,0.5-0.2h0.5l0.3-0.3c0.1-0.1,0.3-0.2,0.5-0.2h0.7c0,0,0,0,0,0
		c-0.1,0-0.2-0.1-0.3-0.2c-0.1-0.1-0.2-0.3-0.2-0.4c-0.6,0-1.2,0.3-2.4,1c-0.2,0.1-0.5,0.1-0.7,0l-0.1-0.1L77,16.2
		c-0.3,0.1-0.6,0.1-0.8-0.2l-0.7-0.9l-0.8,0.1c-0.2,0-0.4-0.1-0.6-0.2c-0.1-0.1-0.1-0.2-0.1-0.2c-0.1,0.1-0.3,0.2-0.4,0.4
		c-0.3,0.2-0.7,0.3-1,0.4c-0.2,0.1-0.4,0.1-0.5,0.2c-0.2,0.1-0.3,0.2-0.5,0.3c-0.1,0.1-0.2,0.1-0.3,0.2c-0.3,0.2-0.6,0.2-0.8-0.1
		l0,0c-0.1,0-0.2,0-0.3,0c-0.2,0-0.4-0.2-0.5-0.4l-0.1-0.2l-0.5,0.2c-0.1,0-0.2,0.1-0.3,0.1h-0.8c-0.2,0-0.4-0.1-0.5-0.3
		c-0.1-0.2-0.2-0.4-0.1-0.6c0-0.1,0.1-0.3,0.3-0.5c0.5-0.4,1-0.9,1.4-1.4c0.4-0.4,0.8-0.8,1.2-1.1c-0.1,0-0.1-0.1-0.2-0.1l-0.1-0.1
		L69.7,12c-0.1,0.1-0.2,0.2-0.4,0.2c-0.1,0-0.2,0-0.4,0c-0.6,0-1-0.2-1.5-0.6c-0.3,0.2-0.6,0.1-0.8-0.1l-0.6-0.6c-0.1,0-0.2,0-0.3,0
		c-0.1,0-0.2,0-0.2,0c-0.1,0-0.1,0-0.1,0c-0.2,0.2-0.5,0.3-0.7,0.2l-2-0.6c-0.2-0.1-0.4-0.3-0.5-0.5l-0.1-0.3c0,0,0,0,0,0
		c-0.1,0-0.2,0.1-0.4,0.1l-0.8,0c-1.6,0-3.2,0-4.8,0l0,0c-0.1,0-0.1,0-0.2,0c-0.3,0-0.7,0-0.9-0.1c-0.3,0-0.5-0.1-0.7-0.1
		c0,0,0,0-0.1,0c-0.2,0-0.5,0-0.8,0c-0.1,0-0.2,0-0.3,0h-1.1c-0.1,0-0.2,0-0.3,0c-0.4,0-0.7,0-1-0.1c-0.4-0.2-0.9-0.1-1.4-0.1
		c-0.1,0-0.2,0-0.3,0c-0.3,0-0.6,0-1-0.1c-0.8-0.2-1.7-0.2-2.6-0.2l-0.1,0c-0.3,0-0.5-0.1-0.7-0.2c-0.1,0-0.2-0.1-0.2-0.1
		c-0.2,0-0.5,0.1-0.8,0.1c-0.3,0-0.6,0-0.8-0.1c-0.1,0-0.1,0-0.2,0c-0.2,0-0.4,0-0.6-0.1c0,0,0,0-0.1,0c-0.1,0-0.2,0-0.2,0
		c-0.2,0-0.4,0-0.6,0c-0.2,0-0.5-0.1-0.7-0.1c-0.2,0-0.3-0.1-0.5-0.1c-0.1,0-0.1,0-0.2,0c-0.3,0-0.6,0-1-0.2c0,0,0,0,0,0
		c-0.1,0-0.3,0-0.4,0c-0.4,0-0.9,0-1.4-0.2c-0.1-0.1-0.3-0.1-0.6-0.1c-0.3,0-0.6,0-0.9-0.1c-0.4-0.1-0.8-0.1-1.3-0.2
		c-0.3,0-0.6,0-1-0.1c-0.4-0.1-0.7-0.1-1.1-0.2c-0.6-0.1-1.1-0.2-1.7-0.2c-0.2,0-0.4-0.1-0.5-0.2c0,0,0,0-0.1,0c-0.1,0-0.1,0-0.2,0
		c-0.1,0-0.2,0-0.3,0l-0.1,0c-0.3,0-0.6-0.1-0.8-0.2c-0.1,0-0.2-0.1-0.3-0.1c-0.3-0.1-0.6-0.1-0.9-0.2c-0.6-0.1-1.3-0.2-2-0.4
		c-0.3-0.1-0.6-0.1-0.9-0.2c-0.2,0-0.3-0.1-0.5-0.1c-0.8-0.1-1.5-0.3-2.3-0.5c-0.5-0.1-0.9-0.2-1.4-0.3l-0.6-0.1
		c-0.6-0.1-1.2-0.3-1.8-0.4c-0.4-0.1-0.7-0.2-1.1-0.3c-0.6-0.2-1.2-0.3-1.8-0.5c-0.2,0-0.3-0.1-0.5-0.2c-0.1,0-0.2-0.1-0.3-0.1
		c0,0.1,0,0.2,0,0.3c0,0.1,0,0.2,0,0.3c0,0.3-0.2,0.6-0.5,0.7c-0.1,0-0.1,0-0.2,0c0,0,0,0.1,0,0.1c0,0.1-0.1,0.1-0.1,0.2
		c0,0.1-0.1,0.2-0.2,0.3c0.1,0,0.2,0.1,0.3,0.1c0.1,0.1,0.2,0.3,0.2,0.5v0.6c0,0.3-0.3,0.6-0.6,0.7l-0.1,0c-0.4,0-0.7-0.2-0.7-0.6
		l-0.1-0.6c0-0.2,0-0.4,0.1-0.5c0,0,0.1-0.1,0.1-0.1c-0.9-0.2-1.7-0.6-2.5-1.2c0.2,0.5,0.2,1,0.2,1.5c0,0.2,0,0.4,0,0.5
		c0,0.2,0.1,0.4,0.1,0.6c0,0.1,0,0.2,0.1,0.4c0,0.3-0.1,0.5-0.3,0.7l0.1,0.3c0.1,0.2,0,0.4-0.1,0.5c0.2,0.1,0.3,0.3,0.3,0.6l0,0.1
		c0,0.3-0.3,0.6-0.6,0.7l-0.2,0c-0.2,0.7-0.5,1.4-0.7,2c-0.2,0.6-0.5,1.3-0.7,1.9c-0.3,1.1-0.9,2-1.4,3c-0.2,0.4-0.4,0.8-0.7,1.3
		c0,0,0,0,0,0c0,0.2,0.1,0.6-0.2,1c-0.1,0.1-0.1,0.3-0.1,0.4C6.1,20.4,6,20.8,5.9,21c0,0,0,0,0,0.1c0,0.3,0,0.6,0,0.9
		c0,0.1,0,0.2,0,0.3c0,0.1,0,0.3-0.1,0.4c-0.2,0.2-0.3,0.6-0.5,0.9C5,24,4.8,24.5,4.4,25c0.2,0.2,0.3,0.5,0.4,0.7
		C5,26.2,5.2,27,4.9,27.7c-0.1,0.1-0.1,0.3-0.1,0.4c0,0.1,0,0.3-0.1,0.5c0,0.2-0.1,0.4-0.1,0.5l0.8,1.6c0.1,0.1,0.1,0.2,0.1,0.4
		c0,0.2,0,0.3,0,0.5c0.2-0.2,0.5-0.3,0.8-0.2l0.2,0.1c0.3,0.1,0.5,0.5,0.4,0.9l-0.1,0.1c-0.1,0.2-0.1,0.3-0.2,0.5
		c0.2,0.3,0.3,0.6,0.2,1c0,0.2-0.2,0.4-0.4,0.5c-0.1,0.1-0.3,0.1-0.4,0.1l0,0l0.1,0.3L6.4,35c0.2,0.1,0.3,0.3,0.3,0.6v0.8
		c0,0.3-0.2,0.5-0.4,0.6v0.2c0.2,0.2,0.4,0.5,0.5,0.9C7,38.4,7,38.8,7,39l0.7,1c0.1,0.2,0.2,0.5,0.1,0.7l0.2,0.2
		c0.2,0.2,0.2,0.4,0.1,0.7L8,41.7c0,0.1-0.1,0.3-0.1,0.4c0,0.1-0.1,0.2-0.1,0.4c0,0,0,0,0,0l2,0.8c0.2,0.1,0.4,0.3,0.4,0.5l0.1,0.4
		l1.1,0.5c0.2,0.1,0.4,0.4,0.4,0.6v0.2c0.1,0,0.2,0,0.2,0.1c1,0.7,1.3,1.6,1.6,2.5c0,0.1,0.1,0.2,0.1,0.3c0.1,0.3,0,0.7-0.1,0.9
		c0,0,0,0,0,0c0.2,0.1,0.5,0.1,0.7,0.1c1.2,0.1,2.2,0.2,3.1,0.2c0.2,0,0.3,0,0.4,0.1c0.1,0,0.2-0.1,0.2-0.1c0.2,0,0.4,0.1,0.5,0.2
		l0.3,0.3c0.2,0.2,0.2,0.4,0.2,0.7c0.1,0.1,0.3,0.2,0.4,0.3c0.7,0.5,1.4,0.9,2.1,1.3c0.8,0.5,1.7,1,2.5,1.5c0.4,0.2,0.7,0.4,1.1,0.6
		c0.1,0.1,0.2,0.2,0.3,0.3c0,0,0,0,0.1,0l0.1,0c0.2,0,0.4,0,0.6,0.1c0.7,0.3,1.5,0.6,2.3,0.5l0.1,0c0.3,0,0.6,0.1,0.8,0.1
		c0.1,0,0.3,0.1,0.4,0.1l0.1,0c0.4,0,0.7,0.1,1.1,0.2c0.1,0,0.4,0.1,0.7,0v-0.4c0-0.3,0.1-0.5,0.4-0.6c0.3-0.1,0.5-0.2,0.8-0.2
		c0.3,0,0.6,0.1,0.9,0.1c0.2,0.1,0.4,0.1,0.5,0.1c0.1,0,0.2,0,0.3,0c0.3,0,0.6,0.1,0.9,0.1c0.3,0.1,0.5,0.1,0.7,0.1
		c0.3,0,0.6,0.1,0.7,0.4l0.4,0.8c0.1,0.1,0.3,0.3,0.4,0.4c0.3,0.4,0.7,0.7,0.9,1.1c0.1,0.2,0.3,0.3,0.5,0.4c0.3,0.2,0.6,0.5,0.9,1
		l0.5,1.3c0.1,0.2,0.1,0.5-0.1,0.7l0,0c0,0,0,0,0,0c0.1,0.3,0.3,0.5,0.4,0.7c0.5,0.6,1.2,1.1,2,1.6l0.3-0.4l0.4-1
		c0.1-0.2,0.2-0.3,0.4-0.4l1.1-0.4c0.2-0.1,0.5,0,0.7,0.1c0,0,0,0,0.1,0.1c0.1,0,0.1,0,0.2,0c0.2,0,0.3,0,0.5,0c0.1,0,0.1,0,0.2,0.1
		c0,0,0,0,0,0c0.3-0.1,0.5,0,0.7,0.1c0.1,0.1,0.1,0.1,0.2,0.2c0.1,0.1,0.2,0.3,0.4,0.4c1.2,1,1.7,2.3,2.1,3.5c0,0.1,0.1,0.2,0.1,0.3
		c0,0,0,0.1,0,0.1c0.4,0.3,0.6,0.7,0.8,1.1c0.2,0.4,0.5,0.8,0.8,1c0.2,0.1,0.3,0.2,0.3,0.4c0.1,0.2,0,0.4,0,0.5l-0.1,0.2
		c0,0.3,0.2,0.6,0.3,0.9c0.2,0.3,0.3,0.6,0.4,1c0.2,0.1,0.4,0.2,0.6,0.4c0.2,0,0.6,0,0.9,0.4c0,0,0.2,0.1,0.3,0.2c0,0,0.1,0,0.1,0.1
		h0.9c0.1,0,0.2,0,0.3,0.1c-0.2-0.6-0.5-1.3-0.4-2.1c0-0.2,0.1-0.4,0.2-0.5c0-0.4,0.2-0.8,0.3-1.1c0-0.1,0-0.1,0.1-0.2l-0.2-0.5
		c-0.1-0.3-0.1-0.6,0.2-0.8c0.2-0.2,0.4-0.2,0.7-0.1c0.1-0.2,0.2-0.3,0.3-0.4c0.2-0.1,0.4-0.2,0.6-0.1c0.1,0,0.1,0,0.1,0.1l0.3-0.2
		l0-0.1c-0.1-0.3-0.1-0.6,0.2-0.8c0,0,0,0,0,0c0.1-0.1,0.3-0.3,0.6-0.3c0.1,0,0.2,0,0.3,0c0.4,0,0.8-0.1,1-0.2
		c0.6-0.2,0.9-0.5,1.1-0.9c0.1-0.2,0.3-0.4,0.5-0.4c0,0,0-0.1-0.1-0.1l-0.1-0.1c-0.1-0.3-0.1-0.6,0.1-0.8c0,0,0-0.1,0.1-0.1
		c0.1-0.2,0.4-0.5,0.9-0.5c0.2,0,0.4,0.1,0.6,0.2c0.1,0.1,0.2,0.2,0.3,0.3c0.7-0.3,1.5-0.6,2.4-0.5c0.5,0,1,0.1,1.5,0.3
		c0.2,0.1,0.4,0.1,0.7,0.1l0.1,0l0-0.1c0.1-0.4,0.4-0.6,0.8-0.5c0.8,0.1,1.5,0.5,2.3,1.1c0.2,0.1,0.2,0.3,0.2,0.5
		c0.1,0,0.2,0.1,0.3,0.1l0.8-0.4c0.2-0.1,0.4-0.1,0.5,0l0.1-0.2c0.1-0.2,0.3-0.4,0.6-0.4c0,0,0.1,0,0.1,0l-0.2-0.1
		c-0.2-0.1-0.4-0.3-0.4-0.6c0-0.3,0.1-0.5,0.3-0.6l0,0c0,0,0.1-0.1,0.1-0.1c0-0.1,0.1-0.2,0.2-0.3c0.2-0.1,0.3-0.2,0.4-0.2
		c0.5-0.5,1.2-0.7,2-0.7l0,0c0.2,0,0.4,0,0.6,0l0.3,0v-0.2c0-0.3,0.2-0.6,0.6-0.7c0.3-0.1,0.6,0.1,0.7,0.5c0.1,0.2,0.2,0.4,0.3,0.5
		c0.4-0.1,0.6-0.2,0.8-0.5c0.1-0.2,0.4-0.4,0.7-0.4c0.2,0,0.4,0.2,0.5,0.3l0.7-0.3c0.3-0.1,0.7,0,0.8,0.4l0,0.1
		c1,0.2,1.8,0.7,2.4,1.5l0.4-0.1c0.2-0.2,0.4-0.3,0.5-0.4c0.2-0.1,0.3-0.2,0.3-0.3c0-0.2,0.2-0.3,0.3-0.4c0.2-0.1,0.4-0.1,0.5,0
		c0.1,0,0.2,0,0.3,0c0.2,0,0.5,0,0.9,0.2c0.5,0.2,0.8,0.6,1,0.9c0.1,0.1,0.1,0.2,0.2,0.2c0.1,0.1,0.2,0.2,0.3,0.3
		c0.3,0.3,0.4,0.4,1,0.7c0.5,0.3,0.7,0.8,0.7,1.1c0,0.1,0,0.1,0,0.2c0.2,0.8,0.3,1.4,0.1,2c0,0,0,0,0,0c0.1,0,0.2,0,0.3,0
		c0.3,0.1,0.5,0.3,0.5,0.6c0.1,0.5-0.1,0.9-0.3,1.2c0.2,0.2,0.3,0.5,0.5,0.7c0,0,0,0.1,0.1,0.1c0.1,0,0.2,0,0.3,0l0.1,0
		c0.4,0.1,0.6,0.4,0.5,0.8l0,0.3c0,0,0,0,0,0l0,0c0.1,0,0.4,0.1,0.6,0.5C94.6,70.5,94.7,70.8,94.8,71.2z M77.1,27
		c0.2,0.3,0.3,0.7,0.4,1c0.1,0.2,0.1,0.4,0.2,0.5c0.3-0.1,0.5-0.3,0.7-0.7c0.1-0.2,0.1-0.3,0.2-0.5c0.1-0.3,0.2-0.7,0.4-1
		c0,0,0-0.2-0.1-0.4l-0.1-0.2c-0.2-0.5-0.3-1.1-0.6-1.5c-0.3-0.5-0.2-1-0.1-1.3c-0.2-0.4-0.2-0.8,0.1-1.3c0.1-0.2,0.2-0.4,0.2-0.5
		c0,0,0-0.2,0-0.3c0-0.1,0-0.2,0-0.3c0-0.2,0-0.3,0.1-0.5l1.2-1.7c0.1-0.1,0.2-0.2,0.3-0.3c0,0,0.1-0.1,0.1-0.1l0.2-0.1
		c0-0.1,0-0.3,0.1-0.4l0.2-0.4h-0.1l-0.3,0.3c-0.1,0.1-0.3,0.2-0.5,0.2h-0.5l-0.6,0.7c-0.1,0.1-0.3,0.2-0.4,0.2c0,0,0,0,0,0
		c0,0.1,0,0.1,0,0.2c0,0.2,0,0.3,0,0.6c-0.1,0.3-0.2,0.5-0.3,0.8c-0.1,0.2-0.2,0.5-0.3,0.7c-0.1,0.3-0.2,0.6-0.2,0.9
		c0,0.3-0.1,0.6-0.2,0.9c-0.1,0.2-0.1,0.3-0.1,0.4c0.1,0.6,0.1,1.1-0.2,1.4c-0.1,0.1-0.2,0.3,0,0.7c0.2,0.5,0.2,1.1,0.2,1.5
		C77.1,26.7,77.1,26.8,77.1,27z M80.9,15.8c0.1,0,0.2,0.1,0.3,0.1c0.1-0.1,0.1-0.1,0.2-0.1c-0.1,0-0.3,0-0.4,0
		C81,15.8,81,15.8,80.9,15.8z"/>
	<path fill="#FFFFFF" d="M69.9,64.6c-0.1,0-0.3,0-0.4-0.1L68.8,64c-0.2-0.2-0.3-0.5-0.2-0.8c0.1-0.3,0.4-0.5,0.6-0.5H70
		c0.2,0,0.4,0.1,0.5,0.2c0.1,0.2,0.2,0.4,0.1,0.6l-0.1,0.5c0,0.2-0.2,0.4-0.4,0.5C70.1,64.6,70,64.6,69.9,64.6z"/>
	<path fill="#FFFFFF" d="M56.8,72.3c-0.2,0-0.5-0.1-0.6-0.3c-0.3-0.6-0.3-1.2,0-1.8c0.2-0.3,0.5-0.4,0.8-0.3
		c0.3,0.1,0.5,0.3,0.5,0.7v1.1c0,0.3-0.2,0.6-0.5,0.7C56.9,72.3,56.9,72.3,56.8,72.3z"/>
	<path fill="#FFFFFF" d="M110.4,25.6C110.4,25.6,110.3,25.6,110.4,25.6c-0.5,0-0.7-0.3-0.7-0.7v-0.4c0-0.3,0.2-0.6,0.6-0.7l0.3-0.1
		c0.3-0.1,0.6,0.1,0.7,0.3c0.2,0.4,0.3,0.7,0.1,1C111.2,25.4,110.9,25.6,110.4,25.6z M110.4,24.2c-0.1,0-0.1,0.1-0.2,0.2
		c-0.1,0.1-0.1,0.2-0.1,0.3l0.3-0.1l0-0.1l0-0.1h0L110.4,24.2z"/>
	<path fill="#FFFFFF" d="M8.3,45.6c-0.2,0-0.4-0.1-0.5-0.2c-0.1-0.2-0.2-0.4-0.2-0.6l0.1-0.5c0-0.2,0.2-0.4,0.4-0.5
		c0.2-0.1,0.4-0.1,0.6,0l0.7,0.4c0.3,0.1,0.4,0.4,0.4,0.7c-0.1,0.3-0.3,0.5-0.6,0.6L8.3,45.6C8.4,45.6,8.3,45.6,8.3,45.6z"/>
	<path fill="#FFFFFF" d="M10.9,48.1C10.8,48.1,10.8,48.1,10.9,48.1c-0.5,0-0.7-0.3-0.7-0.7V47c0-0.3,0.2-0.6,0.5-0.7l0.3-0.1
		c0.3-0.1,0.6,0.1,0.7,0.3c0.2,0.4,0.3,0.7,0.1,1C11.6,47.9,11.3,48.1,10.9,48.1z M10.8,46.7c-0.1,0-0.1,0.1-0.2,0.2
		c-0.1,0.1-0.1,0.2-0.1,0.3l0.3-0.1l0-0.1l0-0.1h0L10.8,46.7z"/>
	<path fill="#FFFFFF" d="M7.8,45.7c-0.2,0-0.5-0.1-0.6-0.3l-0.3-0.5c-0.1-0.2-0.1-0.4-0.1-0.6c0.1-0.2,0.2-0.3,0.4-0.4
		c0.1,0,0.3-0.1,0.5-0.1c0.3,0,0.5,0.1,0.7,0.3c0.3,0.4,0.1,0.9,0,1.1C8.3,45.5,8.1,45.7,7.8,45.7C7.8,45.7,7.8,45.7,7.8,45.7z
		 M7.2,44.8c0,0.1,0.1,0.1,0.1,0.2c0.1,0.1,0.3,0.2,0.4,0.2l-0.1-0.2L7.2,44.8z"/>
	<path fill="#FFFFFF" d="M95.8,75.9C95.8,75.9,95.8,75.9,95.8,75.9h-0.6c-0.3,0-0.6-0.3-0.7-0.6l0-0.1c0-0.4,0.2-0.7,0.6-0.7
		l0.6-0.1c0.2,0,0.4,0,0.5,0.1c0.1,0.1,0.2,0.3,0.2,0.5l0,0.1c0,0,0,0.1,0,0.1C96.5,75.6,96.2,75.9,95.8,75.9z"/>
	<path fill="#FFFFFF" d="M73,12.8c-0.1,0-0.2,0-0.3-0.1c-0.3-0.1-0.4-0.4-0.4-0.7c0.1-0.8,0.7-1.1,1-1.3c0.1,0,0.2-0.1,0.2-0.1
		c0.1-0.3,0.4-0.5,0.8-0.4c0.3,0.1,0.5,0.4,0.5,0.7c0,0.9-0.7,1.2-1,1.4c-0.1,0.1-0.2,0.1-0.3,0.2C73.3,12.7,73.2,12.8,73,12.8z"/>
</g>
</svg>
