<?xml version="1.0" encoding="utf-8"?>
<!-- Generator: Adobe Illustrator 18.1.0, SVG Export Plug-In . SVG Version: 6.00 Build 0)  -->
<!DOCTYPE svg PUBLIC "-//W3C//DTD SVG 1.1//EN" "http://www.w3.org/Graphics/SVG/1.1/DTD/svg11.dtd">
<svg version="1.1" id="Layer_1" xmlns="http://www.w3.org/2000/svg" xmlns:xlink="http://www.w3.org/1999/xlink" x="0px" y="0px"
	 viewBox="0 0 103.3 68.2" enable-background="new 0 0 103.3 68.2" xml:space="preserve">
<g>
	<path fill="#FFFFFF" d="M81.3,66.6c-0.1,0-0.2,0-0.2,0c-0.1,0-0.1,0-0.2,0l-1,0l-0.3-0.4c0-0.1-0.1-0.1-0.1-0.2
		c-0.1,0-0.1,0-0.2-0.1l-0.7-0.2V65l-0.3-0.1l-0.2-0.3c-0.1-0.1-0.1-0.2-0.2-0.4h-0.7l0-1h-0.7l-0.2-0.8c0-0.1,0-0.2-0.2-0.3l-1.5,0
		c-0.5,0-1,0-1.5,0c-0.2,0-0.5,0-0.5,0c-0.4,0.2-0.7,0.2-1,0.2l-0.1,0l-1,0l-1.5,0c-0.5,0-1,0-1.5,0l-0.2,0c-0.6,0-1.1,0-1.6,0.1
		c-0.6,0.1-1.1,0.1-1.6,0.1l-0.5,0c-1.3,0-2.5,0-3.8,0c-0.8,0-1.7,0-2.6,0.2c-0.6,0.1-1.3,0.1-1.8,0.1l-0.6,0c-2.1,0-4.2,0-6.3,0
		l-6.4,0c-1.1,0.1-2.2,0.1-3,0.1c-0.4,0-0.9,0-1.3,0c-0.7,0-1.4,0-2.2,0c-0.4,0-0.7,0-1-0.1c-0.2,0-0.4-0.1-0.7-0.1L34,63
		c-0.5,0-0.9,0-1.4,0l-4.3,0l-1.1,0c-0.3,0-0.6,0-0.8,0c-0.2,0-0.4,0-0.6-0.1c-0.1,0-0.1,0-0.2,0l-0.2,0c-0.3,0-0.5,0-0.7,0
		c-0.4-0.1-1.1-0.1-1.7-0.1c-0.4,0-0.8,0-1.2,0c-0.2,0-0.4,0-0.7,0c-1,0.1-2,0-2.8-0.2c-0.6-0.1-1.2-0.1-1.8-0.1c-0.4,0-0.8,0-1.3,0
		l-0.9,0v-0.9c0-0.1,0-0.2,0-0.3c0-0.1,0-0.2,0-0.2c0,0,0-0.1-0.1-0.2l-1.2-0.6l0-0.6l-0.5-0.3v-1.9l0.7-0.4c0-0.2,0-0.5,0.1-0.6
		l-0.2-1.2l0.2-0.1l0,0l0.1-1.2l-0.6-0.8l0.1-0.5c0,0,0,0,0-0.1c-0.1-0.2-0.1-0.4-0.2-0.5c0,0,0-0.1,0-0.1l-0.2-0.7l0.4-0.3
		c-0.1-0.1-0.2-0.3-0.2-0.4h-0.5l0-1c0-0.6,0-1.1,0-1.7l0-0.7l-1-0.8l0.9-0.9c0-0.3,0.1-0.6,0.1-0.7c-0.2-0.1-0.3-0.1-0.4-0.1
		l-0.8-0.1v-0.6h-0.1l-1-1.2v-0.8l-0.2-0.2l0-1.6l-0.6-1l0.6-0.5l-0.1-0.2l0.2-0.4c0.1-0.1,0.1-0.3,0.2-0.4l-0.3-0.8
		c-0.3-0.4-0.8-1.1-0.7-2l0-0.2l0-0.1l-0.3,0.2l-1-1.4l0.1-0.3c-0.6-0.6-0.5-1.2-0.4-1.7l-1-1l0-0.4l0-0.3c0-0.1,0-0.1,0-0.2l-1-0.8
		l0.9-0.6l-0.2-0.2L6,27l-0.7-0.7l0.3-2.2c-0.8-0.2-1.1-0.9-1.2-1.3l0-0.2l0.1-0.4L4.2,22v-0.7l-0.7-0.7l0.2-0.3
		c-0.1-0.1-0.3-0.3-0.4-0.4c-0.6-0.3-0.8-1-0.9-1.2c-0.2-0.8-0.1-1.4,0.2-1.9l0.2-0.4l0.3-0.2c0.1-0.6,0.4-0.9,0.7-1.1L4,14.7v-1.1
		l0.4-0.3c0-0.2,0-0.5,0.2-0.8l-0.4-1l1.2-0.8c0-0.1,0-0.1,0.1-0.2l-0.1-1C5,9.4,4.8,9.3,4.6,9.2L4.1,9L3.9,8.7
		C3.7,8.4,3.7,8.2,3.7,8L3.5,7.8L4,5.7h0.3l0.2-0.2l-1-1.1V3.2l0.1-0.1c0-0.1,0-0.3,0-0.3l0-1.2l1.1,0.1c0.2,0,0.3,0,0.4,0
		c0.2,0,0.5,0,0.7,0.1c0.1,0,0.1,0,0.1,0l2.7,0c0.8,0,1.6,0,2.3,0l0.4,0c0.4,0,0.8,0,1.2,0.2l0.2,0c0.3,0,0.6,0,1,0.1
		c0.1,0,0.1,0,0.2,0l3.9,0c0.9,0,1.8,0,2.8,0l0.2,0c0.5,0,1,0,1.5,0.1c0.5,0,1.1,0.1,1.6,0.1l0.2,0l0.1,0c0.3,0.1,0.7,0.1,1.2,0.1
		c0.3,0,0.5,0,0.8,0c0.3,0,0.5,0,0.8,0c2.2,0,4.3,0,6.4,0l7.3,0c0.3,0,0.6,0,0.9,0.1c0.2,0,0.4,0.1,0.6,0.1l0.2,0
		c0.7-0.1,1.3-0.1,1.9,0c0.3,0.1,0.6,0.1,1.1,0.1c0.2,0,0.3,0,0.5,0c0.2,0,0.4,0,0.5,0l0.1,0c0.9,0,1.8,0,2.6,0l3,0l1.1,0h0
		c0.5,0,0.9,0,1.4-0.1c0.6,0,1.3-0.1,1.9-0.1l0.2,0c1,0,2.1,0.1,2.9,0c0.9-0.1,1.8-0.1,2.5-0.1l1.9,0c0.2,0,0.4,0,0.6,0
		c0.7,0,1.3,0,2,0l3,0l2.7,0c0.7,0,1.5,0,2.2,0l0,0c0.1,0,0.3,0,0.4-0.1c0.3-0.1,0.7-0.1,1.1-0.1c0.4,0,0.8,0.1,1.1,0
		C77.7,2,78.2,2,78.6,2c0.2,0,0.4,0,0.6,0c0.2,0,0.4,0,0.6,0l0.3,0c0.4,0,0.8,0,1.2,0L84,2v2l0.3,0.4v1c0,0,0,0,0,0
		c0.1,0,0.2,0.1,0.2,0.1c0.5,0,1,0.5,1.2,0.9c0.1,0.1,0.2,0.2,0.2,0.3C86,6.8,86,6.9,86.1,7c0,0,0,0,0,0c0,0,0,0,0,0l0.2,0.2
		l0.1,0.3c0.1,0.4,0,1.1-0.6,1.7c-0.3,0.3-0.4,0.5-0.5,0.8c-0.1,0.3-0.3,0.6-0.5,0.8v0c0,0.3,0,0.7,0,1c0,0.2,0,0.2,0,0.3
		c0.1,0.3,0.2,0.5,0.2,0.7c0.3,0.5,0.3,1,0.3,1.3l0.7,0.6l0,1c0.1,0.1,0.2,0.3,0.2,0.4l0.3,1.1l0.2,0.1l1,0.7h0.7l0.3,0.3
		c0.3,0,0.5,0,0.7,0.1l0.2,0.1c0.2,0.1,0.3,0.1,0.4,0.1c0.6,0,1.1,0.3,1.5,0.5l0.5,0.3l0,0.5c0,0.3,0.2,0.5,0.5,1l0.3,0.4l0,0.2
		c0,0.1,0,0.1,0,0.2l0.2,0.1L93,22.7l0.3-0.1l0.3,0.4c0.1,0.1,0.4,0.3,0.5,0.6c0.8,0.3,1.2,0.7,1.8,1.5c0,0,0,0,0.1,0
		c0.1,0,0.1,0.1,0.1,0.1l0.4,0.3L96.4,27c0.1,0.1,0.1,0.2,0.2,0.3c0,0,0,0.1,0.1,0.1c0.4,0.1,0.7,0.3,0.9,0.4c0.1,0,0.1,0.1,0.2,0.1
		c0.2,0,0.4,0.1,0.6,0.2c0.1,0,0.2,0.1,0.2,0.1c0.4,0.1,0.6,0.4,0.8,0.5l0.3,0.3l0,0.1c0.2,0.1,0.4,0.3,0.6,0.5l0.1,0.2l0,0.4
		c0,0.2,0,0.3,0,0.5c0,0.3,0,0.6,0.2,0.9c0.2,0.4,0.2,0.8,0.2,1l0.1,0.6l-0.3,0.3c0.1,0.2,0.1,0.5,0.1,0.6l0,0.2
		c-0.1,0.5-0.1,1.1-0.4,1.7c0,0,0,0.1,0,0.1c0,0.1,0,0.1,0,0.2l0,0.6l-0.8,0.8l-0.3,0.1c-0.1,0-0.2,0.1-0.4,0.2
		c-0.1,0.1-0.2,0.1-0.3,0.2c-0.1,0-0.1,0.1-0.1,0.1v1.1l-0.2,0.2v1.7l-0.4,0.4c-0.2,0.2-0.5,0.5-1,0.7c-0.1,0.1-0.2,0.2-0.3,0.3
		c-0.2,0.2-0.3,0.3-0.5,0.5c-0.2,0.1-0.3,0.3-0.5,0.4l-0.6,0.4l-0.7-0.3c0,0-0.1,0-0.1,0.1l-1,1.1h-0.4c-0.5,0.3-0.9,0.3-1.2,0.3
		l-0.9,0l-0.7,0c-0.2,0.2-0.5,0.3-0.7,0.4c-0.1,0.1-0.3,0.2-0.4,0.2l-0.5,0.3l-0.5-0.3v0.2L87.4,46l-0.2,1.1l-0.3,0.7l0.5,0.7
		c0.1,0,0.1,0,0.2,0.1c0.7,0.2,1.1,0.9,1.3,1.4c0,0,0,0.1,0.1,0.1l0.2,0.5v0.5l0.5,0.3l-0.2,0.7c0,0.1-0.1,0.3-0.1,0.4
		c-0.1,0.3-0.1,0.5-0.2,0.7c0,0.2,0,0.5,0,0.8c0,0.2,0,0.3,0,0.5V55l-1,0.7l-1,1.3c0.1,0.3,0.1,0.6-0.2,1c0,0.1,0,0.2,0,0.3l1,0.8
		l-1.1,0.6v0.5l-1.8,1.2l-0.4-0.1c-0.7-0.1-1.3,0.1-1.7,0.5l0.3,0.3l-0.1,0.5c0,0.1,0,0.3,0,0.5c0,0.3,0,0.6-0.1,1
		c0.1,0.3,0.1,0.6,0.1,0.7c0,0,0,0.1,0,0.1l0,0.4L83,65.8C82.5,66.5,81.8,66.6,81.3,66.6z M81,64.6c0.1,0,0.1,0,0.2,0l-0.3-0.4
		l0.3-0.6c0,0,0-0.3,0-0.4c0-0.1,0-0.2,0-0.3l-0.7-0.7l0.3-0.6c0.7-1.6,2.1-2.4,3.8-2.3l0.3-0.2v-0.7l0.1-0.1c0-0.2,0-0.4,0.1-0.6
		c0-0.1,0-0.3,0.1-0.5L85,56.7l1.9-2.5l0.4-0.3c0-0.3,0-0.6,0-0.9c0-0.2,0.1-0.4,0.1-0.7l-0.1-0.1v-1.1c-0.1-0.2-0.2-0.3-0.2-0.4
		c0-0.1-0.1-0.2-0.1-0.2c0,0,0,0,0,0l-0.5-0.1l-1.8-2.2l0.7-1.8l0.2-1.5l0.2-0.2V44l0.7-0.2c0.1,0,0.2-0.1,0.2-0.1
		c0.3-0.2,0.9-0.4,1.4-0.2l0.2,0.1c0.2-0.1,0.5-0.3,0.6-0.4l0.3-0.2l2.3,0c0.1,0,0.2,0,0.2,0l0.3-0.3l0.2,0l0.8-0.9l0.4-0.1l0.6-0.5
		l0.8,0.4c0,0,0,0,0,0c0.1-0.1,0.3-0.2,0.4-0.4c0.1-0.1,0.2-0.2,0.3-0.3c0.1-0.1,0.4-0.4,0.8-0.4v-1.7l0.2-0.2v-0.6l0.1-0.2
		c0.2-0.5,0.6-0.9,1.1-1.2c0.1,0,0.1-0.1,0.2-0.1c0.1-0.1,0.3-0.2,0.5-0.3c0,0,0,0,0,0c0-0.2,0-0.5,0.2-0.7c0.1-0.3,0.2-0.7,0.2-1.1
		v0c-0.1-0.3-0.1-0.6-0.1-0.8l-0.1-0.5l0.4-0.4c-0.3-0.5-0.4-1.1-0.4-1.7l-0.6-0.1l-0.1-0.7c-0.1,0-0.2-0.1-0.2-0.1
		c-0.1,0-0.2-0.1-0.3-0.1c-0.3-0.1-0.6-0.2-0.8-0.4c-0.1,0-0.2-0.1-0.2-0.1c-0.6,0-1-0.4-1.1-0.6c-0.1-0.1-0.2-0.3-0.3-0.5
		c0-0.1-0.1-0.1-0.1-0.2c-0.3-0.3-0.4-0.7-0.3-1.1l0.1-0.5c0,0-0.1-0.1-0.1-0.2c-0.5-0.7-0.5-0.7-1.1-0.9c-0.3-0.1-0.7-0.4-0.8-0.8
		c-0.3-0.1-0.5-0.3-0.7-0.4c0,0-0.1-0.1-0.1-0.1l-0.7-0.3l0.1-1.2c0-0.1-0.1-0.3-0.1-0.5c-0.3-0.4-0.6-0.8-0.7-1.3c0,0-0.1,0-0.1,0
		c-0.4,0-0.7-0.1-1-0.2l-0.2-0.1c-0.5,0-0.8-0.1-1.1-0.3h-0.6L85.3,19l-0.4-0.2l-0.4-1.7l-0.3-0.2v-1l-0.7-0.6l0-0.4
		c0-0.2,0-0.4,0-0.6c0-0.1,0-0.2,0-0.3l-0.1-0.2l-0.1-0.3c0-0.1,0-0.2,0-0.3c0-0.1,0-0.1,0-0.1c-0.2-0.4-0.3-0.9-0.3-1.2
		c0-0.3,0-0.6,0-0.9l0-0.7L83,10c0.1-0.1,0.2-0.2,0.2-0.3c0.1-0.1,0.1-0.1,0.2-0.2c0.2-0.5,0.5-1,0.9-1.5c0-0.1-0.1-0.2-0.1-0.3
		c0,0,0,0,0,0c-0.1-0.1-0.2-0.2-0.3-0.3c-0.3-0.1-0.5-0.2-0.6-0.3C83.2,7,83.2,7,83.1,7l-0.8-0.1l0-1.8l-0.8-1l-0.3,0
		c-0.4,0-0.7,0-1.1,0c-0.3,0-0.6,0-0.9,0c-0.5,0-1.1,0-1.7,0.1c-0.5,0.1-1.2,0.1-1.8,0c-0.2,0-0.3,0-0.5,0.1c-0.2,0-0.5,0.1-0.8,0.1
		c-0.8,0-1.5,0-2.2,0l-2.7,0l-3,0c-0.6,0-1.3,0-1.9,0c-0.2,0-0.5,0-0.7,0l-1.9,0c-0.7,0-1.4,0-2.2,0.1c-0.9,0.1-2.1,0.1-3.2,0
		l-0.2,0c-0.5,0-1.1,0-1.7,0.1c-0.5,0-1,0.1-1.5,0.1l-1.1,0l-3,0c-0.9,0-1.8,0-2.7,0l-0.1,0c-0.2,0-0.3,0-0.5,0c-0.2,0-0.4,0-0.5,0
		c-0.4,0-0.9,0-1.5-0.1c-0.3-0.1-0.8,0-1.3,0l-0.1,0c-0.4,0-0.8,0-1.2-0.1c-0.2,0-0.4-0.1-0.6-0.1l-7.3,0c-2.1,0-4.3,0-6.4,0
		c0,0,0,0,0,0c-0.3,0-0.5,0-0.8,0c-0.3,0-0.5,0-0.8,0c-0.6,0-1.1,0-1.6-0.2c-0.6,0-1.2,0-1.8-0.1C21.7,4,21.2,4,20.8,4l-0.1,0
		c-0.9,0-1.9,0-2.8,0l-3.9,0c-0.1,0-0.2,0-0.3,0c-0.2,0-0.4,0-0.6-0.1l-0.2,0c-0.2,0-0.5,0-0.9-0.1c-0.2-0.1-0.4-0.1-0.6-0.1l-0.3,0
		c-0.8,0-1.6,0-2.4,0l-2.7,0c-0.1,0-0.2,0-0.2,0l0,0l0.9,1v1.4L6.3,6.4l0.4,1.3H6.5l0.5,0.5l0.2,1.4l0.2,0.2L7.5,10
		c0.1,0.4,0,0.8-0.2,1l0.3,0.5l-1.1,0.7l0.2,0.7l-0.4,0.4c0,0.1,0,0.1,0,0.2c0,0.1,0,0.2,0,0.4l0,0.5L6,14.6v0.5l-0.7,1.7l-0.2,0
		c0,0.1-0.1,0.3-0.2,0.5c-0.1,0.1-0.2,0.2-0.3,0.3c0,0.1-0.1,0.2-0.1,0.2c0,0,0,0,0,0.1l0,0.1c0.3,0.1,0.6,0.4,0.7,0.7
		c0,0,0.1,0.1,0.2,0.2c0.1,0.1,0.3,0.3,0.4,0.4l0.1,0.1L6,20.2l0,0l0.2,0.2v0.7l0.3,0.3l-0.1,0.7l0.6,0l0.8,0.7l0,1.3l-0.4,0.6
		l-0.1,0.8l0.6,0.6v0.5l0.5,0.4v1.6L8.3,29c0,0.1,0,0.2,0,0.3l1.1,1.1l-0.1,0.5c0,0.1,0,0.2-0.1,0.4l0.9,0.1L10,32.2l0.2,0.3
		l1.4,0.1l-0.4,2.4L11,35c0,0.1,0.1,0.2,0.2,0.3l0.2,0.2l0.1,0.4l0.4,0l0.1,0.7c0.1,0.7-0.1,1.2-0.3,1.5c0.1,0.2,0.2,0.5,0.2,0.8
		l0,1.2l0,0l0,0l0,0.1l-0.1,0l-0.4,0.5l0.2,0.2v0.4l1.2,0.1l0.1,1.4c0,0,0,0,0,0c0.1,0,0.2,0.1,0.4,0.1l0.7,0.2v0.7
		c0,0.1,0,0.1,0,0.2c0,0.2,0,0.5,0,0.9c0,0,0,0,0,0.1l0.5,0.5L14,46.1l0.1,0l0,1.6c0,0.2,0,0.4,0,0.7h2.3l-1.7,1.7
		c0.2,0.4,0.2,0.9,0.2,1.2l0,0.5l-0.1,0.1c0.1,0.2,0.1,0.5,0.1,0.8l0.4,0.6l-0.1,1.1l1,1l-1,0.7l0.1,0.9L15.1,57
		c0.1,0.4,0,0.7-0.2,1l-0.1,0.1l-0.2,0.1l0.2,0.2v0.4l0.8,0.4l0.2,0.5c0.1,0.2,0.2,0.4,0.3,0.7c0.1,0,0.2,0,0.3,0
		c0.7,0,1.4,0,2.1,0.1c0.8,0.1,1.6,0.2,2.4,0.1c0.3,0,0.6,0,0.9,0c0.3,0,0.7,0,1,0c0.2,0,0.4,0,0.7,0c0.4,0,1,0,1.6,0.2l0.2,0
		c0.2,0,0.3,0,0.5,0c0.2,0,0.3,0,0.5,0.1c0.1,0,0.1,0,0.2,0c0.3,0,0.5,0,0.8,0l4.8,0c0.2,0,0.4,0,0.6,0l0.6,0c0.2,0,0.4,0,0.7,0
		c0.4,0,0.8,0,1.2,0.1c0.2,0,0.4,0.1,0.7,0.1c0.8,0,1.5,0,2.3,0c0.4,0,0.9,0,1.3,0c0.8,0,1.8,0,2.8-0.1l0.1,0l6.5,0
		c2.1,0,4.2,0,6.2,0l0.6,0c0.5,0,1,0,1.5-0.1c1-0.2,2-0.2,2.9-0.2c1.2,0,2.5,0,3.7,0l0.5,0c0.4,0,0.8,0,1.1-0.1
		c0.7-0.2,1.4-0.2,2-0.2l0.2,0c0.5,0,1,0,1.5,0l1.5,0l0.9,0l0.1,0l0.1,0c0.5-0.2,1-0.2,1.4-0.2c0.5,0,1.1,0,1.6,0l2.2,0l0.3,0.2
		c0.2,0.2,0.5,0.5,0.8,0.8h0.2l1.1,0.9v0.5c0.2,0.2,0.4,0.4,0.4,0.6c0.4,0.1,0.7,0.4,0.9,0.8l0.1,0.2v0.2c0,0,0.1,0.1,0.1,0.1
		C80.9,64.5,80.9,64.5,81,64.6z"/>
</g>
<g>
	<path fill="none" stroke="#000000" stroke-width="2" stroke-miterlimit="10" d="M457.8,61.4c0-0.3,0-0.5,0-0.7
		c-0.1-0.3-0.2-0.5-0.3-0.7c-0.3-0.2-0.7-0.3-1-0.5c0-0.2,0-0.4,0-0.5c-0.2-0.1-0.3-0.2-0.5-0.3c0-0.2,0-0.5,0-0.8
		c0.2-0.1,0.5-0.3,0.8-0.5c0.2-0.3-0.4-0.6,0-0.9c0-0.3-0.1-0.6-0.1-0.9c0.2-0.1,0.4-0.3,0.6-0.4c-0.2-0.2-0.3-0.3-0.5-0.5
		c0-0.3,0.1-0.7,0.1-1.1c-0.2-0.2-0.3-0.4-0.5-0.7c0.1-0.2,0.3-0.4,0-0.7c-0.1-0.1-0.1-0.4-0.2-0.6c0.1-0.1,0.2-0.2,0.3-0.2
		c0-0.4,0-0.8-0.2-1.1c-0.1-0.1,0-0.4-0.1-0.5c0.1-0.1,0.2-0.2,0.4-0.4c-0.3,0-0.6,0-0.9,0c0-1,0-1.9,0-2.8
		c-0.2-0.2-0.4-0.3-0.5-0.4c0.2-0.2,0.4-0.4,0.6-0.6c-0.3-0.3-0.1-0.5-0.1-0.8c0.1-0.3,0-0.6,0-0.8c-0.4-0.1-0.8-0.3-1.3-0.4
		c0-0.2,0-0.3,0-0.5c0.1-0.1,0.1-0.2,0.2-0.2c0-0.2,0-0.3,0-0.5c-0.1,0-0.1,0-0.2,0c0,0.2,0,0.3-0.1,0.5c-0.2,0-0.4,0-0.5,0
		c-0.2-0.2-0.3-0.4-0.5-0.6c0-0.3,0-0.6,0-0.9c-0.1-0.1-0.2-0.2-0.2-0.2c0-0.2,0-0.5,0-0.8c0.1-0.1,0.2-0.2,0.3-0.3
		c-0.2-0.3-0.3-0.5-0.5-0.8c0.2-0.1,0.3-0.2,0.4-0.3c0.1,0,0.2,0,0.3,0.1c0-0.3-0.3-0.4-0.4-0.7c0.2-0.4,0.7-0.8,0.5-1.4
		c-0.1,0-0.2,0-0.3,0c-0.1-0.2-0.1-0.4-0.3-0.8c-0.3-0.3-0.7-0.8-0.6-1.4c0.1-0.1,0.2-0.2,0.2-0.2c0.1-0.3,0.1-0.6,0.2-1
		c-0.3,0-0.5,0-0.8,0c-0.1-0.1-0.1-0.2-0.2-0.4c-0.1,0-0.2,0.1-0.4,0.2c0-0.1-0.1-0.2-0.2-0.3c0.1-0.2,0.1-0.4,0.2-0.6
		c-0.1,0-0.3,0-0.4-0.1c-0.6-0.4-0.2-1-0.2-1.4c-0.4-0.4-0.7-0.7-1.1-1.1c0-0.4,0.1-0.8-0.3-1.1c0.2-0.1,0.3-0.2,0.5-0.3
		c0-0.2,0-0.4,0-0.6c-0.1-0.1-0.3-0.3-0.5-0.4c0-0.2,0-0.4,0-0.6c-0.2-0.2-0.4-0.4-0.7-0.7c0.1-0.5,0.1-1,0.2-1.6
		c0.1-0.1,0.2-0.3,0.4-0.5c0-0.2,0-0.3,0-0.5c-0.1-0.1-0.1-0.1-0.2-0.2c-0.5,0-1.2,0.1-1.3-0.6c0-0.3,0.1-0.5,0.1-0.8
		c-0.1-0.1-0.2-0.2-0.3-0.3c0-0.2,0-0.4,0-0.7c-0.1-0.1-0.3-0.3-0.4-0.4c0.1-0.1,0.1-0.2,0.2-0.3c0-0.1,0-0.1-0.1-0.1
		c-0.3-0.3-0.6-0.5-0.8-0.9c0-0.1-0.1-0.1-0.1-0.1c-0.4,0-0.5-0.5-0.6-0.7c-0.1-0.3-0.1-0.7,0.1-1c0.1-0.1,0.1-0.2,0.1-0.3
		c0.1-0.1,0.3-0.2,0.4-0.3c0.1-0.1,0.1-0.2,0.1-0.3c0.1-0.3,0.1-0.6,0.5-0.6c0.1-0.3,0.2-0.5,0.4-0.9c0-0.2,0-0.5,0-0.8
		c0.1-0.1,0.3-0.2,0.4-0.3c0-0.4-0.1-0.9,0.3-1.2c-0.1-0.3-0.2-0.5-0.3-0.8c0.1-0.1,0.3-0.2,0.4-0.3c0.2-0.1,0.3-0.2,0.5-0.3
		c-0.2-0.4,0.3-0.6,0.2-1c-0.1-0.1-0.1-0.1-0.2-0.2c-0.1-0.5-0.1-0.9-0.2-1.4c0,0-0.1-0.1-0.2-0.2c-0.4,0.1-0.8-0.1-1.2-0.3
		c-0.1-0.3,0.1-0.6-0.2-0.8c0.1-0.2,0.1-0.4,0.2-0.7c0.2,0,0.4,0,0.6,0c-0.1-0.2-0.1-0.4-0.2-0.6c0,0,0.1-0.1,0.2-0.3
		c0-0.2,0-0.4,0-0.7c-0.3-0.4-0.7-0.8-1-1.2c0-0.1,0-0.2,0-0.4c0.1-0.1,0.2-0.2,0.3-0.3c-0.1-0.1-0.1-0.2-0.1-0.3c0-0.1,0-0.2,0-0.4
		c0.3,0,0.6-0.1,0.8,0.1c0.1,0.1,0.3,0,0.4,0c1.7,0,3.4,0,5,0c0.4,0,0.9,0,1.3,0.1c0.4,0.1,0.8-0.1,1.3,0.1c0.1,0.1,0.3,0,0.5,0
		c2.2,0,4.5,0,6.7,0c1.1,0,2.2,0.2,3.4,0.1c1,0.3,2.1,0.1,3.1,0.1c4.6,0,9.1,0,13.7,0c0.6,0,1.1,0.2,1.7,0.1c0.6,0,1.2-0.1,1.7,0
		c0.8,0.2,1.6,0.1,2.4,0.1c2.2,0,4.5,0,6.7,0c1.1,0,2.1-0.2,3.2-0.1c1.1,0,2.2,0.1,3.2,0c1.6-0.2,3.2-0.1,4.9-0.1c1.7,0,3.3,0,5,0
		c1.6,0,3.3,0,4.9,0c0.5,0,0.9-0.2,1.4-0.1c0.5,0.1,1,0.1,1.4,0c0.9-0.2,1.9-0.1,2.8-0.1c1,0,1.9,0,2.9,0c0,0.2,0,0.5,0,0.7
		c-0.1,0.1-0.1,0.2-0.2,0.3c0.2,0.2,0.3,0.4,0.5,0.7c0,0.4,0,0.8,0,1.3c0.4,0.1,0.7,0.4,1.1,0.5c0.1,0,0.3,0.2,0.3,0.3
		c0,0.2,0.2,0.3,0.3,0.4c0.1,0.1,0.1,0.3,0.2,0.4c0,0.1,0.1,0.1,0.2,0.2c0.1,0.3-0.1,0.6-0.3,0.8c-0.3,0.3-0.6,0.7-0.8,1.2
		c-0.1,0.3-0.3,0.5-0.5,0.8c0,0.4,0,0.9,0,1.3c0,0.3,0,0.5,0.2,0.8c0.1,0.2,0.1,0.4,0.1,0.7c0.3,0.4,0.2,0.9,0.2,1.4
		c0.2,0.2,0.5,0.4,0.8,0.6c0,0.3,0,0.6,0,1c0.1,0.1,0.2,0.1,0.2,0.1c0.1,0.6,0.3,1.1,0.4,1.6c0.1,0,0.2,0.1,0.5,0.2
		c0.3,0.3,0.8,0.6,1.2,0.9c0.2,0,0.4,0,0.6,0c0.2,0.2,0.5,0.3,0.8,0.3c0.1,0,0.3,0.1,0.4,0.1c0.3,0.1,0.5,0.2,0.9,0.2
		c0.4,0,0.7,0.2,1,0.4c0,0.7,0.4,1.2,0.8,1.7c0,0.2-0.1,0.4,0.1,0.6c0,0.3-0.1,0.5-0.1,0.8c0.4,0.1,0.6,0.5,1,0.4
		c0.1,0.2,0.4,0.3,0.4,0.6c0,0.1,0.2,0.2,0.3,0.2c0.8,0.3,1,0.4,1.6,1.2c0.1,0.2,0.3,0.3,0.4,0.3c0,0.4-0.1,0.7-0.1,1
		c0,0.1,0,0.2,0.1,0.3c0.2,0.2,0.3,0.5,0.4,0.7c0.1,0.1,0.3,0.3,0.4,0.3c0.5,0,0.8,0.4,1.2,0.5c0.3,0.1,0.5,0.2,0.8,0.3
		c0.2,0.1,0.3,0.2,0.5,0.4c0,0.1,0,0.3,0,0.4c0.1,0,0.1,0,0.2,0c0.2,0,0.3,0,0.5,0.2c0,0.2,0,0.4,0,0.6c0,0.5,0.1,1,0.3,1.4
		c0.1,0.3,0,0.5,0.1,0.7c-0.1,0.1-0.2,0.2-0.3,0.3c0.1,0.2-0.1,0.4,0.1,0.6c0,0,0,0.1,0,0.2c-0.1,0.5-0.1,1.1-0.3,1.6
		c-0.1,0.1-0.1,0.3-0.1,0.4c0,0.2,0,0.3,0,0.4c-0.1,0.1-0.2,0.2-0.3,0.3c-0.4,0.1-0.6,0.3-0.9,0.5c-0.3,0.2-0.5,0.4-0.6,0.7
		c0,0.2,0,0.5,0,0.9c-0.1,0.1-0.2,0.1-0.2,0.2c0,0.6,0,1.1,0,1.7c-0.2,0.2-0.4,0.5-0.8,0.5c-0.1,0-0.2,0.1-0.3,0.2
		c-0.3,0.2-0.5,0.5-0.7,0.7c-0.2,0.2-0.4,0.3-0.6,0.4c-0.3-0.1-0.5-0.2-0.7-0.3c-0.1,0.1-0.2,0.2-0.3,0.2c-0.1,0.1-0.2,0.1-0.3,0.1
		c-0.3,0.4-0.6,0.7-0.9,1c-0.1,0-0.2,0-0.3,0c-0.3,0.3-0.7,0.3-1.1,0.3c-0.6,0-1.1,0-1.7,0c-0.4,0.3-0.8,0.5-1.3,0.8
		c-0.1-0.1-0.3-0.2-0.6-0.3c-0.3-0.1-0.6,0.2-1,0.3c0,0.2,0,0.3,0,0.5c-0.1,0.1-0.2,0.1-0.2,0.2c-0.1,0.5-0.1,0.9-0.2,1.3
		c-0.2,0.5-0.4,0.9-0.5,1.3c0.4,0.5,0.8,1,1.1,1.5c0.1,0,0.3,0,0.4,0.1c0.3,0.1,0.6,0.5,0.7,0.8c0,0.1,0.1,0.3,0.3,0.5
		c0,0,0,0.2,0,0.3c0,0.2,0,0.3,0,0.5c0.1,0,0.2,0.1,0.3,0.2c-0.1,0.4-0.3,0.8-0.3,1.2c-0.1,0.4,0,0.9,0,1.4
		c-0.2,0.1-0.5,0.3-0.7,0.5c-0.4,0.6-0.9,1.2-1.4,1.9c0.1,0.2,0.3,0.4,0.1,0.7c-0.1,0.2-0.1,0.4-0.2,0.6c-0.1,0.2-0.1,0.5,0.2,0.7
		c-0.1,0.1-0.3,0.1-0.3,0.2c0,0.3,0,0.5,0,0.6c-0.3,0.2-0.7,0.5-1.1,0.7c-1.4-0.2-2.5,0.3-3.1,1.7c0.2,0.2,0.4,0.4,0.5,0.5
		c-0.1,0.6,0.1,1.1-0.2,1.6c0.2,0.3,0.1,0.7,0.1,1c-0.3,0.4-0.6,0.5-1.1,0.5c-0.2,0-0.5,0-0.7,0c-0.1-0.2-0.2-0.3-0.3-0.5
		c-0.1-0.1-0.3-0.1-0.5-0.2c0-0.3,0-0.5,0-0.7c-0.2-0.3-0.4-0.2-0.6-0.3c-0.2-0.3-0.2-0.8-0.8-0.8c0-0.3,0-0.5,0-0.6
		c-0.1-0.1-0.3-0.2-0.4-0.4c-0.1,0-0.3,0-0.5,0c-0.1-0.4-0.4-0.8-0.8-1c-1.1,0-2.3,0-3.4,0c-0.3,0-0.7,0-1,0.1
		c-0.2,0.1-0.5,0.1-0.7,0.1c-1.3,0-2.6,0-3.9,0c-0.7,0-1.4,0-2,0.1c-0.6,0.1-1.1,0.1-1.7,0.1c-1.3,0-2.6,0-3.9,0
		c-0.9,0-1.9,0-2.8,0.2c-0.8,0.1-1.5,0.1-2.3,0.1c-4.2,0-8.5,0-12.7,0c-2.1,0.3-4.3,0.1-6.4,0.1c-0.6,0-1.2-0.2-1.8-0.1
		c-0.6,0-1.3,0-1.9,0c-0.6,0-1.2,0-1.8,0c-0.6,0-1.3,0-1.9,0c-0.6,0-1.3,0-1.9,0c-0.2,0-0.5-0.1-0.7-0.1c-0.3,0-0.5,0-0.8,0
		c-1-0.2-2.1-0.1-3.1-0.1c-0.3,0-0.5,0-0.8,0c-0.9,0.1-1.8,0-2.6-0.2C460,61.4,458.9,61.5,457.8,61.4z"/>
</g>
</svg>
