<?xml version="1.0" encoding="utf-8"?>
<!-- Generator: Adobe Illustrator 18.1.1, SVG Export Plug-In . SVG Version: 6.00 Build 0)  -->
<!DOCTYPE svg PUBLIC "-//W3C//DTD SVG 1.1//EN" "http://www.w3.org/Graphics/SVG/1.1/DTD/svg11.dtd">
<svg version="1.1" xmlns="http://www.w3.org/2000/svg" xmlns:xlink="http://www.w3.org/1999/xlink" x="0px" y="0px"
	 viewBox="10 100 592 592" enable-background="new 10 100 592 592" xml:space="preserve">
<g id="Layer_1">
</g>
<g id="Layer_2">
</g>
<g id="Layer_3">
	<g id="Layer_1_1_">
	</g>
</g>
<g id="Layer_4">
	<path fill="#FFFFFF" d="M-878.8,317.4c0,0,0.3-4.9-14.2-4.9c0,0-12.6-0.5-16.4,3.3c0,0,1.3,130.2,2.3,194.5c0,0,3.3,6,12.3,6
		c0,0,7.8,0.9,14.8-6C-880.1,510.3-877.5,414.7-878.8,317.4z M-893,319.5c-9.8-0.1-14.2-1.8-14.2-1.8c1.4-3.3,14.1-2.7,14.1-2.7
		c11-0.3,11.8,3.1,11.8,3.1C-884.4,319.2-893,319.5-893,319.5z"/>
	<path fill="#FFFFFF" d="M-854.2,312.9c0,0,0.3-4.9-14.2-4.9c0,0-12.6-0.5-16.4,3.3c0,0-1,139.9,0,204.3c0,0,5.7,6,14.7,6
		c0,0,7.8,0.9,14.8-6C-855.4,515.6-852.8,410.2-854.2,312.9z M-868.3,315c-9.8-0.1-14.2-1.8-14.2-1.8c1.4-3.3,14.1-2.7,14.1-2.7
		c11-0.3,11.8,3.1,11.8,3.1C-859.7,314.7-868.3,315-868.3,315z"/>
	<path fill="#FFFFFF" d="M-825,315.3c0,0,0.3-4.9-14.2-4.9c0,0-12.6-0.5-16.4,3.3c0,0-1,139.9,0,204.3c0,0,5.7,6,14.7,6
		c0,0,7.8,0.9,14.8-6C-826.2,518-823.6,412.6-825,315.3z M-839.1,317.4c-9.8-0.1-14.2-1.8-14.2-1.8c1.4-3.3,14.1-2.7,14.1-2.7
		c11-0.3,11.8,3.1,11.8,3.1C-830.6,317.1-839.1,317.4-839.1,317.4z"/>
	<path fill="#FFFFFF" d="M-880.8,523.5c0,0,5.7,6,14.7,6c0,0,7.8,0.9,14.8-6c0,0,2.6-105.3,1.2-202.6c0,0,0.3-4.9-14.2-4.9
		c0,0-12.6-0.5-16.4,3.3C-880.8,319.2-881.8,459.1-880.8,523.5z"/>
	<path fill="#333333" d="M-878.4,321.1c0,0,4.4,1.8,14.2,1.8c0,0,8.6-0.3,11.8-1.4c0,0-0.8-3.3-11.8-3.1
		C-864.4,318.4-877,317.8-878.4,321.1z"/>
	<path fill="#FFFFFF" d="M-849.2,522.2c0,0,5.7,6,14.7,6c0,0,5.2,0.4,12.2-6.6c0,0,4.1-100.6,3.8-197.9c0,0,0.3-4.9-14.2-4.9
		c0,0-12.6-0.5-16.4,3.3C-849.2,322.1-850.2,457.8-849.2,522.2z"/>
	<path fill="#333333" d="M-846.9,323.9c0,0,4.4,1.8,14.2,1.8c0,0,8.6-0.3,11.8-1.4c0,0-0.8-3.3-11.8-3.1
		C-832.8,321.3-845.4,320.7-846.9,323.9z"/>
	<path fill="#FFFFFF" d="M-903.2,526.4c0,0,4.5,6.1,13.5,6.1c0,0,7.8,0.9,14.8-6c0,0,2.6-103.1,1.2-200.4c0,0,0.3-4.9-14.2-4.9
		c0,0-12.6-0.5-16.4,3.3C-904.3,324.5-903,462.4-903.2,526.4z"/>
	<path fill="#333333" d="M-902,326.3c0,0,4.4,1.8,14.2,1.8c0,0,8.6-0.3,11.8-1.4c0,0-0.8-3.3-11.8-3.1
		C-887.9,323.7-900.6,323.1-902,326.3z"/>
	<path fill="#FFFFFF" d="M-874.4,532c0,0,5.7,6,14.7,6c0,0,7.8,0.9,14.8-6c0,0,2.6-105.3,1.2-202.6c0,0,0.3-4.9-14.2-4.9
		c0,0-12.6-0.5-16.4,3.3C-874.4,327.8-875.4,467.7-874.4,532z"/>
	<path fill="#333333" d="M-872,329.6c0,0,4.4,1.8,14.2,1.8c0,0,8.6-0.3,11.8-1.4c0,0-0.8-3.3-11.8-3.1
		C-857.9,326.9-870.6,326.3-872,329.6z"/>
	<path fill="#999999" d="M-907.5,449c0,0,2.8,0.5,4.2,13c0,0,7.3,5.4,13.3,4.7c0,0,13,0.3,20.5,3.1c0,0,12.7,1.7,21.2,0l24.8-10.2
		c0,0,1.8-0.8,3.2-3.5l-0.6,22.2c0,0-6.3,6-18.8,9.8c0,0-4.8,1-10.1,3.8c0,0-6.5,1.6-17.4,0.9l-5.8-1c0,0-2.6-1.6-8.9-2
		c0,0-15.7-0.6-19.2-4.6c0,0-3.4-6.8-3.8-11c0,0-1.4-5.5-2.3-6.6L-907.5,449z"/>
	<path fill="#999999" d="M-908.8,362.1c0,0,2.7-1.7,4,11.2c0,0,11.1,5.1,17.3,4.5c0,0,12.3-0.2,18.4,2.4c0,0,13.5,1.5,24.1-1.7
		l22.8-5.4c0,0,1.9-0.8,3.4-3.6l-0.6,22.9c0,0-5.5,4.7-18.4,8.6c0,0-2.8-0.7-8.2,2.2c0,0-2.7,2.4-13.9,1.7l-11.7-0.8
		c0,0-5.2-2.1-12.2-1.7c0,0-16.8-1.5-20.4-5.7c0,0-1.4-4.3-1.9-8.6c0,0-1.4-5.7-2.3-6.8L-908.8,362.1z"/>
	<g>
		<path fill="#FFFFFF" d="M-451.8,329c0,0,0.5-2.4,0.7-4.4c0,0-2.8-1.4-3.9-2.8c0,0-0.8-4.3-2-5.6l-0.7-1v-7.8l0.9-1.9l0.9,2.3
			c0,0-0.3,6.7,0.3,7.3c0,0,1.3,2,1.8,3.4c0,0,0.4,3.4,1.1,3.4c0,0,0.6,0,1.8,1.1c0,0,2.1,1.4,1.6,5.1l-0.6,1H-451.8z"/>
		<path fill="#FFFFFF" d="M-483.1,325.9c0,0,0.7-4.6,2.7-5.8c0,0,6.7-1.9,8.1-3.4c0,0,2.8-3.3,5.4-4.4c0,0,3.1-1.2,3.4-1.9l4-3.6
			l0.8-0.8v0.9c0,0-1.8,2.6-2.7,3.5l-1.9,2c0,0-3.3,1.3-3.8,2c0,0-3.1,2.6-3.9,3.6c0,0-5,3.3-7.1,3.7l-2.1,0.3c0,0-1.5,1.3-1.3,3.9
			H-483.1z"/>
		<path fill="#FFFFFF" d="M-486.8,316.7c0,0,0.5-4.3,3.8-5l6.7-1.9c0,0,3.3-1.9,4.9-2.2c0,0,7.1,0.3,8.1,0l3.9-3.1v0.9l-2.8,2.4
			c0,0-1.8,1-5.1,1.3c0,0-2.7-0.7-4.2-0.2l-4.2,1.9l-6.8,1.8c0,0-2.8,1.1-2.8,4H-486.8z"/>
		<path fill="#FFFFFF" d="M-454.2,307.1c0,0,6.5,8.4,9.3,8.9c0,0,2.4,1.2,5,1.4l7.2,0.4c0,0,4.6,1.5,4.7,5.1h1.8
			c0,0-0.3-4.7-4.1-6.2l-3.4-1.2c0,0-3.6,0.3-7.2,0c0,0-5-0.9-6.7-3.3l-5.1-4.3L-454.2,307.1z"/>
		<path fill="#FFFFFF" d="M-434.6,314.6c0,0-9.3,0.3-12.6-3.1l-6.2-4.4h1.1l5,3.4c0,0,4,2.3,5.1,2.3l7,0.8l2.5,1.4L-434.6,314.6z"/>
		<path fill="#FFFFFF" d="M-459.5,303.5l0.8-6.9l0.9-0.8c0,0,1.2-28.3,0.1-30.9c0,0-1.8-19.3-13.2-26.4c0,0-11.6-8.5-28.1,0
			c0,0-18.3,8.8-23.2,18.8l-3.2-1.8c0,0,10.8-14.7,26.3-20.8c0,0,11.7-5.1,24.3-1.6c0,0,12.4,3.7,17.8,22.9c0,0,1,3.5,1.8,11.6
			l0.1,27.3l1.4,2.5v6l-2.5,1h-2.5L-459.5,303.5z"/>
	</g>
	<g>
		<path fill="#FFFFFF" d="M306,677.7C150.6,677.7,24.3,551.4,24.3,396S150.6,114.3,306,114.3S587.7,240.6,587.7,396
			S461.4,677.7,306,677.7z M306,140.6C165.1,140.6,50.6,255.1,50.6,396S165.1,651.4,306,651.4S561.4,536.9,561.4,396
			S446.9,140.6,306,140.6z"/>
		<g>
			<path fill="none" d="M378.1,310.7c0,0-16.8-5-19.8-1.1c0,0,5.4,3.8,18.4,7.1c0,0,11.6,2.5,16.2,2
				C392.9,318.8,392.9,314,378.1,310.7z"/>
			<path fill="none" d="M342.4,310c0,0-16.8-5-19.8-1.1c0,0,5.4,3.8,18.4,7.1c0,0,11.6,2.5,16.2,2
				C357.3,318.1,357.3,313.3,342.4,310z"/>
			<path fill="none" d="M303.3,295.8c0,0-16.8-5-19.8-1.1c0,0,5.4,3.8,18.4,7.1c0,0,11.6,2.5,16.2,2
				C318.2,303.8,318.2,299.1,303.3,295.8z"/>
			<path fill="#FFFFFF" d="M396.3,318.7c0,0,1.2-3.8-7.2-7.8c0.4-1.9,0.9-3.7,1.3-5.6c0,0,2-6.4-17.5-11.2c0,0-13.5-3.9-20.8-2
				c0.1-1.4-0.8-6.8-17.5-10.9c0,0-16.8-4.9-23.1-1c0,0-0.2,0.9-0.7,2.7c-2.5-1.3-6-2.5-10.8-3.7c0,0-16.8-4.9-23.1-1
				c0,0-6,25.8-14.6,62.5c1,1.1,2.2,4.6,0.7,16c0,0,13.5,10.6,22.2,11.8c0,0,16.9,3.9,24.5,9.4c0,0,18,6.6,33.6,5.9l33,0.4
				c0,0,1.9-0.4,4.2-2.3C385.9,361.1,391.2,339.9,396.3,318.7z M372.2,297.4c14.8,3.3,14.9,8,14.9,8c-4.6,0.5-16.2-2-16.2-2
				c-13.1-3.3-18.4-7.1-18.4-7.1C355.4,292.4,372.2,297.4,372.2,297.4z M351.5,304.5c-4.6,0.5-16.2-2-16.2-2
				c-13.1-3.3-18.4-7.1-18.4-7.1c3-3.9,19.8,1.1,19.8,1.1C351.5,299.8,351.5,304.5,351.5,304.5z M333.8,284.6
				c14.8,3.3,14.9,8,14.9,8c-4.6,0.5-16.2-2-16.2-2c-13.1-3.3-18.4-7.1-18.4-7.1C317,279.6,333.8,284.6,333.8,284.6z M279.5,281.4
				c3-3.9,19.8,1.1,19.8,1.1c5.2,1.2,8.6,2.5,10.8,3.7c-0.3,1.2-0.7,2.6-1,4.2c-5.1-0.5-11.1-1.8-11.1-1.8
				C284.8,285.2,279.5,281.4,279.5,281.4z M301.9,301.9c-13.1-3.3-18.4-7.1-18.4-7.1c3-3.9,19.8,1.1,19.8,1.1
				c14.8,3.3,14.9,8,14.9,8C313.5,304.4,301.9,301.9,301.9,301.9z M341.1,316.1c-13.1-3.3-18.4-7.1-18.4-7.1
				c3-3.9,19.8,1.1,19.8,1.1c14.8,3.3,14.9,8,14.9,8C352.7,318.6,341.1,316.1,341.1,316.1z M376.7,316.8
				c-13.1-3.3-18.4-7.1-18.4-7.1c3-3.9,19.8,1.1,19.8,1.1c14.8,3.3,14.9,8,14.9,8C388.3,319.3,376.7,316.8,376.7,316.8z"/>
			<path fill="#FFFFFF" d="M299.3,533.7c0,0-9.3,0-23.8-4.6l-7.5-3.2c0,0-3-3-11.4-5.6c0,0-21-6-24.4-12.4c0,0-2.4-10.2-1.6-15.8
				c0,0-0.5-8.4-1.3-10.1l5.6-24.2c0,0,4,1.7,1.8,18.7c0,0,8,9.6,16.4,10.7c0,0,17.4,4.7,26.7,10.9c0,0,16.5,6.4,28.6,7l36.8-5.2
				c0,0,2.4-0.5,5-3c6.9-25.2,14.7-54.4,22.8-85.5c-2.4,1-11.4,4.3-27.4,5c0,0-3.6-1.8-11.9,0.2c0,0-4.5,2.4-19.6-2.4l-15.7-5
				c0,0-6.4-4.5-16.1-6.3c0,0-22.5-7.7-26.1-14.5c0,0-0.6-6.2,0.2-12.1c0,0,0-4.7-0.5-7.7c-13.1,56.2-29.4,126.2-39.8,171.7
				c0,0,0.9,3.2,4.1,6.4c-1.4,5.8-2.8,11.3-4.1,16.4c0,0,4.1,9.7,16.2,12.7c0,0,9.5,3.5,20.6-2.6c0.4,0.4,0.9,0.8,1.4,1.1
				c-0.5,2-0.9,3.9-1.3,5.8c0,0,5.6,9.9,17.7,12.9c0,0,10.2,3.8,21.8-3.2c0,0,0.8-3.1,2.4-8.8c2.9,2.7,7.2,5.7,12.9,7.1
				c0,0,6.9,2.2,18.5-4.8c0,0,6.4-22.2,16.2-57.4c-2.1,1.1-12.1,5.8-28.1,6.5C314.1,532.1,307.2,531.8,299.3,533.7z"/>
		</g>
		<path fill="#FFFFFF" d="M339.5,312.3c0,0,1.5-3,2.3-5.7c0,0-3.3-2.8-4.3-5.1c0,0,0.4-6-0.8-8.2l-0.6-1.6l2.6-10.4l1.8-2.3l0.5,3.3
			c0,0-2.7,8.9-2.1,9.8c0,0,1,3.1,1.2,5.1c0,0-0.6,4.7,0.3,4.9c0,0,0.8,0.2,2,2.1c0,0,2.3,2.6,0.4,7.4l-1.1,1.1L339.5,312.3z"/>
		<path fill="#FFFFFF" d="M298.5,297.8c0,0,2.5-5.9,5.5-6.8c0,0,9.6-0.4,12-1.9c0,0,4.8-3.5,8.7-4.1c0,0,4.5-0.6,5.2-1.4l6.6-3.5
			l1.3-0.9l-0.3,1.2c0,0-3.3,2.9-4.7,3.9l-3.1,2c0,0-4.8,0.6-5.8,1.4c0,0-5.1,2.5-6.4,3.5c0,0-7.8,2.8-10.7,2.6l-3-0.3
			c0,0-2.5,1.3-3,4.8L298.5,297.8z"/>
		<path fill="#FFFFFF" d="M296.6,284.2c0,0,2.1-5.5,6.7-5.5l9.6-0.4c0,0,5.1-1.5,7.3-1.3c0,0,9.4,2.7,10.8,2.7l6.3-2.8l-0.3,1.2
			l-4.5,2.3c0,0-2.7,0.8-7.3,0.1c0,0-3.4-1.8-5.5-1.6l-6.2,1.2l-9.6,0.2c0,0-4.1,0.6-5.1,4.4L296.6,284.2z"/>
		<path fill="#FFFFFF" d="M342.1,280.2c0,0,7.5,15.3,11,16.9c0,0,2.8,2.5,6.2,3.6l9.5,3c0,0,5.6,3.6,4.7,8.3l2.5,0.6
			c0,0,1.2-6.4-3.4-9.7l-4.2-2.7c0,0-4.9-0.7-9.6-2.4c0,0-7-3-8.5-6.7l-7-10.6L342.1,280.2z"/>
		<path fill="#FFFFFF" d="M367.3,298.6c0,0-12.5-2.7-15.9-8.3l-8-9.2l0.4-0.7l7.8,8.4c0,0,4.6,4.4,6.1,4.7l9.1,3.4l2.9,2.8
			L367.3,298.6z"/>
		<path fill="#FFFFFF" d="M336.9,278.5l3.3-9l1.4-0.7c0,0,5.9-9.1,5.4-13c0,0,4-26.5-9-39.8c0,0-13.2-15.2-38.9-9.8
			c0,0-11.3,1.7-21.1,13.5l-2.9-2.8c0,0,5-10.3,26.3-15.3c0,0,17.3-2.9,33.2,5.9c0,0,15.4,9.1,16.3,36.6c0,0,0.2,5-1.4,16.1
			l-3.9,8.3l1,3.8l-2,8.1l-3.7,0.5l-3.4-0.8L336.9,278.5z"/>
		<polygon fill="#1BB666" points="270.6,217.4 249.7,212.3 263.2,221.3 239.7,228.4 263.6,227.1 248.1,243.3 263.5,231.4 
			260.3,240.6 266.1,235.8 263.4,247 271.4,233.3 272.3,255.9 276.7,237.9 280.4,250 281,241.5 285.2,245.8 281.3,236.3 
			291.8,245.6 278.4,224.8 		"/>
	</g>
</g>
</svg>
