<?xml version="1.0" encoding="utf-8"?>
<!-- Generator: Adobe Illustrator 18.0.0, SVG Export Plug-In . SVG Version: 6.00 Build 0)  -->
<!DOCTYPE svg PUBLIC "-//W3C//DTD SVG 1.1//EN" "http://www.w3.org/Graphics/SVG/1.1/DTD/svg11.dtd">
<svg version="1.1" id="Layer_1" xmlns="http://www.w3.org/2000/svg" xmlns:xlink="http://www.w3.org/1999/xlink" x="0px" y="0px"
	 viewBox="0 0 792 612" enable-background="new 0 0 792 612" xml:space="preserve">
<g>
	<g>
		<path fill="#FFFFFF" d="M374.3,551.3l44.5-71.8c25.2,26.6,60.5,37.2,97.7,37.2c33.9,0,81.7-14.6,81.7-75.8v-24.6
			c-26.6,31.9-58.5,47.2-95,47.2c-78.4,0-140.9-53.8-140.9-162.1c0-105.7,60.5-161.5,140.9-161.5c35.9,0,69.1,14,95,45.9V148h102.3
			v293c0,130.2-104.3,158.2-184.1,158.2C461.4,599.2,415.5,585.2,374.3,551.3z M598.3,344.7v-85.7c-12.6-17.3-39.9-28.6-61.1-28.6
			c-40.5,0-70.4,24.6-70.4,71.1c0,47.2,29.9,71.8,70.4,71.8C558.4,373.2,585.6,361.9,598.3,344.7z"/>
	</g>
	<g>
		<path fill="#FFFFFF" d="M275.5,472c-79.7,0-184.1-27.9-184.1-158.2v-293h102.3v37.9c25.9-31.9,59.1-45.9,95-45.9
			c80.4,0,140.9,55.8,140.9,161.5c0,108.3-62.5,162.1-140.9,162.1c-36.5,0-68.4-15.3-95-47.2v24.6c0,61.1,47.8,75.8,81.7,75.8
			c37.2,0,72.4-10.6,97.7-37.2l44.5,71.8C376.5,458,330.6,472,275.5,472z M254.9,246.1c40.5,0,70.4-24.6,70.4-71.8
			c0-46.5-29.9-71.1-70.4-71.1c-21.3,0-48.5,11.3-61.1,28.6v85.7C206.4,234.8,233.6,246.1,254.9,246.1z"/>
	</g>
</g>
</svg>
