<svg xmlns="http://www.w3.org/2000/svg" xmlns:xlink="http://www.w3.org/1999/xlink" version="1.1" id="Layer_1" x="0px" y="0px" viewBox="0 0 127.8 127.5" enable-background="new 0 0 127.8 127.5" xml:space="preserve">
<g>
	<g>
		<path fill="#FFFFFF" d="M93.2-193.4l-1.3-2c-0.9 1-1.4 2.1-1.7 3.3c-0.3 1.1-0.7 2.3-1 3.3c-0.3 0.9-0.6 1.7-1 2.6 c4-2.3 7.1-6.1 7.7-12.4c-0.3 0.4-0.6 0.9-0.9 1.3C94.4-195.9 93.9-194.7 93.2-193.4z"/>
		<path fill="#FFFFFF" d="M32.5-244.3l-0.6 0.7v7.8l2.6-1.3l3 2.7c-1.4-0.6-2.7-0.9-3.8-0.9l-1.7 0.9v12.2l0.9 1l-0.9 0.9v6.8 c0 9.1 4.8 13.7 10.4 15.8l-0.4-0.4c0.3-0.6 0.9-1.1 1.3-1.6c0.6-0.4 1.1-0.6 1.9-0.6c0 0.7-0.1 1.3-0.6 1.7 c-0.3 0.4-0.7 0.7-1.1 1.1c2.7 0.9 5.6 1.3 8 1.3c4 0 7.5-0.7 10.8-2.4c0-0.1 0-0.1 0-0.3c0.1-0.6 0.3-1.1 0.6-1.6 c0.3-0.4 0.6-0.6 1-0.6l-0.1-0.1l1.3 1c0.6-0.4 1.1-0.9 1.6-1.3v-0.3c0.9 0.6 1.7 1 2.7 1.4c0.6 0 1-0.1 1.4-0.1h0.3l-0.4 0.6 c1.4 0.4 2.8 0.6 4.4 0.6l-0.7-1.4l0.1-0.6l3.7-0.9c-0.4 0.6-0.9 1.1-1.3 1.9c-0.1 0.3-0.4 0.6-0.7 1c1.7-0.1 3.4-0.7 5-1.6 l-0.3-0.3l0.6-0.3l0.4 0.1c1-0.7 2-1.6 2.8-2.7l-0.6-0.7l0.7-1l0.6 0.9l0 0v0.1v0.1v0.1v3.1c0 1.7-0.4 3.1-1 4.3 c0.3 0.7 0.6 1.4 0.6 2.1c0 1.6-0.3 2.7-1 3.4c0-0.6 0-1.6-0.1-3c0-0.6-0.1-1-0.3-1.3c-1.9 2.3-4.8 3.1-7.1 3.1 c-0.9 0-1.9 0-2.7-0.1l-0.1 0.4l-0.4-0.4c-2.7-0.4-5.3-1.6-7-3.6l-0.9 1.6v0.6l-0.1-0.3l-3.6 5.8c0.1 0.1 0.4 0.4 0.6 0.6 c1.4 1.1 3 2 4.7 2.7c-0.6-0.6-1-1.1-1.6-1.7l3.6-5.6c0.7 0 1.1 0.1 1.3 0.6c0.1 0.4 0.3 0.9 0.3 1.3c0 0.4 0.1 0.9 0.3 1.3 c0.1 0.4 0.4 0.6 0.9 0.6c0.6 0 1-0.1 1.3-0.4c0.3-0.3 0.4-0.6 0.6-1c0.1-0.3 0.4-0.7 0.6-1c0.3-0.3 0.7-0.4 1.3-0.4l1 0.1l-1 1.7 l0.6 2l2.3-2.1l-0.9-0.7l1.7-1.7l4.8 4.6c-0.3 0.6-0.4 1.1-0.7 1.7c-0.3 0.6-0.3 1.1-0.3 1.7c0.3-0.6 0.9-1.1 1.6-1.9 c0.7-0.7 1.4-1.3 2.1-2s1.4-1.3 2-2c0.6-0.7 0.9-1.3 0.9-2c0-1-0.4-2-1.1-2.7s-1.1-1.6-1.1-2.7c0.7 0 1.4 0.1 2 0.4 c0.6 0.3 1.3 0.4 2 0.4l0.3-1.6l-2-3.7l-2.8-0.9l2-3.8l-2.8 1l1-2.1l-1-2.8l0.9-1.6l5.6 5.6l-1.7 1.7c0 0.7 0.1 1.4 0.3 2 c0.3 0.7 0.4 1.3 0.7 1.9c0.4 0 1-0.3 1.6-0.9c0.6-0.6 1.1-1.1 1.7-2c0.6-0.7 1-1.6 1.6-2.3l0 0v-7.1c-0.1 0.1-0.1 0.3-0.3 0.4 c-0.6 0.7-1.1 1.3-1.7 1.9c-0.6 0.6-1.3 0.9-2.1 0.9l-0.9-2c0.3-0.4 0.7-1.3 1.3-2.4c0.6-1.1 1.1-2.4 1.9-3.7 c0.6-1.3 1.3-2.4 1.9-3.4v-10.7c0 0-5 0-7.7 0L88-232c0 0.6 0.1 1 0.6 1.3c0.4 0.3 0.9 0.6 1.4 0.9c0.6 0.3 1 0.6 1.4 1 c0.4 0.3 0.6 0.9 0.6 1.4l-0.9 2.1c-0.9-0.6-1.6-1.4-2.1-2.4c-0.6-1-1.1-2-1.7-3l1-1.9c-1 0-1.6 0-1.6 0c-0.6 0-1.1 0.6-1.1 1.1 v2.8c-0.3-0.4-0.7-0.7-1-1l-0.9 1.6l-1.3-2h1.7c-1.1-1.1-2.4-2-3.8-2.6c-0.6 0.4-1.1 1-1.6 1.9l1 0.7c-0.9 0.4-1.6 1-2.3 1.4 c-0.7 0.4-1.6 0.7-2.4 0.7c-1.1 0-2-0.7-2.7-2.1c1.1 0 2.1-0.3 3-0.9c0.9-0.6 1.6-1.3 2.3-2c0.1-0.1 0.3-0.3 0.4-0.4 c-0.9-0.1-1.9-0.3-2.8-0.3c-2.8 0-5.6 0.9-7.7 1.7c-0.1-0.7-0.3-1.4-0.4-2.1c-1 0.6-2 1-3 1.6c0-1.1 0.3-2.3 1-3.4 c0.3-0.4 0.7-0.9 1.1-1.1c-2.3-6.1-7.3-9.4-13.5-9.4c-3.8 0-7.3 1.6-10.1 5v-2.6c0-0.6-0.6-1.1-1.1-1.1h-9.5L32.5-244.3z M63.3-189.7h-0.7l0.7-1.7l0.7 0.9L63.3-189.7z M94.6-210.2L95-210l-0.9 0.9l-0.3-0.1L94.6-210.2z M93.9-230.4l0.7 0.9l-0.7 0.7 l-0.6-0.7L93.9-230.4z M92-224.8l0.9 0.9l-0.9 0.9l-0.6-0.9L92-224.8z M33.5-214.6h-0.7l0.7-2l0.7 1L33.5-214.6z M35.5-224.8h-1 l1-0.9V-224.8z M35.5-226.8l-0.9-0.9l0.9-1l0.6 1L35.5-226.8z M36.2-209.2l2-2l0.1 1l-0.9 2L36.2-209.2z M39.2-200.8l-0.9-0.9 l0.9-0.9l0.7 0.9L39.2-200.8z M42.9-205.5h-1v-1h1V-205.5z M51.3-201.8l-0.7-0.9l0.7-0.9l0.7 0.9L51.3-201.8z M53.7-199.8 c-0.1 0.3-0.4 0.7-0.7 0.9l1-2C54-200.5 53.9-200.1 53.7-199.8z M56.4-196.5l-0.6-0.3l0.6-4.3l0.3 4.3L56.4-196.5z M58.7-200.4 l-0.9-0.6l0.9-0.3l1 0.3L58.7-200.4z M59.7-203.5l-0.9-0.9l0.9-1l0.6 1L59.7-203.5z M61.6-201.8h-0.9l0.9-1.7l0.7 0.9L61.6-201.8z M61.7-208.2L61.7-208.2c-0.3 0.4-0.7 0.7-1 1c-1.1 1-2 1.9-2.8 2.1v-0.6c-0.9 0.3-1.9 0.6-2.7 0.7l0.7 0.4h-1.7v-0.3 c-0.7 0.1-1.4 0.1-2.1 0.1c-1 0-2-0.3-3.1-0.7c0.1 0.3 0.4 0.6 0.6 0.9l-0.7 1c-1-0.7-1.9-1.6-2.7-2.7c-0.3-0.4-0.6-0.9-0.7-1.4 c-0.9-0.9-1.6-2-2-3.3v-0.1l0 0c-0.3-0.9-0.4-1.7-0.4-2.7v-3.4c3.1 4.1 6.4 5.7 10.2 5.7c2.8 0 5.6-0.6 7.7-1.7 c0.1 1.4 0.4 2.7 0.9 4c1-0.4 1.4-1 1.4-1.7l-0.6-1l2 1.4C63.5-210 62.7-209.2 61.7-208.2z M41.9-219.3c0-0.4 0-1 0.1-1.7 c0.1-0.7 0.4-1.1 0.9-1.3v3L41.9-219.3L41.9-219.3z M45.6-217.6c0.3-0.6 0.9-1.1 1.3-1.6c0.6-0.4 1.1-0.6 1.9-0.6 c0 0.7-0.1 1.3-0.6 1.7c-0.4 0.4-0.9 1-1.6 1.4L45.6-217.6z M51.7-216.2l0.4-0.3l0.3 0.6l-0.3 0.3L51.7-216.2z M54.2-217.6v-2.7 l2.1 2.7H54.2z M56.6-214.6l-0.7 0.9l-0.7-0.9l0.7-1L56.6-214.6z M59.3-220c1-0.3 1.9-0.7 2.4-0.9l-0.6 1.7l-0.7-1.3l-0.6 0.9 l0.6 0.9h0.3l-2.3 2l-0.7-1.7C57.9-219 58.3-219.6 59.3-220z M58.6-221.4l1.3-0.9L59-221L58.6-221.4z M61.8-227.4l-0.4-0.3 l0.4-0.3l0.6 0.3L61.8-227.4z M62.3-213.7l-0.7 0.9l-0.9-0.9l0.9-0.9L62.3-213.7z M58.3-214.6l-0.6 0.9l-0.9-0.9l0.9-1L58.3-214.6 z M64.3-220.3l-0.7 0.1l0.7-2.1l0.7 1L64.3-220.3z M65.3-206.5l-0.1-0.3l1.4-1.4l0.6 0.1L65.3-206.5z M66.3-215.3 c2.4 0 3.6 1.1 3.6 3.4l-0.1 0.9c-1-0.3-1.9-0.7-2.4-1.6C66.7-213.3 66.3-214.3 66.3-215.3z M69-202.6l-0.9-0.9l0.9-1l0.6 1 L69-202.6z M72.4-203.3c-1 0.3-1.9 0.4-2.7 0.7c0.1-0.6 0.3-1.6 0.6-3s0.9-2 1.9-2l1.6 2.3C73.8-204.2 73.2-203.5 72.4-203.3z M79.1-199.9l-0.7-1.7h0.7l0.7 0.9L79.1-199.9z M80.1-204.5l-0.3-0.9c0-1 0.3-1.6 0.9-2c0.6-0.3 1.3-0.6 2.1-0.7 C82.3-206.8 81.3-205.6 80.1-204.5z M85.6-190.5l-0.7-0.9l0.7-0.9l0.7 0.9L85.6-190.5z M86.2-199.4l0.3 0.6l-0.3 0.3l-0.6-0.3 L86.2-199.4z M87.6-222.3l0.7 1l-0.7 0.9l-0.9 0.1L87.6-222.3z M85.6-226.8l0.7 1l-0.7 0.9l-0.7-0.9L85.6-226.8z M85.9-223.1 l-0.3 0.9l-0.3-0.9l0.3-0.9L85.9-223.1z M82.1-226.8c0 0.3 0 0.6-0.1 1c-0.1 0.4 0 0.7 0.1 1l-1.3-2H82.1z M79.1-225.8l0.7 0.9 l-0.7 0.9l-0.7-0.9L79.1-225.8z M73.5-223.1h2.8l0 0c0.9-0.3 1.7-0.4 2.6-0.4c0 0 0 0 0.3 0c0.4 0 0.7 0 1.1 0.1 c0.7-0.9 1.6-1.4 2.4-1.6l0.1 0.9c0 0.7-0.1 1.1-0.3 1.7c1.6 1.1 2.7 2.8 2.8 4.7l1.4-1.6l3.1 0.7l-4.6 2.8v4.4h-0.3l0 0 c-1.1 1.7-4.1 3.1-6.4 3.1c-2 0-3.7-0.6-5.1-1.7l-0.4-0.1h-0.7v-1.1c-0.7-1.1-1.1-2.7-1.3-4.6c-0.1 0-0.3-0.1-0.4-0.1 c-0.9-0.3-1.3-1-1.3-2v-0.6l1.3-1.7l1 1.3c0.4-1.4 1.3-2.4 2.4-3.1L73.5-223.1z M72.7-225.8l0.7 0.9l-0.7 0.9l-0.9-0.9L72.7-225.8 z M71-229.7l-1.3 3.8L71-225c0 1.3-0.3 2.6-1 3.8c-0.7 1.3-1.9 1.9-3.4 1.9l-1.3-1c0.7-0.4 1.4-1 2-1.6c0.6-0.6 0.9-1.3 0.9-2.3 c0-1-0.3-1.9-0.7-2.8c-0.4-1-0.7-1.9-0.7-2.8H71V-229.7z M65.5-224l-2.3 1.7l-0.9-1.7H65.5z M64.3-238.9l0.1 0.6l-1 1.4 L64.3-238.9z M62.4-241.5l0.7 0.9l-0.7 0.7l-0.7-0.7L62.4-241.5z M62.1-231.7l0.3 0.1l-0.9 1l-0.1-0.3L62.1-231.7z M59.7-236.1 l0.6 0.9l-0.6 0.9l-0.9-0.9L59.7-236.1z M59-232.8l0.7 0.6L59-232l-0.6-0.3L59-232.8z M59.7-224l-1.3 0.9c-1.1 0-1.7-0.7-1.7-2.3 c0.4 0.1 1 0.3 1.7 0.3C59.1-225 59.6-224.6 59.7-224z M40.1-241.5l0.9 1.6l-1-1.4L40.1-241.5z M39.6-226.3c0.6-1 0.9-2.1 0.9-3.4 h0.3c0.3 0.9 0.4 1.6 0.7 2.4c0.3 0.7 0.3 1.6 0.3 2.4c0.6-0.3 1-0.7 1-1.3c0-0.1 0-0.3 0-0.6v-4c0-1.7 1.1-3.6 2.8-4.4 c1.1-0.6 2.6-0.9 3.6-0.9c4.4 0 7.5 2.6 7.5 7.5s-3.1 7.7-7.5 7.7c-0.7 0-1.6-0.1-2.3-0.4l-0.4 0.7l-0.9-0.9l0.1-0.1 c-1.3-0.6-2.3-1.3-3-2.4v-0.1h-0.1c-0.7 0.3-1.6 0.4-2.4 0.6c-0.9 0.1-1.4 0.3-2 0.4v0.6h-1l1-0.6 C38.6-224.1 39.1-225.3 39.6-226.3z M34.5-238.9l-0.7-0.9l0.7-1l0.7 1L34.5-238.9z M34.7-242.8c0 1.6-0.7 2.3-2.1 2.3 C32.5-242.1 33.2-242.8 34.7-242.8z"/>
		<path fill="#FFFFFF" d="M63.3-199.9l-0.7 1l0.1 0.1c0.3-0.1 0.7-0.4 1-0.6L63.3-199.9z"/>
		<path fill="#FFFFFF" d="M78.5-183.6l-2-0.7v-0.3h-2.8l-1-2.3l-2.1 0.9c0 0.9 0.3 1.4 0.7 2c1.7 0.4 3.6 0.6 5.6 0.6 C77.2-183.4 77.8-183.4 78.5-183.6z"/>
		<polygon fill="#FFFFFF" points="80.8,-186.8 80.3,-186 80.8,-185.1 81.8,-186"/>
	</g>
	<g>
		<path fill="#FFFFFF" d="M109.5-180l0.7-1.1l0.7 1c4.4-5.6 7.8-11.8 10.1-18.6l-0.4-0.3l1-1.6c1.6-5.3 2.4-11 2.4-16.8 c0-10-2.4-19.4-6.7-27.6l-1.7 1.7l-0.1-0.6c0-0.9 0.4-1.9 1-2.7c-7.8-14.1-21.1-24.6-36.9-28.9v0.6h-1.9c0.1-0.4 0.4-0.7 0.7-0.9 c-4.7-1.1-9.5-1.9-14.5-1.9c-4.7 0-9.1 0.6-13.5 1.6l-0.1 0.1l-0.1-0.1c-4.7 1.1-9.1 2.7-13.4 4.8l0.4 0.6l-0.7 1l-0.9-0.9 c-2.8 1.6-5.6 3.3-8.3 5.3c0.1-0.1 0.4-0.1 0.7-0.3c0.6-0.1 1.3-0.4 1.9-0.7c0.6-0.3 1-0.7 1.4-1.3c0 1.9-0.6 3-1.6 3.7 c-1 0.7-2.4 1-4 1c0-0.7 0.1-1.1 0.4-1.6c-6.3 5-11.4 11.2-15.2 18.2c0 0 0 0 0 0.1c0.1 0.4 0.3 0.9 0.6 1l-0.6 0.6l-0.1-1.6 c-4.3 8-6.8 16.9-7.1 26.6c0.1 0.6 0.3 1.3 0.3 2c-0.1 0-0.3 0-0.3 0c0 1.7 0.1 3.4 0.3 5.1c0.7-0.9 1.9-1.4 3.4-1.9l1.7 1.3 c0 1.1-0.3 1.9-0.7 2.3c-0.4 0.4-1 0.6-1.6 0.7c-0.6 0-1.1 0.1-1.9 0.1c-0.3 0-0.6 0.1-0.7 0.3c0.3 2.3 0.7 4.7 1.4 7 c0.1 0 0.1 0.1 0.3 0.1c-0.1 0-0.1 0-0.3 0c6.8 25.8 30.3 44.7 58.1 44.7c8.8 0 17.2-2 24.8-5.4l0.3-0.6l0.3 0.3 c5.4-2.6 10.2-5.8 14.7-9.7l-0.7-1l0.7-1.1l0.7 1.1l-0.7 0.9c2.1-2 4.3-4.1 6.1-6.4L109.5-180z M111.2-181.1l-0.7-1l0.7-1.1 l0.7 1.1L111.2-181.1z M117.2-195.8c-0.4 0.6-0.9 1.1-1.3 1.7c-0.4 0.6-1 1.1-1.4 1.6c-0.6 0.4-1.1 0.7-1.9 0.9 c0.4-1.4 1-2.7 1.6-4c0.7-1.3 1.4-2.4 2-3.6l2.7 2.1C118.1-196.8 117.6-196.4 117.2-195.8z M118.8-203.3l-1-1l1-1.1l0.7 1.1 L118.8-203.3z M118.9-222.1l1-1.1l0.6 1.1l-0.6 1L118.9-222.1z M122.1-225.4v1l-1.3-1H122.1z M121.1-208l-0.4 0.4l-0.4-0.4 l0.4-0.6L121.1-208z M119.9-225.4l-1-1l1-1.1l0.6 1.1L119.9-225.4z M119.2-236.5l0.7 3.7l-0.7 0.6l-0.4-0.6L119.2-236.5z M118.4-236.9l-0.7 1l-0.7-1l0.7-1.1L118.4-236.9z M114.8-246.8c0.1-0.6 0.4-0.9 1-0.9l-1.3 2.1 C114.5-245.8 114.7-246.2 114.8-246.8z M109.8-254.3l0.6 0.4l-0.6 0.6l-0.4-0.7L109.8-254.3z M88.3-270.8l-1.1 1.1L86-272 L88.3-270.8z M68.5-276.1c0.1-0.4 0.4-0.9 0.9-1l0.7 1.1l-2.1 1.1C68.1-275.2 68.2-275.7 68.5-276.1z M56.3-275.1 c0.7 0.1 1.1 0.6 1.3 1.3l-1.9 2.1c0-0.6-0.1-1.3-0.6-1.9c-0.4-0.6-0.6-1.1-0.6-1.9C54.9-275.4 55.6-275.4 56.3-275.1z M48-271.8 l1.1 1H48V-271.8z M42.5-272l0.4 0.1l-1 1l-0.4-0.1L42.5-272z M22.3-260.6l1.7 1.3h-0.4c-0.3 0-0.6-0.1-1-0.3 c-0.4-0.1-0.7-0.4-0.7-0.9L22.3-260.6z M8.6-238.6l0.6 0.6l-0.6 0.4l-0.4-0.6L8.6-238.6z M8-233.8c0-1.1 0.4-1.9 1.1-2.1v2.1H8z M25.8-174.9h-0.7v-1.1h0.7V-174.9z M30.2-168.5l1.1-2.1l0.7 3.1L30.2-168.5z M65.5-159.8l-0.4-0.4l0.4-0.6l0.6 0.6L65.5-159.8z M71.5-159.2l-1-1l1-1.1l0.7 1.1L71.5-159.2z M90.5-165.5l-1-1l1-1.1l0.7 1.1L90.5-165.5z M107.3-184.4l-0.3-0.3 c-1.3 1.7-2.6 3.3-4.1 4.7c-0.1 0.4-0.3 0.9-0.7 1.3c-0.3 0.3-0.7 0.4-1 0.4c-2.3 2.1-4.8 4.1-7.5 6l0.4 0.7l-0.7 1l-0.9-0.9 c-3.3 2.1-6.8 3.8-10.7 5.1l1 3.3l-1 1.9c-0.7-0.6-1-1.4-1-2.3c0-0.9-0.4-1.6-1.3-1.9l2-0.9c-0.9 0.3-1.6 0.6-2.4 0.7l0.1 0.3 l-0.7 1l-0.7-0.9c-4.6 1.1-9.3 1.9-14.1 1.9c-0.7 0-1.4 0-2.1 0l0 0l0 0c-10.2-0.4-19.8-3.7-27.9-9l-0.4 0.6l-1-1l0.3-0.4 c-3.4-2.4-6.5-5.1-9.4-8.3c0.1 0.1 0.1 0.4 0.3 0.6c0.1 0.7 0.3 1.4 0.3 1.9l-2.3-1.3l1-2.1l0 0c-4-4.7-7.1-10-9.4-15.8h-0.1 c0-0.1 0-0.3 0-0.3c-0.4-1.3-0.9-2.4-1.3-3.7l0 0c-0.9 0.9-1.4 1.9-1.9 2.8l1.1 2.1c-1 0-2-0.3-2.8-0.7c-0.9-0.6-1.4-1.3-1.6-2.3 l2.6-1.1l-1.3-2.7l2.7-2.8c-0.7-3.4-1.1-7.1-1.1-10.8c0-2.4 0.1-4.8 0.4-7.1c0 0.1-0.1 0.3-0.1 0.4c-0.1 0.4-0.4 0.7-0.9 1v-2.1 h1.1c0.7-5.4 2.4-10.5 4.6-15.2c-0.1 0-0.1 0.1-0.3 0.1c-0.4 0.1-0.9 0.3-1.3 0.3h-1l2.4-1.1h0.3c8.4-17.2 25.9-29.5 46.1-30.5 c-0.4-0.7-0.7-1.4-1-2.1c-0.4-1-0.6-2.1-0.6-3.3h1.7c0 1.1 0.3 1.9 0.7 2.1c0.4 0.3 1 0.4 1.6 0.6c0.6 0.1 1.3 0.3 1.9 0.3 c0.6 0 1 0.4 1.4 1.3c-0.3 0.6-0.7 0.9-1.1 1.1c5.3 0.1 10.2 1.1 14.9 2.7c0-0.7 0.1-1.4 0.3-2.3c0.1-1 0.6-1.9 1.3-2.6v4.3 l1.3 1.6c1.6 0.6 3 1.3 4.4 2v-0.1c0-1.7 0.7-2.8 2.3-3.4c-0.1 0.7-0.3 1.6-0.6 2.8c-0.1 0.6-0.3 1-0.4 1.3 c15.5 8.3 26.6 23.9 28.6 42.3c0.3 0 0.6 0 0.9 0c-0.3 0.1-0.6 0.3-0.9 0.4c0.1 1.7 0.3 3.6 0.3 5.4c0 3.7-0.4 7.3-1.1 10.7 l0.3 0.4l-0.4 0.6c-0.1 0.6-0.3 1.1-0.4 1.7l0.1-0.1l0.7 1.1l-0.7 1l-0.4-0.6c-0.1 0.3-0.1 0.6-0.3 0.9l0.6 0.9l-0.7 1l-0.3-0.3 c-1.9 5.4-4.4 10.4-7.7 14.8l0.1 0.1L107.3-184.4z"/>
		<path fill="#FFFFFF" d="M10.3-204.3l1 1l0.3-0.3c-0.1-0.6-0.3-1.1-0.4-1.6L10.3-204.3z"/>
	</g>
</g>
<g>
	<g>
		<path fill="#FFFFFF" d="M105.3 97.9l-1.8-2.8c-1.2 1.4-2 3-2.4 4.6c-0.4 1.6-1 3.2-1.4 4.6c-0.4 1.2-0.8 2.4-1.4 3.6 c5.6-3.2 10.1-8.7 10.9-17.5c-0.4 0.6-0.8 1.2-1.2 1.8C107.1 94.3 106.3 96.1 105.3 97.9z"/>
		<path fill="#FFFFFF" d="M19.5 25.8l-0.8 1v11.1l3.6-1.8l4.2 3.8c-2-0.8-3.8-1.2-5.4-1.2l-2.4 1.2v17.3l1.2 1.4l-1.2 1.2v9.7 c0 12.9 6.8 19.3 14.7 22.4l-0.6-0.6c0.4-0.8 1.2-1.6 1.8-2.2c0.8-0.6 1.6-0.8 2.6-0.8c0 1-0.2 1.8-0.8 2.4c-0.4 0.6-1 1-1.6 1.6 c3.8 1.2 7.9 1.8 11.3 1.8c5.6 0 10.7-1 15.3-3.4c0-0.2 0-0.2 0-0.4c0.2-0.8 0.4-1.6 0.8-2.2c0.4-0.6 0.8-0.8 1.4-0.8l-0.2-0.2 l1.8 1.4c0.8-0.6 1.6-1.2 2.2-1.8v-0.4c1.2 0.8 2.4 1.4 3.8 2c0.8 0 1.4-0.2 2-0.2h0.4L73 88.9c2 0.6 4 0.8 6.2 0.8l-1-2l0.2-0.8 l5.2-1.2c-0.6 0.8-1.2 1.6-1.8 2.6c-0.2 0.4-0.6 0.8-1 1.4c2.4-0.2 4.8-1 7-2.2l-0.4-0.4l0.8-0.4l0.6 0.2c1.4-1 2.8-2.2 4-3.8 l-0.8-1l1-1.4l0.8 1.2l0 0V82v0.2v0.2v4.4c0 2.4-0.6 4.4-1.4 6c0.4 1 0.8 2 0.8 3c0 2.2-0.4 3.8-1.4 4.8c0-0.8 0-2.2-0.2-4.2 c0-0.8-0.2-1.4-0.4-1.8c-2.6 3.2-6.8 4.4-10.1 4.4c-1.2 0-2.6 0-3.8-0.2l-0.2 0.6l-0.6-0.6c-3.8-0.6-7.5-2.2-9.9-5l-1.2 2.2v0.8 l-0.2-0.4l-5 8.3c0.2 0.2 0.6 0.6 0.8 0.8c2 1.6 4.2 2.8 6.6 3.8c-0.8-0.8-1.4-1.6-2.2-2.4l5-7.9c1 0 1.6 0.2 1.8 0.8 c0.2 0.6 0.4 1.2 0.4 1.8c0 0.6 0.2 1.2 0.4 1.8c0.2 0.6 0.6 0.8 1.2 0.8c0.8 0 1.4-0.2 1.8-0.6c0.4-0.4 0.6-0.8 0.8-1.4 c0.2-0.4 0.6-1 0.8-1.4c0.4-0.4 1-0.6 1.8-0.6l1.4 0.2l-1.4 2.4l0.8 2.8l3.2-3l-1.2-1l2.4-2.4l6.8 6.4c-0.4 0.8-0.6 1.6-1 2.4 c-0.4 0.8-0.4 1.6-0.4 2.4c0.4-0.8 1.2-1.6 2.2-2.6c1-1 2-1.8 3-2.8c1-1 2-1.8 2.8-2.8s1.2-1.8 1.2-2.8c0-1.4-0.6-2.8-1.6-3.8 c-1-1-1.6-2.2-1.6-3.8c1 0 2 0.2 2.8 0.6c0.8 0.4 1.8 0.6 2.8 0.6l0.4-2.2l-2.8-5.2l-4-1.2l2.8-5.4l-4 1.4l1.4-3l-1.4-4l1.2-2.2 l7.9 7.9l-2.4 2.4c0 1 0.2 2 0.4 2.8c0.4 1 0.6 1.8 1 2.6c0.6 0 1.4-0.4 2.2-1.2c0.8-0.8 1.6-1.6 2.4-2.8c0.8-1 1.4-2.2 2.2-3.2 l0 0V69.5c-0.2 0.2-0.2 0.4-0.4 0.6c-0.8 1-1.6 1.8-2.4 2.6c-0.8 0.8-1.8 1.2-3 1.2l-1.2-2.8c0.4-0.6 1-1.8 1.8-3.4 c0.8-1.6 1.6-3.4 2.6-5.2c0.8-1.8 1.8-3.4 2.6-4.8V42.6c0 0-7 0-10.9 0L98 43.4c0 0.8 0.2 1.4 0.8 1.8c0.6 0.4 1.2 0.8 2 1.2 c0.8 0.4 1.4 0.8 2 1.4c0.6 0.4 0.8 1.2 0.8 2l-1.2 3c-1.2-0.8-2.2-2-3-3.4c-0.8-1.4-1.6-2.8-2.4-4.2l1.4-2.6c-1.4 0-2.2 0-2.2 0 c-0.8 0-1.6 0.8-1.6 1.6v4c-0.4-0.6-1-1-1.4-1.4L92 49l-1.8-2.8h2.4c-1.6-1.6-3.4-2.8-5.4-3.6c-0.8 0.6-1.6 1.4-2.2 2.6l1.4 1 c-1.2 0.6-2.2 1.4-3.2 2c-1 0.6-2.2 1-3.4 1c-1.6 0-2.8-1-3.8-3c1.6 0 3-0.4 4.2-1.2c1.2-0.8 2.2-1.8 3.2-2.8 c0.2-0.2 0.4-0.4 0.6-0.6c-1.2-0.2-2.6-0.4-4-0.4c-4 0-7.9 1.2-10.9 2.4c-0.2-1-0.4-2-0.6-3c-1.4 0.8-2.8 1.4-4.2 2.2 c0-1.6 0.4-3.2 1.4-4.8c0.4-0.6 1-1.2 1.6-1.6C64 27.7 56.9 23 48.1 23c-5.4 0-10.3 2.2-14.3 7v-3.6c0-0.8-0.8-1.6-1.6-1.6H18.7 L19.5 25.8z M63 103.2h-1l1-2.4l1 1.2L63 103.2z M107.3 74.2l0.6 0.2l-1.2 1.2l-0.4-0.2L107.3 74.2z M106.3 45.6l1 1.2l-1 1 l-0.8-1L106.3 45.6z M103.6 53.4l1.2 1.2l-1.2 1.2l-0.8-1.2L103.6 53.4z M20.9 67.9h-1l1-2.8l1 1.4L20.9 67.9z M23.7 53.4h-1.4 l1.4-1.2V53.4z M23.7 50.6l-1.2-1.2l1.2-1.4l0.8 1.4L23.7 50.6z M24.7 75.6l2.8-2.8l0.2 1.4L26.5 77L24.7 75.6z M28.9 87.5 l-1.2-1.2l1.2-1.2l1 1.2L28.9 87.5z M34.2 80.8h-1.4v-1.4h1.4V80.8z M46.1 86.1l-1-1.2l1-1.2l1 1.2L46.1 86.1z M49.5 88.9 c-0.2 0.4-0.6 1-1 1.2l1.4-2.8C49.9 87.9 49.7 88.5 49.5 88.9z M53.3 93.5l-0.8-0.4l0.8-6l0.4 6L53.3 93.5z M56.5 88.1l-1.2-0.8 l1.2-0.4l1.4 0.4L56.5 88.1z M57.9 83.6l-1.2-1.2l1.2-1.4l0.8 1.4L57.9 83.6z M60.6 86.1h-1.2l1.2-2.4l1 1.2L60.6 86.1z M60.8 77 L60.8 77c-0.4 0.6-1 1-1.4 1.4c-1.6 1.4-2.8 2.6-4 3v-0.8c-1.2 0.4-2.6 0.8-3.8 1l1 0.6h-2.4v-0.4c-1 0.2-2 0.2-3 0.2 c-1.4 0-2.8-0.4-4.4-1c0.2 0.4 0.6 0.8 0.8 1.2l-1 1.4c-1.4-1-2.6-2.2-3.8-3.8c-0.4-0.6-0.8-1.2-1-2c-1.2-1.2-2.2-2.8-2.8-4.6V73 l0 0c-0.4-1.2-0.6-2.4-0.6-3.8v-4.8c4.4 5.8 9.1 8.1 14.5 8.1c4 0 7.9-0.8 10.9-2.4c0.2 2 0.6 3.8 1.2 5.6c1.4-0.6 2-1.4 2-2.4 L62 71.8l2.8 2C63.4 74.4 62.2 75.6 60.8 77z M32.8 61.3c0-0.6 0-1.4 0.2-2.4c0.2-1 0.6-1.6 1.2-1.8v4.2L32.8 61.3L32.8 61.3z M38 63.7c0.4-0.8 1.2-1.6 1.8-2.2c0.8-0.6 1.6-0.8 2.6-0.8c0 1-0.2 1.8-0.8 2.4c-0.6 0.6-1.2 1.4-2.2 2L38 63.7z M46.7 65.7 l0.6-0.4l0.4 0.8l-0.4 0.4L46.7 65.7z M50.1 63.7v-3.8l3 3.8H50.1z M53.5 67.9l-1 1.2l-1-1.2l1-1.4L53.5 67.9z M57.3 60.3 c1.4-0.4 2.6-1 3.4-1.2l-0.8 2.4l-1-1.8l-0.8 1.2l0.8 1.2h0.4l-3.2 2.8l-1-2.4C55.3 61.7 55.9 60.9 57.3 60.3z M56.3 58.3l1.8-1.2 l-1.2 1.8L56.3 58.3z M61 49.8l-0.6-0.4L61 49l0.8 0.4L61 49.8z M61.6 69.1l-1 1.2l-1.2-1.2l1.2-1.2L61.6 69.1z M55.9 67.9 l-0.8 1.2l-1.2-1.2l1.2-1.4L55.9 67.9z M64.4 59.9l-1 0.2l1-3l1 1.4L64.4 59.9z M65.8 79.4L65.6 79l2-2l0.8 0.2L65.8 79.4z M67.2 66.9c3.4 0 5 1.6 5 4.8L72 73c-1.4-0.4-2.6-1-3.4-2.2C67.8 69.7 67.2 68.3 67.2 66.9z M71 84.8l-1.2-1.2l1.2-1.4l0.8 1.4 L71 84.8z M75.9 83.8c-1.4 0.4-2.6 0.6-3.8 1c0.2-0.8 0.4-2.2 0.8-4.2c0.4-2 1.2-2.8 2.6-2.8l2.2 3.2 C77.9 82.6 77.1 83.6 75.9 83.8z M85.3 88.7l-1-2.4h1l1 1.2L85.3 88.7z M86.7 82.2L86.3 81c0-1.4 0.4-2.2 1.2-2.8 c0.8-0.4 1.8-0.8 3-1C90 79 88.5 80.6 86.7 82.2z M94.6 102l-1-1.2l1-1.2l1 1.2L94.6 102z M95.4 89.5l0.4 0.8l-0.4 0.4l-0.8-0.4 L95.4 89.5z M97.4 57.1l1 1.4l-1 1.2l-1.2 0.2L97.4 57.1z M94.6 50.6l1 1.4l-1 1.2l-1-1.2L94.6 50.6z M95 55.8l-0.4 1.2l-0.4-1.2 l0.4-1.2L95 55.8z M89.6 50.6c0 0.4 0 0.8-0.2 1.4c-0.2 0.6 0 1 0.2 1.4l-1.8-2.8H89.6z M85.3 52l1 1.2l-1 1.2l-1-1.2L85.3 52z M77.5 55.8h4l0 0c1.2-0.4 2.4-0.6 3.6-0.6c0 0 0 0 0.4 0c0.6 0 1 0 1.6 0.2c1-1.2 2.2-2 3.4-2.2l0.2 1.2c0 1-0.2 1.6-0.4 2.4 c2.2 1.6 3.8 4 4 6.6l2-2.2l4.4 1l-6.4 4v6.2H94l0 0C92.4 75 88.1 77 84.9 77c-2.8 0-5.2-0.8-7.2-2.4l-0.6-0.2h-1v-1.6 c-1-1.6-1.6-3.8-1.8-6.4c-0.2 0-0.4-0.2-0.6-0.2c-1.2-0.4-1.8-1.4-1.8-2.8v-0.8l1.8-2.4l1.4 1.8c0.6-2 1.8-3.4 3.4-4.4L77.5 55.8z M76.3 52l1 1.2l-1 1.2l-1.2-1.2L76.3 52z M73.8 46.6L72 52l1.8 1.2c0 1.8-0.4 3.6-1.4 5.4c-1 1.8-2.6 2.6-4.8 2.6l-1.8-1.4 c1-0.6 2-1.4 2.8-2.2c0.8-0.8 1.2-1.8 1.2-3.2c0-1.4-0.4-2.6-1-4c-0.6-1.4-1-2.6-1-4h6V46.6z M66.2 54.6L63 57.1l-1.2-2.4H66.2z M64.4 33.5l0.2 0.8l-1.4 2L64.4 33.5z M61.8 29.9l1 1.2l-1 1l-1-1L61.8 29.9z M61.4 43.8l0.4 0.2l-1.2 1.4L60.4 45L61.4 43.8z M57.9 37.5l0.8 1.2l-0.8 1.2l-1.2-1.2L57.9 37.5z M56.9 42.2l1 0.8l-1 0.4L56.1 43L56.9 42.2z M57.9 54.6l-1.8 1.2 c-1.6 0-2.4-1-2.4-3.2c0.6 0.2 1.4 0.4 2.4 0.4C57.1 53.2 57.7 53.8 57.9 54.6z M30.1 29.9l1.2 2.2l-1.4-2L30.1 29.9z M29.5 51.4 c0.8-1.4 1.2-3 1.2-4.8h0.4c0.4 1.2 0.6 2.2 1 3.4c0.4 1 0.4 2.2 0.4 3.4c0.8-0.4 1.4-1 1.4-1.8c0-0.2 0-0.4 0-0.8v-5.6 c0-2.4 1.6-5 4-6.2c1.6-0.8 3.6-1.2 5-1.2c6.2 0 10.7 3.6 10.7 10.7S49.3 59.3 43 59.3c-1 0-2.2-0.2-3.2-0.6l-0.6 1L38 58.5 l0.2-0.2c-1.8-0.8-3.2-1.8-4.2-3.4v-0.2h-0.2c-1 0.4-2.2 0.6-3.4 0.8c-1.2 0.2-2 0.4-2.8 0.6v0.8h-1.4l1.4-0.8 C28.1 54.4 28.7 52.8 29.5 51.4z M22.3 33.5l-1-1.2l1-1.4l1 1.4L22.3 33.5z M22.5 28.1c0 2.2-1 3.2-3 3.2 C19.5 29.1 20.5 28.1 22.5 28.1z"/>
		<path fill="#FFFFFF" d="M63 88.7l-1 1.4l0.2 0.2c0.4-0.2 1-0.6 1.4-0.8L63 88.7z"/>
		<path fill="#FFFFFF" d="M84.5 111.8l-2.8-1v-0.4h-4l-1.4-3.2l-3 1.2c0 1.2 0.4 2 1 2.8c2.4 0.6 5 0.8 7.9 0.8 C82.7 112 83.5 112 84.5 111.8z"/>
		<polygon fill="#FFFFFF" points="87.7,107.2 87.1,108.4 87.7,109.6 89.1,108.4"/>
	</g>
	<g>
		<path fill="#FFFFFF" d="M109.5 101.4l0.7-1.1l0.7 1c4.4-5.6 7.8-11.8 10.1-18.6l-0.4-0.3l1-1.6c1.6-5.3 2.4-11 2.4-16.8 c0-10-2.4-19.4-6.7-27.6l-1.7 1.7l-0.1-0.6c0-0.9 0.4-1.9 1-2.7c-7.8-14.1-21.1-24.6-36.9-28.9v0.6h-1.9c0.1-0.4 0.4-0.7 0.7-0.9 C73.8 4.5 69 3.7 64 3.7c-4.7 0-9.1 0.6-13.5 1.6l-0.1 0.1l-0.1-0.1c-4.7 1.1-9.1 2.7-13.4 4.8l0.4 0.6l-0.7 1l-0.9-0.9 c-2.8 1.6-5.6 3.3-8.3 5.3c0.1-0.1 0.4-0.1 0.7-0.3c0.6-0.1 1.3-0.4 1.9-0.7c0.6-0.3 1-0.7 1.4-1.3c0 1.9-0.6 3-1.6 3.7 c-1 0.7-2.4 1-4 1c0-0.7 0.1-1.1 0.4-1.6C20 22 14.9 28.2 11 35.2c0 0 0 0 0 0.1c0.1 0.4 0.3 0.9 0.6 1L11 36.9l-0.1-1.6 C6.6 43.3 4 52.3 3.8 62C3.9 62.5 4 63.3 4 64c-0.1 0-0.3 0-0.3 0c0 1.7 0.1 3.4 0.3 5.1c0.7-0.9 1.9-1.4 3.4-1.9l1.7 1.3 c0 1.1-0.3 1.9-0.7 2.3c-0.4 0.4-1 0.6-1.6 0.7c-0.6 0-1.1 0.1-1.9 0.1c-0.3 0-0.6 0.1-0.7 0.3c0.3 2.3 0.7 4.7 1.4 7 c0.1 0 0.1 0.1 0.3 0.1c-0.1 0-0.1 0-0.3 0c6.8 25.8 30.3 44.7 58.1 44.7c8.8 0 17.2-2 24.8-5.4l0.3-0.6l0.3 0.3 c5.4-2.6 10.2-5.8 14.7-9.7l-0.7-1l0.7-1.1l0.7 1.1l-0.7 0.9c2.1-2 4.3-4.1 6.1-6.4L109.5 101.4z M111.2 100.3l-0.7-1l0.7-1.1 l0.7 1.1L111.2 100.3z M117.2 85.6c-0.4 0.6-0.9 1.1-1.3 1.7c-0.4 0.6-1 1.1-1.4 1.6c-0.6 0.4-1.1 0.7-1.9 0.9 c0.4-1.4 1-2.7 1.6-4c0.7-1.3 1.4-2.4 2-3.6l2.7 2.1C118.1 84.6 117.6 85 117.2 85.6z M118.8 78.1l-1-1l1-1.1l0.7 1.1L118.8 78.1z M118.9 59.3l1-1.1l0.6 1.1l-0.6 1L118.9 59.3z M122.1 56v1l-1.3-1H122.1z M121.1 73.4l-0.4 0.4l-0.4-0.4l0.4-0.6L121.1 73.4z M119.9 56l-1-1l1-1.1l0.6 1.1L119.9 56z M119.2 44.9l0.7 3.7l-0.7 0.6l-0.4-0.6L119.2 44.9z M118.4 44.5l-0.7 1l-0.7-1l0.7-1.1 L118.4 44.5z M114.8 34.6c0.1-0.6 0.4-0.9 1-0.9l-1.3 2.1C114.5 35.6 114.7 35.2 114.8 34.6z M109.8 27.1l0.6 0.4l-0.6 0.6 l-0.4-0.7L109.8 27.1z M88.3 10.6l-1.1 1.1L86 9.4L88.3 10.6z M68.5 5.3c0.1-0.4 0.4-0.9 0.9-1l0.7 1.1L68 6.6 C68.1 6.2 68.2 5.7 68.5 5.3z M56.3 6.3c0.7 0.1 1.1 0.6 1.3 1.3l-1.9 2.1c0-0.6-0.1-1.3-0.6-1.9c-0.4-0.6-0.6-1.1-0.6-1.9 C54.9 6 55.6 6 56.3 6.3z M48 9.6l1.1 1H48V9.6z M42.5 9.4l0.4 0.1l-1 1l-0.4-0.1L42.5 9.4z M22.3 20.8l1.7 1.3h-0.4 c-0.3 0-0.6-0.1-1-0.3c-0.4-0.1-0.7-0.4-0.7-0.9L22.3 20.8z M8.6 42.8l0.6 0.6l-0.6 0.4l-0.4-0.6L8.6 42.8z M8 47.6 c0-1.1 0.4-1.9 1.1-2.1v2.1H8z M25.8 106.5h-0.7v-1.1h0.7V106.5z M30.2 112.9l1.1-2.1l0.7 3.1L30.2 112.9z M65.5 121.6l-0.4-0.4 l0.4-0.6l0.6 0.6L65.5 121.6z M71.5 122.2l-1-1l1-1.1l0.7 1.1L71.5 122.2z M90.5 115.9l-1-1l1-1.1l0.7 1.1L90.5 115.9z M107.3 97 l-0.3-0.3c-1.3 1.7-2.6 3.3-4.1 4.7c-0.1 0.4-0.3 0.9-0.7 1.3c-0.3 0.3-0.7 0.4-1 0.4c-2.3 2.1-4.8 4.1-7.5 6l0.4 0.7l-0.7 1 l-0.9-0.9c-3.3 2.1-6.8 3.8-10.7 5.1l1 3.3l-1 1.9c-0.7-0.6-1-1.4-1-2.3s-0.4-1.6-1.3-1.9l2-0.9c-0.9 0.3-1.6 0.6-2.4 0.7l0.1 0.3 l-0.7 1l-0.7-0.9c-4.6 1.1-9.3 1.9-14.1 1.9c-0.7 0-1.4 0-2.1 0l0 0l0 0c-10.2-0.4-19.8-3.7-27.9-9l-0.4 0.6l-1-1l0.3-0.4 c-3.4-2.4-6.5-5.1-9.4-8.3c0.1 0.1 0.1 0.4 0.3 0.6c0.1 0.7 0.3 1.4 0.3 1.9l-2.3-1.3l1-2.1l0 0c-4-4.7-7.1-10-9.4-15.8h-0.1 c0-0.1 0-0.3 0-0.3c-0.4-1.3-0.9-2.4-1.3-3.7l0 0c-0.9 0.9-1.4 1.9-1.9 2.8l1.1 2.1c-1 0-2-0.3-2.8-0.7c-0.9-0.6-1.4-1.3-1.6-2.3 L9 80.2l-1.3-2.7l2.7-2.8c-0.7-3.4-1.1-7.1-1.1-10.8c0-2.4 0.1-4.8 0.4-7.1c0 0.1-0.1 0.3-0.1 0.4c-0.1 0.4-0.4 0.7-0.9 1V56h1.1 c0.7-5.4 2.4-10.5 4.6-15.2c-0.1 0-0.1 0.1-0.3 0.1c-0.4 0.1-0.9 0.3-1.3 0.3h-1l2.4-1.1h0.3C23 22.8 40.5 10.6 60.7 9.6 c-0.4-0.7-0.7-1.4-1-2.1c-0.4-1-0.6-2.1-0.6-3.3h1.7c0 1.1 0.3 1.9 0.7 2.1c0.4 0.3 1 0.4 1.6 0.6C63.7 7 64.4 7.2 65 7.2 c0.6 0 1 0.4 1.4 1.3c-0.3 0.6-0.7 0.9-1.1 1.1c5.3 0.1 10.2 1.1 14.9 2.7c0-0.7 0.1-1.4 0.3-2.3c0.1-1 0.6-1.9 1.3-2.6v4.3 l1.3 1.6c1.6 0.6 3 1.3 4.4 2v-0.1c0-1.7 0.7-2.8 2.3-3.4c-0.1 0.7-0.3 1.6-0.6 2.8c-0.1 0.6-0.3 1-0.4 1.3 c15.5 8.3 26.6 23.9 28.6 42.3c0.3 0 0.6 0 0.9 0c-0.3 0.1-0.6 0.3-0.9 0.4c0.1 1.7 0.3 3.6 0.3 5.4c0 3.7-0.4 7.3-1.1 10.7 l0.3 0.4l-0.4 0.6c-0.1 0.6-0.3 1.1-0.4 1.7l0.1-0.1l0.7 1.1l-0.7 1l-0.4-0.6c-0.1 0.3-0.1 0.6-0.3 0.9l0.6 0.9l-0.7 1l-0.3-0.3 c-1.9 5.4-4.4 10.4-7.7 14.8l0.1 0.1L107.3 97z"/>
		<path fill="#FFFFFF" d="M10.3 77.1l1 1l0.3-0.3c-0.1-0.6-0.3-1.1-0.4-1.6L10.3 77.1z"/>
	</g>
</g>
</svg>
