<?xml version="1.0" encoding="utf-8"?>
<!-- Generator: Adobe Illustrator 18.1.0, SVG Export Plug-In . SVG Version: 6.00 Build 0)  -->
<!DOCTYPE svg PUBLIC "-//W3C//DTD SVG 1.1//EN" "http://www.w3.org/Graphics/SVG/1.1/DTD/svg11.dtd">
<svg version="1.1" id="Layer_1" xmlns="http://www.w3.org/2000/svg" xmlns:xlink="http://www.w3.org/1999/xlink" x="0px" y="0px"
	 viewBox="151.1 162 309.9 333.7" enable-background="new 151.1 162 309.9 333.7" xml:space="preserve">
<path fill="#FFFFFF" d="M225.6,416.5h32.8v-32.8h-32.8C225.6,383.6,225.6,416.5,225.6,416.5z M265.8,416.5h36.5v-32.8h-36.5V416.5z
	 M225.6,376.4h32.8v-36.5h-32.8V376.4z M265.8,376.4h36.5v-36.5h-36.5V376.4z M225.6,332.5h32.8v-33h-32.8V332.5z M309.7,416.5h36.5
	v-32.8h-36.5V416.5z M265.8,332.5h36.5v-33h-36.5V332.5z M353.5,416.5h32.8v-32.8h-32.8L353.5,416.5L353.5,416.5z M309.7,376.4h36.5
	v-36.5h-36.5V376.4L309.7,376.4z M269.5,277.6v-32.8c0-1-0.4-1.8-1.1-2.6c-0.7-0.7-1.6-1.1-2.6-1.1h-7.3c-1,0-1.8,0.4-2.6,1.1
	c-0.7,0.7-1.1,1.6-1.1,2.6v32.8c0,1,0.4,1.8,1.1,2.6s1.6,1.1,2.6,1.1h7.3c1,0,1.8-0.4,2.6-1.1C269.1,279.6,269.5,278.7,269.5,277.6z
	 M353.5,376.4h32.8v-36.5h-32.8L353.5,376.4L353.5,376.4z M309.7,332.5h36.5v-33h-36.5V332.5L309.7,332.5z M353.5,332.5h32.8v-33
	h-32.8L353.5,332.5L353.5,332.5z M357.2,277.6v-32.8c0-1-0.4-1.8-1.1-2.6c-0.7-0.7-1.6-1.1-2.6-1.1h-7.3c-1,0-1.8,0.4-2.6,1.1
	c-0.7,0.7-1.1,1.6-1.1,2.6v32.8c0,1,0.4,1.8,1.1,2.6c0.7,0.7,1.6,1.1,2.6,1.1h7.3c1,0,1.8-0.4,2.6-1.1
	C356.8,279.6,357.2,278.7,357.2,277.6z M400.9,270.4v146.1c0,3.9-1.5,7.3-4.3,10.3c-2.9,2.9-6.4,4.3-10.3,4.3H225.6
	c-3.9,0-7.3-1.5-10.3-4.3c-2.9-2.9-4.3-6.4-4.3-10.3V270.4c0-3.9,1.5-7.3,4.3-10.3c2.8-2.9,6.4-4.3,10.3-4.3h14.6v-10.9
	c0-5,1.8-9.3,5.4-12.9s7.8-5.4,12.9-5.4h7.3c5,0,9.3,1.8,12.9,5.4c3.6,3.6,5.4,7.8,5.4,12.9v10.9h43.9v-10.9c0-5,1.8-9.3,5.4-12.9
	c3.6-3.6,7.8-5.4,12.9-5.4h7.3c5,0,9.3,1.8,12.9,5.4c3.6,3.6,5.4,7.8,5.4,12.9v10.9h14.6c3.9,0,7.3,1.5,10.3,4.3
	C399.6,263,400.9,266.4,400.9,270.4L400.9,270.4z"/>
</svg>
