<?xml version="1.0" encoding="utf-8"?>
<!-- Generator: Adobe Illustrator 18.1.0, SVG Export Plug-In . SVG Version: 6.00 Build 0)  -->
<!DOCTYPE svg PUBLIC "-//W3C//DTD SVG 1.1//EN" "http://www.w3.org/Graphics/SVG/1.1/DTD/svg11.dtd">
<svg version="1.1" id="Layer_1" xmlns="http://www.w3.org/2000/svg" xmlns:xlink="http://www.w3.org/1999/xlink" x="0px" y="0px"
	 viewBox="-624.5 135 734.6 501.3" enable-background="new -624.5 135 734.6 501.3" xml:space="preserve">
<g>
	<path fill="#FFFFFF" d="M-393.9,501.1c-2.5,1.1-4.3,1.8-6,2.6c0.7,1.4,1.4,2.8,1.6,3.2c-6.1,0-14.2,0-22.3,0
		c-6.1,0-6.4,0.9-5.7,6.6c1,8.2,1.1,16.6,1.8,24.8c0.7,8.8,1.4,17.5,2.6,26.2c0.7,4.9,0.6,9.4-1,14.2c-1.1,3.2-0.3,7.1-0.3,10.7
		c0,3.2,0.1,6.5,0.2,9.7c0.1,4.2,0.1,8.5,0.3,12.7c0.1,1.6,0.9,3.2,1,4.9c1.2,12.1-9.7,20.3-21.4,16.3c-3-1-4.6-3.3-4.1-6.1
		c1.9-10.6-1.6-19.7-5.6-29.2c-2.6-6.1-3-13.3-3.4-20c-1-14.4-1.4-28.9-1.9-43.4c-0.2-7,0.2-14-0.1-21c-0.2-6.2-1.3-7.1-7.6-7.2
		c-4.8-0.1-9.7-0.1-14.5,0c-5.2,0.2-6.4,1.7-5.7,6.9c1.4,10.1,2.9,20.1,4.1,30.2c0.4,3.3,0.6,6.7,0.2,10
		c-1.8,17.2-3.9,34.4-5.6,51.7c-0.5,5.4-3,8.6-8.3,9.7c-7.5,1.7-14.5,4.3-21.3,8.2c-6.4,3.7-13.8,6.3-21.5,4.6
		c-2.1-0.5-5.4-2.3-5.5-3.8c-0.3-2.3,1.3-5.1,2.7-7.4c0.9-1.5,2.7-2.6,4.3-3.3c6.9-3,9.3-9.7,12.6-15.5c1.3-2.2,0.6-5.5,1.2-8.2
		c0.7-3.1,0.9-7,2.9-9.1c7-7.5,5.9-16.5,4.9-25c-1.1-9.5-4.2-18.8-6-28.3c-0.5-2.7-0.2-6,1-8.5c2.9-6.6-0.2-12.3-7.5-12.3
		c-24.8-0.1-49.6,0.1-74.4-0.1c-2.3,0-6.3,1.8-6.4-2.3c0-3.6,4-3.5,6.7-3.5c14.8-0.1,29.7-0.1,44.5-0.1c9.2,0,18.3,0,27.5-0.1
		c5.1-0.1,6.5-1.4,6.5-5.5c0-4.5-2.8-5.6-6.6-5.5c-6.9,0-13.8,0-20.7,0c0-0.5,0-1-0.1-1.4c1.9-0.2,3.8-0.4,5.6-0.4
		c5.5-0.1,11-0.1,16.5-0.1c2.8,0,5-0.9,5.1-4.2c0.1-3.5-2.1-4.6-5.2-4.7c-0.7,0-1.3-0.1-2-0.1c-19.7,0.3-39.3,0.6-59,0.8
		c-2,0-4.1-0.2-6.1-0.4c0-0.5,0-0.9,0.1-1.4c1.9,0,3.8,0,5.7,0c18.5,0,37,0,55.5,0c1.8,0,3.7,0,5.5-0.1c3-0.1,4.6-1.7,4.6-4.7
		c0-3.2-1.4-5.1-4.7-5.2c-6-0.1-12-0.1-18-0.1c-14.5,0-29,0-43.5,0c-2.1,0-4.1-0.3-6.2-0.5c0-0.4,0-0.8,0-1.3c1.3-0.1,2.7-0.2,4-0.2
		c20.7,0,41.3,0.1,62,0.1c5.4,0,7.1-2.2,5.3-6.6c-0.6-1.4-2.4-2.7-3.9-3.2c-1.6-0.6-3.6-0.3-5.5-0.3c-18.7,0-37.3,0-56,0
		c-2.1,0-4.1,0-6.2,0c0-0.5,0-1-0.1-1.6c1.9-0.1,3.7-0.3,5.6-0.3c19.2,0,38.3,0,57.5,0c2,0,4.5,0.5,5.8-0.5c1.7-1.3,3-3.7,3.3-5.8
		c0.1-1-2.2-2.8-3.8-3.5c-1.7-0.7-3.8-0.4-5.7-1.1c1.8-0.1,3.6-0.4,5.4-0.4c4.2,0.1,5.5-2.3,5.5-6c0-3.9-2.5-4.8-5.6-4.7
		c-7.8,0.2-15.6,0.8-23.5,0.8c-12.5,0-25-0.5-37.5-0.7c-5.7-0.1-11.3,0.1-16.9-0.3c-1.6-0.1-3.1-1.7-4.7-2.6c1.6-1,3.1-2.5,4.9-3
		c1.7-0.5,3.6-0.2,5.5-0.2c22.8,0,45.7,0.1,68.5,0.1c2,0,4,0,6-0.1c3.5-0.1,5.9-1.7,5.8-5.4c0-4-3.4-3.6-5.9-3.6
		c-17.7-0.1-35.3,0-53-0.1c-5.8-0.1-11.6-0.7-17.4-1.9c0.6-0.1,1.3-0.3,1.9-0.3c22.7,0.1,45.3,0.3,68,0.4c1.3,0,2.7,0,4-0.2
		c3.1-0.3,4.7-2.4,4.1-5.1c-0.3-1.5-2.6-3.1-4.2-3.6c-2.4-0.7-5.1-0.4-7.6-1.5c2.6,0,5.1,0.2,7.7-0.1c1.4-0.1,3.3-0.6,3.8-1.6
		c0.5-0.9-0.3-2.8-1.1-3.9c-2.7-3.8-6.4-5.4-11.2-5.4c-16.3,0.2-32.7,0.1-49,0c-2.2,0-4.5-0.3-6.7-0.5c0-0.4,0-0.7,0-1.1
		c1.4-0.1,2.7-0.3,4.1-0.3c15.8,0,31.7,0,47.5,0.1c1.2,0,2.3,0,3.5-0.1c2.7-0.3,3.5-1.1,1.8-3.8c-10.1-16.4-20.5-32.7-29.9-49.5
		c-4.8-8.7-5-18.2,0.8-27.1c1.5-2.2,2.9-4.5,4.3-6.8c2.9-4.7,2.4-5.8-3-5.8c-11.7-0.1-23.3,0-35-0.1c-2.1,0-4.2-0.2-6.4-0.3
		c0-0.4-0.1-0.8-0.1-1.2c1.7-0.1,3.3-0.3,5-0.3c12.8,0,25.7,0,38.5,0c3.6,0,6.5-0.7,8.5-4c2.2-3.6,1.8-4.7-2.3-5
		c-1.5-0.1-3-0.1-4.5-0.1c-17.3,0-34.7,0-52,0c-1.5,0-3.2,0.4-4.5-0.2c-1.7-0.7-3.1-2.2-4.7-3.4c1.6-1.1,3.2-3.1,4.8-3.1
		c9.5-0.2,19,0.1,28.5,0.2c12.3,0.2,24.6,0.3,37,0.5c4.6,0.1,6.7-3.3,8.7-6.6c1.4-2.4-0.6-2.4-2.2-2.4c-5,0-10,0-15,0
		c-14.6,0-29.3,0-43.9,0c0-0.6-0.1-1.1-0.1-1.7c1.8-0.1,3.6-0.2,5.4-0.2c18,0,36-0.1,54,0.1c4.8,0.1,8.3-2.1,11.6-5
		c0.5-0.5,0.8-1.3,1.1-2c-0.7-0.4-1.4-0.8-2.1-1.1c-0.4-0.2-1-0.1-1.5-0.1c-19.8,0.2-39.6,0.4-59.5,0.7c-2.9,0-5.9,0-8.8,0
		c0-0.5-0.1-0.9-0.1-1.4c5.3-0.3,10.5-0.8,15.8-0.8c21.6-0.2,43.3,0.1,64.9-0.7c7.9-0.3,15.7-2.9,23.5-4.7c1.2-0.3,2-1.7,3.1-2.6
		c-1.2-0.5-2.3-1.2-3.5-1.4c-1.5-0.3-3-0.1-4.5-0.1c-29.2,0-58.3,0-87.5,0.1c-2,0-3.9,0-6-1c1.9,0,3.7,0,5.6,0
		c20.5-0.1,41-0.1,61.5-0.2c10.3-0.1,20.6-0.4,31-0.5c2.5,0,4.3-0.2,3.5-3.5c-2-8.7-3.9-17.5-6-26.2c-0.2-0.9-2-2-3-2
		c-10.3-0.2-20.6-0.3-30.9-0.3c-4.2,0-8.3,0.6-12.5,0.6c-23-0.2-46-0.6-69-0.9c-1.3,0-2.8-0.1-3.9-0.6c-0.9-0.4-1.9-1.8-1.8-2.6
		c0.1-1.1,1-2.6,2-3c1.5-0.6,3.3-0.6,4.9-0.6c24.8,0.3,49.6,0.6,74.4,1c11.5,0.2,23,0.5,34.5,0.4c1.8,0,4.4-1.2,5.2-2.6
		c6.6-11.7,17.6-15.5,30-10.6c3.7,1.5,8,2.5,12,2.5c23.8,0.2,47.7,0.1,71.5,0.1c2,0,3.9,0,5.9,0.9c-2,0-3.9,0-5.9,0
		c-22.8,0-45.7,0-68.5,0.1c-2.1,0-4.1,1.1-6.2,1.7c2,2.7,3.7,5.6,6.1,7.8c1,1,3.5,0.5,5.3,0.5c8,0,16,0,23.9,1
		c-8.4,0-16.7-0.1-25.1,0c-7,0.1-7.3,0.9-7.5,7.9c-0.1,7.1-1,14.3-1.9,21.3c-0.9,6.8-1.1,6.8,5.6,6.8c14.3,0,28.6,0,42.9,0.9
		c-10.7,0-21.4,0-32.1,0c-4,0-8,0-12,0.3c-1.1,0.1-2.2,1.1-3.3,1.7c0.8,0.9,1.6,2.3,2.6,2.6c7.3,1.7,14.5,4,21.9,4.4
		c13,0.7,26,0.2,39,1.1c-11.5,0-23.1,0-35.6,0c10.4,7,20.5,11.4,32.6,8.7c-0.1,0.7-0.2,1.3-0.4,2c-4.1,0-8.1,0-12.2,0
		c-0.9,0-1.8,0.5-2.6,0.8c0.3,0.8,0.4,1.7,0.9,2.2c1.4,1.6,2.8,3.4,4.5,4.7c4.3,3.3,9.3,2,11.4-2.9c2.1-4.9,4.3-9.8,6-14.8
		c2.9-8.4,9.1-12.6,17.1-15.3c7.2-2.4,14.2-5.6,21.2-8.5c3.9-1.6,5.4-4.6,5.4-8.7c0-6.6-1.4-12.7-4.5-18.7
		c-2.1-3.9-2.9-8.8-3.1-13.4c-0.3-6,0.3-12,1.1-17.9c0.4-2.7,1.7-6.1,3.7-7.6c4-2.9,8.7-4.7,13.2-6.8c0.8-0.4,2-0.5,2.9-0.2
		c9.5,2.7,17.9,7.4,20.1,17.8c2.2,10.2,3.5,20.5-2.1,30.7c-3.4,6.2-2.4,13.4,0,19.9c0.7,1.9,2.9,3.8,4.9,4.7
		c5.6,2.6,11.3,5.1,17.2,6.7c9.8,2.7,16.6,8.2,19.4,18.1c2.6,9.1,5,18.3,7.5,27.5c1,3.9,1.7,7.8,3,11.6c1.1,3.3,0.5,5.8-2.2,7.9
		c-5,3.8-5.9,9.4-6.3,15.2c-0.3,3.2,1.2,5,4.6,5c8.5-0.2,17-0.3,25.5-0.3c6.4-0.1,12.9,0,19.3,0c0,0.4,0.1,0.8,0.1,1.2
		c-1.9,0.1-3.7,0.3-5.6,0.3c-11.7,0-23.3,0.2-35,0c-4.8-0.1-8.7,0.9-11.7,5.1c-2.1,3-4.9,5.4-7.1,8.4c-3,4.2-1.9,6.5,3.3,6.6
		c11.8,0.2,23.7,0.1,35.5,0.2c3.1,0,6.2,0,9.4,0.6c-14.4,0.5-28.9-0.6-43.2,1.5c0,0.7,0,1.3,0,2c4.9,0,9.9,0,14.8,0
		c0,0.5,0,1.1,0,1.6c-4.5,0-9.1-0.1-13.6,0c-5.5,0.1-6.5,1.1-6.6,6.4c-0.1,3.3,0,6.7,0,10c-0.1,4,2,5.8,5.9,5.7c3.3-0.1,6.6,0,10,0
		c0,0.4,0,0.8,0,1.1c-3.3,0-6.6,0-9.9,0c-2.7,0-4,1-4.8,3.8c-1.8,5.9,0.2,11.2,1.5,16.7c0.3,1.3,2.7,2.8,4.4,3.1
		c2.5,0.5,5.3,0.1,8.5,0.1c-0.8,0.6-1,0.9-1.2,0.9c-10,0.5-10.2,0.5-10.4,10.5c-0.1,6.9,0.4,13.9,1.1,20.8c0.2,2.1,1.9,4.1,2.8,5.9
		c-0.8,2.1-2.2,4.5-2.6,6.9c-0.5,3.4-0.2,7-0.4,10.5c-0.2,3.3,1.4,4.6,4.4,4.6c10-0.1,20-0.3,30-0.4c5.9-0.1,11.8,0,17.8,0.9
		c-2.9,0.2-5.8,0.4-8.8,0.4c-12.3,0.1-24.7,0-37,0.1c-6.9,0-8.2,1.4-8,8.3c0.2,7.2,0.9,14.3,0.8,21.4c0,3.7,2,5.6,4.4,7.7
		c-2.5,2.4-3.3,5.2-2.2,8.5c0.7,2,1.6,4,2.2,6.1c0.5,1.9,1.5,4.2,0.8,5.8c-2.5,6.4-0.9,12.8-0.8,19.3c0.1,4,0.2,8,0,11.9
		c-0.5,12.4-0.2,24.6,3.5,36.6c1.2,3.8,1.2,8.2,0.8,12.2c-0.5,4.4,0.1,8.1,2.4,11.9c1.6,2.6,2.8,5.7,3.1,8.7c0.2,2.2-0.9,5-2.4,6.7
		c-5.3,6.2-18.8,3.5-22.1-4c-1.5-3.4-4.3-6.2-5.8-9.7c-3-7.2-8.2-13-8.7-21.7c-1.6-31.1-4.2-62.1-6.5-93.1c0-0.3,0-0.7-0.1-1
		c-5.7-17.3-6.9-35.7-12.7-53c-1.3-3.9-2.9-7.9-5-11.4c-1.1-1.8-3.7-3.4-5.8-3.6c-1.4-0.1-3.8,2.2-4.4,3.9
		c-5.4,15.9-10.5,31.9-15.6,47.9c2.3,5.1-2.9,7.5-4.2,11.4c-1.6,5-1.4,5.6,3.6,5.6c2.4,0,5-0.4,5,3.1c0,3.3-2.6,3.3-5,3.5
		c-6.4,0.5-7.7,1.6-8.4,8.1c-2.1,21.2-4.3,42.4-6.1,63.6c-1.3,14.8-5.6,28.4-15.1,40c-3,3.7-5.9,7.7-9.6,10.7
		c-1.8,1.5-5.1,1.5-7.7,1.8c-1.6,0.2-3.3-0.7-4.9-0.5c-4.3,0.4-6.4-1-5.9-5.3c0.5-3.9,1.4-7.9,3.3-11.3c2.2-3.8,3-7.5,2.9-11.9
		c0-2.8,0.5-5.9,1.7-8.5c2.3-5.5,3.1-11,3-17c-0.1-10.6,1-21.2,1.6-31.9c0-0.5,0.2-1,0.2-1.5c-0.5-16.5,2.6-32.4,6.7-48.2
		c1.2-4.7-0.1-6-5.1-6.1c-10.7-0.1-21.3-0.1-32,0c-2.8,0-5.7,0.3-5.7,4.1c0,3.4,1,6.5,5,7c4.4,0.5,8.9,0.8,13.4,0.9
		C-407.3,501.2-401,501.1-393.9,501.1z M-416.9,403.9c0,0.3,0,0.6,0,0.9c-1.5,0.1-3,0.2-4.4,0.3c-3.1,0.1-5.2,1.3-5,4.8
		c0.2,3.5,1.6,5.6,5.6,5.4c3.2-0.2,6.3-0.2,9.5-0.2c3.5,0,7,0,10.5,0c0,0.5,0,1,0,1.5c-1.8,0.1-3.5,0.3-5.3,0.4
		c-4.8,0.1-9.7,0-14.5,0.1c-2.6,0-4.7,1-4.7,4c0,3.1,2.1,4,4.7,4c9.7,0.1,19.3,0.1,29,0c3.5,0,5.5-1.7,5-5.3
		c-0.8-5.1,0.8-9.5,3.1-13.8c1.5-2.8,2.4-5.8,3.6-8.8c1.4-3.5-0.1-5-3.6-5.1c-2,0-4,0.1-6,0.1c-5.6,0-11.2,0-16.8,0
		c0-0.4,0-0.7,0-1.1c3.8,0,7.6,0,11.5,0c3.8,0,7.7,0.1,11.5-0.1c5.1-0.2,6-1.3,5.9-6.4c-0.1-2.8-0.3-5.7-0.1-8.5
		c0.5-6.9,0.6-6.9-6.1-9.2c1.6-0.3,2.9-0.3,3.7-0.9c1.5-1.2,4-3,3.8-4c-0.4-1.8-2.6-4.4-4-4.5c-2.5,0-5.7,1-7.3,2.8
		c-5.3,5.7-10,12-15,18c-5.8,7-10.7,14.9-18.9,19.7c-1.4,0.8-2.2,2.7-3.3,4.1c1.7,0.6,3.5,1.3,5.2,1.8
		C-418.6,404.1-417.7,403.9-416.9,403.9z M-409.6,454c0-0.3,0-0.6,0-0.9c2.5-0.2,4.9-0.5,7.4-0.7c13.4-1.2,13.4-1.2,15-14.9
		c0.6-5.3-0.1-6.3-5.4-6.4c-10.3-0.1-20.6,0-30.9,0c-4.2,0-4.6,3.2-5,6.2c-0.4,3.4,2,3.8,4.5,3.8c8.8,0.1,17.7,0,26.5,0.1
		c1.9,0,3.8,0.2,5.7,0.3c0,0.4,0,0.8,0,1.2c-1.7,0.1-3.4,0.3-5.1,0.3c-9.3,0.1-18.7,0.1-28,0.1c-3.6,0-5.6,1.8-5.5,5.5
		c0.1,3.6,2.5,4.4,5.4,4.4c3,0,6,0,9.1,0c0,0.4,0,0.8,0,1.1c-3.8,0-7.6-0.2-11.4,0.1c-3.9,0.2-5.5,2.4-4.8,5.9c0.7,3.4,3.2,4,6,4
		c8.3,0,16.7,0.1,25,0.1c2.2,0,4.3,0,6.5-0.2c4.5-0.4,4.4-3.9,4.6-7c0.2-3.8-2.9-2.9-5-2.9C-399.9,453.9-404.7,454-409.6,454z
		 M-534.9,320.8c0-0.5-0.1-0.9-0.1-1.4c2.1-0.1,4.2-0.3,6.3-0.3c4-0.1,8,0.2,12-0.3c1.4-0.2,3.6-1.9,3.7-3c0.1-1.6-0.9-3.9-2.2-5
		c-2.4-2-12.4-1-14.8,1.1c-3.5,3.1-7.2,6-10,9.7c-1.7,2.2-3.4,6.1-2.6,8.4c3.7,10.8,8,21.4,12.8,31.8c2.2,4.9,6.2,6.2,11.3,4.9
		c1.4-0.4,3.6-2.2,3.5-3.2c-0.2-1.8-1.4-4.1-2.9-5c-1.5-0.9-3.9-0.4-5.8-0.6c-2-0.2-4.2,0-5.8-0.8c-1.4-0.7-2.1-2.7-3.1-4.1
		c1.4-0.6,2.7-1.7,4.1-1.7c3.3-0.1,6.6,0.5,9.9,0.5c3.7,0,4.6-2.8,4.8-5.8c0.2-3.3-2.1-3.8-4.6-3.9c-4-0.1-8,0-12-0.1
		c-1.5,0-3-0.3-4.5-0.5c0-0.5,0.1-0.9,0.1-1.4c4.6,0,9.2,0,13.8,0c8.8,0,9.2-0.6,8.3-9.5c-0.1-0.8,0.1-1.6,0.2-2.5
		c0.4-6-0.5-7.2-6.4-7.4C-524.4,320.6-529.6,320.8-534.9,320.8z M-409,476.1c0,0.6,0,1.3,0.1,1.9c-5.6,0-11.2,0-16.8,0
		c-3.4,0-6.5,0.5-6.6,4.9c-0.1,4.4,3,5.1,6.4,5.1c10.5,0,21,0,31.4,0c2.8,0,5.6-0.2,5.2-4.2c-0.3-3.3-0.5-6.5-5.1-6.4
		c-2.4,0-4.8-0.3-7.2-0.4c1.5-0.9,3-0.9,4.5-0.9c3.4,0,6.4-0.4,6.5-4.9c0.1-4.8-3.1-5.2-6.7-5.2c-9.3,0-18.6,0.1-27.9,0.1
		c-3.6,0-6.3,0.8-6.2,5.2c0.1,4.1,2.7,4.9,6.1,4.9C-419.9,476.1-414.4,476.1-409,476.1z M-415.6,367.1c-0.1,0.4-0.1,0.8-0.2,1.2
		c-4.1,0-8.3-0.2-12.4,0.1c-3.3,0.2-4.7,2.9-4.1,5.7c0.4,1.8,2.4,4.2,4.1,4.6c4.5,1.1,9.1,0.4,12.1-3.8c6.6-9,12.5-18.4,15.5-29.3
		c0.9-3.1,0.5-4.4-2.8-4.3c-7.5,0.3-14.9,0.5-22.4,0.7c-2.9,0.1-5.4,0.8-5.5,4.3c-0.1,3.8,2.3,4.8,5.5,4.8c5.3,0,10.6-0.1,16,0.2
		c1.3,0.1,2.6,1.3,4,2c-1.2,1.2-2.4,3.3-3.6,3.3c-7,0.3-14.1,1.7-21-1.5c0,1.9-0.1,3.7,0,5.5c0.2,5.4,1,6.3,6.5,6.4
		C-421.2,367.2-418.4,367.1-415.6,367.1z M-408.3,331.2c0-0.3,0-0.6,0-0.8c1.9-0.1,3.8-0.1,5.7-0.4c1.2-0.2,2.4-0.8,3.6-1.2
		c-0.5-1.1-0.8-2.5-1.6-3.3c-4.1-4.5-20.1-7.7-25.3-4.6c-1.8,1.1-2.7,4.2-3.3,6.6c-0.1,0.4,3.1,2.3,5,2.5c3.1,0.4,6.3,0.1,9.5,0.1
		c-3.7,1-7.3,1-10.9,1.1c-3,0.1-5.8,0.8-6,4.5c-0.2,4,2.8,4.4,5.8,4.4c5.6,0.1,11.3,0.1,16.9,0.1c2.5,0,5,0,7.5-0.3
		c3.1-0.4,4.9-2.8,4.3-5.6c-0.3-1.3-3-2.5-4.8-3C-404,330.8-406.2,331.2-408.3,331.2z M-469.7,477c0,0.4,0,0.9,0,1.3
		c-3.3,0-6.6-0.3-9.9,0.1c-3.7,0.4-4.2,3.4-4.2,6.3c0,3,2.4,3.2,4.6,3.3c2.2,0.1,4.3,0.1,6.5,0.1c7.7,0,8.1-0.5,7.3-7.9
		c-0.2-1.7-0.3-3.3-0.5-5c-1-7.7-6.1-10.9-13.2-7.6c-1.9,0.9-3,4-3.7,6.3c-0.2,0.5,2.9,2.6,4.7,2.9
		C-475.4,477.4-472.5,477-469.7,477z M-473.7,500.1C-473.7,500.1-473.7,500.1-473.7,500.1c1.8,0.1,3.7,0.1,5.5,0.1
		c2.6-0.1,5.2-0.1,5.2-3.8c-0.1-3.3-0.9-6.1-4.9-6.3c-4.1-0.2-8.3,0-12.4-0.2c-3.2-0.1-5.1,0.9-5.1,4.5c-0.1,3.7,1.5,5.7,5.3,5.7
		C-478,500.1-475.8,500.1-473.7,500.1z"/>
	<path fill="#FFFFFF" d="M43.5,349.1c-4.7,4.9-9.5,9.7-14.1,14.8c-1.2,1.3-2,3.1-2.5,4.8c-1.3,5,0.5,7.3,5.7,7.4
		c10.3,0.1,20.7,0.1,31,0.1c5.7,0,11.3,0,17,0c1.6,0,3.2,0.2,4.7,1.4c-1.4,0.1-2.7,0.3-4.1,0.3c-15.7,0.1-31.3,0.1-47,0.2
		c-7,0-8.3,1.4-8.7,8.5C24.9,398.8,26,400,38.3,400c14.8,0.1,29.7-0.1,44.5-0.1c1.4,0,2.9,0.2,4.3,0.2c0,0.4,0.1,0.8,0.1,1.2
		c-1.5,0.2-3,0.5-4.4,0.5c-16.5,0.1-32.9,0-49.4,0.2c-6.2,0.1-6.5,0.6-4.7,6.3c0.5,1.6,1,3.2,1.5,4.8c2.6,8,3.6,8.6,12.2,8.5
		c18.3-0.2,36.6-0.4,55-0.5c2.2,0,5.8-1.1,5.8,2.5c0,1.1-4,3.1-6.2,3.2c-18.6,0.6-37.3,0.8-55.9,1.2c-2,0-5.1-1.5-5.7,2.1
		c-0.5,2.8,2.7,7.2,5.5,7.4c4.3,0.3,8.6,0.1,13,0.1c10.4,0,20.9,0,31.5,0.9c-1.6,0.1-3.2,0.4-4.8,0.4c-12,0-24,0-36,0.1
		c-2.6,0-6.3-0.8-6.2,3.7c0.1,4,2.8,5.3,6.5,5.3c2.9,0,5.9,0,8.8,0c0,0.4,0,0.7,0,1.1c-3,0-5.9-0.1-8.9,0c-2.5,0.1-4.7,0.9-4.6,4.1
		c0.2,2.9,1,5.3,4.4,5.7c1.5,0.2,3,0.2,4.5,0.2c10.3,0,20.7,0,31,0c1.8,0,3.5,0.2,5.3,0.3c0,0.4,0,0.8,0.1,1.2
		c-1.7,0.1-3.4,0.4-5.1,0.4c-10.2,0-20.3-0.1-30.5,0.1c-2.5,0.1-5,1.5-7.6,2.3c0.9,2.7,1.9,5.4,2.7,8c-0.3,2.3-1.5,5.3-0.7,7.5
		c0.6,1.6,3.8,3,5.9,3.1c10,0.3,20,0.1,30,0.2c1.6,0,3.2,0,4.8,0c0,0.6,0,1.1,0,1.7c-3.8,0-7.6,0-11.4,0c-7.6-0.1-15.3-0.2-22.9-0.3
		c-2.9,0-5.4,0.2-5.3,4.2c0.2,3.5,0.9,6.4,5.2,6.4c9.5-0.1,19-0.2,28.5-0.4c6-0.1,12-0.4,18-0.4c2.4,0,5.1,0.2,5,3.5
		c-0.1,3.2-2.9,3.3-5.2,3.3c-14.2,0.1-28.3,0.1-42.5,0.1c-1.8,0-3.7,0-5.5,0.2c-3.1,0.3-4.4,2.1-3.9,5.1c2.8,17.3,1.8,34.5-0.1,51.7
		c-0.5,4.3-0.9,8.8,0,12.9c0.7,3.5,2.9,6.9,5.1,9.8c2.8,3.6,6.3,6.6,4.1,11.9c-0.3,0.8-0.1,2.1,0.4,2.9c4.8,7.2,9.7,14.3,18.1,18
		c2,0.9,4.5,1.1,5.9,2.5c1.7,1.7,3.4,4.4,3.2,6.4c-0.2,1.5-3.5,3.8-5.3,3.7c-5.8-0.3-11.7-1-17.2-2.5c-10.4-2.9-20.5-6.7-30.8-9.9
		c-4.7-1.4-6.4-4.2-6.8-9.1c-0.4-5.5-1.8-11.1-3-16.5c-3.9-16.3-4.9-32.9-4.7-49.6c0.2-10.4-0.9-20.9-1.8-31.4
		c-0.3-4-3.1-6.3-7.2-6.2c-10.5,0.3-21,0.7-31.4,1.1c-3.1,0.1-4,1.9-4.1,5c-0.6,19.6,2.1,39,4.1,58.5c0.5,4.5-0.4,9.3-0.9,13.9
		c-0.8,6.9-2.2,13.8-2.9,20.8c-0.9,8.8-5.8,15.5-10.8,22.1c-2.8,3.7-13.5,3.4-17.9,0.4c-3.4-2.3-3.7-6.4-1.8-12.8
		c0.8-2.6,1-5.6,0.5-8.2c-1.1-5.7-1.5-11,0.7-16.6c4-10.5,2.8-21.2,1.1-32c-1.7-11-3-22.1-4.1-33.2c-0.3-3,0.5-6.3,1.4-9.2
		c2-6.5,1.3-7.7-5.6-7.6c-12.7,0.3-25.3,0.6-38,0.9c-1.8,0-3.6,0-5.4-1c4.7,0,9.4,0,14.1,0c2.4,0,4.5-0.1,5.6-3.1
		c0.3-1,2.6-1.6,4.1-1.7c7.5-0.5,15-0.7,22.5-1c4.5-0.2,5.9-1.9,5.7-6.3c-0.2-3.1-1.6-4.5-4.8-4.4c-13.8,0.3-27.6,0.4-41.5,0.6
		c-7.2,0.1-7.5,0.7-9.2,7.6c-2.2,9.1,1,16.9,4.5,24.9c1.8,4,3.2,8.3,3.9,12.7c1.7,10.4,1.1,21,4.1,31.5c3.3,11.9,3.4,24.6,4.7,37
		c0.7,6.4,2.8,11.9,7,16.7c2.7,3.1,5.6,7.6,2.7,10.6c-1.9,2-7.5,1.7-11,0.8c-4.5-1.1-9.1-3-11.4-8.1c-0.6-1.5-3-2.6-4.8-3.2
		c-4.3-1.3-6.4-3.8-6.3-8.3c0.2-5.6-0.6-10.9-3.7-15.8c-0.8-1.3-0.9-3.2-1.2-4.8c-1.2-6.9-2.5-13.7-3.4-20.6
		c-1.7-11.9-2.8-23.8-4.7-35.6c-1.2-7.7-3.3-15.3-4.9-22.9c-0.8-3.8-3.2-4.9-6.9-4.8c-6.6,0.3-13.3,0.1-20-0.6
		c1.7-0.1,3.3-0.1,5-0.3c1.1-0.2,3-0.4,3.2-1c1.7-5.5,6.3-3.6,9.9-3.9c4.7-0.4,6.1-1.9,5.8-6.2c-0.3-3.6-2.4-4.9-5.7-4.9
		c-5.8,0-11.6,0-17.4,0c-0.1-0.4-0.1-0.8-0.2-1.2c1.4-0.2,2.8-0.6,4.2-0.6c3.7-0.1,7.3,0,11-0.2c2.4-0.1,5.5,0,5.2-3.8
		c-0.3-3.1-0.8-6.4-5.4-6.2c-4.8,0.2-9.6,0-14.5,0c0-0.4-0.1-0.7-0.1-1.1c3.9-0.3,7.8-0.5,11.7-0.7c5.9-0.3,6.7-1.5,5.2-7.1
		c-0.9-3.4-1.4-6.9-2.4-10.2c-1.2-4.2-4.2-5.6-8.6-4.5c-2.7,0.7-5.7,5.5-4.8,8.3c0.3,0.9,2.1,1.7,3.3,1.9c2.4,0.3,4.9,0.1,7.4,1.1
		c-2.2,0.1-4.3,0.4-6.5,0.4c-4.3-0.1-6.7,1.7-7.8,6c-4,15.6-8.2,31.2-12.3,46.8c-5.9,22.1-5.8,45-8.8,67.5c-0.3,2.3-0.9,4.5-1.7,6.7
		c-1.7,4.7-4.3,9.2-5.2,14c-1.2,6.2-3.4,11.6-6.5,17c-2.2,3.8-4.9,6.6-9.1,7c-3.1,0.3-7.6,0.5-9.2-1.3c-1.9-2.1-2.7-7.2-1.4-9.6
		c5.4-10,4.6-20.8,6.3-31.4c1.9-12,0.7-24.2,3.8-36c0.6-2.5,0.9-5.3,0.6-7.9c-0.9-9.1,1.4-17.5,4.6-25.8c0.4-1.1,0.8-2.2,1.2-3.3
		c2.5-6.8,1.8-7.7-5.6-7.7c-6.3,0-12.6,0-19-0.9c3,0,6,0.1,8.9-0.1c1-0.1,2-0.8,2.9-1.2c-0.8-0.7-1.5-1.8-2.5-2.1
		c-1.7-0.5-3.6-0.6-5.4-1.5c5.5,0,11,0.1,16.5-0.1c2.9-0.1,6.9,1,6.8-4.2c-0.1-5.3-1.6-6.9-7.4-6.9c-19,0-38,0-57,0
		c-1.9,0-3.8-0.2-5.7-0.3c0-0.4,0-0.8,0-1.3c1.9-0.1,3.8-0.3,5.6-0.3c18.7,0,37.3,0,56-0.1c7.5,0,8.7-1.2,9-8.6
		c0.1-2.8,0.2-5.7,0-8.5c-0.3-4.9-1.6-6-6.6-5.8c-2.6,0.1-5.2,0.2-7.8,0.3c0-0.5,0-1-0.1-1.5c2.9,0,5.7,0,8.6,0
		c3.5,0,5.8-1.1,5.8-5.1c0-4-2.3-5.1-5.8-5.1c-20.5,0.1-41,0.1-61.5,0.2c-0.7,0-1.3,0-2-0.8c1.4-0.1,2.9-0.2,4.3-0.2
		c19.3-0.3,38.6-0.6,58-0.9c0.8,0,1.7,0,2.5-0.1c3-0.1,4.6-1.7,4.5-4.7c-0.1-2.9-1.7-4.2-4.5-4.3c-3.3-0.1-6.6,0-9.9,0
		c0-0.6,0-1.2,0-1.8c3,0,6,0,9,0c3.7-0.1,6.1-3,5.9-7c-0.2-3.8-3.2-3.1-5.6-3.3c-3.1-0.3-6.8,1.2-8.1-3.6c-0.2-0.7-2.6-1.1-4-1.2
		c-2-0.2-4-0.1-6-0.1c-1.8,0-3.6,0-5.4-0.9c7.1,0,14.1,0,21.2,0c2,0,4,0,6-0.2c2.9-0.2,4.6-1.9,4.6-4.9c0-3.1-2.2-3.9-4.8-3.9
		c-12.2,0-24.3,0.1-36.5,0.3c-4,0.1-8.1,0.3-12.1,0.5c0-0.5,0-0.9-0.1-1.4c1.9-0.1,3.8-0.3,5.7-0.3c12.7-0.1,25.3-0.1,38-0.1
		c1.7,0,3.4,0.1,5-0.2c3.3-0.5,3.9-2.4,1.6-4.8c-3.1-3.1-6.8-5.3-11.5-5.1c-11.7,0.4-23.3,0.6-35,0.8c-2.6,0.1-5.3,0-8.1-1
		c2.1-0.2,4.2-0.6,6.2-0.6c11.8-0.1,23.7-0.1,35.5-0.2c6.3,0,6.1-0.1,3.6-5.6c-2-4.3-5-5.7-9.5-5.6c-17.5,0.3-35,0.4-52.5,0.6
		c-0.8,0-1.6-0.1-2.3-1c1.9-0.1,3.8-0.3,5.7-0.3c16,0,32,0,48-0.1c6.5,0,6.8-0.5,4.7-6.5c-1.3-3.6-2.6-7.2-3.7-10.9
		c-1.3-4.2-4.2-5.5-8.4-5.4c-14.3,0.2-28.6,0.2-43,0.3c-0.8,0-1.5-0.1-2.4-1.2c1.7-0.1,3.4-0.2,5.1-0.2c13.3,0,26.7,0,40,0
		c6.5,0,6.1,0,6.3-6.2c0.1-4.4,1.1-8.9,2.1-13.3c2.1-9.3,4.2-18.5,6.7-27.7c1.7-6.2,3.8-12.4,6.1-18.4c2.8-7.3,9.7-10.2,15.8-13.8
		c3-1.7,6-3.5,8.8-6.4c-19.3,0-38.6,0-57.9,0c0-0.4,0-0.8,0-1.2c7.4,0,14.8,0,22.2,0c10.8,0,21.7-0.3,32.5,0.1
		c6.1,0.2,8.9-3.6,11.9-7.6c0.3-0.4-0.4-2.2-1-2.3c-1.4-0.4-3-0.3-4.5-0.3c-13.7,0-27.3,0-41.1-0.9c1.6,0,3.2,0,4.8,0
		c13,0,26,0,39,0c6.8,0,8.1-2.1,5.3-8.3c-5-10.8-3.5-21.4,0.5-32c1.9-5.1,6.6-6.9,11.1-8.6c6.5-2.3,15.5,1.5,19.9,6.8
		c9.1,10.6,7.6,22,3.8,33.8c-1.3,4-1.2,7,2.6,9.5c5.2,3.4,10.9,6.5,15.2,10.8c7.9,7.9,18.3,13.7,20.3,26.7
		c1.6,10.6,2.7,10.4,13.5,10.4c1.8,0,3.6,0,5.5,0.9c-3.3,0-6.7-0.1-10,0c-2.3,0.1-5.1-0.2-5.2,3.2c-0.1,3.1,1,5.6,4.7,5.8
		c1.1,0.1,2.3,0.3,3.3,0.4c-2.2,1.6-5.2,2.6-6.1,4.6c-0.9,2.2,0.2,5.2,0.5,7.8c0,0.5,0.2,1,0.4,1.4c2.4,8.1,2.4,8,10.7,7.8
		c2.3-0.1,4.8-0.4,7,0.2c1.4,0.4,2.3,2.2,3.5,3.3c-1.1,0.9-2.2,2.3-3.4,2.5c-3.3,0.5-6.6,0.6-10,0.7c-3.4,0.1-5.3,1.7-5.8,5
		c-0.6,4.1-1,8.3-1.5,12.4c-0.3,3.1,1.7,3.7,4.1,3.7c4.8-0.1,9.6-0.3,14.5-0.5c2-0.1,4.1,0,6.1,0c0,0.5,0,1,0,1.5
		c-6.7,0-13.5,0.1-20.2,0c-3.9,0-6.3,1.5-7.4,5.3c-0.7,2.7,0.2,4.5,2.9,4.5c8,0.2,16,0.1,24,0c2.8,0,4-2,4.1-4.7
		c0.3-4.7,1-9.3,0.8-14c-0.1-3-1.6-5.9-2.6-8.9c-1.3-3.7-3.4-7.2-4.1-11c-1.8-10.8-4-21.7-4.3-32.7c-0.3-11.2,0.9-22.6,2.7-33.7
		c0.7-4.1,4.7-7.8,7.8-11.2c2.4-2.7,5.7-4.6,8.4-7c1.2-1.2,1.9-2.9,2.9-4.4c-1.7-0.5-3.3-1.3-5-1.4c-5.4-0.2-10.9-0.1-16.3-0.1
		c0-0.4,0-0.8,0-1.3c8.3,0,16.6,0,25,0c1.5,0,3,0.6,4.4,0.6c4.9,0.2,7.1-3,4.8-7.5c-3.4-6.5-6.9-13-10.8-19.1
		c-2.2-3.4-3.4-6.6-2.7-10.7c0.4-2.3-0.2-4.8-0.4-8.8c-3.4,5.2-6.2,4.6-9.4,1.8c-1.2-1.1-3.4-1.2-5.2-1.3
		c-5.1-0.3-10.3-0.7-15.5-0.7c-36.2-0.1-72.3,0-108.5,0c-2,0-3.9,0-5.9-0.8c2,0,3.9,0,5.9,0c43.7,0,87.3-0.1,131,0
		c5.6,0,9.9-1,13.2-6c7.2-10.6,27.3-9.8,32.2,2.7c0.6,1.5,3.5,3.1,5.4,3.1c24.7,0.1,49.3,0.1,74-0.1c11.3-0.1,22.6-0.5,33.9-0.7
		c1.5,0,3.1-0.2,4.5,0.2c1.2,0.4,3.1,1.8,3,2.5c-0.2,1.3-1.4,3.1-2.6,3.6c-2,0.7-4.3,0.5-6.4,0.5c-32.7,0-65.3,0-98,0
		c-1.8,0-3.7,0-5.5,0.1c-2.6,0-3.2,0.9-2.6,3.7c0.8,3.8,0.4,7.8,0.5,11.8c0.2,3.6,0.2,7.3,0.7,10.8c0.5,3.4,3.4,3.7,6.2,3.8
		c8.5,0,17,0,25.4,0c0,0.4,0,0.8,0,1.2c-4.5,0-9-0.1-13.5,0c-4.3,0.1-8.6,0.4-12.9,0.8c-0.7,0.1-1.4,1.1-2,1.7
		c0.6,0.5,1.1,1.4,1.7,1.6c7.7,1.8,15.4,4.8,23.2,5c21.1,0.6,42.3,0,63.5-0.2c1.9,0,3.9,0.2,5.8,0.3c0,0.4,0,0.8,0,1.3
		c-1.9,0.1-3.7,0.3-5.6,0.3c-17.3,0-34.7,0-52,0c-1.5,0-3,0-4.5,0.2c-0.7,0.1-1.3,0.8-2,1.2c0.4,0.6,0.8,1.7,1.3,1.9
		c10.6,2.3,11.8,11.7,14.8,19.6c5.6,14.6,5.4,29.7,3.9,44.9C44.5,334.1,44.1,341.6,43.5,349.1C43.5,349.1,43.5,349.1,43.5,349.1z
		 M-65.4,461.2c0,0.4,0,0.7,0.1,1.1c-3.1,0.2-6.2,0.7-9.3,0.7c-10.3,0.1-20.7,0-31,0.1c-4.7,0.1-6.4,2.1-5.8,6c0.5,3.6,3.1,4,5.9,4
		c12.2-0.1,24.3-0.3,36.5-0.4c2,0,3.9,0,5.9,0c0,0.5,0,0.9-0.1,1.4c-1.8,0-3.6,0-5.4,0c-11.8,0-23.7,0-35.5,0
		c-6.1,0-7.6,1.4-7.6,6.6c0,5.4,4.1,4.4,7.2,4.4c13.6-0.2,27.3-0.6,40.9-0.9c5.2-0.1,6.3-1.5,6-6.9c-0.1-2.3-0.6-4.6-0.6-7
		c-0.1-3.6-0.5-7.4,0.4-10.8c1.9-7.1-0.1-9.8-7.4-9.2c-3,0.3-6.1,0-9.1,0c0-0.5,0-0.9,0-1.4c4.1,0,8.3,0.1,12.4,0
		c2.8-0.1,4.3-1.6,4.2-4.5c-0.1-2.9-1.3-4.8-4.5-4.9c-8.6,0-17.3,0-25.9,0c-6.4,0-12.7,0-19.1,0c0-0.4,0-0.8,0-1.2
		c1.9-0.1,3.8-0.3,5.7-0.3c12.3,0,24.7,0,37-0.2c1.6,0,4.4-1.1,4.7-2.2c1.5-5.4-1.9-8.8-7.7-8.5c-6.6,0.3-13.3,0.5-20,0.7
		c-6.5,0.1-13,0-19.5,0.1c-2.9,0-5.3,0.8-5.2,4.5c0.3,7.6,0.6,15.3,0.7,22.9c0.1,4,1.9,5.7,5.9,5.7c9.5,0,19,0,28.5,0
		C-73.3,461.2-69.3,461.2-65.4,461.2z M-86.6,412.1c0,0.3,0,0.6,0,0.9c-5.5,0-11-0.2-16.4,0.1c-2.8,0.1-5.7,0.7-8.2,1.8
		c-1.3,0.6-2.8,2.8-2.6,4.1c0.1,1.1,2.4,2.1,3.8,2.9c0.5,0.3,1.3,0.1,2,0.1c14-0.2,27.9-0.3,41.9-0.6c1.1,0,2.6-1.3,3-2.4
		c1.5-3.9-0.3-6.7-4.5-6.8C-74,412-80.3,412.1-86.6,412.1z M-8.7,460.1c0,0.5,0,1,0,1.5c-3.6,0.2-7.1,0.4-10.7,0.6
		c-3.6,0.3-4.7,2.8-4.8,5.9c-0.1,3.5,2.5,4,5.1,4c5.5-0.2,10.9-0.5,16.4-0.9c3-0.2,4.3-2.1,3.4-4.8c-1.5-4.7-3.4-9.2-5.4-13.7
		c-0.4-1-2-2-3.1-2.1c-3.6-0.3-7.3-0.5-10.9,0c-3.6,0.4-4.3,3.7-3.7,6.5c0.3,1.3,2.9,2.7,4.6,3C-14.8,460.4-11.7,460.1-8.7,460.1z
		 M-83.4,400.4c0-0.1,0-0.1,0-0.2c5,0,10,0.1,14.9,0c2.1-0.1,5.4,0.5,4.8-3.2c-0.5-2.9,1.4-7.7-4.5-7.6c-7.6,0.2-15.2,0.4-22.8,0.3
		c-4.9,0-7.5,2.4-9.3,6.7c-1.3,3-1.2,4.2,2.5,4.1C-93,400.2-88.2,400.4-83.4,400.4z M-85.4,411.1C-85.4,411-85.4,411-85.4,411.1
		c5.8-0.1,11.6,0,17.4-0.1c3.3-0.1,4.6-2.1,4.6-5.3c0-3.3-2.2-3.7-4.7-3.7c-10,0-19.9-0.2-29.9,0.2c-2.2,0.1-4.9,1.9-6.4,3.7
		c-2.5,3.1-1.5,4.9,2.5,5C-96.4,411.2-90.9,411.1-85.4,411.1z M-12.1,495.1c0-0.2,0-0.5,0-0.7c5,0,9.9,0.1,14.9-0.1
		c2.5-0.1,5.3-0.4,5.1-4C7.7,486.6,5.6,485,2,485c-4,0-8,0-12,0c-4.7,0-9.3,0-14,0.2c-4,0.2-4.7,3.2-4.6,6.4c0,3.4,2.6,3.4,5,3.4
		C-19.8,495.1-16,495.1-12.1,495.1z M-11,483.2c0-0.1,0-0.1,0-0.2c4.3,0,8.6,0.2,12.9-0.1c1.1-0.1,2.9-1.8,2.9-2.8
		c-0.1-3.8-3.2-6.7-7.1-6.9c-3.3-0.2-6.6-0.2-9.9-0.1c-3.3,0.1-6.6,0.4-9.9,0.9c-4,0.7-4.8,4-4.4,7.2c0.1,0.9,3.3,1.8,5.1,1.9
		C-18,483.4-14.5,483.2-11,483.2z"/>
	<path fill="#1BB666" d="M-377.8,142.5c-27,0-54.1,0-81.1,0c-0.1,0.4-0.1,0.9-0.2,1.3c1.9,0.5,3.8,1.1,5.7,1.6c0,0.2,0,0.3,0,0.5
		c-1.4,0.1-2.7,0.2-4.1,0.2c-14.3,0-28.6,0.1-43-0.1c-25.5-0.3-50.9-0.6-76.4-1c-12.5-0.2-24.9-0.6-37.3-0.9c-1.3,0-3,0.3-3.9-0.4
		c-1.3-0.9-2.1-2.5-3.1-3.9c1.2-0.9,2.3-2.5,3.5-2.5c4.6-0.1,9.3,0.4,14,0.5c5.8,0.2,11.7,0.2,17.5,0.3c37.6,0.7,75.2,1.5,112.8,2.1
		c29.8,0.5,59.6,0.7,89.4,1c2.1,0,4.3,0,6.4,0C-377.7,141.6-377.8,142.1-377.8,142.5z"/>
	<path fill="#1BB666" d="M-159.3,141.1c34.2,0,68.1,0,102.1,0c33,0,66-0.1,98.9,0c19.9,0.1,39.9,0.4,59.8,0.7c2.2,0,5.4-0.4,5.3,3
		c-0.1,3.6-3.4,3.2-5.7,3.1c-7-0.2-14-0.9-20.9-0.8c-16.6,0.1-33.3,0.8-49.9,0.7c-20,0-40-0.3-59.9-1.1c-6.4-0.3-12.7-2.7-19.2-0.4
		c-0.8,0.3-2-0.2-2.8-0.7c-5.7-3.5-11.9-3.7-18.3-3.7c-29.3,0.1-58.6,0-87.9,0c-0.3,0-0.7,0-1-0.1
		C-159,141.9-159.1,141.6-159.3,141.1z"/>
	<path fill="#1BB666" d="M43.5,349.1c17.7,0,35.3,0,53,0.1c1.7,0,3.5-0.3,4.9,0.3c1.4,0.6,2.5,2.1,3.7,3.3c-1.3,0.9-2.6,2.6-3.9,2.7
		c-11,0.1-21.9-0.2-32.9-0.2c-7.2,0-14.3,0.1-21.5,0.3c-5.6,0.2-5.6,0.2-3.7-4.8C43.3,350.1,43.4,349.6,43.5,349.1L43.5,349.1z"/>
	<path fill="#1BB666" d="M63.5,284c-4.5,0-9,0.1-13.5-0.1c-1.6-0.1-3.3-0.5-4.7-1.3c-0.8-0.4-1.2-2-1.2-3c0-0.5,1.5-1,2.3-1.4
		c0.4-0.2,1-0.1,1.5-0.1c16.6-0.4,33.2-0.8,49.8-1c2.6,0,6.8-1.1,6.8,2.9c0,4-4.2,2.9-6.7,2.9c-11.4,0.1-22.9,0.1-34.3,0.1
		C63.5,283.4,63.5,283.7,63.5,284z"/>
	<path fill="#FFFFFF" d="M-552.8,357.2c-13.1,0-25.7,0-38.3,0c-4,0-8,0.1-12,0.1c-1.8,0-3.9,0.3-5.4-0.5c-1.5-0.7-2.5-2.5-3.7-3.8
		c1.4-0.7,2.8-2.1,4.2-2.1c11.7-0.1,23.3,0,35,0.1c4.2,0,8.3,0.1,12.5,0.1C-556.8,351.2-554.2,352.9-552.8,357.2z"/>
	<path fill="#1BB666" d="M-124.4,157c71.8,0,143.7,0,215.5,0c0,0.4,0,0.9,0,1.3c-71.8,0-143.7,0-215.5,0
		C-124.4,157.9-124.4,157.5-124.4,157z"/>
	<path fill="#1BB666" d="M-58.4,189.9c49.2,0,98.4,0,147.6,0c0,0.4,0.1,0.8,0.1,1.2c-6.3,0.3-12.5,0.7-18.8,0.8
		c-13,0.1-25.9,0.1-38.9,0c-16-0.1-32-0.5-47.9-0.6c-14-0.1-27.9,0-41.9,0C-58.3,190.8-58.3,190.3-58.4,189.9z"/>
	<path fill="#FFFFFF" d="M89.8,170.2c-38.6,0-77.3,0-115.9,0C-21.9,167.5,79.8,167.7,89.8,170.2z"/>
	<path fill="#1BB666" d="M-33.7,179.8c40.6,0,81.3,0,121.9,0c0,0.2,0,0.5,0,0.7c-40.6,0-81.3,0-121.9,0
		C-33.7,180.2-33.7,180-33.7,179.8z"/>
	<path fill="#1BB666" d="M-479,190.6c-41.1-0.6-82.1-1.1-123.2-1.7c-0.1-0.2-0.1-0.4-0.2-0.6c2.2-0.4,4.3-1.1,6.5-1.1
		c7.2,0.1,14.3,0.4,21.5,0.6c3.2,0.1,6.3,0.2,9.5,0.2c27.3,0.4,54.6,0.7,81.9,1.1c1.4,0,2.8,0.3,4.2,0.5
		C-478.9,190-478.9,190.3-479,190.6z"/>
	<path fill="#1BB666" d="M-496,239.2c-35.4,0-70.8,0-106.2,0c0-0.3,0-0.6,0-0.9c35.4,0,70.8,0,106.2,0
		C-496,238.6-496,238.9-496,239.2z"/>
	<path fill="#FFFFFF" d="M-3.3,226.6c30.8,0,61.7,0,92.5,0c0,0.3,0,0.5,0,0.8c-30.8,0-61.7,0-92.5,0C-3.4,227.1-3.3,226.9-3.3,226.6
		z"/>
	<path fill="#FFFFFF" d="M-46.5,248.5c-27.9,0-55.8,0-83.7,0c0-0.3,0-0.6,0-0.9c27.9,0,55.8,0,83.7,0
		C-46.5,247.9-46.5,248.2-46.5,248.5z"/>
	<path fill="#FFFFFF" d="M-512.5,178.7c-30.2,0-60.4,0-90.6,0c-0.1-0.4-0.2-0.7-0.3-1.1c1.6-0.4,3.1-1,4.7-1.1c5-0.2,10-0.5,15-0.4
		c23.1,0.6,46.2,1.3,69.4,2c0.6,0,1.2,0.2,1.9,0.2C-512.5,178.5-512.5,178.6-512.5,178.7z"/>
	<path fill="#1BB666" d="M-556.5,153.9c29.9,0.5,59.7,1.1,89.6,1.6c0,0.6,0,1.1,0,1.7c-29.9-0.6-59.7-1.3-89.6-1.9
		C-556.5,154.9-556.5,154.4-556.5,153.9z"/>
	<path fill="#1BB666" d="M-495.1,201.2c-35.6,0-71.3,0-106.9,0c0-0.4,0-0.8,0-1.3c35.6,0,71.2,0,106.9,0
		C-495.2,200.3-495.2,200.8-495.1,201.2z"/>
	<path fill="#1BB666" d="M-67.4,201.4c-40.6,0-81.1,0-121.7,0c0-0.2,0-0.5,0-0.7c40.6,0,81.2,0,121.9,0
		C-67.3,200.9-67.4,201.2-67.4,201.4z"/>
	<path fill="#FFFFFF" d="M-412.6,167.8c-38.7,0-77.4,0-116,0c0-0.2,0-0.4,0-0.7c38.7,0,77.4,0,116,0
		C-412.6,167.4-412.6,167.6-412.6,167.8z"/>
	<path fill="#1BB666" d="M-602.2,226.8c33.8,0,67.6,0,101.4,0c0,0.3,0,0.6,0,0.9c-33.8,0-67.6,0-101.4,0
		C-602.2,227.3-602.2,227-602.2,226.8z"/>
	<path fill="#1BB666" d="M-535.1,166.7c-22.8,0-45.5,0-68.3,0c0-0.3,0-0.6,0-0.9c22.8,0,45.5,0,68.3,0
		C-535.1,166.1-535.1,166.4-535.1,166.7z"/>
	<path fill="#FFFFFF" d="M-15,200.5c21,0,42,0,63.1,0c0,0.2,0,0.5,0,0.7c-21,0-42,0-63.1,0C-15,201-15,200.8-15,200.5z"/>
	<path fill="#1BB666" d="M-488.2,179.2c39.5,0,78.9,0,118.4,0c0,0.2,0,0.3,0,0.5c-39.5,0-79,0-118.5,0
		C-488.3,179.5-488.3,179.4-488.2,179.2z"/>
	<path fill="#FFFFFF" d="M-5.4,236.8c31.5,0,63,0,94.5,0c0,0.3,0,0.6,0,0.9c-31.5,0-63,0-94.4,0C-5.3,237.4-5.3,237.1-5.4,236.8z"/>
	<path fill="#1BB666" d="M-540.4,379.5c-19.2,2.5-38.5,1.2-57.8,1.5c0-0.5,0-1,0-1.5C-578.9,379.5-559.6,379.5-540.4,379.5z"/>
	<path fill="#1BB666" d="M-366.8,239.4c-28.5,0-56.9,0-85.4,0c0-0.3,0-0.6,0-0.9c28.5,0,57,0,85.6,0
		C-366.7,238.7-366.7,239-366.8,239.4z"/>
	<path fill="#FFFFFF" d="M86.4,366.7c-18.5,0-36.9,0-55.4,0c0-0.5,0-1.1,0-1.6C49.5,365.4,68,364.3,86.4,366.7z"/>
	<path fill="#FFFFFF" d="M-65.4,191.3c-29,0-58,0-87,0c0-0.3,0-0.6,0-0.9c29,0,58,0,87,0C-65.4,190.7-65.4,191-65.4,191.3z"/>
	<path fill="#1BB666" d="M-164.2,179.3c35.9,0,71.7,0,107.4,0c0,0.2,0,0.4,0,0.6c-35.7,0-71.4,0-107,0
		C-163.9,179.9-164,179.6-164.2,179.3z"/>
	<path fill="#FFFFFF" d="M30.3,247.5c19.5,0,39.1,0,58.6,0c0,0.3,0,0.6,0,0.9c-19.5,0-39.1,0-58.6,0C30.3,248,30.3,247.7,30.3,247.5
		z"/>
	<path fill="#1BB666" d="M-153.5,218.7c0,0,10.2-0.3,17.5,14.3c0,0,4.9,8.9,0.5,22.5l-1.6,5.4c0,0-1.9,5.2,2.5,8
		c0,0,11.4,7.1,15.1,10.6c0,0,11.3,10.2,12.6,11.6c0,0,7.1,6.2,8.2,15.6l6.2,33.3c0,0,4.7,11.4,1.8,25.1c0,0-1.4,18.6-9.1,30
		l-8.5,18.7c0,0-2,0.1-4.5,2.4c0,0-2.1,2.7-0.3,3.8c0,0,2,20.6,1.5,29.6c0,0,0.8,23.7,0.4,27.4l-0.4,4.2c0,0-0.2,5.8-2.4,13.2
		l-0.6,4.9c0,0,2.7,13.1,4.7,17.8c0,0,4.6,8.1,5.7,25.7c0,0,3.6,39.1,7.6,56.9c0,0,1.3,9,4.2,12.9c0,0,8.4,8.7,6.5,12.9
		c0,0-0.8,5.5-13.2,2.1c0,0-5.2-0.9-8.8-5.4c0,0-1.1-1.4-1.5-2.6c0,0-0.7-1.6-4.2-2.8c0,0-3.9-0.8-5.6-3.5c0,0-1.4-1.8-1.2-4.9
		c0,0,0.2-4.8-0.9-9.3c0,0-1.1-3.4-1.7-4.4l-0.9-1.5c0,0-0.9-1.2-1.3-3.5c0,0-9.4-69.8-12-74.9l-2.3-8.4c0,0-1.8-9-2.5-15.6
		l-7.4-31.7c0,0-1.1-6.4-4.2-7.4c0,0-3.9-1.7-7.5,1.4c0,0-2.1,1.4-5.8,15.6l-10.7,40.6c0,0-3.8,14.4-4.7,19.8c0,0-3.9,31.8-5.2,48.5
		c0,0-0.8,11.2-4.7,18.1c0,0-2.4,6-2.9,8.5c0,0-2,10-5.6,15.3c0,0-2.8,7.5-9,8.6c0,0-9.5,1.7-10.8-1.8c0,0-1.7-2.5-1.5-6.4
		c0,0,0.1-2.3,1.1-3.3c0,0,2.6-6,3.3-9.8c0,0,4.3-32.6,4-38.6c0,0,0.8-14.9,2.2-17.8c0,0,0.6-7.8,0.6-10.1c0,0-0.6-11.6,3.5-20.7
		l3.4-9.8l1.6-15.4l0.4-26.9c0,0-1.7-22.3,0.6-34.9l2.1-12.1c0,0,1.3-3.2-1.2-5.4l-9.5-15.1c0,0-9.2-17.2-10.5-25.5
		c0,0-6.7-10.4,1.8-38.3c0,0,6-25.1,9.8-33.9c0,0,1.8-8.1,10.4-11.9c0,0,12.9-7.7,14.8-9.8c0,0,7.7-6.6,8.7-8.8s0-0.7,0-0.7
		s5.3-4.4,3.7-8.4c0,0-6.9-12.3-3.2-26.2c0,0,2.3-13.4,8.8-15.2C-165.5,221.2-158.6,217.2-153.5,218.7z"/>
</g>
</svg>
