<?xml version="1.0" encoding="utf-8"?>
<!-- Generator: Adobe Illustrator 18.0.0, SVG Export Plug-In . SVG Version: 6.00 Build 0)  -->
<!DOCTYPE svg PUBLIC "-//W3C//DTD SVG 1.1//EN" "http://www.w3.org/Graphics/SVG/1.1/DTD/svg11.dtd">
<svg version="1.1" id="Layer_1" xmlns="http://www.w3.org/2000/svg" xmlns:xlink="http://www.w3.org/1999/xlink" x="0px" y="0px"
	 viewBox="0 0 232 232" enable-background="new 0 0 232 232" xml:space="preserve">
<g id="Layer_1_1_">
</g>
<g>
	<g>
		<path fill="#FFFFFF" d="M141,137.4c0.1-0.3,0.2-0.7,0.4-1c1.3,0.4,2.7,0.5,3.8,1.1c4.4,2.4,8.7,5,13,7.4c2.9,1.6,4.9,1.5,7-1
			c1.2-1.4,2.2-3.2,2.8-5c1-3,0.2-4.7-2.6-6.4c-1.2-0.7-2.4-1.4-3.6-2.1c-4.2-2.4-8.4-4.8-12.6-7.3c0.1-0.3,0.2-0.6,0.2-0.8
			c1.4,0.3,3,0.3,4.2,1c4.3,2.3,8.5,4.9,12.7,7.3c3.1,1.8,5.1,1.5,7.4-1.2c1.2-1.5,2.1-3.3,2.7-5.1c0.9-2.8,0-4.5-2.6-6
			c-3.7-2.1-7.4-4.2-11-6.3c-11.3-6.5-22.7-13-34-19.6c-0.5-0.3-1.1-0.7-1.7-0.7c-1.2,0-5.4,3.8-5.7,5.1c-1.1,4.7-2.4,9.4-3.2,14.1
			c-0.8,5-4.1,7.4-9.3,6.6c-3.1-0.5-6.3-1.1-9.1-2.5c-3.8-1.9-6.1-4.3-4.8-9.4c1.7-6.6,3.2-13.3,4.6-20c0.6-2.7,1.9-4.7,4.1-6.2
			c2.5-1.7,4.9-3.6,7.3-5.4c-3.3-2.7-5.7-2.9-8.8-1.1c-7.9,4.5-15.8,9.1-23.7,13.6c-1.1,0.6-2.8,0.9-4.1,0.6
			c-10.3-2.6-20.6-5.4-30.9-8.2c-1.7-0.5-2.5-0.1-3.3,1.5c-7.9,16.1-10.6,32.9-8,50.6c0.1,0.8,1.1,1.9,1.9,2.1
			c9.5,2.6,19,5,28.4,7.5c1.4,0.4,2.1,0,2.8-1.2c1.5-3.1,4.2-4,7.4-3.5c4.1,0.6,7.2,2.7,9.5,6c6-7.9,10.3-7.8,18.6,0.3
			c3.1-3.6,6.9-3.4,10.8-1.5c3.8,1.8,6.5,4.6,7,8.8c4.8-0.1,8.5,1.9,11.2,5.5c1.9,2.5,2.2,5,0.5,7.8c-0.6,1-1.1,2-1.6,3
			c4.7,3.8,7.9,3.3,10.7-1.7c0.5-0.8,0.8-1.7,1.1-2.6c1-3.3,0.3-4.9-2.6-6.6c-1.7-1-3.5-2.1-5.2-3.1c0.1-0.3,0.2-0.6,0.4-0.9
			c1.2,0.3,2.5,0.4,3.5,1c3.8,2,7.4,4.3,11.2,6.3c2.6,1.4,5.1,0.3,7.4-3c2.3-3.3,2.5-7.1,0.6-8.8c-0.5-0.5-1.2-0.8-1.8-1.1
			c-3.7-2.1-7.4-4.2-11.1-6.4C142.3,138.2,141.7,137.8,141,137.4z M171,140.5c0.5-0.1,0.9-0.1,1.4-0.2c8.4-2.3,16.8-4.6,25.2-6.9
			c1.6-0.4,2-1.4,2.2-2.8c2.5-17.6-0.2-34.4-8-50.4c-0.8-1.7-1.7-1.9-3.4-1.4c-9,2.5-18,4.9-27,7.2c-1.1,0.3-2.7,0.1-3.7-0.4
			c-9.2-5.1-18.2-10.4-27.4-15.6c-3.1-1.8-6.4-2.1-9.4,0.1c-5.2,3.7-10.3,7.5-15.3,11.4c-1.4,1.1-2.6,2.8-3,4.5
			c-1.8,6.8-3.2,13.6-4.9,20.4c-0.5,2.2,0.2,3.8,1.8,5.1c3.3,2.6,7.1,3.6,11.3,3.2c2.9-0.3,3.9-1.2,4.6-4.1c0.8-3.3,1.8-6.5,2.2-9.8
			c0.6-5.1,2.8-8.9,7.5-11.1c0.2-0.1,0.4-0.4,0.6-0.4c0.9-0.1,2-0.4,2.7-0.1c15.8,8.9,31.5,17.8,47.2,26.8c3.5,2,4.8,4.6,3.9,8.4
			c-1,4.7-3.5,8.4-8.3,10.1C171,136.4,171,138.3,171,140.5L171,140.5z M115.8,149.4c-0.4-3.2-2.3-4.8-4.6-6.1
			c-2.2-1.2-4.5-1.9-6.9-0.6c-0.5,0.2-0.8,0.7-1.1,1.1c-3.6,6.1-7.2,12.2-10.7,18.4c-1.2,2.1-0.5,4.2,1.5,5.5
			c1.4,0.9,2.8,1.7,4.2,2.5c3,1.7,5.1,1.2,6.9-1.8c3.3-5.6,6.5-11.1,9.7-16.7C115.3,150.9,115.5,150,115.8,149.4L115.8,149.4z
			 M128.6,159.7c0-2.3-1.6-4.6-4.3-6.1c-2.2-1.2-4.6-2.1-7.1-0.8c-0.6,0.3-1.1,0.9-1.4,1.5c-3.1,5.3-6.3,10.6-9.3,15.9
			c-1.3,2.2-0.6,4.5,1.6,5.8c1.3,0.9,2.7,1.6,4,2.4c3,1.7,5.1,1.1,6.9-1.8c2.9-5,5.8-9.9,8.7-14.9
			C128.2,160.9,128.4,160.1,128.6,159.7z M89.3,138.6c-0.7,0.5-2.3,1-2.9,2.1c-2.8,4.3-5.3,8.8-7.8,13.3c-1.2,2.1-0.6,4.3,1.4,5.7
			c1.5,1,3,1.9,4.7,2.7c2.5,1.3,4.8,0.8,6.2-1.7c2.5-4.2,5.1-8.4,7.3-12.7c0.6-1.2,0.5-3.3-0.2-4.5
			C96.4,140.4,93.4,139.1,89.3,138.6z M70.8,138.3c-0.6,0.4-2.1,1-2.9,2c-1.3,1.6-2.3,3.5-3.3,5.4c-1.2,2.2-0.7,4.3,1.3,5.7
			c1.6,1,3.3,2.1,5,3c2.2,1.1,4.3,0.5,5.7-1.6c1.1-1.7,2.1-3.5,3.1-5.2c1-1.7,0.8-3.3-0.3-4.8C77.6,140.1,74.9,138.7,70.8,138.3z"/>
		<path fill="#FFFFFF" d="M141,137.4c0.6,0.4,1.2,0.8,1.9,1.1c3.7,2.1,7.4,4.3,11.1,6.4c0.6,0.4,1.2,0.7,1.7,1.1
			c1.9,1.7,1.7,5.5-0.6,8.8c-2.2,3.3-4.8,4.4-7.4,3c-3.8-2-7.4-4.3-11.2-6.3c-1-0.6-2.3-0.7-3.5-1c-0.1,0.3-0.3,0.6-0.4,0.9
			c1.7,1,3.4,2.1,5.2,3.1c2.9,1.7,3.6,3.3,2.6,6.6c-0.3,0.9-0.6,1.8-1.1,2.6c-2.9,5-6,5.5-10.7,1.7c0.5-1,1-2,1.6-3
			c1.8-2.7,1.4-5.4-0.4-7.8c-2.8-3.6-6.4-5.6-11.2-5.5c-0.6-4.3-3.3-7.1-7.1-8.8c-3.9-1.8-7.6-2.1-10.8,1.5
			c-8.3-8.1-12.6-8.2-18.6-0.3c-2.3-3.4-5.5-5.5-9.5-6c-3.2-0.4-5.9,0.5-7.4,3.5c-0.6,1.3-1.4,1.6-2.8,1.2c-9.5-2.5-19-5-28.4-7.5
			c-0.8-0.2-1.8-1.3-1.9-2.1c-2.6-17.7,0.1-34.5,8-50.6c0.7-1.5,1.6-1.9,3.3-1.5c10.3,2.9,20.6,5.6,30.9,8.2c1.3,0.3,3,0.1,4.1-0.6
			c8-4.4,15.8-9,23.7-13.6c3.2-1.8,5.6-1.6,8.9,1.1c-2.5,1.8-4.8,3.7-7.3,5.4c-2.3,1.5-3.6,3.6-4.1,6.2c-1.5,6.7-2.9,13.4-4.6,20
			c-1.3,5,1,7.5,4.8,9.4c2.7,1.4,6,2,9,2.5c5.2,0.8,8.5-1.6,9.3-6.6c0.7-4.8,2.1-9.4,3.2-14.1c0.3-1.2,4.6-5.1,5.7-5.1
			c0.6,0,1.1,0.4,1.7,0.7c11.3,6.5,22.7,13,34,19.6c3.7,2.1,7.3,4.2,11,6.3c2.6,1.5,3.5,3.1,2.6,6c-0.6,1.8-1.5,3.6-2.7,5.1
			c-2.2,2.8-4.3,3-7.4,1.2c-4.2-2.4-8.4-5-12.7-7.3c-1.2-0.7-2.8-0.7-4.2-1c-0.1,0.3-0.2,0.6-0.2,0.9c4.2,2.4,8.4,4.9,12.6,7.3
			c1.2,0.7,2.5,1.4,3.6,2.1c2.8,1.6,3.6,3.3,2.7,6.4c-0.6,1.8-1.6,3.6-2.8,5c-2.1,2.5-4.1,2.7-7,1c-4.3-2.5-8.6-5-13-7.4
			c-1.1-0.6-2.5-0.7-3.8-1.1C141.3,136.8,141.2,137.1,141,137.4z"/>
		<path fill="#FFFFFF" d="M171,140.5c0-2.2,0-4.1,0-6c4.8-1.7,7.3-5.4,8.3-10.1c0.8-3.8-0.4-6.4-3.9-8.4
			c-15.7-9-31.4-17.9-47.2-26.8c-0.7-0.4-1.8,0-2.7,0.1c-0.2,0-0.4,0.3-0.6,0.4c-4.7,2.3-6.9,6-7.5,11.1c-0.4,3.3-1.4,6.5-2.2,9.8
			c-0.7,2.9-1.6,3.8-4.6,4.1c-4.2,0.4-8-0.6-11.3-3.2c-1.7-1.3-2.4-2.9-1.8-5.1c1.7-6.8,3.1-13.7,4.9-20.4c0.4-1.7,1.7-3.4,3-4.5
			c5-4,10.2-7.7,15.3-11.4c3.1-2.2,6.3-1.9,9.4-0.1c9.1,5.2,18.2,10.5,27.3,15.6c1,0.6,2.6,0.8,3.7,0.4c9-2.3,18.1-4.7,27-7.2
			c1.7-0.5,2.6-0.2,3.4,1.4c7.8,16,10.5,32.8,8,50.4c-0.2,1.4-0.6,2.4-2.2,2.8c-8.4,2.2-16.8,4.6-25.2,6.9
			C172,140.4,171.5,140.4,171,140.5z"/>
		<path fill="#FFFFFF" d="M115.8,149.4c-0.3,0.6-0.6,1.5-1,2.3c-3.2,5.6-6.5,11.2-9.7,16.7c-1.8,3-3.8,3.5-6.9,1.8
			c-1.4-0.8-2.8-1.6-4.2-2.5c-2-1.3-2.7-3.4-1.5-5.5c3.5-6.2,7.1-12.2,10.7-18.4c0.3-0.5,0.7-0.9,1.1-1.2c2.4-1.3,4.7-0.6,6.9,0.6
			C113.5,144.6,115.4,146.2,115.8,149.4z"/>
		<path fill="#FFFFFF" d="M128.6,159.7c-0.2,0.4-0.5,1.2-0.9,2c-2.9,5-5.8,10-8.7,14.9c-1.7,2.9-3.9,3.5-6.9,1.8
			c-1.4-0.8-2.7-1.5-4-2.4c-2.2-1.4-2.9-3.6-1.6-5.8c3-5.3,6.2-10.6,9.3-15.9c0.3-0.6,0.8-1.2,1.4-1.5c2.5-1.3,4.8-0.4,7,0.8
			C127.1,155.1,128.7,157.3,128.6,159.7z"/>
		<path fill="#FFFFFF" d="M89.3,138.6c4.1,0.6,7,1.8,8.7,4.8c0.7,1.2,0.8,3.3,0.2,4.5c-2.2,4.4-4.8,8.5-7.3,12.7
			c-1.5,2.5-3.7,3-6.2,1.7c-1.6-0.8-3.1-1.7-4.6-2.7c-2.1-1.4-2.7-3.5-1.5-5.7c2.5-4.5,5.1-8.9,7.8-13.3
			C87.1,139.6,88.6,139.1,89.3,138.6z"/>
		<path fill="#FFFFFF" d="M70.8,138.3c4.1,0.4,6.8,1.8,8.8,4.5c1.1,1.5,1.3,3.1,0.3,4.8c-1,1.7-2,3.5-3.1,5.2
			c-1.4,2.1-3.5,2.7-5.7,1.6c-1.7-0.9-3.4-1.8-5-2.9c-2.1-1.4-2.5-3.5-1.3-5.7c1-1.8,2-3.7,3.3-5.4
			C68.7,139.3,70.1,138.7,70.8,138.3z"/>
	</g>
	<path fill="#FFFFFF" d="M116,223C57,223,9,175,9,116S57,9,116,9c59,0,107,48,107,107S175,223,116,223z M116,19
		c-53.5,0-97,43.5-97,97s43.5,97,97,97c53.5,0,97-43.5,97-97S169.5,19,116,19z"/>
</g>
</svg>
