<?xml version="1.0" encoding="utf-8"?>
<!-- Generator: Adobe Illustrator 16.0.3, SVG Export Plug-In . SVG Version: 6.00 Build 0)  -->
<!DOCTYPE svg PUBLIC "-//W3C//DTD SVG 1.1//EN" "http://www.w3.org/Graphics/SVG/1.1/DTD/svg11.dtd">
<svg version="1.1" id="Layer_1" xmlns="http://www.w3.org/2000/svg" xmlns:xlink="http://www.w3.org/1999/xlink" x="0px" y="0px"
	 width="407.796px" height="382px" viewBox="0 0 407.796 382" enable-background="new 0 0 407.796 382" xml:space="preserve">
<g>
	<path fill-rule="evenodd" clip-rule="evenodd" fill="#FFFFFF" d="M251.185,134.578c-0.234,0.783-0.364,1.619-0.721,2.341
		c-1.207,2.429-0.464,3.511,2.141,4.251c2.113,0.601,3.992,2.032,5.974,3.095l0.069-0.064c-1.739,0.434-4.905,0.739-4.959,1.327
		c-0.181,1.975-0.454,4.757,2.817,5.178c0.269,0.035,0.5,0.343,0.748,0.524c-0.574,0.107-1.154,0.324-1.726,0.301
		c-2.228-0.087-4.638-0.384-2.109,2.928l0.063-0.07c0.157,1.048-0.059,2.467,0.543,3.07c1.571,1.576,2.45,2.376-0.45,3.538
		c-2.572,1.032-4.792,2.918-7.25,4.274c-1.214,0.67-2.585,1.176-3.945,1.431c-1.616,0.303-3.22,0.239-2.59,2.713
		c0.074,0.288-1.18,1.217-1.905,1.34c-1.509,0.256-3.08,0.266-4.616,0.191c-0.979-0.048-1.943-0.428-2.914-0.66
		c0.914-0.967,1.976-2.863,2.718-2.746c4.027,0.636,3.339-1.703,3.208-4.159c-0.177-3.328,0.323-6.722-0.134-9.995
		c-0.308-2.202-1.767-4.244-2.711-6.356c0,0.002,0.216,0.082,0.216,0.082c-2.907-4.789-4.466-5.6-7.004-3.204
		c-1.115,1.053-1.667,2.833-2.164,4.383c-1.273,3.976-2.356,8.013-3.562,12.011c-0.149,0.496-0.581,0.907-0.882,1.357
		c-0.118-0.522-0.389-1.064-0.327-1.565c0.248-2.02,0.598-4.027,0.91-6.04l-0.07,0.097c-0.192-2.548-0.386-5.097-0.579-7.645
		c-0.813,0.331-2.047,0.436-2.366,1.031c-1.518,2.832-2.609,5.896-4.179,8.694c-3.961,7.06-6.798,8.166-14.933,7.294
		c-2.752-0.294-5.674,0.463-8.451,1.056c-3.138,0.668-5.234,0.489-4.982-3.566c0.042-0.681-1.27-2.129-1.766-2.049
		c-3.032,0.49-3.888-1.32-4.679-3.635c-0.273-0.8-1.283-1.347-1.957-2.008c-0.175,0.934-0.716,1.99-0.451,2.775
		c0.577,1.712-2.118,3.89,0.756,5.221c0.041,0.019-0.152,0.86-0.281,0.873c-0.565,0.057-1.292,0.153-1.697-0.134
		c-1.454-1.031-2.802-2.211-4.19-3.335c-0.27-0.517-0.482-1.075-0.821-1.541c-0.733-1.006-1.532-1.965-2.303-2.942
		c-0.116,0.184-0.374,0.456-0.324,0.539c0.711,1.165,1.415,2.342,2.239,3.426c0.227,0.299,0.843,0.304,1.28,0.443
		c0.14,0.324,0.281,0.648,0.405,0.986c-0.016,0.014,0.05-0.017,0.05-0.017c-3.189,1.322-4.176-1.052-5.363-3.156
		c-0.333-0.59-0.848-1.076-1.28-1.61c0.035,0.63-0.144,1.387,0.141,1.869c1.764,2.981,0.255,2.985-2.355,3.577
		c-6.685,1.513-12.534,5.065-18.147,8.945c-1.479,1.021-3.015,1.962-4.538,2.919c-2.504,1.574-7.3,1.616-3.168,6.854
		c1.99,2.523-1.347,6.437-4.722,5.799c-2.419-0.457-3.063,0.5-3.813,2.479c-1.406,3.708-5.32,4.887-8.79,3.128
		c-0.498-0.252-1.809,0.292-2.207,0.851c-0.51,0.715-0.168,2.127-0.737,2.69c-1.29,1.278-2.834,2.902-4.426,3.087
		c-1.323,0.154-3.278-1.232-4.22-2.487c-2.141-2.85-3.284-6.661-5.854-8.918c-2.697-2.37-6.582-3.393-9.968-4.96
		c-0.187-0.086-0.563,0.238-0.852,0.371c0.228,0.25,0.416,0.562,0.691,0.738c0.707,0.451,1.415,0.935,2.187,1.245
		c7.059,2.822,10.022,9.052,12.24,15.531c0.634,1.854-0.244,5.381-1.701,6.54c-2.596,2.065-5.098-0.379-6.489-2.578
		c-3.116-4.927-7.075-8.623-12.471-10.938c-2.554-1.096-4.578-1.693-5.813,1.486c-0.717,1.844-5.131,1.448-3.006,4.986
		c-0.742-0.292-1.581-0.452-2.204-0.906c-1.055-0.771-1.973-1.729-2.948-2.607c0.251,1.315,0.31,2.707,0.79,3.933
		c1.514,3.862,0.539,8.349-2.688,10.935c-1.794,1.438-3.732,1.461-3.699-1.292c0.043-3.529,0.602-7.096,1.339-10.562
		c0.765-3.594,2.347-7.027,2.969-10.634c1.187-6.876,6.965-12.907,13.916-14.266c5.722-1.119,11.49-2.199,17.037-3.938
		c3.046-0.956,5.759-3.116,8.466-4.963c2.167-1.479,3.914-3.651,6.194-4.862c1.747-0.927,4.572-1.799,5.987-1.015
		c4.722,2.616,9.239,5.732,13.388,9.193c1.766,1.473,2.703,1.897,4.46,0.521c4.15-3.25,8.589-6.178,12.453-9.734
		c2.062-1.898,3.171-4.833,4.711-7.299c-0.264-0.137-0.668-0.211-0.764-0.424c-0.243-0.538-3.765,0.79-0.893-1.52
		c0.107-0.086,0.048-0.382,0.066-0.579c-4.646,0.678-3.376-3.709-4.812-5.736c-1.505-2.125-2.752-4.461-3.872-6.819
		c-0.432-0.91-0.689-2.694-0.196-3.12c2.463-2.125,5.215-3.913,7.836-5.86c0.814-0.605,2.065-1.28,2.147-2.029
		c0.082-0.742-0.901-1.864-1.701-2.378c-1.285-0.826-2.879-1.16-4.204-1.939c-1.44-0.848-2.752-1.927-4.063-2.977
		c-0.917-0.734-1.604-1.964-2.624-2.328c-7.227-2.575-11.122-8.837-14.748-14.67c-1.662-2.672-0.26-7.551,0.44-11.301
		c0.639-3.42,2.2-6.668,3.372-9.986c0.216-0.613,0.513-1.197,0.772-1.794c0.486,0.313,1.147,0.516,1.429,0.958
		c2.749,4.333,6.511,2.037,9.699,1.178c3.2-0.863,5.099-3.415,5.056-7.018c-0.032-2.755,0.085-5.518-0.061-8.266
		c-0.046-0.85,0.46-4.188-1.948-0.964c-0.046,0.062-1.444-0.496-1.6-0.967c-1.758-5.319-3.468-10.657-5.035-16.036
		c-0.766-2.627-1.33-5.332-1.723-8.04c-0.133-0.925,0.534-1.965,0.835-2.953c0.308,0.818,0.756,1.613,0.9,2.459
		c0.884,5.231,1.227,5.063,5.766,2.47c3.767-2.152,8.246-3.023,12.295-4.732c1.485-0.627,2.593-2.101,3.971-3.047
		c0.681-0.468,1.586-0.865,2.384-0.854c1.452,0.021,2.896,0.415,4.353,0.534c0.233,0.019,0.793-0.666,0.729-0.885
		c-0.213-0.726-0.466-1.65-1.022-2.028c-2.081-1.412-4.296-2.624-6.44-3.945c-0.38-0.233-0.661-0.628-0.987-0.95
		c0.438-0.054,0.875-0.128,1.315-0.157c6.146-0.397,9.529,1.712,11.732,7.553c1.186,3.143,3.607,3.844,6.562,4.968
		c8.175,3.112,15.309,7.836,18.551,16.739c0.466,1.28,2.224,2.039,3.119,3.236c0.42,0.562,0.519,1.731,0.231,2.393
		c-2.237,5.139-4.65,10.201-6.889,15.339c-0.405,0.929-0.259,2.097-0.367,3.155c1.451-0.122,3.926,0.191,4.191-0.433
		c2.104-4.959,8.591-6.871,8.909-12.953c0.102-1.946,0.154-3.894,0.269-5.838c0.105-1.786,0.127-3.594,0.459-5.34
		c0.155-0.816,0.954-1.511,1.461-2.261c0.328,0.629,0.589,1.306,0.995,1.88c5.674,8.02,9.799,16.698,11.661,26.421
		c0.198,1.04,1.691,1.791,2.463,2.771c0.971,1.234,2.269,2.447,2.645,3.875c2.729,10.39,4.551,20.833,1.774,31.592
		c-1.012,3.921-1.385,8.018-1.876,12.055c-0.107,0.884,0.429,2.6,0.828,2.648c1.066,0.132,2.447-0.137,3.285-0.787
		c1.594-1.236,2.789-2.982,4.373-4.233c0.566-0.447,2.567-0.185,2.586-0.056c0.788,5.5,5.669,4.75,9.136,6.174
		c0.652,0.267,1.037,1.186,1.532,1.81c-0.365-0.042-0.72-0.078-1.07-0.139c-0.681-0.12-1.36-0.253-2.04-0.38
		c0.7,0.224,1.389,0.494,2.102,0.65C250.457,134.786,250.832,134.631,251.185,134.578z M210.653,132.146
		c0.016-3.119-6.817-8.755-10.548-9.459c-8.967-1.694-16.82,0.408-23.368,6.833c-0.84,0.825-1.188,2.153-1.764,3.248
		c1.013,0.493,1.977,1.234,3.044,1.441c6.518,1.262,13.077,2.313,19.585,3.613c4.929,0.985,8.296-2.518,12.344-4.039
		C210.453,133.593,210.568,132.36,210.653,132.146z M196.282,118.373c7.5,0.011,12.094-7.179,9.224-12.852
		c-0.453-0.896-2.349-1.323-3.634-1.465c-1.453-0.16-3.288,0.869-4.401,0.298c-4.989-2.559-9.425-2.154-13.404,1.75
		c-1.02,1.001-2.431,2.695-2.164,3.654c0.378,1.363,1.977,2.635,3.354,3.414c2.228,1.261,4.724,2.038,7.061,3.119
		C193.996,117.069,195.598,118.01,196.282,118.373z M166.1,77.994c-7.005,2.265-13.139,4.045-19.099,6.287
		c-2.106,0.792-1.756,3.001,0.125,3.856c2.791,1.27,5.756,3.958,8.839,0.049c0.564-0.716,2.422-0.476,3.689-0.559
		c1.882-0.121,3.779-0.043,5.654-0.218c2.857-0.265,3.739-1.786,2.586-4.46c-0.257-0.597-0.373-1.256-0.554-1.886
		c0.778,0.121,1.673,0.039,2.308,0.406c1.225,0.711,2.229,1.817,3.474,2.477c0.604,0.321,1.546,0.005,2.335-0.023
		c-0.358-0.579-0.578-1.413-1.098-1.696C171.519,80.676,168.603,79.26,166.1,77.994z M198.935,151.107
		c4.963,0.258,6.643-2.825,8.004-6.096c0.502-1.207,0.42-2.658,0.604-3.997c-1.33,0.2-3.019-0.051-3.927,0.675
		c-4.155,3.322-8.455,2.686-12.838,0.899c-1.864-0.76-3.577-1.885-5.389-2.783c-0.394-0.195-0.917-0.13-1.379-0.185
		c0.07,0.496,0.114,0.997,0.216,1.487c0.241,1.159,0.246,2.472,0.828,3.432c1.004,1.658,2.086,3.907,3.648,4.459
		C192.146,150.218,195.91,150.536,198.935,151.107z M223.901,85.139c-0.569-0.825-0.925-1.426-1.361-1.961
		c-4.819-5.9-10.333-7.089-17.587-3.84c-0.61,0.273-1.301,0.369-1.955,0.547c0.047-0.331,0.034-0.684,0.152-0.987
		c0.28-0.725,0.622-1.426,0.937-2.137c-0.76,0.53-1.934,0.91-2.192,1.622c-0.48,1.319-0.426,2.833-0.594,4.266
		c1.068-0.348,2.189-0.588,3.194-1.069c1.493-0.715,2.85-1.738,4.377-2.348c0.63-0.253,1.559,0.195,2.329,0.409
		c0.091,0.025,0.143,0.806,0.023,0.867c-0.625,0.321-1.306,0.539-1.978,0.762c-0.712,0.236-1.895,0.266-2.055,0.692
		c-0.293,0.78-0.249,2.443,0.117,2.59c2.033,0.818,4.186,1.518,6.345,1.694c0.43,0.035,1.072-2.371,1.593-3.661
		c0.191-0.472,0.32-0.969,0.477-1.455c0.38,0.409,0.907,0.758,1.104,1.242c0.263,0.647,0.036,1.599,0.434,2.068
		c1.173,1.387,2.551,2.601,3.848,3.882C222.021,87.283,222.935,86.241,223.901,85.139z M248.769,141.903
		c-1.41-1.567-2.095-2.726-2.427-2.631c-2.058,0.581-4.037,1.443-6.042,2.212c0.958,1.317,2.128,3.837,2.833,3.713
		C244.89,144.887,246.436,143.375,248.769,141.903z M228.38,125.533c-1.323-1.39-2.378-2.5-3.435-3.609
		c-0.771,1.192-2.337,2.545-2.135,3.539c0.341,1.683,1.8,3.139,2.789,4.69C226.387,128.844,227.176,127.535,228.38,125.533z
		 M172.57,51.667c-0.045,0.008-0.26,0.043-0.476,0.078c0.269,0.383,0.459,0.874,0.818,1.132c2.325,1.676,4.636,3.384,7.058,4.912
		c1.312,0.829,2.834,1.325,4.261,1.971c-1.213-1.042-2.338-2.213-3.658-3.098C178.002,54.937,175.324,53.372,172.57,51.667z
		 M161.478,62.386c-0.102,0.045-0.509,0.224-0.917,0.403c0.35,0.396,0.627,0.997,1.062,1.15c1.797,0.631,3.627,1.193,5.479,1.635
		c0.594,0.142,1.294-0.165,1.946-0.266c-0.433-0.513-0.778-1.325-1.315-1.484C165.802,63.252,163.806,62.9,161.478,62.386z
		 M157.833,141.769c0.011-0.104,0.023-0.206,0.035-0.31c0.936,0.08,1.872,0.215,2.808,0.222c0.953,0.007,1.906-0.112,2.86-0.176
		c-0.902-0.611-1.736-1.536-2.724-1.748c-1.069-0.229-2.318,0.076-3.414,0.403c-0.577,0.172-0.991,0.887-1.479,1.357
		C156.557,141.602,157.194,141.686,157.833,141.769z M229.651,137.964c-0.26-1.389-0.4-2.134-0.54-2.879
		c-0.558,1.465-1.223,2.903-1.606,4.413c-0.109,0.428,0.601,1.063,0.935,1.603C228.896,139.92,229.351,138.741,229.651,137.964z
		 M163.31,147.584c0.721-0.883,1.26-1.369,1.555-1.974c0.164-0.337-0.08-0.871-0.14-1.317c-0.289,0.55-0.506,1.161-0.893,1.63
		c-0.243,0.294-0.8,0.587-1.114,0.502c-0.467-0.126-0.842-0.588-1.256-0.907C161.959,146.075,162.457,146.63,163.31,147.584z
		 M240.891,143.59c-1.272-0.931-2.301-1.693-3.359-2.413c-0.032-0.022-0.56,0.553-0.53,0.59c0.781,0.981,1.601,1.932,2.45,2.855
		C239.476,144.648,239.906,144.299,240.891,143.59z M238.65,160.942c-0.142-0.603-0.245-1.037-0.347-1.472
		c-0.245,0.423-0.615,0.823-0.696,1.275c-0.063,0.347,0.24,0.758,0.38,1.141C238.22,161.555,238.452,161.224,238.65,160.942z
		 M184.245,157.19c0.098-0.053,0.197-0.106,0.295-0.159c-0.146-0.085-0.292-0.171-0.438-0.257c-0.046,0.09-0.152,0.211-0.125,0.262
		C184.018,157.113,184.151,157.142,184.245,157.19z M160.561,152.026c0.101,0.038,0.201,0.076,0.301,0.114
		c0-0.123-0.001-0.246-0.002-0.369c-0.106,0.004-0.212,0.007-0.318,0.011C160.548,151.863,160.555,151.945,160.561,152.026z
		 M172.687,140.517c-0.129,0.151-0.315,0.27-0.329,0.406c-0.02,0.192,0.088,0.396,0.142,0.596c0.115-0.122,0.308-0.233,0.326-0.368
		C172.852,140.962,172.747,140.756,172.687,140.517z M170.031,140.875c-0.14-0.101-0.278-0.202-0.417-0.304
		c-0.021,0.114-0.063,0.229-0.059,0.341c0.005,0.112,0.056,0.222,0.086,0.333C169.772,141.122,169.901,140.999,170.031,140.875z
		 M166.786,140.716c0.016-0.098,0.033-0.197,0.049-0.295c-0.165,0.011-0.336,0.002-0.491,0.046c-0.043,0.012-0.041,0.182-0.06,0.279
		C166.452,140.736,166.619,140.727,166.786,140.716z"/>
	<path fill-rule="evenodd" clip-rule="evenodd" fill="#FFFFFF" d="M346.586,254.661c-0.767-0.536-1.482-1.431-2.309-1.546
		c-3.322-0.464-4.823-2.563-2.702-5.065c2.549-3.006-1.01-4.363-0.938-6.59c0.021-0.675-0.936-1.501-1.616-2.038
		c-0.485-0.382-1.643-0.743-1.848-0.518c-2.393,2.626-2.692,0.512-3.509-1.295c-0.65-1.44-1.825-2.644-2.767-3.952
		c-0.957,1.418-1.987,2.794-2.832,4.276c-0.331,0.581-0.122,1.448-0.384,2.094c-0.237,0.585-0.778,1.047-1.186,1.563
		c-0.154-0.558-0.419-1.109-0.448-1.673c-0.232-4.623-0.217-9.271-0.71-13.865c-0.246-2.283-1.069-4.663-2.238-6.64
		c-1.079-1.823-2.711-2.649-4.979-0.618c-2.527,2.264-5.701,3.795-8.432,5.857c-0.613,0.464-0.518,1.825-0.819,2.75
		c-0.367,1.128-0.81,2.232-1.22,3.347c-0.871-0.637-2.385-1.167-2.509-1.926c-0.742-4.527-1.805-9.148-1.522-13.661
		c0.305-4.858-3.527-9.47-8.386-8.692c-3.617,0.579-7.019,1.218-10.235-2.009c-0.954-0.958-4.757-0.047-6.616,1.069
		c-3.846,2.311-7.034,5.74-10.927,7.943c-3.235,1.83-7.087,2.575-10.68,3.763c-0.279,0.092-0.66-0.122-0.994-0.194
		c0.28-0.462,0.457-1.063,0.857-1.363c1.892-1.412,3.873-2.704,5.739-4.147c0.246-0.19,0.008-1.008-0.006-1.534
		c-2.792,0.246-5.881-0.188-8.314,0.876c-5.594,2.444-10.747,5.889-16.313,8.408c-4.313,1.952-9.004,3.062-13.481,4.673
		c-1.198,0.431-2.226,1.33-3.333,2.016c1.058,0.309,2.111,0.632,3.175,0.916c0.343,0.092,0.719,0.055,1.071,0.121
		c6.305,1.189,7.35-0.673,5.614,7.545c-0.209,0.991,0.016,2.075,0.039,3.115c0.93-0.326,1.844-0.854,2.792-0.926
		c1.202-0.09,2.431,0.191,3.647,0.313c-0.613,1.268-0.885,3.065-1.896,3.715c-5.169,3.321-8.301,12.111-6.519,18.062
		c1.043,3.483,2.433,5.234,6.27,3.59c0.853-0.365,2.128-0.016,3.111,0.306c0.513,0.167,0.813,0.986,1.21,1.512
		c-0.54,0.13-1.084,0.394-1.615,0.37c-7.552-0.341-10.716,2.675-9.581,11.831c1.954,15.755,2.259,31.757,2.505,47.667
		c0.187,12.016,0.297,10.137-10.233,9.492c-11.457-0.703-22.342,2.492-33.479,4.01c-17.812,2.428-35.658,4.611-53.49,6.896
		c-0.357,0.045-0.802,0.211-1.062,0.064c-1.342-0.756-2.637-1.596-3.948-2.406c1.105-0.789,2.129-2.096,3.33-2.285
		c13.028-2.053,26.084-3.928,39.131-5.857c13.279-1.963,26.553-3.971,39.841-5.871c2.722-0.391,5.498-0.438,8.252-0.553
		c2.923-0.121,4.537-1.453,4.257-4.488c-1.122-12.164-2.293-24.323-3.435-36.484c-0.402-4.279-0.75-8.563-1.16-12.84
		c-0.189-1.976,0.707-4.61-3.405-3.229c-1.67,0.562-5.153-0.055-5.158-3.836c0-0.657-1.386-1.331-2.169-1.948
		c-0.134-0.104-0.465,0.079-0.699,0.061c-2.237-0.182-4.473-0.378-6.71-0.57c0.933-2.013,1.461-4.437,2.941-5.894
		c0.993-0.979,3.334-0.764,5.073-0.768c3.195-0.006,6.485,0.689,9.531,0.077c0.975-0.196,1.303-3.602,1.928-5.539
		c-1.23-0.265-2.609-1.027-3.666-0.711c-5.208,1.561-10.31,3.477-15.502,5.097c-1.066,0.332-2.358-0.064-3.546-0.125
		c0.784-0.818,1.573-1.632,2.352-2.455c0.97-1.026,1.87-2.132,2.921-3.065c0.717-0.636,1.611-1.102,2.483-1.525
		c0.916-0.444,1.9-0.749,2.854-1.115c-0.55-0.968-1.07-1.954-1.657-2.898c-0.746-1.2-1.846-2.282-2.207-3.579
		c-0.205-0.737,0.516-2.203,1.242-2.645c2.336-1.416,3.255-3.077,1.92-5.633c0.364-0.175,0.724-0.353,1.084-0.528
		c-0.09-0.017-0.216-0.079-0.264-0.042c-0.258,0.201-0.497,0.427-0.743,0.644c-2.574,0.374-5.139,0.854-7.726,1.087
		c-1.903,0.172-3.836-0.02-5.753,0.032c-0.743,0.021-1.479,0.268-2.217,0.411c0.402,0.557,0.752,1.163,1.226,1.652
		c0.32,0.33,0.862,0.436,1.219,0.743c1.148,0.99,2.258,2.026,3.382,3.045c-1.557-0.436-3.42-0.478-4.597-1.399
		c-1.692-1.324-5.97-0.7-4.336-4.972c0.012-0.029-0.37-0.221-0.575-0.32c-3.706-1.798-10.243,1.681-10.622,5.746
		c-0.17,1.826-0.176,2.249-2.434,1.52c-3.417-1.104-3.64,1.326-2.75,3.941c-2.379-1.362-3.861-0.888-3.702,2.055
		c0.019,0.327,1.754,0.589,2.706,0.829c0.509,0.128,1.047,0.144,1.572,0.209c-0.377,0.405-0.725,0.845-1.143,1.201
		c-0.265,0.226-0.746,0.244-0.94,0.499c-1.167,1.531-2.28,3.103-3.41,4.66c1.69-0.058,3.381-0.098,5.07-0.181
		c0.731-0.036,1.458-0.159,2.187-0.243c-0.641,0.263-1.271,0.553-1.924,0.78c-1.243,0.435-2.5,0.826-3.747,1.249
		c-0.988,0.335-1.968,0.688-2.953,1.034c0.922,0.058,1.937-0.102,2.734,0.243c0.622,0.269,0.975,1.163,1.446,1.779
		c-0.579,0.415-1.405,1.314-1.7,1.164c-1.892-0.957-4.976,2.134-6.071-1.744c-0.053-0.188-2.007-0.067-2.912,0.306
		c-0.458,0.189-0.951,1.458-0.736,1.91c0.985,2.077,1.747,5.025,3.454,5.834c3.386,1.604,1.553,2.731,0.8,4.769
		c-2.19,5.926-6.225,8.905-12.436,8.609c-1.278-0.061-2.602-1.397-3.7-2.377c-1.105-0.985-2.141-2.152-2.874-3.431
		c-1.016-1.771-1.903-3.677-2.373-5.638c-0.074-0.312,2.295-1.33,3.609-1.822c2.122-0.795,4.466-1.146,6.389-2.253
		c0.822-0.474,0.82-2.376,1.193-3.629c-0.988,0.327-1.956,0.829-2.968,0.947c-2.189,0.255-4.882,1.174-6.502,0.269
		c-3.198-1.785-5.809-4.625-8.66-7.026c1.744-0.478,5.899,0.447,1.936-3.382c-0.253-0.244,0.09-1.601,0.542-1.999
		c2.404-2.115,4.551-1.309,5.255,1.796c0.233,1.027,0.531,2.129,1.133,2.95c0.35,0.477,1.405,0.705,2.07,0.598
		c0.582-0.094,1.481-0.784,1.518-1.265c0.29-3.816,0.422-7.646,0.554-11.473c0.014-0.403-0.292-0.818-0.448-1.228
		c-0.387,0.215-0.815,0.38-1.156,0.653c-1.918,1.541-3.595,3.62-5.767,4.558c-4.103,1.77-6.357,4.247-5.543,8.877
		c-2.742,1.08-2.141-0.765-2.305-2.354c-0.066-0.644,2.225-4.265-1.681-2.062c-0.15-0.379-0.528-0.996-0.418-1.101
		c1.116-1.061,2.25-2.122,3.496-3.022c4.466-3.229,8.983-6.387,13.464-9.596c0.58-0.415,1.367-0.88,1.539-1.473
		c2.196-7.525,8.902-5.591,14.054-6.538c3.005-0.553,6.219,0.148,9.33,0.036c12.664-0.459,25.328-0.95,37.983-1.616
		c1.558-0.082,4.048-0.202,2.503-3.606c-0.343-0.757,3.482-4.004,5.844-5.219c2.364-1.217,5.395-1.061,7.957-1.991
		c2.873-1.043,5.723-2.376,8.236-4.091c1.259-0.859,1.794-2.823,2.56-4.337c0.243-0.481-0.03-1.324,0.29-1.646
		c0.596-0.599,1.455-0.937,2.204-1.383c-2.256,0.187-5.436-0.515-6.612,0.709c-5.767,6.002-13.446,8.125-20.658,11.235
		c-0.381,0.164-0.906-0.003-1.363-0.017c0.402-0.482,0.725-1.075,1.218-1.431c6.775-4.884,13.646-9.64,20.322-14.657
		c1.842-1.384,3.121-3.521,4.658-5.311c-2.05,0.662-4.151,1.201-6.139,2.015c-2.768,1.134-5.451,2.474-8.169,3.726l0.06,0.029
		c2.393-1.729,4.831-3.401,7.151-5.223c0.692-0.543,1.058-1.504,1.574-2.273c-0.808-0.038-1.797,0.207-2.386-0.172
		c-1.19-0.767-2.163-1.872-3.225-2.837c1.016-0.668,1.966-1.771,3.057-1.936c9.213-1.392,17.875,1.328,26.546,3.845
		c7.38,2.143,14.637,3.539,22.586,2.705c14.489-1.519,27.785,2.847,39.605,11.331c6.017,4.317,11.854,8.893,17.633,13.526
		c1.646,1.319,3.293,3.042,4.101,4.937c6.756,15.845,18.272,28.619,27.462,42.885c3.504,5.439,7.576,10.509,11.23,15.855
		c1.584,2.317,3.312,2.979,6.082,2.32c2.884-0.686,5.967-1.18,8.878-0.891c2.038,0.203,4.395,1.438,5.785,2.964
		c2.246,2.464,0.965,4.645-2.34,5.009c-6.026,0.667-12.037,1.479-18.05,2.268c-0.573,0.075-1.189,0.299-1.658,0.632
		c-3.664,2.606-7.172,5.459-10.99,7.809c-1.926,1.186-4.373,1.9-6.631,2.031c-1.381,0.08-2.85-1.352-4.279-2.105
		c1.553-1.186,2.948-2.78,4.698-3.456c2.316-0.895,5.288-0.452,7.303-1.687c4.113-2.521,3.978-3.966,0.463-7.354
		c-0.39-0.376-0.631-0.906-0.94-1.365c0.552-0.01,1.107-0.068,1.654-0.02c1.126,0.102,2.246,0.261,3.369,0.396
		c-0.224-1.096-0.234-2.297-0.713-3.269c-1.693-3.441-2.761-7.755-8.384-6.029c-0.916,0.281-2.364-0.881-3.459-1.551
		c-1.608-0.985-3.163-2.073-4.651-3.232c-0.566-0.439-1.272-1.205-1.257-1.806c0.128-4.916-1.433-6.986-5.9-7.699
		c-0.672-0.106-1.272-0.658-1.905-1.003c0.809-0.918,1.463-2.347,2.457-2.646c2.09-0.63,2.563-1.273,1.189-2.99
		c-0.743-0.929-1.604-1.766-2.429-2.627c-0.564-0.59-1.159-1.153-1.74-1.728c0.733,0.072,1.47,0.216,2.198,0.183
		c0.29-0.014,0.564-0.416,0.845-0.643c-0.489-0.335-0.979-0.67-1.472-1.011c0.219-0.396,0.442-0.786,0.666-1.176
		c-0.157-0.03-0.313-0.061-0.471-0.092C346.667,253.758,346.626,254.209,346.586,254.661z M217.753,234.643
		c-4.648-0.321-3.954,2.831-3.999,5.346c-0.008,0.443,0.37,0.895,0.569,1.342c2.098-1.646,4.196-3.292,6.294-4.938
		C219.663,235.809,218.708,235.225,217.753,234.643z M339.769,232.697c-1.615-3.381-3.213-6.776-4.883-10.137
		c-0.166-0.333-0.766-0.45-1.165-0.669c-0.052,0.307-0.237,0.671-0.134,0.911c1.447,3.371,2.916,6.734,4.441,10.071
		c0.16,0.348,0.7,0.548,1.104,0.727C339.188,233.624,339.476,233.119,339.769,232.697z M158.669,249.923
		c-0.538-3.257-1.038-6.416-1.601-9.563c-0.071-0.4-0.468-0.742-0.714-1.111c-0.209,0.459-0.661,0.959-0.589,1.368
		c0.554,3.142,1.205,6.266,1.839,9.392c0.116,0.565,0.301,1.117,0.454,1.675C158.264,251.09,158.47,250.497,158.669,249.923z
		 M146.064,268.121c-0.487,0.511-0.788,0.826-1.09,1.143c0.335,0.247,0.696,0.722,0.997,0.685c0.375-0.046,0.699-0.51,1.045-0.794
		C146.745,268.858,146.473,268.564,146.064,268.121z M310.995,215.566c0.033-0.085,0.066-0.171,0.101-0.257
		c-0.145-0.012-0.289-0.022-0.434-0.035c0.022,0.088,0.018,0.206,0.072,0.257C310.789,215.579,310.905,215.557,310.995,215.566z
		 M158.564,238.392c-0.135,0.082-0.283,0.15-0.395,0.257c-0.022,0.021,0.072,0.252,0.142,0.269c0.173,0.043,0.363,0.019,0.546,0.021
		C158.764,238.755,158.669,238.572,158.564,238.392z M326.114,217.565c0.177-0.111,0.353-0.224,0.529-0.334
		c-0.101-0.144-0.226-0.415-0.297-0.402c-0.191,0.036-0.359,0.194-0.537,0.305C325.909,217.275,326.007,217.417,326.114,217.565z
		 M160.533,247.611c-0.045-0.09-0.09-0.179-0.134-0.267c-0.064,0.057-0.194,0.144-0.183,0.166c0.063,0.141,0.159,0.266,0.243,0.396
		C160.484,247.807,160.509,247.708,160.533,247.611z"/>
	<path fill-rule="evenodd" clip-rule="evenodd" fill="#FFFFFF" d="M3.355,278.437c-0.079-4.972,2.021-8.524,6.398-11.12
		c2.4-1.424,4.637-3.508,6.263-5.783c5.688-7.964,12.452-14.58,20.461-20.344c4.667-3.359,7.669-9.028,11.437-13.644
		c0.973-1.192,1.836-2.589,3.068-3.418c1.02-0.687,2.509-0.675,3.79-0.972c-0.214,1.349,0.052,3.13-0.714,3.978
		c-9.808,10.846-13.021,24.563-16.93,38.007c-0.443,1.524-1.404,3.094-2.558,4.186c-5.661,5.351-12.17,9.773-15.951,17.039
		c-1.643,3.156-5.001,3.668-8.446,1.602C3.543,283.992,3.497,284.069,3.355,278.437z"/>
	<path fill-rule="evenodd" clip-rule="evenodd" fill="#FFFFFF" d="M245.53,75.085c0.25,4.853,0.578,9.705,0.674,14.56
		c0.016,0.782-1.003,1.584-1.544,2.376c-0.338-0.953-0.938-1.897-0.971-2.861c-0.176-4.966,0.039-9.957-0.375-14.898
		c-0.276-3.294-1.622-5.969-4.737-8.261c-3.193-2.348-4.747-6.836-7.805-9.477c-6.651-5.741-8.696-14.86-15.576-20.293
		c-0.531-0.42-1.371-0.447-2.067-0.657c0.066,0.659-0.013,1.38,0.235,1.962c0.324,0.757,1.013,1.356,1.347,2.111
		c0.317,0.717,0.379,1.547,0.553,2.327c-0.667-0.395-1.325-0.803-2.002-1.179c-0.598-0.332-1.216-0.627-1.825-0.939
		c-0.205,0.759-0.563,1.516-0.579,2.278c-0.022,1.07,0.276,2.141,0.313,3.217c0.03,0.862-0.122,1.73-0.192,2.596
		c-0.606-0.57-1.175-1.195-1.841-1.683c-0.238-0.175-0.963-0.15-1.045,0.005c-0.613,1.156-1.156,2.354-1.644,3.57
		c-0.286,0.709-0.428,1.477-0.636,2.218c-0.213-0.844-0.78-1.789-0.574-2.513c0.678-2.379,1.458-4.765,2.529-6.99
		c1.577-3.276-1.655-12.41-5.131-13.917c-0.392-0.17-0.859-0.166-1.292-0.243c0.158,0.681,0.279,1.373,0.483,2.038
		c0.233,0.758,0.542,1.492,0.819,2.237c-0.776-0.422-1.704-0.695-2.303-1.293c-2.54-2.538-6.712-4.952-7.079-7.821
		c-0.646-5.059-5.876-4.7-7.514-8.404c-0.646-1.462-4.88-1.32-7.471-1.951c-0.595-0.145-1.146-0.468-1.717-0.708
		c0.48-0.274,0.931-0.686,1.447-0.8c2.042-0.454,4.104-0.821,6.162-1.199c0.219-0.041,0.475,0.123,0.695,0.087
		c1.21-0.198-3.689-3.558,1.015-1.971c1.357,0.457,2.648,1.183,4.035,1.465c7.464,1.521,15.193,3.94,19.783,9.645
		c4.569,5.68,10.653,9.018,15.606,13.892c1.912,1.882,4.591,3.157,6.033,5.304c2.136,3.178,3.506,6.875,5.155,10.373
		c3.514,7.451,7.021,14.905,10.46,22.39c0.376,0.818,0.299,1.844,0.432,2.775l0.125-0.013c-0.654-0.604-1.307-1.207-1.961-1.811
		c0.028,0.857,0.056,1.715,0.083,2.572L245.53,75.085z M233.864,57.725c-0.029-0.21-0.042-0.42-0.098-0.619
		c-0.011-0.039-0.185-0.032-0.283-0.046c0.028,0.206,0.043,0.416,0.097,0.616C233.59,57.712,233.756,57.708,233.864,57.725z"/>
	<path fill-rule="evenodd" clip-rule="evenodd" fill="#FFFFFF" d="M83.287,318.295c-0.817-11.73,4.966-22.713,10.505-33.763
		c1.288-2.569,2.609-5.129,4.06-7.608c2.002-3.423,4.506-5.929,8.365-7.85c5.673-2.825,10.576-7.194,15.803-10.91
		c0.094-0.067,0.18-0.169,0.229-0.274c0.612-1.313,1.216-2.628,1.821-3.943c0.274,1.746,0.742,3.488,0.779,5.239
		c0.069,3.361,0.218,6.775-0.273,10.078c-0.476,3.204,0.751,4.42,3.631,4.882c0.791,0.127,1.492,0.819,2.234,1.252
		c-0.805,0.388-1.572,0.959-2.421,1.13c-3.86,0.778-7.722,1.611-11.625,2.099c-3.422,0.429-6.985,0.03-10.314,0.769
		c-1.794,0.397-3.938,2.088-4.703,3.755c-3.34,7.279-6.672,14.622-9.124,22.226c-1.475,4.574-1.335,9.672-1.9,14.539
		c-0.165,1.422,0.255,3.314-0.511,4.166c-1.103,1.223-2.996,2.055-4.657,2.283c-0.586,0.08-1.76-2.023-2.152-3.287
		C82.705,322.008,83.118,320.711,83.287,318.295z"/>
	<path fill-rule="evenodd" clip-rule="evenodd" fill="#FFFFFF" d="M367.376,336.029c7.201-0.117,11.559,3.502,13.563,10.217
		c0.802,2.689,2.788,5.221,4.767,7.328c5.761,6.135,11.991,11.912,11.716,21.314c-0.025,0.898-0.357,1.791-0.547,2.686
		c-0.743-0.488-1.49-0.971-2.229-1.465c-5.4-3.621-10.469-7.936-16.274-10.707c-9.24-4.412-15.849-10.563-17.93-20.822
		C359.223,338.568,361.293,336.127,367.376,336.029z"/>
	<path fill-rule="evenodd" clip-rule="evenodd" fill="#FFFFFF" d="M184.592,280.144c-1.224,1.43-2.305,3.019-3.695,4.262
		c-6.505,5.818-14.468,8.152-22.901,9.151c-1.352,0.16-3.394,2.116-3.624-2.009c-0.241-4.316-0.617-3.676,3.145-7.447
		c4.312-4.322,9.249-6.369,14.837-7.929c1.735-0.483,3.003-2.565,4.553-3.834c0.511-0.419,1.232-0.58,1.858-0.859
		c-0.116,0.612-0.161,1.248-0.358,1.833c-1.235,3.663,1.878,2.074,3.061,2.316c1.379,0.283,2.908-0.16,4.372-0.288
		c-0.457,1.67-0.913,3.341-1.37,5.012L184.592,280.144z"/>
	<path fill-rule="evenodd" clip-rule="evenodd" fill="#FFFFFF" d="M103.274,68.498c-0.208-0.914-0.34-1.234-0.347-1.557
		c-0.154-7.585,4.74-12.95,8.359-18.868c0.201-0.329,0.828-0.591,1.239-0.566c2.539,0.149,3.159-0.033,3.054-2.49
		c-0.2-4.75,2.634-6.78,6.376-8.418c0.703-0.307,1.035-1.455,1.544-2.211c2.471-3.662,4.912-7.348,7.452-10.962
		c0.427-0.608,1.289-0.909,1.95-1.352c-0.348,0.78-0.662,1.579-1.051,2.338c-1.892,3.698-4.307,7.226-5.537,11.129
		c-0.871,2.763-0.098,6.03-0.167,9.069c-0.018,0.772-0.447,1.535-0.688,2.302c-0.318-0.542-0.578-1.133-0.977-1.607
		c-0.249-0.295-0.709-0.412-1.075-0.609c-0.298,0.622-0.687,1.218-0.88,1.871c-1.08,3.652-2.045,7.34-3.208,10.965
		c-0.266,0.826-1.161,1.449-1.766,2.166c0.073-0.833,0.17-1.665,0.208-2.499c0.016-0.332-0.1-0.67-0.155-1.004
		c-0.25,0.186-0.541,0.336-0.742,0.565c-0.732,0.833-1.434,1.691-2.147,2.54c-0.136-1.013-0.246-2.03-0.419-3.036
		c-0.071-0.412-0.281-0.799-0.427-1.198c-0.293,0.352-0.576,0.713-0.88,1.054c-2.589,2.9-5.229,5.756-7.745,8.719
		C104.516,65.702,104.137,66.862,103.274,68.498z M121.896,42.586c-0.093-0.044-0.207-0.143-0.273-0.118
		c-0.091,0.034-0.146,0.164-0.217,0.252c0.134,0.064,0.269,0.129,0.403,0.193C121.838,42.805,121.867,42.696,121.896,42.586z"/>
	<path fill-rule="evenodd" clip-rule="evenodd" fill="#FFFFFF" d="M158.504,306.518c-0.38-0.156-1.19-0.486-2-0.816
		c0.674-0.896,1.171-2.291,2.05-2.6c4.175-1.47,8.464-2.616,12.695-3.931c6.292-1.954,12.546-4.031,18.862-5.902
		c2.908-0.862,5.482-0.402,6.825,2.86c0.926,2.255,0.496,3.79-2.065,4.229C182.941,302.398,171.005,304.402,158.504,306.518z"/>
	<path fill-rule="evenodd" clip-rule="evenodd" fill="#FFFFFF" d="M142.998,201.37c1.06,0.791,2.267,1.927,3.68,2.667
		c1.129,0.592,2.511,0.703,3.781,1.027c0.077-1.212,0.382-2.464,0.184-3.629c-0.407-2.384-3.429-4.831-0.387-7.089
		c3.032-2.251,5.242,0.756,7.135,2.335c2.896,2.415,5.209,5.52,7.829,8.276c1.31,1.379,2.763,2.62,4.121,3.954
		c0.602,0.592,1.125,1.263,1.684,1.897c-0.984,0.291-1.967,0.587-2.955,0.864c-0.1,0.028-0.257-0.016-0.342-0.084
		c-7.877-6.324-17.658-1.919-26.179-4.637c-1.631-0.52-3.333-0.817-5.001-1.218c1.513-1.255,3.005-2.535,4.552-3.745
		C141.449,201.717,141.989,201.687,142.998,201.37z"/>
	<path fill-rule="evenodd" clip-rule="evenodd" fill="#FFFFFF" d="M250.638,261.615c1.315,0,2.666,0.174,3.935-0.07
		c0.665-0.128,1.511-0.886,1.719-1.536c0.733-2.295,1.196-4.675,1.85-6.999c0.083-0.294,0.762-0.698,1.034-0.616
		c1.267,0.379,3.074,2.74,2.964-0.988c0.755,0.3,1.8,0.382,2.219,0.937c3.229,4.266,6.364,8.602,9.449,12.972
		c0.502,0.71,0.611,1.696,0.901,2.555c-0.909,0.056-1.922,0.402-2.712,0.122c-8.562-3.034-17.413-4.123-26.438-4.245
		c-0.722-0.01-1.437-0.615-2.155-0.944c0.741-0.429,1.448-1.141,2.228-1.23c1.649-0.191,3.335-0.059,5.006-0.059
		C250.638,261.545,250.638,261.581,250.638,261.615z"/>
	<path fill-rule="evenodd" clip-rule="evenodd" fill="#FFFFFF" d="M316.064,328.893c-0.604,0.777-0.999,1.789-1.591,1.922
		c-0.793,0.178-1.975-0.055-2.574-0.584c-1.881-1.658-3.927-3.307-5.261-5.377c-3.659-5.686-6.943-11.613-10.477-17.383
		c-1.042-1.701-2.617-3.088-3.576-4.826c-0.658-1.192-0.674-2.739-0.977-4.127c1.684,0.095,3.374,0.134,5.044,0.337
		c0.296,0.037,0.599,0.729,0.746,1.17c3.354,10.009,10.057,17.841,16.649,25.753C314.792,326.668,315.325,327.734,316.064,328.893z"
		/>
	<path fill-rule="evenodd" clip-rule="evenodd" fill="#FFFFFF" d="M113.525,311.924c-7.718,0.17-9.266-0.898-8.709-5.236
		c0.132-1.033,1.85-2.73,2.73-2.666c8.447,0.629,16.874,1.537,25.294,2.475c0.778,0.086,1.47,0.939,2.202,1.436
		c-0.794,0.545-1.539,1.457-2.392,1.576C125.677,310.473,118.682,311.287,113.525,311.924z"/>
	<path fill-rule="evenodd" clip-rule="evenodd" fill="#FFFFFF" d="M147.154,14.827c-3.372,1.124-6.803,2.313-10.271,3.383
		c-0.708,0.219-1.556-0.016-2.339-0.042c0.482-0.607,0.849-1.543,1.47-1.764c2.226-0.796,4.556-1.294,6.813-2.009
		c3.247-1.027,6.456-2.171,9.702-3.198c0.549-0.174,1.241,0.126,1.807-0.022c1.949-0.511,3.871-1.123,5.803-1.697
		c-0.444-1.303-0.859-2.618-1.345-3.905c-0.313-0.831-0.732-1.623-1.103-2.432c0.714,0.59,1.543,1.083,2.121,1.785
		c4.152,5.036,3.925,7.656-0.915,12.038c-0.604,0.546-1.332,1.131-1.595,1.847c-1.086,2.952-4.463,4.105-6.847,2.156
		c-0.458-0.375-0.605-1.128-0.896-1.708c2.581,0.093,1.795-2.064,1.294-2.771C150.259,15.652,148.73,15.476,147.154,14.827z"/>
	<path fill-rule="evenodd" clip-rule="evenodd" fill="#FFFFFF" d="M184.592,280.144l-0.122,0.208
		c2.639-2.391,4.361-6.303,8.826-5.736c2.979,0.377,6.021,0.809,8.785,1.87c0.592,0.228,0.102,3.272,0.111,5.021
		c-0.963-0.148-2.039-0.069-2.868-0.484c-3.07-1.54-5.166-0.397-6.859,2.187l0.097-0.094c-0.645,0.272-1.297,0.528-1.932,0.822
		c-1.498,0.692-2.987,1.403-4.479,2.105C185.632,284.077,185.112,282.111,184.592,280.144z"/>
	<path fill-rule="evenodd" clip-rule="evenodd" fill="#FFFFFF" d="M390.365,310.641c-1.07,0-2.147,0.068-3.209-0.027
		c-0.556-0.051-1.084-0.391-1.625-0.6c0.381-0.336,1.003-0.621,1.093-1.021c0.182-0.824-0.062-1.742,0.123-2.564
		c0.319-1.428,0.477-3.184,1.402-4.064c0.504-0.477,2.968,0.145,3.662,0.992c3.617,4.422,6.966,9.064,10.36,13.664
		c0.443,0.602,0.607,1.408,0.9,2.119c-0.751-0.129-1.529-0.172-2.25-0.4c-1.861-0.584-3.754-1.127-5.529-1.92
		c-1.826-0.814-3.561-1.857-5.236-2.951c-0.169-0.109,0.162-1.422,0.583-1.881c0.448-0.488,1.28-0.623,1.944-0.912
		c-0.695-0.32-1.391-0.639-2.086-0.959C390.454,310.291,390.409,310.465,390.365,310.641z"/>
	<path fill-rule="evenodd" clip-rule="evenodd" fill="#FFFFFF" d="M111.306,44.248c-3.713,5.95-7.423,11.901-11.151,17.842
		c-0.165,0.262-0.488,0.424-0.738,0.632c-0.108-0.43-0.455-1.044-0.287-1.261c1.461-1.898-0.44-5.46,3.619-6.35
		c1.339-0.293,2.065-3.453,3.02-5.328c0.093-0.182-0.151-0.772-0.282-0.786c-0.323-0.036-0.748,0.061-0.994,0.267
		c-0.728,0.612-1.364,1.333-2.088,1.95c-0.337,0.286-0.795,0.43-1.198,0.638c0.05-0.52-0.095-1.205,0.183-1.53
		c1.31-1.54,2.825-2.907,4.103-4.47c3.757-4.593,7.321-9.35,11.202-13.833c1.587-1.833,3.786-3.142,5.733-4.654
		c0.225-0.174,0.627-0.121,0.947-0.173c-0.101,0.328-0.165,0.671-0.307,0.979c-0.73,1.577-1.464,3.153-2.238,4.709
		c-0.15,0.302-0.45,0.688-0.731,0.736c-0.998,0.169-2.663-0.117-2.904,0.361c-0.604,1.194-0.17,2.968-0.866,4.051
		c-1.466,2.282-3.388,4.271-5.125,6.381c-0.992,0.31-1.99,0.599-2.966,0.951c-0.131,0.047-0.149,0.411-0.22,0.627
		c0.81-0.373,1.627-0.73,2.424-1.129C110.754,44.703,111.02,44.455,111.306,44.248z"/>
	<path fill-rule="evenodd" clip-rule="evenodd" fill="#FFFFFF" d="M212.934,313.035c0.359-0.021,0.743-0.139,1.07-0.049
		c0.932,0.256,1.841,0.596,2.758,0.902c-0.85,0.279-1.683,0.695-2.556,0.807c-1.299,0.168-2.63,0.211-3.939,0.146
		c-2.15-0.107-5.893,0.182-6.155-0.615c-1.003-3.063-1.017-6.49-1.076-9.785c-0.011-0.605,1.431-1.645,2.313-1.785
		c3.303-0.523,6.648-0.788,9.984-1.063c0.491-0.041,1.02,0.382,1.531,0.59c-0.469,0.393-0.894,1.039-1.416,1.131
		c-1.644,0.289-3.357,0.227-4.976,0.596c-0.762,0.172-1.371,1.016-2.049,1.555c0.703,0.484,1.346,1.203,2.123,1.404
		c1.545,0.396,3.164,0.506,4.751,0.734c-1.512,0.453-3.127,0.707-4.505,1.42c-1.083,0.561-1.875,1.688-2.796,2.563
		c1.052,0.553,2.068,1.201,3.173,1.615C211.666,313.389,212.34,313.105,212.934,313.035z"/>
	<path fill-rule="evenodd" clip-rule="evenodd" fill="#FFFFFF" d="M352.913,315.406c-0.31,0.65-0.858,2.363-1.854,3.756
		c-1.396,1.957-3.132,2.033-4.683,0.012c-0.799-1.041-1.579-2.102-2.288-3.203c-3.795-5.898-2.567-8.283,4.562-8.922
		C351.532,306.791,352.984,309.25,352.913,315.406z"/>
	<path fill-rule="evenodd" clip-rule="evenodd" fill="#FFFFFF" d="M157.738,314.492c0.627-1.074,1.159-3.211,2.275-3.58
		c1.317-0.436,3.162,0.592,4.731,1.123c0.517,0.174,0.841,0.855,1.34,1.162c1.169,0.721,2.389,1.354,3.589,2.023
		c0.364-1.189,0.556-2.473,1.142-3.541c0.594-1.082,1.576-1.951,2.389-2.912c0.507,1.076,1.075,2.129,1.489,3.24
		c0.149,0.398-0.083,0.938-0.13,1.412c-0.578,5.711-2.794,6.939-7.819,3.82c-2.631-1.633-4.392-2.492-5.622,1.234
		c-0.082,0.248-2.036,0.346-2.241-0.004C158.307,317.494,158.193,316.244,157.738,314.492z"/>
	<path fill-rule="evenodd" clip-rule="evenodd" fill="#FFFFFF" d="M154.989,186.911c-1.055,1.293-1.325,1.886-1.784,2.145
		c-3.944,2.226-7.864,4.513-11.934,6.485c-1.01,0.49-2.544-0.101-3.837-0.195c0.326-1.4,0.195-3.539,1.057-4.07
		c3.723-2.298,7.649-4.339,11.702-5.979C151.259,184.866,153.043,186.207,154.989,186.911z"/>
	<path fill-rule="evenodd" clip-rule="evenodd" fill="#FFFFFF" d="M292.765,219.398c-0.357,7.848-0.705,15.695-1.092,23.542
		c-0.024,0.48-0.354,0.946-0.539,1.419c-0.187-0.427-0.491-0.842-0.541-1.283c-0.727-6.394-2.307-12.862-1.801-19.162
		c0.328-4.092,1.988-8.118,1.048-12.41c-0.062-0.278,0.453-0.683,0.699-1.028c0.334,0.316,0.858,0.578,0.969,0.959
		c0.757,2.607,1.427,5.239,2.124,7.863C293.343,219.332,293.054,219.365,292.765,219.398z"/>
	<path fill-rule="evenodd" clip-rule="evenodd" fill="#FFFFFF" d="M220.918,181.944c2.054,1.446,4.005,2.804,5.886,4.252
		c0.043,0.033-0.578,1.409-1.111,1.635c-4.606,1.953-9.252,3.815-13.919,5.618c-0.645,0.249-1.472,0.027-2.215,0.022
		c0.259-0.637,0.368-1.413,0.803-1.889c2.583-2.827,5.203-5.625,7.908-8.335C218.861,182.654,219.846,182.453,220.918,181.944z"/>
	<path fill-rule="evenodd" clip-rule="evenodd" fill="#FFFFFF" d="M58.099,239.693c-2.723,4.733-5.555,9.714-8.474,14.644
		c-0.301,0.509-1.117,0.712-1.693,1.058c-0.153-0.627-0.618-1.39-0.412-1.86c2.271-5.205,4.608-10.383,7.047-15.511
		c0.284-0.597,1.289-0.85,1.959-1.263C56.876,237.413,57.226,238.064,58.099,239.693z"/>
	<path fill-rule="evenodd" clip-rule="evenodd" fill="#FFFFFF" d="M89.532,73.881c0.042,3.055,0.104,6.109,0.113,9.163
		c0.002,0.685-0.065,1.411-0.295,2.047c-0.573,1.58-1.248,3.123-1.907,4.67c-0.18,0.421-0.453,0.803-0.684,1.204
		c-0.13-0.457-0.264-0.914-0.392-1.371c-0.213-0.765-0.423-1.532-0.635-2.297c-0.17,0.729-0.563,1.486-0.472,2.182
		c0.396,3.053,0.949,6.084,1.396,9.131c0.058,0.397-0.166,0.836-0.259,1.255c-0.205-0.276-0.441-0.535-0.609-0.831
		c-3.399-5.986-2.972-19.312,0.93-24.307c-0.004-0.007-0.055-0.083-0.055-0.083c-0.314,2.359-0.647,4.716-0.923,7.079
		c-0.049,0.419,0.14,0.865,0.219,1.299c0.232-0.373,0.533-0.72,0.686-1.124c1-2.642,1.969-5.294,2.948-7.944L89.532,73.881z"/>
	<path fill-rule="evenodd" clip-rule="evenodd" fill="#FFFFFF" d="M192.25,304.178c1.474,0.959,2.369,1.541,3.265,2.125
		c-1.026,0.395-2.055,1.135-3.077,1.125c-6.104-0.051-8.12,1.158-8.221,5.277c-0.018,0.697,0.15,1.408,0.294,2.1
		c0.212,1.021,0.48,2.029,0.725,3.043c-1.322-0.418-2.892-0.518-3.915-1.318c-2.379-1.859-2.273-5.803,0.692-7.75
		C185.105,306.75,188.821,305.668,192.25,304.178z"/>
	<path fill-rule="evenodd" clip-rule="evenodd" fill="#FFFFFF" d="M144.53,311.178c3.144,0.746,6.206,4.988,5.379,6.99
		c-0.202,0.49-0.888,1.213-1.188,1.141c-0.683-0.162-1.519-0.609-1.845-1.191c-1.735-3.104-2.884-2.486-4.282,0.314
		c-0.495,0.992-1.934,1.514-2.941,2.25c0.055-1.193-0.302-2.643,0.247-3.531C141.216,315.02,142.959,313.152,144.53,311.178z"/>
	<path fill-rule="evenodd" clip-rule="evenodd" fill="#FFFFFF" d="M135.374,44.357c-0.617-0.494-1.841-1.146-1.76-1.456
		c0.862-3.29,1.914-6.532,2.968-9.769c0.129-0.395,0.578-0.687,0.877-1.027c0.083,0.444,0.198,0.884,0.243,1.332
		c0.505,4.987,1.021,9.974,1.459,14.967c0.041,0.46-0.433,0.966-0.669,1.451c-0.285-0.36-0.624-0.69-0.845-1.086
		c-0.803-1.433-1.567-2.888-2.34-4.34c-0.033-0.767-0.07-1.529-0.108-2.292c-0.195,0.052-0.39,0.104-0.585,0.156
		C134.867,42.981,135.121,43.669,135.374,44.357z"/>
	<path fill-rule="evenodd" clip-rule="evenodd" fill="#FFFFFF" d="M104.059,316.438c0.316,0.023,1.118-0.109,1.724,0.174
		c0.881,0.416,1.621,1.129,2.421,1.717c-0.942,0.037-1.939,0.295-2.818,0.076c-4.25-1.055-6.375,0.295-7.581,4.67
		c-0.287,1.039-1.323,1.875-2.015,2.803c-0.438-1.16-1.252-2.324-1.244-3.482C94.573,318.629,98.101,316.416,104.059,316.438z"/>
	<path fill-rule="evenodd" clip-rule="evenodd" fill="#FFFFFF" d="M318.86,305.883c1.264,0.842,2.019,1.104,2.394,1.635
		c2.054,2.912,4.045,5.873,5.974,8.871c0.236,0.369-0.024,1.059-0.055,1.6c-0.339-0.035-0.82,0.061-0.992-0.127
		c-2.629-2.865-5.296-5.703-7.737-8.723C318.035,308.633,318.649,307.303,318.86,305.883z"/>
	<path fill-rule="evenodd" clip-rule="evenodd" fill="#FFFFFF" d="M248.615,283.776c6.438,1.286,12.407,2.464,18.364,3.701
		c0.48,0.099,0.874,0.613,1.308,0.934c-0.33,0.076-0.67,0.246-0.988,0.213c-5.804-0.608-11.606-1.237-17.406-1.879
		c-0.469-0.052-0.996-0.122-1.372-0.372c-0.655-0.436-1.214-1.018-1.813-1.538C247.436,284.43,248.164,284.026,248.615,283.776z"/>
	<path fill-rule="evenodd" clip-rule="evenodd" fill="#FFFFFF" d="M311.136,299.361c-1.664-1.577-2.714-2.572-3.764-3.566
		c1.459-1.145,2.799-2.854,4.427-3.199c0.856-0.181,2.218,2.029,3.352,3.159C313.994,296.792,312.838,297.832,311.136,299.361z"/>
	<path fill-rule="evenodd" clip-rule="evenodd" fill="#FFFFFF" d="M82.3,338.41c1.546-1.297,2.271-2.375,2.839-2.297
		c2.145,0.289,5.075,0.229,4.661,3.508c-0.146,1.156-2.522,3.162-2.861,2.971C85.362,341.703,84.142,340.18,82.3,338.41z"/>
	<path fill-rule="evenodd" clip-rule="evenodd" fill="#FFFFFF" d="M132.281,318.496c-1.288,1.434-2.231,3.393-3.356,3.502
		c-1.309,0.129-2.776-1.361-4.175-2.146c1.671-1.816,3.344-3.631,5.015-5.445C130.48,315.566,131.194,316.729,132.281,318.496z"/>
	<path fill-rule="evenodd" clip-rule="evenodd" fill="#FFFFFF" d="M114.884,318.754c1-1.148,1.753-2.012,2.504-2.875
		c1.355,1.479,3.443,2.801,3.797,4.488c0.217,1.037-2.217,2.629-3.461,3.973C116.84,322.602,115.956,320.863,114.884,318.754z"/>
	<path fill-rule="evenodd" clip-rule="evenodd" fill="#FFFFFF" d="M328.24,297.19c-1.663-1.464-2.678-2.357-3.691-3.251
		c1.369-1.08,2.628-2.722,4.152-3.025c0.896-0.179,2.215,1.771,3.344,2.765C330.918,294.717,329.793,295.755,328.24,297.19z"/>
	<path fill-rule="evenodd" clip-rule="evenodd" fill="#FFFFFF" d="M117.354,133.472c0.561-1.829,0.763-2.487,0.965-3.146
		c0.408,0.37,0.758,0.924,1.235,1.075c1.208,0.38,2.525,0.445,3.697,0.897c0.847,0.327,1.839,0.926,2.197,1.675
		c0.322,0.676,0.17,2.052-0.33,2.505c-0.459,0.416-1.78,0.267-2.513-0.077C120.728,135.519,118.966,134.39,117.354,133.472z"/>
	<path fill-rule="evenodd" clip-rule="evenodd" fill="#FFFFFF" d="M195.036,310.252c0.643,0.406,1.9,0.775,2.015,1.367
		c0.203,1.045,0.046,2.488-0.577,3.281c-0.74,0.943-2.13,1.377-3.238,2.033c-0.14-0.439-0.375-0.871-0.398-1.316
		c-0.04-0.766,0.229-1.588,0.038-2.299c-0.2-0.744-0.789-1.385-1.208-2.07C192.677,310.949,193.687,310.65,195.036,310.252z"/>
	<path fill-rule="evenodd" clip-rule="evenodd" fill="#FFFFFF" d="M85.978,333.506c-1.459-1.211-2.34-1.941-3.221-2.672
		c1.362-0.814,2.647-1.973,4.118-2.301c0.763-0.17,1.854,1.133,2.796,1.771C88.573,331.256,87.475,332.207,85.978,333.506z"/>
	<path fill-rule="evenodd" clip-rule="evenodd" fill="#FFFFFF" d="M139.352,267.467c-3.802,2.872-1.627,6.146-1.544,9.211
		c0.01,0.39-0.301,0.787-0.463,1.182c-0.312-0.304-0.836-0.567-0.905-0.919c-0.687-3.52-1.347-7.047-1.87-10.593
		c-0.062-0.421,1.007-1.435,1.094-1.384C136.837,265.643,137.929,266.463,139.352,267.467z"/>
	<path fill-rule="evenodd" clip-rule="evenodd" fill="#FFFFFF" d="M203.726,215.418c-0.582-0.222-0.892-0.339-1.202-0.456
		c0.153-0.287,0.232-0.728,0.468-0.839c4.73-2.225,9.478-4.414,14.229-6.597c0.192-0.088,0.442-0.051,0.665-0.072
		c-0.118,0.279-0.158,0.707-0.366,0.816C212.895,210.694,208.251,213.083,203.726,215.418z"/>
	<path fill-rule="evenodd" clip-rule="evenodd" fill="#FFFFFF" d="M237.977,119.793c3.449,1.652,6.76,3.21,10.029,4.852
		c0.308,0.155,0.353,0.835,0.52,1.271c-0.302,0.05-0.67,0.239-0.896,0.13c-3.256-1.565-6.503-3.151-9.72-4.796
		c-0.337-0.172-0.466-0.752-0.692-1.143C237.507,119.988,237.795,119.868,237.977,119.793z"/>
	<path fill-rule="evenodd" clip-rule="evenodd" fill="#FFFFFF" d="M120.391,342.691c-2.584,0.15-5.167,0.363-7.752,0.412
		c-0.729,0.014-1.467-0.461-2.202-0.713c0.626-0.229,1.239-0.594,1.882-0.662c2.728-0.283,5.462-0.57,8.2-0.646
		c0.76-0.021,1.541,0.676,2.312,1.043c-0.742,0.451-1.485,0.9-2.228,1.352C120.533,343.215,120.462,342.951,120.391,342.691z"/>
	<path fill-rule="evenodd" clip-rule="evenodd" fill="#FFFFFF" d="M125.424,281.743c-2.026,1.629-3.701,3.084-5.521,4.325
		c-0.286,0.194-1.235-0.584-1.877-0.913c1.853-1.685,3.697-3.377,5.6-5.003C123.679,280.106,124.355,280.791,125.424,281.743z"/>
	<path fill-rule="evenodd" clip-rule="evenodd" fill="#FFFFFF" d="M246.25,235.896c1.622,2.11,2.804,3.621,3.897,5.195
		c0.039,0.056-1.105,1.137-1.214,1.06c-1.296-0.924-2.692-1.833-3.629-3.072C244.967,238.634,245.795,237.31,246.25,235.896z"/>
	<path fill-rule="evenodd" clip-rule="evenodd" fill="#FFFFFF" d="M192.466,283.208c0.476-0.039,0.967-0.176,1.424-0.101
		c1.209,0.202,2.404,0.496,3.604,0.754c-0.276,0.711-0.381,1.857-0.862,2.047c-1.144,0.449-2.466,0.446-3.716,0.627
		c-0.12-1.14-0.238-2.279-0.355-3.42C192.563,283.115,192.466,283.208,192.466,283.208z"/>
	<path fill-rule="evenodd" clip-rule="evenodd" fill="#FFFFFF" d="M94.403,59.358c-2.584,5.091-5.167,10.181-7.747,15.278
		c0.005,0.007,0.057,0.083,0.061,0.09c0.998-5.899,3.102-11.243,7.762-15.29L94.403,59.358z"/>
	<path fill-rule="evenodd" clip-rule="evenodd" fill="#FFFFFF" d="M383.438,313.148c1.359,1.158,2.625,2.238,3.891,3.316
		c-0.511,0.35-1.237,1.115-1.495,0.98c-1.517-0.791-2.924-1.791-4.368-2.721C381.956,314.332,382.447,313.941,383.438,313.148z"/>
	<path fill-rule="evenodd" clip-rule="evenodd" fill="#FFFFFF" d="M125.334,145.256c0.844,0.657,1.621,1.022,1.584,1.269
		c-0.323,2.222-0.771,4.427-1.24,6.625c-0.044,0.208-0.487,0.329-0.745,0.491c-0.126-0.325-0.269-0.645-0.375-0.976
		c-0.495-1.533-1.314-3.065-1.339-4.607C123.206,147.185,124.504,146.292,125.334,145.256z"/>
	<path fill-rule="evenodd" clip-rule="evenodd" fill="#FFFFFF" d="M244.741,98.671c0,1.401,0.173,2.068-0.036,2.578
		c-0.429,1.043-1.063,2.003-1.612,2.998c-0.125-1.107-0.316-2.213-0.345-3.323c-0.015-0.575,0.235-1.164,0.41-1.732
		c0.311-1.013,0.657-2.015,0.988-3.021C244.404,97.255,244.662,98.34,244.741,98.671z"/>
	<path fill-rule="evenodd" clip-rule="evenodd" fill="#FFFFFF" d="M115.854,154.449c-1.348-0.613-1.632-0.743-1.916-0.872
		c0.196-0.274,0.384-0.555,0.591-0.82c1.78-2.288,3.563-4.573,5.35-6.855c0.207-0.265,0.446-0.504,0.669-0.755
		c0.135,0.161,0.42,0.406,0.384,0.47C119.257,148.57,117.554,151.508,115.854,154.449z"/>
	<path fill-rule="evenodd" clip-rule="evenodd" fill="#FFFFFF" d="M76.33,121.267c0.704,1.566,1.461,2.456,1.261,2.984
		c-0.346,0.92-1.283,1.619-1.972,2.411c-0.534-0.479-1.578-1.071-1.502-1.414C74.319,124.337,75.006,123.534,76.33,121.267z"/>
	<path fill-rule="evenodd" clip-rule="evenodd" fill="#FFFFFF" d="M184.252,287.963c-1.914,1.001-2.723,1.736-3.553,1.76
		c-0.69,0.02-1.404-0.799-2.107-1.246c0.735-0.56,1.402-1.386,2.226-1.595C181.472,286.717,182.317,287.31,184.252,287.963z"/>
	<path fill-rule="evenodd" clip-rule="evenodd" fill="#FFFFFF" d="M171.754,266.5c0.406-1.11,0.703-1.922,1-2.733
		c0.537,1.658,1.164,3.298,1.552,4.991c0.105,0.454-0.518,1.074-0.806,1.619C172.914,269.072,172.326,267.768,171.754,266.5z"/>
	<path fill-rule="evenodd" clip-rule="evenodd" fill="#FFFFFF" d="M220.623,154.055c-1.385,1.776-2.766,3.555-4.158,5.325
		c-0.213,0.271-0.481,0.498-0.724,0.745c-0.036-0.307-0.195-0.67-0.086-0.913c0.871-1.961,1.761-3.917,2.787-5.797
		c0.056-0.102,1.373,0.484,2.106,0.743C220.553,154.152,220.623,154.055,220.623,154.055z"/>
	<path fill-rule="evenodd" clip-rule="evenodd" fill="#FFFFFF" d="M242.667,230.1c1.116,0.962,1.961,1.69,2.807,2.418
		c-0.406,0.331-1.106,0.999-1.171,0.942c-0.811-0.712-1.55-1.512-2.239-2.346C241.994,231.031,242.377,230.575,242.667,230.1z"/>
	<path fill-rule="evenodd" clip-rule="evenodd" fill="#FFFFFF" d="M90.33,95.698c-0.252,0.555-0.555,1.223-0.858,1.892
		c-0.338-0.944-0.921-1.879-0.952-2.833c-0.039-1.209,0.371-2.432,0.587-3.649C89.49,92.546,89.873,93.984,90.33,95.698z"/>
	<path fill-rule="evenodd" clip-rule="evenodd" fill="#FFFFFF" d="M230.463,156.736c-0.321,0.937-0.614,1.791-0.906,2.645
		c-0.277-0.79-0.767-1.579-0.772-2.37c-0.004-0.804,0.47-1.61,0.734-2.416C229.82,155.277,230.121,155.96,230.463,156.736z"/>
	<path fill-rule="evenodd" clip-rule="evenodd" fill="#FFFFFF" d="M125.605,21.461c0.981,1.479,1.457,1.982,1.62,2.572
		c0.05,0.18-0.761,0.598-1.177,0.907c-0.339-0.566-0.797-1.097-0.973-1.71C124.971,22.866,125.311,22.374,125.605,21.461z"/>
	<path fill-rule="evenodd" clip-rule="evenodd" fill="#FFFFFF" d="M170.974,162.555c0.112-0.037,0.251-0.138,0.333-0.103
		c1.612,0.694,3.226,1.387,4.804,2.154c0.094,0.045-0.117,0.716-0.186,1.096c-1.287-0.729-2.588-1.435-3.852-2.202
		c-0.392-0.238-0.679-0.647-1.015-0.978L170.974,162.555z"/>
	<path fill-rule="evenodd" clip-rule="evenodd" fill="#FFFFFF" d="M252.789,123.947c1.224,0.861,2.52,1.772,3.814,2.684
		c-0.282,0.09-0.644,0.341-0.837,0.247c-1.483-0.724-2.934-1.513-4.394-2.282C251.714,124.438,252.057,124.282,252.789,123.947z"/>
	<path fill-rule="evenodd" clip-rule="evenodd" fill="#FFFFFF" d="M254.491,221.365c-0.547-0.796-1.093-1.591-1.639-2.387
		c0.766,0.164,1.531,0.328,2.298,0.492c-0.248,0.605-0.495,1.211-0.743,1.816L254.491,221.365z"/>
	<path fill-rule="evenodd" clip-rule="evenodd" fill="#FFFFFF" d="M89.592,73.953c0.736-1.967,1.441-3.947,2.241-5.887
		c0.123-0.299,0.687-0.416,1.047-0.617c-0.025,0.437,0.099,0.963-0.101,1.295c-1.041,1.736-2.163,3.423-3.252,5.132
		C89.532,73.881,89.592,73.953,89.592,73.953z"/>
	<path fill-rule="evenodd" clip-rule="evenodd" fill="#FFFFFF" d="M103.782,295.752c-0.792,0.446-1.333,0.991-1.666,0.885
		c-0.515-0.164-0.888-0.773-1.322-1.194c0.461-0.265,0.926-0.743,1.381-0.733C102.61,294.719,103.033,295.237,103.782,295.752z"/>
	<path fill-rule="evenodd" clip-rule="evenodd" fill="#FFFFFF" d="M140.641,21.538c-1.147,0.832-1.999,1.451-2.851,2.069
		c-0.15-0.251-0.467-0.687-0.425-0.726c0.7-0.631,1.427-1.238,2.198-1.78C139.679,21.019,140.042,21.286,140.641,21.538z"/>
	<path fill-rule="evenodd" clip-rule="evenodd" fill="#FFFFFF" d="M247.511,74.438l-0.125,0.013
		c0.273,0.213,0.679,0.371,0.798,0.651c0.436,1.019,0.775,2.079,1.151,3.123c-0.668-0.699-1.289-1.453-2.02-2.078
		c-0.519-0.444-1.185-0.714-1.786-1.061l0.104,0.114C246.259,74.946,246.885,74.691,247.511,74.438z"/>
	<path fill-rule="evenodd" clip-rule="evenodd" fill="#FFFFFF" d="M185.978,259.208c0.537,0.499,1.135,0.855,1.087,1.049
		c-0.124,0.492-0.479,0.98-0.875,1.313c-0.103,0.086-1.015-0.44-0.995-0.626C185.248,260.443,185.604,259.974,185.978,259.208z"/>
	<path fill-rule="evenodd" clip-rule="evenodd" fill="#FFFFFF" d="M251.18,221.943c-1.125,0.357-1.625,0.688-2.034,0.599
		c-0.451-0.098-0.819-0.581-1.223-0.896c0.314-0.304,0.596-0.794,0.954-0.858C249.207,220.727,249.619,221.125,251.18,221.943z"/>
	<path fill-rule="evenodd" clip-rule="evenodd" fill="#FFFFFF" d="M139.383,28.494c-0.636,0.14-1.043,0.322-1.422,0.274
		c-0.194-0.024-0.337-0.458-0.502-0.706c0.381-0.172,0.753-0.435,1.147-0.475C138.774,27.57,138.989,28.016,139.383,28.494z"/>
	<path fill-rule="evenodd" clip-rule="evenodd" fill="#FFFFFF" d="M240.856,232.109c-0.674,0.485-0.977,0.867-1.317,0.905
		c-0.409,0.045-0.85-0.204-1.276-0.325c0.318-0.399,0.567-0.943,0.981-1.147C239.507,231.414,240.018,231.792,240.856,232.109z"/>
	<path fill-rule="evenodd" clip-rule="evenodd" fill="#FFFFFF" d="M91.981,212.065c0.41,0.957,0.874,1.545,0.818,2.079
		c-0.041,0.395-0.936,1.095-1.144,0.999c-0.518-0.24-1.213-0.883-1.182-1.317C90.51,213.323,91.247,212.871,91.981,212.065z"/>
	<path fill-rule="evenodd" clip-rule="evenodd" fill="#FFFFFF" d="M242.574,246.613c-0.534-0.609-0.97-0.896-1.038-1.254
		c-0.05-0.265,0.376-0.621,0.59-0.937c0.343,0.266,0.831,0.469,0.978,0.815C243.209,245.487,242.857,245.929,242.574,246.613z"/>
	<path fill-rule="evenodd" clip-rule="evenodd" fill="#FFFFFF" d="M200.119,293.561c-0.383,0.277-0.613,0.444-0.844,0.611
		c-0.327-0.465-0.683-0.914-0.947-1.411c-0.038-0.071,0.362-0.377,0.56-0.573C199.259,292.603,199.632,293.017,200.119,293.561z"/>
	<path fill-rule="evenodd" clip-rule="evenodd" fill="#FFFFFF" d="M247.01,172.308c0.614,1.132,0.992,1.71,1.213,2.343
		c0.041,0.115-0.557,0.454-0.859,0.689c-0.293-0.455-0.693-0.878-0.84-1.376C246.431,173.653,246.72,173.228,247.01,172.308z"/>
	<path fill-rule="evenodd" clip-rule="evenodd" fill="#FFFFFF" d="M113.644,296.707c-0.869,0.299-1.371,0.622-1.839,0.58
		c-0.295-0.027-0.54-0.603-0.807-0.932c0.454-0.254,0.893-0.657,1.368-0.705C112.652,295.622,112.995,296.144,113.644,296.707z"/>
	<path fill-rule="evenodd" clip-rule="evenodd" fill="#FFFFFF" d="M267.442,224.48c-0.494,0.233-0.942,0.533-1.011,0.463
		c-0.286-0.294-0.509-0.684-0.632-1.076c-0.027-0.085,0.6-0.525,0.682-0.466C266.813,223.642,267.049,224.013,267.442,224.48z"/>
	<path fill-rule="evenodd" clip-rule="evenodd" fill="#FFFFFF" d="M171.447,165.976c1.111,0.446,2.223,0.891,3.333,1.336
		c-0.152,0.273-0.304,0.547-0.457,0.821c-0.932-0.747-1.865-1.494-2.798-2.24L171.447,165.976z"/>
	<path fill-rule="evenodd" clip-rule="evenodd" fill="#FFFFFF" d="M232.548,181.44c0.279,0.25,0.508,0.455,0.737,0.66
		c-0.214,0.238-0.475,0.701-0.633,0.668c-0.342-0.071-0.634-0.395-0.946-0.615C231.959,181.939,232.212,181.725,232.548,181.44z"/>
	<path fill-rule="evenodd" clip-rule="evenodd" fill="#FFFFFF" d="M227.939,146.664c-0.233,0.621-0.422,1.122-0.61,1.622
		c-0.221-0.427-0.619-0.854-0.618-1.281c0.001-0.531,0.332-1.062,0.52-1.592C227.465,145.827,227.7,146.242,227.939,146.664z"/>
	<path fill-rule="evenodd" clip-rule="evenodd" fill="#FFFFFF" d="M94.479,59.437c0.719-1.16,1.438-2.319,2.158-3.478
		c0.229,0.162,0.458,0.323,0.686,0.485c-0.974,0.971-1.947,1.941-2.92,2.913C94.403,59.358,94.479,59.437,94.479,59.437z"/>
	<path fill-rule="evenodd" clip-rule="evenodd" fill="#FFFFFF" d="M120.93,127.765c-0.343-0.682-0.765-1.162-0.657-1.39
		c0.146-0.306,0.69-0.521,1.086-0.564c0.181-0.02,0.641,0.547,0.583,0.705C121.807,126.889,121.436,127.176,120.93,127.765z"/>
	<path fill-rule="evenodd" clip-rule="evenodd" fill="#FFFFFF" d="M366.414,286.325c-0.332-0.227-0.594-0.405-0.854-0.584
		c0.278-0.209,0.544-0.555,0.84-0.583c0.229-0.022,0.497,0.353,0.748,0.551C366.917,285.903,366.685,286.097,366.414,286.325z"/>
	<path fill-rule="evenodd" clip-rule="evenodd" fill="#FFFFFF" d="M124.217,142.445c0.452-0.775,0.706-1.211,0.96-1.647
		c0.305,1.084,0.639,2.163,0.891,3.26c0.049,0.216-0.213,0.502-0.332,0.757C125.222,144.012,124.707,143.209,124.217,142.445z"/>
	<path fill-rule="evenodd" clip-rule="evenodd" fill="#FFFFFF" d="M208.767,272.612c-0.159-0.174-0.305-0.334-0.451-0.493
		c0.158-0.14,0.328-0.401,0.47-0.387c0.164,0.018,0.303,0.277,0.453,0.433C209.085,272.31,208.932,272.455,208.767,272.612z"/>
	<path fill-rule="evenodd" clip-rule="evenodd" fill="#FFFFFF" d="M96.375,119.502c-0.164,0.262-0.271,0.434-0.378,0.606
		c-0.142-0.252-0.345-0.49-0.403-0.76c-0.031-0.149,0.181-0.35,0.283-0.528C96.049,119.055,96.22,119.289,96.375,119.502z"/>
	<path fill-rule="evenodd" clip-rule="evenodd" fill="#FFFFFF" d="M233.651,147.113c0,0-0.216-0.08-0.216-0.082
		c0.156,0.681,0.313,1.364,0.47,2.047c-0.104,0.013-0.208,0.027-0.312,0.041C233.612,148.45,233.632,147.781,233.651,147.113z"/>
	<path fill-rule="evenodd" clip-rule="evenodd" fill="#FFFFFF" d="M262.891,220.421c-0.444-0.026-0.896-0.043-1.341-0.105
		c-0.03-0.004-0.04-0.519-0.012-0.523c0.446-0.076,0.9-0.109,1.353-0.151C262.891,219.843,262.891,220.046,262.891,220.421z"/>
	<path fill-rule="evenodd" clip-rule="evenodd" fill="#FFFFFF" d="M168.85,164.729c-0.489-0.505-0.978-1.01-1.467-1.515
		c0.325-0.072,0.922-0.235,0.934-0.202c0.194,0.577,0.316,1.178,0.467,1.764C168.799,164.768,168.85,164.729,168.85,164.729z"/>
	<path fill-rule="evenodd" clip-rule="evenodd" fill="#FFFFFF" d="M231.043,177.887c0.218,0.088,0.427,0.174,0.635,0.259
		c-0.183,0.21-0.341,0.459-0.566,0.604c-0.062,0.04-0.324-0.23-0.495-0.358C230.757,178.226,230.898,178.06,231.043,177.887z"/>
	<path fill-rule="evenodd" clip-rule="evenodd" fill="#FFFFFF" d="M230.643,59.523c0.113,0.379,0.234,0.682,0.278,0.997
		c0.013,0.094-0.191,0.218-0.297,0.33c-0.121-0.302-0.273-0.598-0.343-0.911C230.26,59.848,230.478,59.705,230.643,59.523z"/>
	<path fill-rule="evenodd" clip-rule="evenodd" fill="#FFFFFF" d="M253.418,154.458c1.124,0.413,2.249,0.826,3.368,1.253
		c0.016,0.005-0.038,0.191-0.06,0.293c-1.08-0.54-2.16-1.08-3.242-1.618C253.482,154.389,253.418,154.458,253.418,154.458z"/>
	<path fill-rule="evenodd" clip-rule="evenodd" fill="#FFFFFF" d="M166.835,162.627c-0.508-0.485-0.809-0.773-1.11-1.061
		c0.351-0.193,0.69-0.498,1.059-0.539c0.248-0.028,0.538,0.317,0.809,0.496C167.38,161.833,167.168,162.142,166.835,162.627z"/>
	<path fill-rule="evenodd" clip-rule="evenodd" fill="#FFFFFF" d="M143.277,13.363c-0.58-0.439-0.749-0.568-0.918-0.696
		c0.253-0.196,0.485-0.445,0.771-0.561c0.103-0.042,0.493,0.253,0.478,0.354C143.558,12.789,143.382,13.1,143.277,13.363z"/>
	<path fill-rule="evenodd" clip-rule="evenodd" fill="#FFFFFF" d="M66.157,126.754c-0.307-0.069-0.509-0.116-0.711-0.162
		c0.298-0.089,0.591-0.21,0.895-0.256c0.183-0.028,0.384,0.059,0.577,0.095C66.639,126.55,66.36,126.668,66.157,126.754z"/>
	<path fill-rule="evenodd" clip-rule="evenodd" fill="#FFFFFF" d="M142.283,265.47c-0.437,0.082-0.917,0.272-0.994,0.168
		c-0.208-0.285-0.245-0.695-0.351-1.055c0.306-0.027,0.682-0.173,0.899-0.047C142.051,264.662,142.104,265.063,142.283,265.47z"/>
	<path fill-rule="evenodd" clip-rule="evenodd" fill="#FFFFFF" d="M261.406,227.216c-0.199,0.044-0.394,0.086-0.589,0.129
		c0.028-0.183,0.033-0.375,0.1-0.543c0.023-0.061,0.271-0.109,0.283-0.087C261.287,226.866,261.338,227.038,261.406,227.216z"/>
	<path fill-rule="evenodd" clip-rule="evenodd" fill="#FFFFFF" d="M253.132,165.306c-0.15,0.336-0.232,0.521-0.313,0.705
		c-0.393-0.207-0.794-0.399-1.162-0.642c-0.034-0.022,0.191-0.532,0.208-0.527C252.292,164.971,252.707,165.141,253.132,165.306z"/>
	<path fill-rule="evenodd" clip-rule="evenodd" fill="#FFFFFF" d="M108.121,144.831c0.113,0.28,0.282,0.495,0.231,0.619
		c-0.078,0.187-0.288,0.364-0.482,0.438c-0.085,0.032-0.271-0.2-0.412-0.313C107.667,145.339,107.875,145.105,108.121,144.831z"/>
	<path fill-rule="evenodd" clip-rule="evenodd" fill="#FFFFFF" d="M261.236,245.021c0.096,0.172,0.191,0.344,0.287,0.515
		c-0.165,0.09-0.377,0.289-0.482,0.244c-0.146-0.064-0.21-0.312-0.309-0.481C260.895,245.208,261.059,245.118,261.236,245.021z"/>
	<path fill-rule="evenodd" clip-rule="evenodd" fill="#FFFFFF" d="M256.879,225.397c0.216-0.403,0.433-0.807,0.648-1.21
		c0.134,0.101,0.268,0.201,0.401,0.302c-0.352,0.302-0.703,0.604-1.055,0.904L256.879,225.397z"/>
	<path fill-rule="evenodd" clip-rule="evenodd" fill="#FFFFFF" d="M140.32,276.459c-0.095-0.209-0.25-0.397-0.233-0.568
		c0.009-0.101,0.295-0.173,0.457-0.259c0.042,0.101,0.144,0.226,0.115,0.296C140.582,276.11,140.447,276.268,140.32,276.459z"/>
	<path fill-rule="evenodd" clip-rule="evenodd" fill="#FFFFFF" d="M71.936,127.105c-0.34,0.057-0.636,0.167-0.909,0.124
		c-0.119-0.019-0.188-0.35-0.281-0.54c0.288-0.085,0.573-0.216,0.863-0.23C71.689,126.455,71.786,126.797,71.936,127.105z"/>
	<path fill-rule="evenodd" clip-rule="evenodd" fill="#FFFFFF" d="M96.683,62.352c-0.39,0.5-0.781,1-1.171,1.5
		c-0.072-0.07-0.144-0.141-0.216-0.211c0.487-0.401,0.974-0.804,1.46-1.205L96.683,62.352z"/>
	<path fill-rule="evenodd" clip-rule="evenodd" fill="#FFFFFF" d="M96.756,62.436c0.016-0.454-0.117-0.992,0.083-1.341
		c0.29-0.507,0.819-0.877,1.246-1.305c-0.161,0.513-0.255,1.063-0.503,1.529c-0.208,0.391-0.597,0.686-0.901,1.028
		C96.683,62.352,96.756,62.436,96.756,62.436z"/>
	<path fill-rule="evenodd" clip-rule="evenodd" fill="#FFFFFF" d="M103.25,45.222c-0.336-0.378-0.58-0.589-0.553-0.631
		c0.167-0.27,0.394-0.501,0.602-0.745c0.148,0.178,0.443,0.384,0.414,0.525C103.652,44.666,103.421,44.927,103.25,45.222z"/>
	<path fill-rule="evenodd" clip-rule="evenodd" fill="#FFFFFF" d="M218.424,166.156c0.165,0.177,0.415,0.344,0.39,0.438
		c-0.087,0.325-0.27,0.625-0.416,0.934c-0.176-0.152-0.523-0.356-0.496-0.446C217.999,166.764,218.225,166.486,218.424,166.156z"/>
	<path fill-rule="evenodd" clip-rule="evenodd" fill="#FFFFFF" d="M230.982,146.248c-0.095,0.021-0.215,0.086-0.279,0.05
		c-0.078-0.042-0.109-0.171-0.16-0.261c0.152-0.035,0.304-0.069,0.456-0.104C230.994,146.039,230.988,146.143,230.982,146.248z"/>
	<path fill-rule="evenodd" clip-rule="evenodd" fill="#FFFFFF" d="M227.569,162.16c-0.028-0.15-0.044-0.238-0.061-0.325
		c0.086-0.011,0.173-0.022,0.26-0.033C227.71,161.907,227.652,162.012,227.569,162.16z"/>
	<path fill-rule="evenodd" clip-rule="evenodd" fill="#FFFFFF" d="M248.837,165.267c0.089,0.049,0.178,0.097,0.267,0.144
		c-0.096,0.143-0.183,0.294-0.299,0.418c-0.018,0.019-0.168-0.085-0.257-0.132C248.644,165.554,248.74,165.41,248.837,165.267z"/>
	<path fill-rule="evenodd" clip-rule="evenodd" fill="#FFFFFF" d="M169.361,168.018c-0.508-0.312-1.018-0.624-1.526-0.936
		c0.166-0.133,0.332-0.266,0.498-0.399c0.321,0.469,0.643,0.938,0.964,1.408L169.361,168.018z"/>
	<path fill-rule="evenodd" clip-rule="evenodd" fill="#FFFFFF" d="M256.875,225.393c-0.583-0.084-1.167-0.168-1.75-0.252
		c0.049-0.151,0.098-0.302,0.146-0.453c0.536,0.236,1.072,0.473,1.609,0.709L256.875,225.393z"/>
	<path fill-rule="evenodd" clip-rule="evenodd" fill="#FFFFFF" d="M185.319,255.794c-0.107,0.157-0.196,0.309-0.313,0.436
		c-0.016,0.018-0.238-0.082-0.243-0.138c-0.014-0.18,0.028-0.363,0.049-0.545C184.979,255.629,185.148,255.711,185.319,255.794z"/>
	<path fill-rule="evenodd" clip-rule="evenodd" fill="#FFFFFF" d="M112.132,152.258c-0.198,0.118-0.384,0.229-0.57,0.339
		c-0.077-0.189-0.261-0.425-0.204-0.556c0.071-0.162,0.342-0.236,0.526-0.348C111.966,151.878,112.046,152.063,112.132,152.258z"/>
	<path fill-rule="evenodd" clip-rule="evenodd" fill="#FFFFFF" d="M258.578,144.265c0.574,0.542,1.147,1.083,1.721,1.625
		c-0.133,0.099-0.267,0.198-0.399,0.296c-0.418-0.662-0.835-1.324-1.252-1.986C258.647,144.201,258.578,144.265,258.578,144.265z"/>
	<path fill-rule="evenodd" clip-rule="evenodd" fill="#FFFFFF" d="M169.297,168.091c0.652,0.147,1.305,0.294,1.958,0.441
		c-0.184,0.251-0.367,0.502-0.55,0.753c-0.448-0.422-0.896-0.846-1.344-1.268L169.297,168.091z"/>
	<path fill-rule="evenodd" clip-rule="evenodd" fill="#FFFFFF" d="M191.804,244.66c0.2,0.01,0.399,0.01,0.594,0.041
		c0.024,0.004,0.023,0.173,0.034,0.265c-0.197-0.007-0.396-0.004-0.59-0.031C191.818,244.931,191.817,244.764,191.804,244.66z"/>
	<path fill-rule="evenodd" clip-rule="evenodd" fill="#FFFFFF" d="M80.335,101.154c-0.222,0.311-0.35,0.49-0.477,0.668
		c-0.122-0.259-0.306-0.51-0.341-0.78c-0.019-0.145,0.217-0.324,0.338-0.487C80.023,100.764,80.19,100.974,80.335,101.154z"/>
	<path fill-rule="evenodd" clip-rule="evenodd" fill="#FFFFFF" d="M242.397,76.819c0.167,0.205,0.305,0.373,0.442,0.542
		c-0.142,0.064-0.279,0.162-0.426,0.18c-0.06,0.007-0.205-0.162-0.197-0.24C242.231,77.145,242.325,76.997,242.397,76.819z"/>
	<path fill-rule="evenodd" clip-rule="evenodd" fill="#FFFFFF" d="M205.966,67.702c0.097,0.033,0.241,0.04,0.278,0.105
		c0.043,0.078-0.007,0.207-0.017,0.314c-0.151-0.054-0.302-0.107-0.453-0.16C205.838,67.875,205.902,67.789,205.966,67.702z"/>
	<path fill-rule="evenodd" clip-rule="evenodd" fill="#FFFFFF" d="M122.907,152.9c0.203,0.508,0.429,0.809,0.4,1.084
		c-0.022,0.222-0.352,0.412-0.546,0.616c-0.148-0.282-0.401-0.561-0.411-0.847C122.341,153.529,122.634,153.294,122.907,152.9z"/>
	<path fill-rule="evenodd" clip-rule="evenodd" fill="#FFFFFF" d="M78.711,126.947c0.02-0.086,0.012-0.208,0.066-0.249
		c0.048-0.036,0.164,0.018,0.25,0.032c-0.018,0.087-0.008,0.213-0.062,0.251C78.916,127.018,78.799,126.962,78.711,126.947z"/>
	<path fill-rule="evenodd" clip-rule="evenodd" fill="#FFFFFF" d="M91.333,111.664c-0.086,0.021-0.22,0.086-0.25,0.054
		c-0.064-0.069-0.075-0.187-0.108-0.285c0.128-0.027,0.256-0.055,0.384-0.082C91.351,111.455,91.342,111.559,91.333,111.664z"/>
	<path fill-rule="evenodd" clip-rule="evenodd" fill="#FFFFFF" d="M79.119,108.445c0.118-0.201,0.228-0.387,0.337-0.573
		c0.16,0.112,0.442,0.217,0.45,0.338c0.012,0.184-0.169,0.379-0.268,0.569C79.469,108.67,79.298,108.561,79.119,108.445z"/>
	<path fill-rule="evenodd" clip-rule="evenodd" fill="#FFFFFF" d="M254.407,221.287c-0.266,0.211-0.532,0.423-0.799,0.634
		c0.292-0.186,0.583-0.372,0.879-0.557C254.491,221.365,254.407,221.287,254.407,221.287z"/>
	<path fill-rule="evenodd" clip-rule="evenodd" fill="#FFFFFF" d="M382.253,310.656c-0.033,0.1-0.038,0.242-0.107,0.287
		c-0.071,0.047-0.205-0.004-0.311-0.012c0.057-0.158,0.114-0.318,0.171-0.479C382.088,310.52,382.171,310.588,382.253,310.656z"/>
	<path fill-rule="evenodd" clip-rule="evenodd" fill="#FFFFFF" d="M111.334,146.192c-0.066-0.073-0.19-0.152-0.185-0.218
		c0.008-0.087,0.119-0.165,0.186-0.246c0.065,0.072,0.188,0.15,0.182,0.214C111.507,146.03,111.4,146.109,111.334,146.192z"/>
	<path fill-rule="evenodd" clip-rule="evenodd" fill="#FFFFFF" d="M250.692,129.29c-0.115,0.168-0.222,0.324-0.328,0.479
		c-0.106-0.173-0.236-0.337-0.309-0.524c-0.026-0.066,0.086-0.187,0.136-0.282C250.357,129.072,250.523,129.181,250.692,129.29z"/>
	<path fill-rule="evenodd" clip-rule="evenodd" fill="#FFFFFF" d="M247.814,168.507c-0.131,0.172-0.232,0.432-0.397,0.483
		c-0.125,0.039-0.333-0.188-0.503-0.297c0.121-0.166,0.218-0.431,0.371-0.468C247.426,168.189,247.627,168.398,247.814,168.507z"/>
	<path fill-rule="evenodd" clip-rule="evenodd" fill="#FFFFFF" d="M181.064,267.661c0.066-0.081,0.132-0.161,0.198-0.241
		c0.128,0.117,0.265,0.228,0.374,0.359c0.013,0.015-0.122,0.152-0.188,0.232C181.319,267.895,181.191,267.778,181.064,267.661z"/>
	<path fill-rule="evenodd" clip-rule="evenodd" fill="#FFFFFF" d="M171.058,162.522c0.08-0.96,0.158-1.919,0.252-2.891
		c0.015-0.012-0.051,0.019-0.035,0.005c-0.08,0.958-0.177,1.931-0.287,2.911C170.974,162.555,171.058,162.522,171.058,162.522z"/>
	<polygon fill-rule="evenodd" clip-rule="evenodd" fill="#FFFFFF" points="252.091,227.529 252.299,227.423 252.282,227.652 	"/>
	<path fill-rule="evenodd" clip-rule="evenodd" fill="#FFFFFF" d="M222.996,201.402c-0.556,0.125-1.112,0.249-1.668,0.374
		c0.008-0.097,0.011-0.278,0.025-0.279c0.558-0.037,1.118-0.058,1.69-0.073C223.055,201.431,222.996,201.402,222.996,201.402z"/>
	<path fill-rule="evenodd" clip-rule="evenodd" fill="#FFFFFF" d="M171.526,165.893c-0.879-0.395-1.759-0.789-2.658-1.173
		c-0.018,0.01-0.069,0.048-0.084,0.058c0.878,0.405,1.771,0.801,2.664,1.198C171.447,165.976,171.526,165.893,171.526,165.893z"/>
	<path fill-rule="evenodd" clip-rule="evenodd" fill="#FFFFFF" d="M97.249,74.504c-0.024-0.167-0.083-0.3-0.04-0.361
		c0.041-0.059,0.188-0.042,0.288-0.059C97.423,74.209,97.349,74.334,97.249,74.504z"/>
	<path fill-rule="evenodd" clip-rule="evenodd" fill="#FFFFFF" d="M165.367,81.754c-0.64,0.42-1.014,0.858-1.345,0.829
		c-0.333-0.03-0.625-0.526-0.934-0.818c0.323-0.287,0.622-0.756,0.979-0.805C164.374,80.917,164.748,81.352,165.367,81.754z"/>
</g>
</svg>
