<?xml version="1.0" encoding="utf-8"?>
<!-- Generator: Adobe Illustrator 18.1.0, SVG Export Plug-In . SVG Version: 6.00 Build 0)  -->
<!DOCTYPE svg PUBLIC "-//W3C//DTD SVG 1.1//EN" "http://www.w3.org/Graphics/SVG/1.1/DTD/svg11.dtd">
<svg version="1.1" id="Layer_1" xmlns="http://www.w3.org/2000/svg" xmlns:xlink="http://www.w3.org/1999/xlink" x="0px" y="0px"
	 viewBox="151.1 162 309.9 333.7" enable-background="new 151.1 162 309.9 333.7" xml:space="preserve">
<g>
	<path fill="#FFFFFF" d="M377.4,402.7c-47.5,0-95,0-142.4,0c3.6-27.4,29.3-58.2,67.8-59.9C343.7,340.8,373,371.9,377.4,402.7z"/>
	<path fill="#FFFFFF" d="M345.8,294.5c0,21.7-18,39.7-39.7,39.6c-21.8-0.1-39.8-18.1-39.7-39.8c0.1-21.9,17.9-39.6,39.7-39.6
		C328,254.7,345.9,272.6,345.8,294.5z"/>
	<path fill="#FFFFFF" d="M230.9,346.6c-18,0-32.4-14.5-32.4-32.6c0-18,14.5-32.6,32.6-32.6c18,0,32.6,14.5,32.7,32.4
		C263.7,332,249,346.6,230.9,346.6z"/>
	<path fill="#FFFFFF" d="M381.5,346.6c-18.1,0-32.7-14.5-32.7-32.3c0-18.1,14.5-32.7,32.6-32.7c18.2,0,32.6,14.5,32.6,32.9
		C413.9,332.1,399.3,346.6,381.5,346.6z"/>
	<path fill="#FFFFFF" d="M172.4,402.9c3.7-18.7,13.4-32.8,29.6-41.9c17.5-9.8,35.7-10,53.9-2.2c0.1,0.2,0.4,0.5,0.5,0.8
		c-1.4,1.2-2.8,2.2-4.1,3.6c-10,10.4-16.6,22.8-19.4,37c-0.5,2.3-1.4,2.8-3.6,2.8c-18-0.1-36.1,0-54,0
		C174.5,402.9,173.5,402.9,172.4,402.9z"/>
	<path fill="#FFFFFF" d="M439.6,402.8c-0.8,0-1.5,0.1-2.3,0.1c-18.3,0-36.5,0-54.8,0c-1.5,0-2.5-0.2-2.8-2.1
		c-3.2-16-10.7-29.6-22.6-40.7c-0.2-0.2-0.5-0.5-0.9-1.2c17.5-7.6,34.7-7.7,51.7,0.6C424.5,367.7,440.8,389.9,439.6,402.8z"/>
</g>
</svg>
