<?xml version="1.0" encoding="utf-8"?>
<!-- Generator: Adobe Illustrator 18.1.0, SVG Export Plug-In . SVG Version: 6.00 Build 0)  -->
<!DOCTYPE svg PUBLIC "-//W3C//DTD SVG 1.1//EN" "http://www.w3.org/Graphics/SVG/1.1/DTD/svg11.dtd">
<svg version="1.1" id="Layer_1" xmlns="http://www.w3.org/2000/svg" xmlns:xlink="http://www.w3.org/1999/xlink" x="0px" y="0px"
	 viewBox="0 0 53.5 52.8" enable-background="new 0 0 53.5 52.8" xml:space="preserve">
<g>
	<path fill="#FFFFFF" d="M29.6,51.4c-0.6,0.1-1.1,0.2-1.6,0.3c-0.1-0.1-0.2-0.2-0.3-0.2c-0.1,0.1-0.1,0.2-0.2,0.2
		c-0.9,0-1.8,0-2.7,0c-0.2-0.1-0.4-0.2-0.8-0.3c0.1-1,0.3-2,0.3-3c0.1-1-0.2-2.1,0.1-3.1c0.4-1.5,0-3.1,0.3-4.5
		c0.3-1.7,0-3.4,0.3-5.1c0.3-1.6,0-3.2,0.3-4.8c0.4-2.2,0.1-4.3,0.3-6.4c0-0.5,0.2-1,0.4-1.5c-0.4-0.3-0.7-0.5-1-0.8
		c-0.7-0.6-1-1.4-0.7-2.2c0.3-0.9,1.4-1.5,2.5-1.5c0.4,0,0.8,0,1.4,0c0.2,0.2,0.4,0.4,0.7,0.7c0.2,0.3,0.5,0.5,0.7,0.8
		c0,1.4,0,1.4-1.7,2.9c0.6,2.1,0,4.4,0.4,6.5c0.3,1.6,0,3.2,0.3,4.8c0.3,1.8,0,3.5,0.3,5.3c0.3,1.5,0,3,0.3,4.5
		c0.3,1.8,0.1,3.5,0.3,5.3C29.4,49.8,29.6,50.5,29.6,51.4z"/>
	<g>
		<path fill="#FFFFFF" d="M1.2,17.9c0.1,0,0.2-0.1,0.2-0.1c0-0.4,0.1-0.8,0.1-1.2C1.7,15.3,2,14.1,2.4,13c0.3-0.8,0.6-1.7,1-2.5
			C3.7,9.9,5,7.8,5.5,7.1c1-1.3,2-2.5,3.2-3.6c0.9-0.9,1.9-1.6,3-2.4c0.7,1,1.3,2,2,2.9c0,0.1,0,0.2,0,0.3c-0.7,0.4-1.4,1-2.1,1.6
			c-0.7,0.6-1.4,1.2-1.9,2C9.3,8.5,8.8,9,8.4,9.6c-1.2,1.7-2,3.4-2.6,5.2c-0.3,0.8-0.6,1.6-0.6,2.6C4.9,17.9,5.4,18.5,5,19
			c0,0.5,0,1.1,0,1.6c0,0.6-0.1,1.2,0,1.7c0.2,0.8,0.2,1.7,0.4,2.5c0.2,0.8,0.4,1.6,0.7,2.3c0.3,0.9,0.6,1.7,1,2.5
			c0.6,1.1,1.3,2.2,2.1,3.2c0.7,0.9,1.6,1.7,2.4,2.5c0.6,0.6,1.3,1.2,2.1,1.6c0.1,0.1,0.2,0.1,0.3,0.2c-0.7,1.1-1.4,2.2-2.1,3.2
			c-0.4-0.2-0.9-0.4-1.2-0.7c-0.5-0.6-1.3-1-1.8-1.6c-0.4-0.5-1-1-1.4-1.5c-1.2-1.3-2.2-2.7-3.1-4.2c-0.3-0.6-0.6-1.2-1-1.7
			c-0.5-1-0.8-2-1.2-3c-0.3-0.9-0.5-1.9-0.7-2.8c-0.1-0.4-0.1-0.8-0.1-1.2c0,0-0.1-0.1-0.2-0.1C1.2,21.6,1.2,19.8,1.2,17.9z"/>
		<path fill="#FFFFFF" d="M15.7,7.4c0.5,0.7,1,1.4,1.4,2.1c-1.3,1-2.4,1.9-3.3,3.2c-0.8,1.2-1.5,2.4-2,3.8c-0.5,1.4-0.7,2.9-0.7,4.4
			c0,1.5,0.3,2.9,0.8,4.3c0.4,1.2,0.9,2.4,2.1,3.8c0.9,1.2,2,2.2,3.3,3c-0.1,0.4-0.4,0.7-0.6,1.1c-0.2,0.4-0.5,0.7-0.7,1.1
			c-0.4-0.2-0.7-0.4-1-0.7c-0.9-0.7-1.8-1.4-2.4-2.4c-0.4-0.5-0.8-1-1.1-1.5c-0.9-1.4-1.6-2.9-2.1-4.6c-0.2-0.9-0.4-1.8-0.5-2.7
			c-0.1-0.7-0.1-1.3-0.1-2c0-0.4,0.1-0.7,0.2-1.1c0.1-0.4-0.1-0.8,0.2-1.1c0-0.6,0.2-1.2,0.3-1.8c0.2-0.7,0.4-1.3,0.7-1.9
			c0.5-1,0.9-2,1.6-2.9c0.3-0.4,0.6-0.8,0.9-1.2c0.2-0.3,0.6-0.5,0.8-0.9c0.6-0.3,1-0.9,1.6-1.4C15.1,7.9,15.4,7.7,15.7,7.4z"/>
		<path fill="#FFFFFF" d="M19.1,12.5c0.3,0.5,0.6,0.9,0.8,1.3c-0.6,0.6-1.3,1.1-1.8,1.7c-0.5,0.6-0.9,1.3-1.2,2
			c-0.3,0.7-0.5,1.5-0.6,2.2c-0.1,0.8-0.1,1.5,0,2.3c0.1,0.8,0.4,1.5,0.6,2.2c0.3,0.8,0.7,1.4,1.2,1.9c0.5,0.6,1.2,1.1,1.8,1.7
			c-0.2,0.3-0.4,0.7-0.6,1c-0.1,0.1-0.2,0.2-0.4,0.4c-0.8-0.8-1.8-1.5-2.4-2.4c-0.6-0.8-1.1-1.7-1.4-2.8c-0.3-1.1-0.6-2.1-0.6-3.2
			c0-1.1,0.2-2.2,0.6-3.2c0.4-1,0.8-1.9,1.4-2.8C17.3,13.9,18.2,13.2,19.1,12.5z"/>
		<path fill="#FFFFFF" d="M21.6,16.2c0.2,0.3,0.3,0.5,0.5,0.8c-1.3,1-2.1,2.3-2,3.9c0.1,1.6,0.8,2.9,2.2,3.7
			c-0.2,0.3-0.3,0.5-0.5,0.7c-1.4-0.7-2-2-2.5-3.4c-0.1-0.3,0-0.7-0.1-1.1c-0.1-0.3,0.1-0.7,0.1-1.1c0-0.4,0.3-0.7,0.3-1.1
			c0.1-0.4,0.3-0.6,0.5-0.9c0.2-0.3,0.4-0.6,0.6-0.9C20.9,16.7,21.2,16.5,21.6,16.2z"/>
	</g>
	<g>
		<path fill="#FFFFFF" d="M52.3,17.9c-0.1,0-0.2-0.1-0.2-0.1c0-0.4-0.1-0.8-0.1-1.2c-0.2-1.2-0.5-2.4-0.9-3.6
			c-0.3-0.8-0.6-1.7-1-2.5c-0.3-0.7-1.6-2.8-2.1-3.4c-1-1.3-2-2.5-3.2-3.6c-0.9-0.9-1.9-1.6-3-2.4c-0.7,1-1.3,2-2,2.9
			c0,0.1,0,0.2,0,0.3c0.7,0.4,1.4,1,2.1,1.6c0.7,0.6,1.4,1.2,1.9,2c0.4,0.5,0.9,1.1,1.3,1.6c1.2,1.7,2,3.4,2.6,5.2
			c0.3,0.8,0.6,1.6,0.6,2.6c0.4,0.5-0.1,1.1,0.3,1.6c0,0.5,0,1.1,0,1.6c0,0.6,0.1,1.2,0,1.7c-0.2,0.8-0.2,1.7-0.4,2.5
			c-0.2,0.8-0.4,1.6-0.7,2.3c-0.3,0.9-0.6,1.7-1,2.5c-0.6,1.1-1.3,2.2-2.1,3.2c-0.7,0.9-1.6,1.7-2.4,2.5c-0.6,0.6-1.3,1.2-2.1,1.6
			c-0.1,0.1-0.2,0.1-0.3,0.2c0.7,1.1,1.4,2.2,2.1,3.2c0.4-0.2,0.9-0.4,1.2-0.7c0.5-0.6,1.3-1,1.8-1.6c0.4-0.5,1-1,1.4-1.5
			c1.2-1.3,2.2-2.7,3.1-4.2c0.3-0.6,0.6-1.2,1-1.7c0.5-1,0.8-2,1.2-3c0.3-0.9,0.5-1.9,0.7-2.8c0.1-0.4,0.1-0.8,0.1-1.2
			c0,0,0.1-0.1,0.2-0.1C52.3,21.6,52.3,19.8,52.3,17.9z"/>
		<path fill="#FFFFFF" d="M37.8,7.4c-0.5,0.7-1,1.4-1.4,2.1c1.3,1,2.4,1.9,3.3,3.2c0.8,1.2,1.5,2.4,2,3.8c0.5,1.4,0.7,2.9,0.7,4.4
			c0,1.5-0.3,2.9-0.8,4.3c-0.4,1.2-0.9,2.4-2.1,3.8c-0.9,1.2-2,2.2-3.3,3c0.1,0.4,0.4,0.7,0.6,1.1c0.2,0.4,0.5,0.7,0.7,1.1
			c0.4-0.2,0.7-0.4,1-0.7c0.9-0.7,1.8-1.4,2.4-2.4c0.4-0.5,0.8-1,1.1-1.5c0.9-1.4,1.6-2.9,2.1-4.6c0.2-0.9,0.4-1.8,0.5-2.7
			c0.1-0.7,0.1-1.3,0.1-2c0-0.4-0.1-0.7-0.2-1.1c-0.1-0.4,0.1-0.8-0.2-1.1c0-0.6-0.2-1.2-0.3-1.8c-0.2-0.7-0.4-1.3-0.7-1.9
			c-0.5-1-0.9-2-1.6-2.9c-0.3-0.4-0.6-0.8-0.9-1.2c-0.2-0.3-0.6-0.5-0.8-0.9c-0.6-0.3-1-0.9-1.6-1.4C38.4,7.9,38.1,7.7,37.8,7.4z"/>
		<path fill="#FFFFFF" d="M34.4,12.5c-0.3,0.5-0.6,0.9-0.8,1.3c0.6,0.6,1.3,1.1,1.8,1.7c0.5,0.6,0.9,1.3,1.2,2
			c0.3,0.7,0.5,1.5,0.6,2.2c0.1,0.8,0.1,1.5,0,2.3c-0.1,0.8-0.4,1.5-0.6,2.2c-0.3,0.8-0.7,1.4-1.2,1.9c-0.5,0.6-1.2,1.1-1.8,1.7
			c0.2,0.3,0.4,0.7,0.6,1c0.1,0.1,0.2,0.2,0.4,0.4c0.8-0.8,1.8-1.5,2.4-2.4c0.6-0.8,1.1-1.7,1.4-2.8c0.3-1.1,0.6-2.1,0.6-3.2
			c0-1.1-0.2-2.2-0.6-3.2c-0.4-1-0.8-1.9-1.4-2.8C36.2,13.9,35.4,13.2,34.4,12.5z"/>
		<path fill="#FFFFFF" d="M31.9,16.2c-0.2,0.3-0.3,0.5-0.5,0.8c1.3,1,2.1,2.3,2,3.9c-0.1,1.6-0.8,2.9-2.2,3.7
			c0.2,0.3,0.3,0.5,0.5,0.7c1.4-0.7,2-2,2.5-3.4c0.1-0.3,0-0.7,0.1-1.1c0.1-0.3-0.1-0.7-0.1-1.1c0-0.4-0.3-0.7-0.3-1.1
			c-0.1-0.4-0.3-0.6-0.5-0.9c-0.2-0.3-0.4-0.6-0.6-0.9C32.6,16.7,32.3,16.5,31.9,16.2z"/>
	</g>
</g>
</svg>
